<?xml version="1.0" encoding="UTF-8" standalone="no"?>
<!-- Created with Inkscape (http://www.inkscape.org/) -->

<svg
   xmlns:dc="http://purl.org/dc/elements/1.1/"
   xmlns:cc="http://creativecommons.org/ns#"
   xmlns:rdf="http://www.w3.org/1999/02/22-rdf-syntax-ns#"
   xmlns:svg="http://www.w3.org/2000/svg"
   xmlns="http://www.w3.org/2000/svg"
   xmlns:sodipodi="http://sodipodi.sourceforge.net/DTD/sodipodi-0.dtd"
   xmlns:inkscape="http://www.inkscape.org/namespaces/inkscape"
   width="765"
   height="990"
   id="svg2"
   version="1.1"
   inkscape:version="0.48.5 r10040"
   sodipodi:docname="catalog.svg"
   inkscape:export-filename="/home/jacobian/Proyectos/hiperborea/branding/catalog.png"
   inkscape:export-xdpi="180"
   inkscape:export-ydpi="180">
  <defs
     id="defs4" />
  <sodipodi:namedview
     id="base"
     pagecolor="#ffffff"
     bordercolor="#666666"
     borderopacity="1.0"
     inkscape:pageopacity="0.0"
     inkscape:pageshadow="2"
     inkscape:zoom="0.25000001"
     inkscape:cx="3720.4488"
     inkscape:cy="297.69623"
     inkscape:document-units="px"
     inkscape:current-layer="layer1"
     showgrid="false"
     showborder="false"
     inkscape:showpageshadow="false"
     inkscape:window-width="954"
     inkscape:window-height="1055"
     inkscape:window-x="0"
     inkscape:window-y="0"
     inkscape:window-maximized="0"
     showguides="true"
     inkscape:guide-bbox="true">
    <sodipodi:guide
       orientation="0,1"
       position="51.233675,990.01263"
       id="guide3039" />
    <sodipodi:guide
       orientation="0,1"
       position="31.661969,-0.015783634"
       id="guide3041" />
    <sodipodi:guide
       orientation="1,0"
       position="0.0078918168,419.71049"
       id="guide3043" />
    <sodipodi:guide
       orientation="1,0"
       position="765.03272,646.05569"
       id="guide3045" />
    <sodipodi:guide
       orientation="1,0"
       position="1530.0258,638.21438"
       id="guide3117" />
    <sodipodi:guide
       orientation="1,0"
       position="1147.5234,494.69531"
       id="guide3889" />
    <sodipodi:guide
       orientation="0,1"
       position="1147.9453,495"
       id="guide3891" />
    <sodipodi:guide
       orientation="1,0"
       position="2295,625.42187"
       id="guide3893" />
    <sodipodi:guide
       orientation="1,0"
       position="1912.5117,495"
       id="guide3899" />
    <sodipodi:guide
       orientation="1,0"
       position="3060.0117,844.92578"
       id="guide4583" />
    <sodipodi:guide
       orientation="1,0"
       position="3825,813.34375"
       id="guide4605" />
    <sodipodi:guide
       orientation="1,0"
       position="4589.9958,857.43326"
       id="guide4607" />
    <sodipodi:guide
       orientation="1,0"
       position="5355.0312,933.45312"
       id="guide4609" />
    <sodipodi:guide
       orientation="1,0"
       position="6120.0156,962.5625"
       id="guide4611" />
    <sodipodi:guide
       orientation="1,0"
       position="2346.1802,390.32293"
       id="guide3137" />
    <sodipodi:guide
       orientation="1,0"
       position="3115.9999,289.99999"
       id="guide3172" />
    <sodipodi:guide
       orientation="1,0"
       position="3889.0872,495"
       id="guide3221" />
  </sodipodi:namedview>
  <metadata
     id="metadata7">
    <rdf:RDF>
      <cc:Work
         rdf:about="">
        <dc:format>image/svg+xml</dc:format>
        <dc:type
           rdf:resource="http://purl.org/dc/dcmitype/StillImage" />
        <dc:title></dc:title>
      </cc:Work>
    </rdf:RDF>
  </metadata>
  <g
     inkscape:label="pages"
     inkscape:groupmode="layer"
     id="layer1"
     transform="translate(0,-62.36218)">
    <rect
       style="fill:none;stroke:#000000"
       id="rect2985"
       width="765"
       height="990"
       x="0"
       y="62.362183" />
    <rect
       y="62.362183"
       x="765"
       height="990"
       width="765"
       id="rect2987"
       style="fill:none;stroke:#000000" />
    <rect
       y="62.362183"
       x="1530"
       height="990"
       width="765"
       id="rect2989"
       style="fill:none;stroke:#000000" />
    <rect
       style="fill:none;stroke:#000000"
       id="rect2991"
       width="765"
       height="990"
       x="2295"
       y="62.362183"
       inkscape:export-filename="/home/jacobian/Proyectos/hiperborea/branding/text3223.png"
       inkscape:export-xdpi="180"
       inkscape:export-ydpi="180" />
    <rect
       y="62.362183"
       x="3060"
       height="990"
       width="765"
       id="rect2993"
       style="fill:none;stroke:#000000"
       inkscape:export-filename="/home/jacobian/Proyectos/hiperborea/branding/text3223.png"
       inkscape:export-xdpi="180"
       inkscape:export-ydpi="180" />
    <rect
       style="fill:none;stroke:#000000"
       id="rect2995"
       width="765"
       height="990"
       x="3825"
       y="62.362183"
       inkscape:export-filename="/home/jacobian/Proyectos/hiperborea/branding/text3223.png"
       inkscape:export-xdpi="180"
       inkscape:export-ydpi="180" />
    <rect
       style="fill:none;stroke:#000000"
       id="rect2997"
       width="765"
       height="990"
       x="4590"
       y="62.362183" />
    <rect
       y="62.362183"
       x="5355"
       height="990"
       width="765"
       id="rect2999"
       style="fill:none;stroke:#000000" />
  </g>
  <g
     inkscape:groupmode="layer"
     id="layer4"
     inkscape:label="page 4">
    <rect
       y="-0.012630644"
       x="2295"
       height="120"
       width="765.01172"
       id="rect4541"
       style="fill:#002255;fill-opacity:1;fill-rule:evenodd;stroke:none"
       inkscape:export-filename="/home/jacobian/Proyectos/hiperborea/branding/text3223.png"
       inkscape:export-xdpi="180"
       inkscape:export-ydpi="180" />
    <g
       style="display:inline"
       id="g3003"
       transform="matrix(0.38847214,0,0,0.38847214,2340.0622,-357.6648)"
       inkscape:export-filename="/home/jacobian/Proyectos/hiperborea/branding/text3223.png"
       inkscape:export-xdpi="180"
       inkscape:export-ydpi="180">
      <circle
         style="fill:#ffffff"
         id="circle3"
         r="1.649"
         cy="28.476999"
         cx="14.47"
         sodipodi:cx="14.47"
         sodipodi:cy="28.476999"
         sodipodi:rx="1.649"
         sodipodi:ry="1.649"
         transform="matrix(4.0923629,0,0,4.0923629,-3.9845345,954.73717)"
         d="m 16.119,28.476999 c 0,0.910718 -0.738282,1.649 -1.649,1.649 -0.910717,0 -1.649,-0.738282 -1.649,-1.649 0,-0.910717 0.738283,-1.649 1.649,-1.649 0.910718,0 1.649,0.738283 1.649,1.649 z" />
      <circle
         style="fill:#ffffff"
         id="circle5"
         r="1.65"
         cy="28.476999"
         cx="23.681"
         sodipodi:cx="23.681"
         sodipodi:cy="28.476999"
         sodipodi:rx="1.65"
         sodipodi:ry="1.65"
         transform="matrix(4.0923629,0,0,4.0923629,-3.9845345,954.73717)"
         d="m 25.331,28.476999 c 0,0.91127 -0.73873,1.65 -1.65,1.65 -0.91127,0 -1.65,-0.73873 -1.65,-1.65 0,-0.91127 0.73873,-1.65 1.65,-1.65 0.91127,0 1.65,0.73873 1.65,1.65 z" />
      <circle
         style="fill:#ffffff"
         id="circle7"
         r="1.65"
         cy="28.476999"
         cx="32.891998"
         sodipodi:cx="32.891998"
         sodipodi:cy="28.476999"
         sodipodi:rx="1.65"
         sodipodi:ry="1.65"
         transform="matrix(4.0923629,0,0,4.0923629,-3.9845345,954.73717)"
         d="m 34.541998,28.476999 c 0,0.91127 -0.73873,1.65 -1.65,1.65 -0.91127,0 -1.65,-0.73873 -1.65,-1.65 0,-0.91127 0.73873,-1.65 1.65,-1.65 0.91127,0 1.65,0.73873 1.65,1.65 z" />
      <circle
         style="fill:#ffffff"
         id="circle9"
         r="1.65"
         cy="28.476999"
         cx="42.103001"
         sodipodi:cx="42.103001"
         sodipodi:cy="28.476999"
         sodipodi:rx="1.65"
         sodipodi:ry="1.65"
         transform="matrix(4.0923629,0,0,4.0923629,-3.9845345,954.73717)"
         d="m 43.753001,28.476999 c 0,0.91127 -0.738731,1.65 -1.65,1.65 -0.91127,0 -1.65,-0.73873 -1.65,-1.65 0,-0.91127 0.73873,-1.65 1.65,-1.65 0.911269,0 1.65,0.73873 1.65,1.65 z" />
      <path
         style="fill:#ffffff"
         id="path11-7"
         d="m 30.27673,1071.7624 v -0.9658 c 0,-15.8497 12.890943,-28.7447 28.740664,-28.7447 H 194.64649 c 1.35456,0 2.80326,0.1232 4.42793,0.3764 l 0.18416,0.03 0.15953,-0.098 c 4.92311,-2.9383 10.56649,-4.4934 16.31215,-4.4934 2.08712,0 4.15785,0.1997 6.15492,0.5935 l 1.96024,0.3807 -1.53055,-1.2768 c -7.7591,-6.4742 -17.58897,-10.0387 -27.66844,-10.0387 H 59.017394 c -23.858476,0 -43.268552,19.4101 -43.268552,43.2687 v 0.9656 c 0,23.8585 19.410076,43.2686 43.268552,43.2686 H 177.79822 v -14.5197 H 59.017394 c -15.849721,0 -28.740664,-12.895 -28.740664,-28.7447 z"
         inkscape:connector-curvature="0" />
      <path
         style="fill:#ffffff"
         id="path13"
         d="m 243.85714,1084.8335 h -3.55625 v -17.9982 c 0,-12.7355 -11.01254,-23.1015 -24.56646,-23.1015 -13.558,0 -24.57872,10.362 -24.57872,23.1015 v 17.9982 c 0,0 -1.59194,0 -3.55628,0 -1.96841,0 -3.56445,2.1567 -3.56445,4.8331 v 28.1921 c 0,2.6724 2.17714,4.8454 4.83309,4.8454 h 53.72453 c 2.67232,0 4.83309,-2.173 4.83309,-4.8454 v -28.1921 c -0.004,-2.6764 -1.59193,-4.8331 -3.56855,-4.8331 z m -28.12271,23.7275 c -3.33936,0 -6.0485,-2.7174 -6.0485,-6.0568 0,-3.3393 2.70914,-6.0444 6.0485,-6.0444 3.33937,0 6.04852,2.701 6.04852,6.0444 0,3.3394 -2.70505,6.0568 -6.04852,6.0568 z m 16.52497,-23.7275 h -33.04175 v -17.9982 c 0,-8.2871 7.40718,-15.0395 16.51678,-15.0395 9.10141,0 16.52497,6.7483 16.52497,15.0395 v 17.9982 z"
         inkscape:connector-curvature="0" />
    </g>
    <text
       xml:space="preserve"
       style="font-size:37.64184952px;font-style:normal;font-variant:normal;font-weight:500;font-stretch:normal;text-align:start;line-height:125%;letter-spacing:0px;word-spacing:0px;writing-mode:lr-tb;text-anchor:start;fill:#ffffff;fill-opacity:1;stroke:none;font-family:GeosansLight;-inkscape-font-specification:GeosansLight Medium"
       x="2488.3789"
       y="70.320061"
       id="text4561"
       sodipodi:linespacing="125%"
       inkscape:export-filename="/home/jacobian/Proyectos/hiperborea/branding/text3223.png"
       inkscape:export-xdpi="180"
       inkscape:export-ydpi="180"><tspan
         sodipodi:role="line"
         id="tspan4563"
         x="2488.3789"
         y="70.320061">Seguridad Informática</tspan></text>
    <rect
       style="fill:#002255;fill-opacity:1;fill-rule:evenodd;stroke:none"
       id="rect4585"
       width="765.01172"
       height="120"
       x="3060.0117"
       y="-0.012630644"
       inkscape:export-filename="/home/jacobian/Proyectos/hiperborea/branding/text3223.png"
       inkscape:export-xdpi="180"
       inkscape:export-ydpi="180" />
    <rect
       y="-0.012630644"
       x="3824.9841"
       height="120"
       width="765.01172"
       id="rect4613"
       style="fill:#002255;fill-opacity:1;fill-rule:evenodd;stroke:none"
       inkscape:export-filename="/home/jacobian/Proyectos/hiperborea/branding/text3223.png"
       inkscape:export-xdpi="180"
       inkscape:export-ydpi="180" />
    <text
       sodipodi:linespacing="125%"
       id="text4601"
       y="73.76429"
       x="4031.4817"
       style="font-size:37.64184952px;font-style:normal;font-variant:normal;font-weight:500;font-stretch:normal;text-align:start;line-height:125%;letter-spacing:0px;word-spacing:0px;writing-mode:lr-tb;text-anchor:start;fill:#ffffff;fill-opacity:1;stroke:none;font-family:GeosansLight;-inkscape-font-specification:GeosansLight Medium"
       xml:space="preserve"
       inkscape:export-filename="/home/jacobian/Proyectos/hiperborea/branding/text3223.png"
       inkscape:export-xdpi="180"
       inkscape:export-ydpi="180"><tspan
         y="73.76429"
         x="4031.4817"
         id="tspan4603"
         sodipodi:role="line">Desarrollo de Sistemas</tspan></text>
    <g
       transform="matrix(1.6835725,0,0,1.6835725,3886.9979,17.898057)"
       id="Layer_64"
       style="fill:#ffffff;display:inline"
       inkscape:export-filename="/home/jacobian/Proyectos/hiperborea/branding/text3223.png"
       inkscape:export-xdpi="180"
       inkscape:export-ydpi="180">
      <g
         id="g66"
         style="fill:#ffffff">
        <path
           inkscape:connector-curvature="0"
           d="M 1.241,43.616 H 19.863 V 15.681 H 1.241 v 27.935 z m 9.704,-1.4 c -0.496,0 -0.897,-0.405 -0.897,-0.899 0,-0.495 0.401,-0.897 0.897,-0.897 0.496,0 0.898,0.402 0.898,0.897 10e-4,0.494 -0.402,0.899 -0.898,0.899 z M 3.934,18.373 H 17.172 L 17.171,38.984 H 3.934 V 18.373 z"
           id="path68"
           style="fill:#ffffff" />
        <polygon
           points="42.923,21.122 42.923,6.384 7.822,6.384 7.822,14.487 10.451,14.487 10.451,9.012 40.293,9.012 40.293,21.122 "
           id="polygon70"
           style="fill:#ffffff" />
        <rect
           x="21.063"
           y="26.899"
           width="13.829"
           height="2.628"
           id="rect72"
           style="fill:#ffffff" />
        <path
           inkscape:connector-curvature="0"
           d="M 36.252,22.142 V 43.18 H 48.759 V 22.142 H 36.252 z m 6.531,0.871 c 0.167,0 0.302,0.135 0.302,0.302 0,0.166 -0.135,0.303 -0.302,0.303 -0.167,0 -0.302,-0.137 -0.302,-0.303 0,-0.168 0.135,-0.302 0.302,-0.302 z m -1.799,1.009 h 3.598 v 0.289 h -3.598 v -0.289 z m 1.681,18.249 c -0.398,0 -0.721,-0.323 -0.721,-0.722 0,-0.397 0.322,-0.721 0.721,-0.721 0.397,0 0.721,0.323 0.721,0.721 0,0.399 -0.323,0.722 -0.721,0.722 z m 4.087,-2.477 c -3.248,0.018 -6.883,0.03 -8.493,0.017 V 25.346 l 8.493,-0.002 v 14.45 z"
           id="path74"
           style="fill:#ffffff" />
        <polygon
           points="21.063,30.603 21.063,32.197 30.333,32.197 30.333,32.894 21.063,32.894 21.063,34.335 34.893,34.335 34.893,30.603 25.87,30.603 24.869,30.603 "
           id="polygon76"
           style="fill:#ffffff" />
      </g>
    </g>
    <text
       xml:space="preserve"
       style="font-size:37.64184952px;font-style:normal;font-variant:normal;font-weight:500;font-stretch:normal;text-align:start;line-height:125%;letter-spacing:0px;word-spacing:0px;writing-mode:lr-tb;text-anchor:start;fill:#ffffff;fill-opacity:1;stroke:none;font-family:GeosansLight;-inkscape-font-specification:GeosansLight Medium"
       x="3236.2153"
       y="73.820747"
       id="text4615"
       sodipodi:linespacing="125%"
       inkscape:export-filename="/home/jacobian/Proyectos/hiperborea/branding/text3223.png"
       inkscape:export-xdpi="180"
       inkscape:export-ydpi="180"><tspan
         sodipodi:role="line"
         id="tspan4617"
         x="3236.2153"
         y="73.820747">Infraestructura IT</tspan></text>
    <path
       style="fill:#ffffff;fill-opacity:1;fill-rule:evenodd;stroke:none;display:inline"
       d="m 3122.1701,19.987369 c -3.4183,0 -6.1702,2.75195 -6.1702,6.17028 l 0,67.65944 c 0,3.41832 2.7519,6.17028 6.1702,6.17028 l 32.572,0 c 3.4183,0 6.1702,-2.75196 6.1702,-6.17028 l 0,-67.65944 c 0,-3.41833 -2.7519,-6.17028 -6.1702,-6.17028 l -32.572,0 z m 1.2697,8.62652 30.0326,0 c 1.0536,0 1.8986,0.84496 1.8986,1.89855 0,1.05359 -0.845,1.89854 -1.8986,1.89854 l -30.0326,0 c -1.0536,0 -1.9104,-0.84495 -1.9104,-1.89854 0,-1.05359 0.8568,-1.89855 1.9104,-1.89855 z m 0,8.7333 30.0326,0 c 1.0536,0 1.8986,0.84495 1.8986,1.89856 0,1.05358 -0.845,1.89854 -1.8986,1.89854 l -30.0326,0 c -1.0536,0 -1.9104,-0.84496 -1.9104,-1.89854 0,-1.05361 0.8568,-1.89856 1.9104,-1.89856 z m 0,8.63839 30.0326,0 c 1.0536,0 1.8986,0.84494 1.8986,1.89855 0,1.05362 -0.845,1.89855 -1.8986,1.89855 l -30.0326,0 c -1.0536,0 -1.9104,-0.84493 -1.9104,-1.89855 0,-1.05361 0.8568,-1.89855 1.9104,-1.89855 z m 28.9528,12.82708 c 1.6468,0 2.9784,1.33152 2.9784,2.97831 0,1.6468 -1.3316,2.97838 -2.9784,2.97838 -1.6468,0 -2.9783,-1.33154 -2.9783,-2.97838 0,-1.64679 1.3315,-2.97831 2.9783,-2.97831 z m -30.0563,14.9866 c 0.447,0 0.8068,0.35989 0.8068,0.80689 l 0,19.17535 c 0,0.44702 -0.3598,0.80683 -0.8068,0.80683 -0.4471,0 -0.8069,-0.35981 -0.8069,-0.80683 l 0,-19.17535 c 0,-0.447 0.3598,-0.80689 0.8069,-0.80689 z m 5.3752,0 c 0.447,0 0.8069,0.35989 0.8069,0.80689 l 0,19.17535 c 0,0.44702 -0.3599,0.80683 -0.8069,0.80683 -0.447,0 -0.8069,-0.35981 -0.8069,-0.80683 l 0,-19.17535 c 0,-0.447 0.3599,-0.80689 0.8069,-0.80689 z m 5.3753,0 c 0.447,0 0.8069,0.35989 0.8069,0.80689 l 0,19.17535 c 0,0.44702 -0.3599,0.80683 -0.8069,0.80683 -0.447,0 -0.8069,-0.35981 -0.8069,-0.80683 l 0,-19.17535 c 0,-0.447 0.3599,-0.80689 0.8069,-0.80689 z m 5.3634,0 c 0.447,0 0.8069,0.35989 0.8069,0.80689 l 0,19.17535 c 0,0.44702 -0.3599,0.80683 -0.8069,0.80683 -0.447,0 -0.8069,-0.35981 -0.8069,-0.80683 l 0,-19.17535 c 0,-0.447 0.3599,-0.80689 0.8069,-0.80689 z m 5.3752,0 c 0.447,0 0.8069,0.35989 0.8069,0.80689 l 0,19.17535 c 0,0.44702 -0.3599,0.80683 -0.8069,0.80683 -0.447,0 -0.8069,-0.35981 -0.8069,-0.80683 l 0,-19.17535 c 0,-0.447 0.3599,-0.80689 0.8069,-0.80689 z m 5.3753,0 c 0.447,0 0.8069,0.35989 0.8069,0.80689 l 0,19.17535 c 0,0.44702 -0.3599,0.80683 -0.8069,0.80683 -0.447,0 -0.8069,-0.35981 -0.8069,-0.80683 l 0,-19.17535 c 0,-0.447 0.3599,-0.80689 0.8069,-0.80689 z m 5.3634,0 c 0.447,0 0.8069,0.35989 0.8069,0.80689 l 0,19.17535 c 0,0.44702 -0.3599,0.80683 -0.8069,0.80683 -0.447,0 -0.8069,-0.35981 -0.8069,-0.80683 l 0,-19.17535 c 0,-0.447 0.3599,-0.80689 0.8069,-0.80689 z"
       id="rect3006-3"
       inkscape:connector-curvature="0"
       inkscape:export-filename="/home/jacobian/Proyectos/hiperborea/branding/text3223.png"
       inkscape:export-xdpi="180"
       inkscape:export-ydpi="180" />
    <flowRoot
       xml:space="preserve"
       id="flowRoot4619"
       style="font-size:30px;font-style:normal;font-variant:normal;font-weight:normal;font-stretch:normal;line-height:125%;letter-spacing:0px;word-spacing:0px;fill:#000000;fill-opacity:1;stroke:none;font-family:Droid Sans Mono;-inkscape-font-specification:Droid Sans Mono"
       transform="translate(9,3)"
       inkscape:export-filename="/home/jacobian/Proyectos/hiperborea/branding/text3223.png"
       inkscape:export-xdpi="180"
       inkscape:export-ydpi="180"><flowRegion
         id="flowRegion4621"><rect
           id="rect4623"
           width="534.57666"
           height="358"
           x="2309"
           y="134" /></flowRegion><flowPara
         id="flowPara4625"
         style="font-size:18px;font-style:normal;font-variant:normal;font-weight:normal;font-stretch:normal;text-align:justify;line-height:125%;writing-mode:lr-tb;text-anchor:start;font-family:Alte Haas Grotesk;-inkscape-font-specification:Alte Haas Grotesk">Para garantizar la seguridad de sus sistemas se requiere de un conjunto de métodos y herramientas destinados a proteger la información, es aquí donde entran nuestros servicios.</flowPara><flowPara
         id="flowPara4627"
         style="font-size:18px;font-style:normal;font-variant:normal;font-weight:normal;font-stretch:normal;text-align:justify;line-height:125%;writing-mode:lr-tb;text-anchor:start;font-family:Alte Haas Grotesk;-inkscape-font-specification:Alte Haas Grotesk" /><flowPara
         id="flowPara4629"
         style="font-size:18px;font-style:normal;font-variant:normal;font-weight:normal;font-stretch:normal;text-align:justify;line-height:125%;writing-mode:lr-tb;text-anchor:start;font-family:Alte Haas Grotesk;-inkscape-font-specification:Alte Haas Grotesk">Estos están orientados a la seguridad informática aplicando una gran variedad de métodos para realizar pruebas, incluyendo tácticas de ingeniería social, uso de herramientas de hacking, uso de códigos que explotan vulnerabilidades conocidas.</flowPara><flowPara
         id="flowPara4631"
         style="font-size:18px;font-style:normal;font-variant:normal;font-weight:normal;font-stretch:normal;text-align:justify;line-height:125%;writing-mode:lr-tb;text-anchor:start;font-family:Alte Haas Grotesk;-inkscape-font-specification:Alte Haas Grotesk" /><flowPara
         id="flowPara4633"
         style="font-size:18px;font-style:normal;font-variant:normal;font-weight:normal;font-stretch:normal;text-align:justify;line-height:125%;writing-mode:lr-tb;text-anchor:start;font-family:Alte Haas Grotesk;-inkscape-font-specification:Alte Haas Grotesk">Desde el punto de vista de un atacante real, que conlleven a vulnerar la seguridad y entrar a las áreas críticas de las organizaciones.</flowPara></flowRoot>    <flowRoot
       transform="translate(775,3)"
       style="font-size:30px;font-style:normal;font-variant:normal;font-weight:normal;font-stretch:normal;line-height:125%;letter-spacing:0px;word-spacing:0px;fill:#000000;fill-opacity:1;stroke:none;font-family:Droid Sans Mono;-inkscape-font-specification:Droid Sans Mono"
       id="flowRoot4635"
       xml:space="preserve"
       inkscape:export-filename="/home/jacobian/Proyectos/hiperborea/branding/text3223.png"
       inkscape:export-xdpi="180"
       inkscape:export-ydpi="180"><flowRegion
         id="flowRegion4637"><rect
           y="134"
           x="2309"
           height="486.78052"
           width="492.57666"
           id="rect4639" /></flowRegion><flowPara
         style="font-size:18px;font-style:normal;font-variant:normal;font-weight:normal;font-stretch:normal;text-align:justify;line-height:125%;writing-mode:lr-tb;text-anchor:start;font-family:Alte Haas Grotesk;-inkscape-font-specification:Alte Haas Grotesk"
         id="flowPara4649">Cuando su negocio o infraestructura técnica requiere funcionalidad adicional, Hiperbórea tiene la capacidad de realizar desarrollo de aplicaciones y asistencia especializada.</flowPara><flowPara
         style="font-size:18px;font-style:normal;font-variant:normal;font-weight:normal;font-stretch:normal;text-align:justify;line-height:125%;writing-mode:lr-tb;text-anchor:start;font-family:Alte Haas Grotesk;-inkscape-font-specification:Alte Haas Grotesk"
         id="flowPara4681" /><flowPara
         style="font-size:18px;font-style:normal;font-variant:normal;font-weight:normal;font-stretch:normal;text-align:justify;line-height:125%;writing-mode:lr-tb;text-anchor:start;font-family:Alte Haas Grotesk;-inkscape-font-specification:Alte Haas Grotesk"
         id="flowPara4683">Ya sea que esté integrando con un tercero o un sistema propietario o trata de ampliar su solución para satisfacer una oportunidad de negocio específica.</flowPara><flowPara
         style="font-size:18px;font-style:normal;font-variant:normal;font-weight:normal;font-stretch:normal;text-align:justify;line-height:125%;writing-mode:lr-tb;text-anchor:start;font-family:Alte Haas Grotesk;-inkscape-font-specification:Alte Haas Grotesk"
         id="flowPara4685" /><flowPara
         style="font-size:18px;font-style:normal;font-variant:normal;font-weight:normal;font-stretch:normal;text-align:justify;line-height:125%;writing-mode:lr-tb;text-anchor:start;font-family:Alte Haas Grotesk;-inkscape-font-specification:Alte Haas Grotesk"
         id="flowPara4687">Nosotros trabajamos junto a usted para crear un entorno de seguridad robusto y confiable.</flowPara><flowPara
         style="font-size:18px;font-style:normal;font-variant:normal;font-weight:normal;font-stretch:normal;text-align:justify;line-height:125%;writing-mode:lr-tb;text-anchor:start;font-family:Alte Haas Grotesk;-inkscape-font-specification:Alte Haas Grotesk"
         id="flowPara4689" /><flowPara
         style="font-size:18px;font-style:normal;font-variant:normal;font-weight:normal;font-stretch:normal;text-align:justify;line-height:125%;writing-mode:lr-tb;text-anchor:start;font-family:Alte Haas Grotesk;-inkscape-font-specification:Alte Haas Grotesk"
         id="flowPara4691">Esta funcionalidad personalizada puede desempeñar un papel fundamental en la ampliación de su solución de seguridad, que le permita integrarse con éxito con otros sistemas e infraestructura.</flowPara><flowPara
         style="font-size:18px;font-style:normal;font-variant:normal;font-weight:normal;font-stretch:normal;text-align:justify;line-height:125%;writing-mode:lr-tb;text-anchor:start;font-family:Alte Haas Grotesk;-inkscape-font-specification:Alte Haas Grotesk"
         id="flowPara4693" /><flowPara
         style="font-size:18px;font-style:normal;font-variant:normal;font-weight:normal;font-stretch:normal;text-align:justify;line-height:125%;writing-mode:lr-tb;text-anchor:start;font-family:Alte Haas Grotesk;-inkscape-font-specification:Alte Haas Grotesk"
         id="flowPara4695">También puede utilizar nuestros servicios para aumentar la productividad mediante la adición de capacidades de automatización que permitirá a su organización aprovechar nuevas oportunidades de negocio.</flowPara></flowRoot>    <flowRoot
       xml:space="preserve"
       id="flowRoot4651"
       style="font-size:30px;font-style:normal;font-variant:normal;font-weight:normal;font-stretch:normal;line-height:125%;letter-spacing:0px;word-spacing:0px;fill:#000000;fill-opacity:1;stroke:none;font-family:Droid Sans Mono;-inkscape-font-specification:Droid Sans Mono"
       transform="translate(1538,3)"
       inkscape:export-filename="/home/jacobian/Proyectos/hiperborea/branding/text3223.png"
       inkscape:export-xdpi="180"
       inkscape:export-ydpi="180"><flowRegion
         id="flowRegion4653"><rect
           id="rect4655"
           width="419.06195"
           height="358"
           x="2309"
           y="134" /></flowRegion><flowPara
         style="font-size:18px;font-style:normal;font-variant:normal;font-weight:normal;font-stretch:normal;text-align:justify;line-height:125%;writing-mode:lr-tb;text-anchor:start;font-family:Alte Haas Grotesk;-inkscape-font-specification:Alte Haas Grotesk"
         id="flowPara4717">Se centra en la capacidad operativa de la infraestructura IT, que son esenciales para el seguimiento de las condiciones de seguridad o de cumplimiento critico.</flowPara><flowPara
         style="font-size:18px;font-style:normal;font-variant:normal;font-weight:normal;font-stretch:normal;text-align:justify;line-height:125%;writing-mode:lr-tb;text-anchor:start;font-family:Alte Haas Grotesk;-inkscape-font-specification:Alte Haas Grotesk"
         id="flowPara4733" /><flowPara
         style="font-size:18px;font-style:normal;font-variant:normal;font-weight:normal;font-stretch:normal;text-align:justify;line-height:125%;writing-mode:lr-tb;text-anchor:start;font-family:Alte Haas Grotesk;-inkscape-font-specification:Alte Haas Grotesk"
         id="flowPara4735">Nuestra responsabilidad es diseñar, implementar, ejecutar y asegurar el correcto funcionamiento de su infraestructura IT.</flowPara></flowRoot>  </g>
  <g
     inkscape:groupmode="layer"
     id="layer3"
     inkscape:label="page 3"
     style="display:inline">
    <flowRoot
       xml:space="preserve"
       id="flowRoot3039"
       style="font-size:18px;font-style:normal;font-variant:normal;font-weight:normal;font-stretch:normal;text-align:justify;line-height:125%;letter-spacing:0px;word-spacing:0px;writing-mode:lr-tb;text-anchor:start;fill:#000000;fill-opacity:1;stroke:none;font-family:Alte Haas Grotesk;-inkscape-font-specification:Alte Haas Grotesk"
       transform="translate(726.79474,21.722437)"><flowRegion
         id="flowRegion3041"><rect
           id="rect3043"
           width="345.71271"
           height="891.91187"
           x="821.35217"
           y="42.048439"
           style="font-size:18px;font-style:normal;font-variant:normal;font-weight:normal;font-stretch:normal;text-align:justify;line-height:125%;writing-mode:lr-tb;text-anchor:start;font-family:Alte Haas Grotesk;-inkscape-font-specification:Alte Haas Grotesk" /></flowRegion><flowPara
         style="font-size:18px;font-style:normal;font-variant:normal;font-weight:normal;font-stretch:normal;text-align:justify;line-height:125%;writing-mode:lr-tb;text-anchor:start;font-family:Alte Haas Grotesk;-inkscape-font-specification:Alte Haas Grotesk"
         id="flowPara3082">Somos la compañía que provee soluciones de seguridad de la información, que ayudan a nuestros clientes a resolver los desafíos de seguridad más complejos y sensibles, detección de fraudes, y protección de datos, que permiten mitigar los riesgos, garantizar el cumplimiento, y acelerar los objetivos de su negocio.</flowPara><flowPara
         style="font-size:18px;font-style:normal;font-variant:normal;font-weight:normal;font-stretch:normal;text-align:justify;line-height:125%;writing-mode:lr-tb;text-anchor:start;font-family:Alte Haas Grotesk;-inkscape-font-specification:Alte Haas Grotesk"
         id="flowPara3945" /><flowPara
         style="font-size:18px;font-style:normal;font-variant:normal;font-weight:normal;font-stretch:normal;text-align:justify;line-height:125%;writing-mode:lr-tb;text-anchor:start;font-family:Alte Haas Grotesk;-inkscape-font-specification:Alte Haas Grotesk"
         id="flowPara3947">Nosotros utilizamos las mejores prácticas en infraestructura IT, ademas ofrecemos servicios de consultoría, servicios online y conferencias diseñadas para ayudar a nuestros clientes a obtener un verdadero soporte para su empresa lo que les asegurará rendimientos mayores.</flowPara><flowPara
         style="font-size:18px;font-style:normal;font-variant:normal;font-weight:normal;font-stretch:normal;text-align:justify;line-height:125%;writing-mode:lr-tb;text-anchor:start;font-family:Alte Haas Grotesk;-inkscape-font-specification:Alte Haas Grotesk"
         id="flowPara3949" /><flowPara
         style="font-size:18px;font-style:normal;font-variant:normal;font-weight:normal;font-stretch:normal;text-align:justify;line-height:125%;writing-mode:lr-tb;text-anchor:start;font-family:Alte Haas Grotesk;-inkscape-font-specification:Alte Haas Grotesk"
         id="flowPara3951">Nosotros hemos adaptado los servicios a la cultura de la región, lo cual los hace más eficientes.</flowPara><flowPara
         style="font-size:18px;font-style:normal;font-variant:normal;font-weight:normal;font-stretch:normal;text-align:justify;line-height:125%;writing-mode:lr-tb;text-anchor:start;font-family:Alte Haas Grotesk;-inkscape-font-specification:Alte Haas Grotesk"
         id="flowPara3953" /><flowPara
         style="font-size:18px;font-style:normal;font-variant:normal;font-weight:normal;font-stretch:normal;text-align:justify;line-height:125%;writing-mode:lr-tb;text-anchor:start;font-family:Alte Haas Grotesk;-inkscape-font-specification:Alte Haas Grotesk"
         id="flowPara3955">Para apoyar a su organización tanto local como globalmente, contamos con un amplio abanico de servicios que les podrá ayudar a solucionar los problemas mas exigentes, para así poder alcanzar sus objetivos.</flowPara></flowRoot>    <rect
       style="fill:#002255;fill-opacity:1;fill-rule:evenodd;stroke:none"
       id="rect3961"
       width="139.3"
       height="50.91169"
       x="1530.0258"
       y="-0.01263" />
    <text
       xml:space="preserve"
       style="font-size:30px;font-style:normal;font-variant:normal;font-weight:500;font-stretch:normal;text-align:start;line-height:125%;letter-spacing:0px;word-spacing:0px;writing-mode:lr-tb;text-anchor:start;fill:#ffffff;fill-opacity:1;stroke:none;font-family:GeosansLight;-inkscape-font-specification:GeosansLight Medium"
       x="1548.3734"
       y="36.048214"
       id="text3957"
       sodipodi:linespacing="125%"><tspan
         sodipodi:role="line"
         id="tspan3959"
         x="1548.3734"
         y="36.048214">Nosotros</tspan></text>
    <rect
       y="495"
       x="1912.5117"
       height="50.911682"
       width="232.30005"
       id="rect3976"
       style="fill:#002255;fill-opacity:1;fill-rule:evenodd;stroke:none" />
    <text
       sodipodi:linespacing="125%"
       id="text3978"
       y="531.06085"
       x="1930.8594"
       style="font-size:30px;font-style:normal;font-variant:normal;font-weight:500;font-stretch:normal;text-align:start;line-height:125%;letter-spacing:0px;word-spacing:0px;writing-mode:lr-tb;text-anchor:start;fill:#ffffff;fill-opacity:1;stroke:none;font-family:GeosansLight;-inkscape-font-specification:GeosansLight Medium"
       xml:space="preserve"><tspan
         y="531.06085"
         x="1930.8594"
         id="tspan3980"
         sodipodi:role="line">Somos diferentes</tspan></text>
    <flowRoot
       transform="translate(1108.6325,518.26912)"
       style="font-size:18px;font-style:normal;font-variant:normal;font-weight:normal;font-stretch:normal;text-align:justify;line-height:125%;letter-spacing:0px;word-spacing:0px;writing-mode:lr-tb;text-anchor:start;fill:#000000;fill-opacity:1;stroke:none;font-family:Alte Haas Grotesk;-inkscape-font-specification:Alte Haas Grotesk"
       id="flowRoot3982"
       xml:space="preserve"><flowRegion
         id="flowRegion3984"><rect
           style="font-size:18px;font-style:normal;font-variant:normal;font-weight:normal;font-stretch:normal;text-align:justify;line-height:125%;writing-mode:lr-tb;text-anchor:start;font-family:Alte Haas Grotesk;-inkscape-font-specification:Alte Haas Grotesk"
           y="42.048439"
           x="821.35217"
           height="891.91187"
           width="345.71271"
           id="rect3986" /></flowRegion><flowPara
         id="flowPara4000"
         style="font-size:18px;font-style:normal;font-variant:normal;font-weight:normal;font-stretch:normal;text-align:justify;line-height:125%;writing-mode:lr-tb;text-anchor:start;font-family:Alte Haas Grotesk;-inkscape-font-specification:Alte Haas Grotesk">En el contexto cultural, los desafíos de alineación con el negocio y la productividad de nuestros clientes, nos han llevado a adecuar y a desarrollar soluciones innovadoras, acordes a nuestra idiosincrasia.</flowPara><flowPara
         style="font-size:18px;font-style:normal;font-variant:normal;font-weight:normal;font-stretch:normal;text-align:justify;line-height:125%;writing-mode:lr-tb;text-anchor:start;font-family:Alte Haas Grotesk;-inkscape-font-specification:Alte Haas Grotesk"
         id="flowPara4029" /><flowPara
         style="font-size:18px;font-style:normal;font-variant:normal;font-weight:normal;font-stretch:normal;text-align:justify;line-height:125%;writing-mode:lr-tb;text-anchor:start;font-family:Alte Haas Grotesk;-inkscape-font-specification:Alte Haas Grotesk"
         id="flowPara4031">Contamos con las metodologías y herramientas más completas para realizar evaluaciones.</flowPara><flowPara
         style="font-size:18px;font-style:normal;font-variant:normal;font-weight:normal;font-stretch:normal;text-align:justify;line-height:125%;writing-mode:lr-tb;text-anchor:start;font-family:Alte Haas Grotesk;-inkscape-font-specification:Alte Haas Grotesk"
         id="flowPara4033" /><flowPara
         style="font-size:18px;font-style:normal;font-variant:normal;font-weight:normal;font-stretch:normal;text-align:justify;line-height:125%;writing-mode:lr-tb;text-anchor:start;font-family:Alte Haas Grotesk;-inkscape-font-specification:Alte Haas Grotesk"
         id="flowPara4035">Nuestra imparcialidad con respecto a las herramientas y nuestro enfoque en los procesos y en las personas, nos permite ser objetivos, característica que es altamente valorada por el mercado en general.</flowPara></flowRoot>    <text
       xml:space="preserve"
       style="font-size:30px;font-style:normal;font-variant:normal;font-weight:normal;font-stretch:normal;line-height:200%;letter-spacing:0px;word-spacing:0px;fill:#000000;fill-opacity:1;stroke:none;font-family:Droid Sans Mono;-inkscape-font-specification:Droid Sans Mono"
       x="2364.5652"
       y="526.36871"
       id="text3140"
       sodipodi:linespacing="200%"
       inkscape:export-filename="/home/jacobian/Proyectos/hiperborea/branding/text3223.png"
       inkscape:export-xdpi="180"
       inkscape:export-ydpi="180"><tspan
         sodipodi:role="line"
         id="tspan3142"
         x="2364.5652"
         y="526.36871"
         style="font-size:18px;font-style:normal;font-variant:normal;font-weight:normal;font-stretch:normal;line-height:200%;font-family:Alte Haas Grotesk;-inkscape-font-specification:Alte Haas Grotesk">Evaluación y auditoría de seguridad.</tspan><tspan
         sodipodi:role="line"
         x="2364.5652"
         y="562.36871"
         id="tspan3144"
         style="font-size:18px;font-style:normal;font-variant:normal;font-weight:normal;font-stretch:normal;line-height:200%;font-family:Alte Haas Grotesk;-inkscape-font-specification:Alte Haas Grotesk">Configuración y mantenimiento de seguridad.</tspan><tspan
         sodipodi:role="line"
         x="2364.5652"
         y="598.36871"
         id="tspan3146"
         style="font-size:18px;font-style:normal;font-variant:normal;font-weight:normal;font-stretch:normal;line-height:200%;font-family:Alte Haas Grotesk;-inkscape-font-specification:Alte Haas Grotesk">Auditoria de seguridad de código fuente.</tspan><tspan
         sodipodi:role="line"
         x="2364.5652"
         y="634.36871"
         id="tspan3148"
         style="font-size:18px;font-style:normal;font-variant:normal;font-weight:normal;font-stretch:normal;line-height:200%;font-family:Alte Haas Grotesk;-inkscape-font-specification:Alte Haas Grotesk">Análisis de incidentes.</tspan><tspan
         sodipodi:role="line"
         x="2364.5652"
         y="670.36871"
         id="tspan3150"
         style="font-size:18px;font-style:normal;font-variant:normal;font-weight:normal;font-stretch:normal;line-height:200%;font-family:Alte Haas Grotesk;-inkscape-font-specification:Alte Haas Grotesk">Coordinación de la respuesta de incidentes.</tspan><tspan
         sodipodi:role="line"
         x="2364.5652"
         y="706.36871"
         id="tspan3152"
         style="font-size:18px;font-style:normal;font-variant:normal;font-weight:normal;font-stretch:normal;line-height:200%;font-family:Alte Haas Grotesk;-inkscape-font-specification:Alte Haas Grotesk">Consultora de seguridad.</tspan><tspan
         sodipodi:role="line"
         x="2364.5652"
         y="742.36871"
         id="tspan3154"
         style="font-size:18px;font-style:normal;font-variant:normal;font-weight:normal;font-stretch:normal;line-height:200%;font-family:Alte Haas Grotesk;-inkscape-font-specification:Alte Haas Grotesk">Educación/formación.</tspan></text>
    <text
       sodipodi:linespacing="175%"
       id="text3156"
       y="637.36871"
       x="3132.9707"
       style="font-size:30px;font-style:normal;font-variant:normal;font-weight:normal;font-stretch:normal;line-height:175%;letter-spacing:0px;word-spacing:0px;fill:#000000;fill-opacity:1;stroke:none;font-family:Droid Sans Mono;-inkscape-font-specification:Droid Sans Mono"
       xml:space="preserve"
       inkscape:export-filename="/home/jacobian/Proyectos/hiperborea/branding/text3223.png"
       inkscape:export-xdpi="180"
       inkscape:export-ydpi="180"><tspan
         style="font-size:18px;font-style:normal;font-variant:normal;font-weight:normal;font-stretch:normal;line-height:175%;font-family:Alte Haas Grotesk;-inkscape-font-specification:Alte Haas Grotesk"
         id="tspan3170"
         y="637.36871"
         x="3132.9707"
         sodipodi:role="line">Gestión de infraestructura IT.</tspan><tspan
         style="font-size:18px;font-style:normal;font-variant:normal;font-weight:normal;font-stretch:normal;line-height:175%;font-family:Alte Haas Grotesk;-inkscape-font-specification:Alte Haas Grotesk"
         y="668.86871"
         x="3132.9707"
         sodipodi:role="line"
         id="tspan3201">Seguridad perimetral.</tspan><tspan
         style="font-size:18px;font-style:normal;font-variant:normal;font-weight:normal;font-stretch:normal;line-height:175%;font-family:Alte Haas Grotesk;-inkscape-font-specification:Alte Haas Grotesk"
         y="700.36871"
         x="3132.9707"
         sodipodi:role="line"
         id="tspan3203">Soporte para plataformas GNU/Linux.</tspan><tspan
         style="font-size:18px;font-style:normal;font-variant:normal;font-weight:normal;font-stretch:normal;line-height:175%;font-family:Alte Haas Grotesk;-inkscape-font-specification:Alte Haas Grotesk"
         y="731.86871"
         x="3132.9707"
         sodipodi:role="line"
         id="tspan3205">Cableado estructurado.</tspan><tspan
         style="font-size:18px;font-style:normal;font-variant:normal;font-weight:normal;font-stretch:normal;line-height:175%;font-family:Alte Haas Grotesk;-inkscape-font-specification:Alte Haas Grotesk"
         y="763.36871"
         x="3132.9707"
         sodipodi:role="line"
         id="tspan3207">Seguridad perimetral.</tspan><tspan
         style="font-size:18px;font-style:normal;font-variant:normal;font-weight:normal;font-stretch:normal;line-height:175%;font-family:Alte Haas Grotesk;-inkscape-font-specification:Alte Haas Grotesk"
         y="794.86871"
         x="3132.9707"
         sodipodi:role="line"
         id="tspan3209">Administración de redes.</tspan><tspan
         style="font-size:18px;font-style:normal;font-variant:normal;font-weight:normal;font-stretch:normal;line-height:175%;font-family:Alte Haas Grotesk;-inkscape-font-specification:Alte Haas Grotesk"
         y="826.36871"
         x="3132.9707"
         sodipodi:role="line"
         id="tspan3211">IPS.</tspan><tspan
         style="font-size:18px;font-style:normal;font-variant:normal;font-weight:normal;font-stretch:normal;line-height:175%;font-family:Alte Haas Grotesk;-inkscape-font-specification:Alte Haas Grotesk"
         y="857.86871"
         x="3132.9707"
         sodipodi:role="line"
         id="tspan3213">Mantenimiento ordenadores.</tspan><tspan
         style="font-size:18px;font-style:normal;font-variant:normal;font-weight:normal;font-stretch:normal;line-height:175%;font-family:Alte Haas Grotesk;-inkscape-font-specification:Alte Haas Grotesk"
         y="889.36871"
         x="3132.9707"
         sodipodi:role="line"
         id="tspan3215">Evaluación de la preparación de la infraestructura de IT.</tspan><tspan
         style="font-size:18px;font-style:normal;font-variant:normal;font-weight:normal;font-stretch:normal;line-height:175%;font-family:Alte Haas Grotesk;-inkscape-font-specification:Alte Haas Grotesk"
         y="920.86871"
         x="3132.9707"
         sodipodi:role="line"
         id="tspan3217">Instalación, configuración y solución de problemas de Sistemas.</tspan><tspan
         style="font-size:18px;font-style:normal;font-variant:normal;font-weight:normal;font-stretch:normal;line-height:175%;font-family:Alte Haas Grotesk;-inkscape-font-specification:Alte Haas Grotesk"
         y="952.36871"
         x="3132.9707"
         sodipodi:role="line"
         id="tspan3219">Hosting.</tspan></text>
    <text
       xml:space="preserve"
       style="font-size:30px;font-style:normal;font-variant:normal;font-weight:normal;font-stretch:normal;line-height:200%;letter-spacing:0px;word-spacing:0px;fill:#000000;fill-opacity:1;stroke:none;font-family:Droid Sans Mono;-inkscape-font-specification:Droid Sans Mono"
       x="3904.6445"
       y="406.02347"
       id="text3223"
       sodipodi:linespacing="200%"
       inkscape:export-xdpi="180"
       inkscape:export-ydpi="180"><tspan
         id="tspan3245"
         sodipodi:role="line"
         x="3904.6445"
         y="406.02347"
         style="font-size:18px;font-style:normal;font-variant:normal;font-weight:normal;font-stretch:normal;line-height:200%;font-family:Alte Haas Grotesk;-inkscape-font-specification:Alte Haas Grotesk">Desarrollo de aplicaciones web.</tspan><tspan
         sodipodi:role="line"
         x="3904.6445"
         y="442.02347"
         style="font-size:18px;font-style:normal;font-variant:normal;font-weight:normal;font-stretch:normal;line-height:200%;font-family:Alte Haas Grotesk;-inkscape-font-specification:Alte Haas Grotesk"
         id="tspan3312">Desarrrollo de aplicaciones mobiles.</tspan><tspan
         sodipodi:role="line"
         x="3904.6445"
         y="478.02347"
         style="font-size:18px;font-style:normal;font-variant:normal;font-weight:normal;font-stretch:normal;line-height:200%;font-family:Alte Haas Grotesk;-inkscape-font-specification:Alte Haas Grotesk"
         id="tspan3314">Desarrollo de aplicaciones para tiempo real.</tspan></text>
  </g>
  <g
     inkscape:groupmode="layer"
     id="layer2"
     inkscape:label="page 1"
     style="display:inline">
    <path
       style="fill:#002255;fill-opacity:1;stroke:none"
       d="m 0.00789182,990 765.02482818,0 0,-40 -765.02482818,0 z"
       id="path3132"
       inkscape:connector-curvature="0"
       sodipodi:nodetypes="ccccc" />
    <path
       style="opacity:0.1;fill:#002255;fill-opacity:1;stroke:none;display:inline"
       d="m 381.95313,161.57199 -13.375,46 -37.53125,-39.09375 -1,47.8125 -46.375,-28.03125 11.40625,46.4375 -52.0625,-15.0625 23.0625,41.90625 -54.25,-1.125 33.1875,34.53125 -52.6875,12.96875 40.96875,24.78125 -47.53125,26.15625 46.03125,13.3125 -39.15625,37.59375 47.875,0.96875 -28.09375,46.40625 46.53125,-11.4375 -15.125,52.0625 41.90625,-23.0625 -1.125,54.15625 34.53125,-33.09375 12.9375,52.62497 24.8125,-40.93747 26.125,47.49997 13.34375,-45.96872 37.5625,39.15622 1,-47.84372 46.375,28.0625 -11.40625,-46.5 52.06249,15.125 -23.03124,-41.90625 54.21874,1.125 -33.15625,-34.5625 52.65625,-12.96875 -40.90625,-24.75 47.5,-26.15625 -46,-13.375 39.09375,-37.53125 -47.84375,-0.96875 28.0625,-46.40625 -46.43749,11.40625 15.06249,-52.0625 -41.93749,23.0625 1.125,-54.21875 -34.53125,33.125 -12.96875,-52.65625 -24.78125,40.9375 -26.125,-47.5 z m -0.0937,173 c 0.13424,-0.004 0.27211,10e-4 0.40625,0 0.0722,-8e-4 0.14665,1.4e-4 0.21875,0 0.82162,0 1.63786,0.0443 2.4375,0.125 0.12566,0.0129 0.24963,0.0164 0.375,0.0312 0.15704,0.0184 0.31268,0.0411 0.46875,0.0625 0.0205,0.003 0.042,-0.003 0.0625,0 0.0949,0.0133 0.18676,0.0481 0.28125,0.0625 0.26389,0.0405 0.51961,0.0757 0.78125,0.125 0.02,0.004 0.0425,-0.004 0.0625,0 0.1057,0.02 0.20731,0.0411 0.3125,0.0625 0.0318,0.007 0.062,0.0246 0.0937,0.0312 0.042,0.009 0.0831,0.0222 0.125,0.0312 0.0198,0.004 0.0427,-0.004 0.0625,0 0.29189,0.0631 0.58728,0.14507 0.875,0.21875 0.23533,0.0607 0.4858,0.11969 0.71875,0.1875 0.11438,0.0332 0.2301,0.0589 0.34375,0.0937 0.25116,0.0772 0.50192,0.16458 0.75,0.25 0.14376,0.0493 0.29502,0.10428 0.4375,0.15625 0.0405,0.0149 0.0845,0.0161 0.125,0.0312 0.16879,0.0629 0.33281,0.12077 0.5,0.1875 0.15002,0.0596 0.28903,0.12491 0.4375,0.1875 0.10715,0.0453 0.20598,0.10938 0.3125,0.15625 0.0943,0.0415 0.18748,0.0823 0.28125,0.125 0.18798,0.0857 0.37664,0.15935 0.5625,0.25 0.15798,0.077 0.31256,0.16954 0.46875,0.25 0.18355,0.0946 0.38126,0.18174 0.5625,0.28125 0.0944,0.0518 0.1876,0.10314 0.28125,0.15625 0.0202,0.0115 0.0423,0.0197 0.0625,0.0312 0.0327,0.0187 0.0612,0.0437 0.0937,0.0625 0.15141,0.0873 0.28825,0.19075 0.4375,0.28125 0.17578,0.10669 0.35827,0.20126 0.53125,0.3125 0.14664,0.0943 0.29311,0.18387 0.4375,0.28125 0.0318,0.0215 0.0621,0.0409 0.0937,0.0625 0.13743,0.0937 0.27077,0.18464 0.40625,0.28125 0.0235,0.0168 0.039,0.0456 0.0625,0.0625 0.12159,0.0873 0.25516,0.16048 0.375,0.25 0.0347,0.026 0.0591,0.0675 0.0937,0.0937 0.12468,0.0943 0.25214,0.18442 0.375,0.28125 0.18029,0.14229 0.35468,0.28955 0.53125,0.4375 0.26346,0.2202 0.52717,0.45562 0.78125,0.6875 0.31943,0.2924 0.63254,0.59445 0.9375,0.90625 0.0944,0.0963 0.18844,0.18329 0.28125,0.28125 0.17827,0.18854 0.35843,0.36722 0.53125,0.5625 0.0867,0.0976 0.16481,0.21332 0.25,0.3125 0.17158,0.20052 0.33427,0.41769 0.5,0.625 0.0705,0.0881 0.14942,0.1608 0.21875,0.25 0.17718,0.22804 0.36131,0.45156 0.53125,0.6875 0.0571,0.0794 0.10002,0.16982 0.15625,0.25 0.17526,0.24969 0.36429,0.49175 0.53125,0.75 0.18511,0.28704 0.35787,0.57857 0.53125,0.875 0.0353,0.0599 0.0589,0.12714 0.0937,0.1875 0.0305,0.0532 0.0636,0.10273 0.0937,0.15625 0.17207,0.30329 0.34261,0.5989 0.5,0.90625 0.0249,0.0491 0.0379,0.10698 0.0625,0.15625 0.17621,0.35331 0.34036,0.6978 0.5,1.0625 0.0935,0.21364 0.19358,0.43879 0.28125,0.65625 0.043,0.1056 0.0836,0.20657 0.125,0.3125 0.02,0.0516 0.0428,0.10441 0.0625,0.15625 0.027,0.0705 0.0362,0.14815 0.0625,0.21875 0.008,0.0215 0.0234,0.0409 0.0312,0.0625 0.084,0.22768 0.17341,0.4585 0.25,0.6875 0.0169,0.0513 0.0146,0.10472 0.0312,0.15625 0.1247,0.38646 0.23742,0.79069 0.34375,1.1875 0.10109,0.37728 0.23048,0.74751 0.3125,1.125 0.004,0.0195 -0.004,0.043 0,0.0625 0.006,0.0299 -0.006,0.0638 0,0.0937 0.005,0.0221 0.0267,0.0404 0.0312,0.0625 0.0804,0.38706 0.15801,0.76963 0.21875,1.15625 0.0556,0.35418 0.0856,0.70913 0.125,1.0625 0.004,0.0416 -0.004,0.0834 0,0.125 0.0376,0.35415 0.0722,0.70965 0.0937,1.0625 0.0259,0.45646 0.0312,0.91183 0.0312,1.375 0,1.23243 -0.0706,2.44422 -0.25,3.625 -0.0598,0.39359 -0.13998,0.80063 -0.21875,1.1875 -0.0471,0.22966 -0.10241,0.45981 -0.15625,0.6875 -0.005,0.0198 0.005,0.0428 0,0.0625 -0.032,0.13471 -0.0595,0.27245 -0.0937,0.40625 -0.0166,0.0641 -0.0454,0.12357 -0.0625,0.1875 -0.003,0.01 0.003,0.0214 0,0.0312 -0.0342,0.12709 -0.0887,0.2485 -0.125,0.375 -0.0503,0.17681 -0.10202,0.35617 -0.15625,0.53125 -0.11521,0.37197 -0.2423,0.72997 -0.375,1.09375 -0.0762,0.20772 -0.13681,0.41968 -0.21875,0.625 -0.0122,0.0306 -0.0189,0.0632 -0.0312,0.0937 -0.0467,0.11571 -0.10772,0.22885 -0.15625,0.34375 -0.1497,0.3551 -0.30254,0.71656 -0.46875,1.0625 -0.0144,0.0297 -0.0168,0.0641 -0.0312,0.0937 -0.0788,0.162 -0.16751,0.30863 -0.25,0.46875 -0.0801,0.15604 -0.16656,0.31476 -0.25,0.46875 -0.0153,0.0282 -0.0158,0.0656 -0.0312,0.0937 -0.0826,0.15052 -0.19541,0.28882 -0.28125,0.4375 -0.10368,0.17929 -0.20397,0.35447 -0.3125,0.53125 -0.18447,0.30117 -0.36468,0.61348 -0.5625,0.90625 -0.18083,0.26681 -0.37022,0.52123 -0.5625,0.78125 -0.0308,0.0418 -0.0627,0.0835 -0.0937,0.125 -0.0228,0.0303 -0.0396,0.0635 -0.0625,0.0937 -0.10295,0.13661 -0.20655,0.27182 -0.3125,0.40625 -0.13355,0.16857 -0.26774,0.3347 -0.40625,0.5 -0.0385,0.0462 -0.0862,0.0791 -0.125,0.125 -0.13276,0.15608 -0.26906,0.31574 -0.40625,0.46875 -0.0301,0.0337 -0.0634,0.0602 -0.0937,0.0937 -0.0443,0.0491 -0.0803,0.10753 -0.125,0.15625 -0.01,0.0108 -0.0213,0.0205 -0.0312,0.0312 -0.1043,0.11322 -0.20591,0.23248 -0.3125,0.34375 -0.16342,0.16972 -0.33089,0.3346 -0.5,0.5 -0.10476,0.10303 -0.20571,0.21133 -0.3125,0.3125 -0.12181,0.11483 -0.25038,0.23118 -0.375,0.34375 -0.0597,0.0539 -0.12715,0.10284 -0.1875,0.15625 -0.0956,0.0848 -0.18422,0.16665 -0.28125,0.25 -0.20448,0.17521 -0.41345,0.33088 -0.625,0.5 -0.0959,0.077 -0.18399,0.1744 -0.28125,0.25 -0.0412,0.032 -0.0836,0.062 -0.125,0.0937 -0.0943,0.072 -0.18565,0.14798 -0.28125,0.21875 -0.17343,0.12889 -0.35384,0.25059 -0.53125,0.375 -0.0731,0.0514 -0.14505,0.10571 -0.21875,0.15625 -0.16806,0.1148 -0.35941,0.2014 -0.53125,0.3125 -0.076,0.0491 -0.14205,0.10793 -0.21875,0.15625 -0.26867,0.16952 -0.53486,0.3397 -0.8125,0.5 -0.0645,0.0371 -0.12253,0.0884 -0.1875,0.125 -0.0622,0.0351 -0.12499,0.0592 -0.1875,0.0937 -0.23025,0.12748 -0.45496,0.25592 -0.6875,0.375 -0.0508,0.0258 -0.10518,0.037 -0.15625,0.0625 -0.31156,0.15679 -0.62228,0.2956 -0.9375,0.4375 -0.0508,0.0226 -0.10528,0.0402 -0.15625,0.0625 -0.009,0.004 -0.0226,-0.004 -0.0312,0 -0.3078,0.13556 -0.6267,0.2847 -0.9375,0.40625 -0.0438,0.0169 -0.081,0.0458 -0.125,0.0625 -0.32815,0.12614 -0.66902,0.23306 -1,0.34375 -0.0528,0.0175 -0.10323,0.0454 -0.15625,0.0625 -0.32145,0.10497 -0.64514,0.19068 -0.96875,0.28125 -0.22061,0.0617 -0.4348,0.13241 -0.65625,0.1875 -0.18287,0.0452 -0.3796,0.0843 -0.5625,0.125 -0.0602,0.0134 -0.12728,0.0183 -0.1875,0.0312 -0.0299,0.006 -0.0638,-0.006 -0.0937,0 -0.36671,0.0773 -0.72739,0.15918 -1.09375,0.21875 -0.0424,0.007 -0.0826,0.0246 -0.125,0.0312 -0.2271,0.0352 -0.4601,0.0653 -0.6875,0.0937 -0.12434,0.0158 -0.25078,0.0174 -0.375,0.0312 -0.44493,0.0486 -0.89876,0.10185 -1.34375,0.125 -0.19774,0.01 -0.39473,0.0261 -0.59375,0.0312 -0.21241,0.006 -0.41286,-1e-5 -0.625,0 -0.16467,3.2e-4 -0.33582,0.003 -0.5,0 -0.2369,-0.005 -0.48245,-0.0191 -0.71875,-0.0312 -0.14546,-0.007 -0.29276,-0.0213 -0.4375,-0.0312 -0.0524,-0.004 -0.10393,0.004 -0.15625,0 -0.14736,-0.011 -0.29066,-0.0487 -0.4375,-0.0625 -0.094,-0.009 -0.18744,0.0101 -0.28125,0 -0.0833,-0.009 -0.16692,-0.0216 -0.25,-0.0312 -0.16736,-0.0198 -0.3332,-0.0391 -0.5,-0.0625 -0.0533,-0.007 -0.10301,-0.0235 -0.15625,-0.0312 -0.0628,-0.009 -0.12475,-0.0215 -0.1875,-0.0312 -0.39359,-0.0598 -0.76938,-0.13998 -1.15625,-0.21875 -0.23053,-0.0469 -0.4595,-0.10272 -0.6875,-0.15625 -0.0198,-0.005 -0.0427,0.005 -0.0625,0 -0.13605,-0.0327 -0.2708,-0.0587 -0.40625,-0.0937 -0.0642,-0.0164 -0.12353,-0.0455 -0.1875,-0.0625 -0.0318,-0.009 -0.062,-0.0226 -0.0937,-0.0312 -0.0194,-0.005 -0.0431,0.005 -0.0625,0 -0.26069,-0.0717 -0.52312,-0.13815 -0.78125,-0.21875 -0.0533,-0.0166 -0.1031,-0.0455 -0.15625,-0.0625 -0.24692,-0.079 -0.50569,-0.1629 -0.75,-0.25 -0.11437,-0.0405 -0.23021,-0.0828 -0.34375,-0.125 -0.0856,-0.032 -0.16474,-0.0608 -0.25,-0.0937 -0.18062,-0.0697 -0.35253,-0.14467 -0.53125,-0.21875 -0.0532,-0.0221 -0.10316,-0.04 -0.15625,-0.0625 -0.0301,-0.0127 -0.0637,-0.0184 -0.0937,-0.0312 -0.0499,-0.0214 -0.10645,-0.0407 -0.15625,-0.0625 -0.11473,-0.0499 -0.22998,-0.10461 -0.34375,-0.15625 -0.15237,-0.0695 -0.31777,-0.14596 -0.46875,-0.21875 -0.0335,-0.0161 -0.0604,-0.0463 -0.0937,-0.0625 -0.0641,-0.0313 -0.12363,-0.0619 -0.1875,-0.0937 -0.15301,-0.0763 -0.31746,-0.13913 -0.46875,-0.21875 -0.11507,-0.0604 -0.22981,-0.12531 -0.34375,-0.1875 -0.15715,-0.0863 -0.31341,-0.1913 -0.46875,-0.28125 -0.14768,-0.0853 -0.29169,-0.16157 -0.4375,-0.25 -0.0319,-0.0193 -0.062,-0.043 -0.0937,-0.0625 -0.2941,-0.18056 -0.58824,-0.36861 -0.875,-0.5625 -0.0191,-0.0129 -0.0435,-0.0183 -0.0625,-0.0312 -0.0623,-0.0424 -0.12558,-0.082 -0.1875,-0.125 -0.0853,-0.0591 -0.16551,-0.12732 -0.25,-0.1875 -0.0357,-0.0255 -0.0582,-0.068 -0.0937,-0.0937 -0.14012,-0.10097 -0.29972,-0.17731 -0.4375,-0.28125 -0.1296,-0.0982 -0.24721,-0.21147 -0.375,-0.3125 -0.29838,-0.23516 -0.58779,-0.46908 -0.875,-0.71875 -0.13025,-0.11323 -0.27839,-0.22759 -0.40625,-0.34375 -0.0439,-0.0399 -0.0814,-0.0848 -0.125,-0.125 -0.0495,-0.0458 -0.10713,-0.0787 -0.15625,-0.125 -0.12285,-0.11513 -0.22326,-0.25714 -0.34375,-0.375 -0.10462,-0.10248 -0.20979,-0.2081 -0.3125,-0.3125 -0.10136,-0.10363 -0.21281,-0.20675 -0.3125,-0.3125 -0.22941,-0.24337 -0.46721,-0.49546 -0.6875,-0.75 -0.0623,-0.072 -0.12593,-0.14585 -0.1875,-0.21875 -0.1399,-0.16478 -0.27083,-0.33137 -0.40625,-0.5 -0.0734,-0.0918 -0.14652,-0.1881 -0.21875,-0.28125 -0.66159,-0.85317 -1.25694,-1.75649 -1.8125,-2.71875 -0.037,-0.0642 -0.0886,-0.12315 -0.125,-0.1875 -0.36708,-0.64934 -0.69983,-1.30195 -1,-1.96875 -0.0189,-0.0419 -0.0439,-0.083 -0.0625,-0.125 -0.14406,-0.32499 -0.27784,-0.67165 -0.40625,-1 -0.0168,-0.043 -0.0459,-0.0819 -0.0625,-0.125 -0.0186,-0.0491 -0.0129,-0.10698 -0.0312,-0.15625 -0.0116,-0.0307 -0.0198,-0.063 -0.0312,-0.0937 -0.0344,-0.0937 -0.0605,-0.18698 -0.0937,-0.28125 -0.0743,-0.2076 -0.15052,-0.41634 -0.21875,-0.625 -0.1247,-0.38646 -0.23742,-0.75944 -0.34375,-1.15625 -0.084,-0.3135 -0.17918,-0.62383 -0.25,-0.9375 -0.0189,-0.083 -0.0446,-0.16689 -0.0625,-0.25 -0.007,-0.0303 0.006,-0.0634 0,-0.0937 -0.0548,-0.26545 -0.11031,-0.54383 -0.15625,-0.8125 -0.0169,-0.0962 -0.0468,-0.18496 -0.0625,-0.28125 -0.0207,-0.12723 -0.0439,-0.24765 -0.0625,-0.375 -0.009,-0.0619 0.009,-0.12552 0,-0.1875 -0.0261,-0.18861 -0.0723,-0.37414 -0.0937,-0.5625 -0.004,-0.0308 0.003,-0.063 0,-0.0937 -0.004,-0.0411 0.004,-0.0839 0,-0.125 -0.0218,-0.2156 -0.0465,-0.43895 -0.0625,-0.65625 -0.002,-0.0206 0.002,-0.0419 0,-0.0625 -0.007,-0.1036 -0.0252,-0.20853 -0.0312,-0.3125 -0.004,-0.062 0.003,-0.1255 0,-0.1875 -5.2e-4,-0.0104 5.1e-4,-0.0208 0,-0.0312 -0.0202,-0.3987 -0.0312,-0.78957 -0.0312,-1.1875 0,-0.16843 -0.003,-0.33243 0,-0.5 0.005,-0.23714 0.019,-0.48221 0.0312,-0.71875 0.0204,-0.40556 0.0534,-0.81893 0.0937,-1.21875 0.0117,-0.11557 0.0179,-0.22869 0.0312,-0.34375 0.006,-0.0528 0.0246,-0.10347 0.0312,-0.15625 0.0406,-0.32411 0.0711,-0.64692 0.125,-0.96875 0.0486,-0.29021 0.0969,-0.58696 0.15625,-0.875 0.0171,-0.0842 0.0445,-0.16613 0.0625,-0.25 0.0805,-0.37055 0.15188,-0.72757 0.25,-1.09375 0.003,-0.01 -0.003,-0.0217 0,-0.0312 0.0959,-0.36006 0.23162,-0.70949 0.34375,-1.0625 0.0996,-0.31124 0.20007,-0.63046 0.3125,-0.9375 0.0641,-0.17562 0.11945,-0.35762 0.1875,-0.53125 0.0119,-0.0304 0.0192,-0.0634 0.0312,-0.0937 0.0448,-0.11222 0.0785,-0.23227 0.125,-0.34375 0.0358,-0.0863 0.0882,-0.1642 0.125,-0.25 0.13144,-0.30604 0.2618,-0.60559 0.40625,-0.90625 0.016,-0.0334 0.0463,-0.0604 0.0625,-0.0937 0.0247,-0.0508 0.0374,-0.10559 0.0625,-0.15625 0.14578,-0.2945 0.31127,-0.58766 0.46875,-0.875 0.085,-0.15476 0.16147,-0.31574 0.25,-0.46875 0.007,-0.0124 0.0241,-0.0188 0.0312,-0.0312 0.007,-0.0122 0.0241,-0.019 0.0312,-0.0312 0.0889,-0.15265 0.15781,-0.31831 0.25,-0.46875 0.0903,-0.14705 0.18763,-0.29225 0.28125,-0.4375 0.0947,-0.1472 0.18333,-0.29239 0.28125,-0.4375 0.008,-0.012 0.0231,-0.0193 0.0312,-0.0312 0.0339,-0.0499 0.0595,-0.10662 0.0937,-0.15625 0.0294,-0.0428 0.064,-0.0824 0.0937,-0.125 0.0602,-0.0861 0.12616,-0.16464 0.1875,-0.25 0.008,-0.0117 0.0228,-0.0195 0.0312,-0.0312 0.10491,-0.14558 0.20439,-0.29444 0.3125,-0.4375 0.054,-0.0713 0.10137,-0.14799 0.15625,-0.21875 0.12305,-0.15888 0.24784,-0.31294 0.375,-0.46875 0.0279,-0.0341 0.0657,-0.0598 0.0937,-0.0937 0.0333,-0.0404 0.0602,-0.0848 0.0937,-0.125 0.0187,-0.0223 0.0437,-0.0402 0.0625,-0.0625 0.0769,-0.0913 0.14052,-0.19115 0.21875,-0.28125 0.15839,-0.1822 0.33588,-0.35374 0.5,-0.53125 0.0949,-0.10252 0.18434,-0.21147 0.28125,-0.3125 0.12177,-0.12712 0.25026,-0.25049 0.375,-0.375 0.0525,-0.0525 0.10322,-0.1042 0.15625,-0.15625 0.56037,-0.54808 1.15934,-1.06533 1.78125,-1.5625 0.0873,-0.0698 0.16154,-0.15005 0.25,-0.21875 0.22248,-0.17295 0.45816,-0.3346 0.6875,-0.5 0.0839,-0.0604 0.16511,-0.12801 0.25,-0.1875 0.24422,-0.17126 0.49838,-0.33746 0.75,-0.5 0.0118,-0.008 0.0194,-0.0236 0.0312,-0.0312 0.25242,-0.16257 0.52076,-0.31439 0.78125,-0.46875 0.0797,-0.0472 0.16952,-0.0785 0.25,-0.125 0.3478,-0.2008 0.67803,-0.41237 1.03125,-0.59375 0.008,-0.004 0.0232,0.004 0.0312,0 0.1578,-0.0808 0.30996,-0.17304 0.46875,-0.25 0.2019,-0.097 0.41994,-0.18984 0.625,-0.28125 0.40571,-0.18263 0.80778,-0.34182 1.21875,-0.5 0.37575,-0.14247 0.76979,-0.28156 1.15625,-0.40625 0.0853,-0.0275 0.16416,-0.0671 0.25,-0.0937 0.01,-0.003 0.0217,0.003 0.0312,0 0.29006,-0.0894 0.58024,-0.17147 0.875,-0.25 0.0721,-0.0193 0.14665,-0.0439 0.21875,-0.0625 0.3248,-0.0839 0.67509,-0.149 1,-0.21875 0.26065,-0.056 0.52072,-0.10926 0.78125,-0.15625 0.0326,-0.006 0.0611,-0.0257 0.0937,-0.0312 0.14387,-0.0253 0.29346,-0.04 0.4375,-0.0625 0.35554,-0.0559 0.70778,-0.11672 1.0625,-0.15625 0.39566,-0.0441 0.79342,-0.0697 1.1875,-0.0937 0.2552,-0.0152 0.49501,-0.0244 0.75,-0.0312 z"
       id="path3954"
       inkscape:connector-curvature="0" />
    <path
       id="path3957"
       d="m 381.80742,109.17041 -16.93837,58.25534 -47.53034,-49.50912 -1.26642,60.55072 -58.73024,-35.49935 14.44511,58.8094 -65.933,-19.07546 29.20681,53.07093 -68.70325,-1.42473 42.02928,43.73108 -66.72449,16.42388 51.88361,31.38348 -60.1945,33.12481 58.29488,16.85922 -49.58828,47.60948 60.62989,1.22685 -35.57849,58.76981 58.92811,-14.48468 -19.15462,65.93301 53.07093,-29.20682 -1.42473,68.58458 43.73109,-41.9106 16.38431,66.6454 31.42305,-51.84412 33.08523,60.15502 16.8988,-58.21581 47.56991,49.58831 1.26642,-60.59034 58.73024,35.53894 -14.44511,-58.88856 65.93301,19.15461 -29.16724,-53.07093 68.66372,1.42472 -41.98975,-43.77065 66.68495,-16.42388 -51.80451,-31.34391 60.15496,-33.12481 -58.25533,-16.93836 49.50912,-47.53035 -60.5903,-1.22684 35.53892,-58.76982 -58.80939,14.44511 19.07546,-65.93301 -53.1105,29.20682 1.42472,-68.66372 -43.73107,41.95017 -16.42389,-66.68494 -31.38348,51.84408 -33.08523,-60.15497 z m -0.11873,219.09071 c 0.17001,-0.005 0.34461,0.002 0.51449,0 0.0914,-0.001 0.18572,1.8e-4 0.27703,0 1.04051,0 2.07422,0.0561 3.0869,0.1583 0.15913,0.0163 0.31613,0.0208 0.4749,0.0396 0.19888,0.0233 0.39599,0.0521 0.59364,0.0792 0.026,0.004 0.0532,-0.004 0.0792,0 0.12013,0.0168 0.23652,0.061 0.35618,0.0791 0.3342,0.0513 0.65805,0.0959 0.98939,0.1583 0.0253,0.005 0.0539,-0.005 0.0791,0 0.13386,0.0254 0.26254,0.052 0.39576,0.0792 0.0402,0.008 0.0785,0.0312 0.11873,0.0396 0.0532,0.0111 0.10521,0.0281 0.1583,0.0396 0.0251,0.005 0.054,-0.005 0.0791,0 0.36966,0.0799 0.74374,0.18372 1.10812,0.27703 0.29802,0.0769 0.61522,0.15157 0.91024,0.23745 0.14485,0.042 0.2914,0.0746 0.43533,0.11873 0.31807,0.0978 0.63564,0.20842 0.94981,0.3166 0.18206,0.0624 0.37362,0.13206 0.55406,0.19788 0.0513,0.0189 0.10705,0.0204 0.15831,0.0396 0.21375,0.0797 0.42147,0.15295 0.63321,0.23746 0.18998,0.0755 0.36603,0.15819 0.55405,0.23745 0.1357,0.0573 0.26086,0.13852 0.39576,0.19788 0.11949,0.0526 0.23743,0.10416 0.35618,0.1583 0.23806,0.1085 0.47699,0.20181 0.71236,0.31661 0.20007,0.0975 0.39584,0.21471 0.59364,0.3166 0.23245,0.11981 0.48283,0.23016 0.71236,0.35618 0.11951,0.0657 0.23758,0.13062 0.35618,0.19788 0.0256,0.0145 0.0536,0.025 0.0791,0.0396 0.0414,0.0236 0.0775,0.0553 0.11873,0.0791 0.19175,0.11053 0.36504,0.24157 0.55406,0.35618 0.22261,0.13511 0.45372,0.25488 0.67278,0.39576 0.18571,0.11937 0.3712,0.23285 0.55406,0.35618 0.0403,0.0272 0.0786,0.0517 0.11873,0.0792 0.17404,0.11866 0.34291,0.23383 0.51448,0.35618 0.0298,0.0213 0.0494,0.0578 0.0792,0.0792 0.15399,0.11053 0.32314,0.20324 0.47491,0.3166 0.044,0.033 0.0749,0.0855 0.11873,0.11873 0.15789,0.11946 0.31931,0.23356 0.4749,0.35618 0.22833,0.1802 0.44918,0.36669 0.67279,0.55406 0.33365,0.27887 0.66762,0.57701 0.98939,0.87067 0.40453,0.3703 0.80106,0.75282 1.18727,1.14769 0.11951,0.12189 0.23864,0.23212 0.35618,0.35618 0.22577,0.23877 0.45392,0.46505 0.67279,0.71236 0.10982,0.12364 0.20872,0.27015 0.3166,0.39576 0.21729,0.25394 0.42333,0.52897 0.63321,0.79151 0.0893,0.11155 0.18923,0.20364 0.27703,0.3166 0.22439,0.2888 0.45757,0.57187 0.67279,0.87067 0.0724,0.10051 0.12666,0.21506 0.19788,0.3166 0.22195,0.31622 0.46134,0.62277 0.67278,0.94982 0.23443,0.36351 0.45322,0.73271 0.67279,1.10812 0.0447,0.0759 0.0746,0.16101 0.11872,0.23745 0.0386,0.0674 0.0806,0.1301 0.11873,0.19788 0.21791,0.38409 0.43389,0.75846 0.63321,1.14769 0.0315,0.0621 0.048,0.13548 0.0791,0.19788 0.22316,0.44744 0.43104,0.88371 0.63321,1.34557 0.11844,0.27056 0.24516,0.55569 0.35618,0.83109 0.0545,0.13373 0.10584,0.2616 0.15831,0.39576 0.0253,0.0654 0.0543,0.13222 0.0791,0.19787 0.0342,0.0892 0.0459,0.18762 0.0792,0.27703 0.01,0.0273 0.0296,0.0519 0.0396,0.0792 0.10635,0.28833 0.21961,0.58065 0.31661,0.87066 0.0215,0.065 0.0185,0.13262 0.0396,0.19788 0.15793,0.48942 0.30068,1.00134 0.43534,1.50387 0.12802,0.4778 0.29188,0.94666 0.39575,1.42472 0.005,0.0247 -0.005,0.0544 0,0.0792 0.008,0.0378 -0.008,0.0808 0,0.11872 0.006,0.0279 0.0338,0.0512 0.0396,0.0792 0.10183,0.49018 0.20011,0.97468 0.27703,1.4643 0.0705,0.44854 0.10842,0.89806 0.1583,1.34557 0.006,0.0526 -0.005,0.10559 0,0.15831 0.0476,0.4485 0.0915,0.89871 0.11873,1.34557 0.0328,0.57807 0.0396,1.15476 0.0396,1.74133 0,1.56077 -0.0894,3.09541 -0.3166,4.59077 -0.0757,0.49845 -0.17728,1.01393 -0.27703,1.50387 -0.0597,0.29085 -0.1297,0.58232 -0.19788,0.87067 -0.006,0.025 0.006,0.0541 0,0.0792 -0.0405,0.1706 -0.0753,0.34503 -0.11873,0.51448 -0.021,0.0811 -0.0574,0.15649 -0.0791,0.23746 -0.003,0.0124 0.003,0.0272 0,0.0396 -0.0433,0.16095 -0.11229,0.31471 -0.1583,0.47491 -0.0637,0.22391 -0.1292,0.45106 -0.19788,0.67278 -0.1459,0.47107 -0.30685,0.92445 -0.47491,1.38515 -0.0965,0.26306 -0.17326,0.53149 -0.27703,0.79151 -0.0155,0.0388 -0.0239,0.08 -0.0396,0.11873 -0.0592,0.14654 -0.13642,0.28982 -0.19788,0.43533 -0.18958,0.44971 -0.38314,0.90747 -0.59363,1.34557 -0.0182,0.0377 -0.0212,0.0812 -0.0396,0.11873 -0.0998,0.20516 -0.21214,0.39086 -0.3166,0.59364 -0.10146,0.19761 -0.21094,0.39861 -0.31661,0.59363 -0.0194,0.0357 -0.02,0.0831 -0.0396,0.11873 -0.1046,0.19062 -0.24747,0.36576 -0.35618,0.55406 -0.1313,0.22705 -0.25831,0.4489 -0.39575,0.67278 -0.23362,0.38141 -0.46184,0.77693 -0.71236,1.1477 -0.22901,0.33789 -0.46886,0.66009 -0.71237,0.98939 -0.039,0.0529 -0.0794,0.10568 -0.11872,0.1583 -0.0288,0.0384 -0.0501,0.0804 -0.0791,0.11873 -0.13038,0.173 -0.26158,0.34423 -0.39576,0.51448 -0.16913,0.21348 -0.33907,0.42387 -0.51448,0.63321 -0.0487,0.0585 -0.10916,0.10019 -0.15831,0.1583 -0.16813,0.19766 -0.34074,0.39986 -0.51448,0.59364 -0.0381,0.0427 -0.0803,0.0762 -0.11873,0.11872 -0.0561,0.0621 -0.10168,0.13618 -0.1583,0.19788 -0.0126,0.0136 -0.027,0.026 -0.0396,0.0396 -0.13209,0.14338 -0.26077,0.29441 -0.39576,0.43533 -0.20696,0.21494 -0.41905,0.42374 -0.63321,0.63321 -0.13267,0.13048 -0.26052,0.26763 -0.39576,0.39576 -0.15426,0.14542 -0.31708,0.29277 -0.4749,0.43533 -0.0756,0.0683 -0.16103,0.13024 -0.23746,0.19788 -0.121,0.1074 -0.2333,0.21104 -0.35618,0.3166 -0.25896,0.22189 -0.5236,0.41903 -0.79151,0.63321 -0.12149,0.0975 -0.23301,0.22086 -0.35618,0.31661 -0.0521,0.0406 -0.1059,0.0785 -0.1583,0.11872 -0.11939,0.0912 -0.23512,0.18741 -0.35619,0.27703 -0.21963,0.16323 -0.44811,0.31735 -0.67278,0.47491 -0.0926,0.065 -0.1837,0.13387 -0.27703,0.19788 -0.21284,0.14538 -0.45516,0.25505 -0.67279,0.39575 -0.0963,0.0622 -0.17989,0.13669 -0.27703,0.19788 -0.34024,0.21469 -0.67735,0.43021 -1.02896,0.63321 -0.0817,0.047 -0.15518,0.112 -0.23746,0.1583 -0.0787,0.0444 -0.15829,0.075 -0.23745,0.11873 -0.29159,0.16145 -0.57617,0.3241 -0.87066,0.47491 -0.0644,0.0327 -0.13321,0.0469 -0.19788,0.0792 -0.39457,0.19856 -0.78807,0.37435 -1.18727,0.55406 -0.0643,0.0287 -0.13333,0.0509 -0.19788,0.0791 -0.011,0.005 -0.0286,-0.005 -0.0396,0 -0.38981,0.17168 -0.79367,0.36055 -1.18727,0.51448 -0.0555,0.0214 -0.10263,0.058 -0.15831,0.0792 -0.41557,0.15974 -0.84726,0.29515 -1.26642,0.43533 -0.0669,0.0221 -0.13073,0.0575 -0.19787,0.0791 -0.4071,0.13293 -0.81702,0.24148 -1.22685,0.35618 -0.27938,0.0782 -0.55065,0.16769 -0.83109,0.23745 -0.23159,0.0572 -0.48073,0.10672 -0.71236,0.15831 -0.0763,0.017 -0.1612,0.0232 -0.23745,0.0396 -0.0379,0.008 -0.0808,-0.008 -0.11873,0 -0.46442,0.0978 -0.92119,0.20159 -1.38515,0.27703 -0.0537,0.009 -0.10463,0.0311 -0.1583,0.0396 -0.2876,0.0446 -0.58268,0.0826 -0.87067,0.11872 -0.15747,0.0201 -0.3176,0.022 -0.47491,0.0396 -0.56347,0.0616 -1.13821,0.12898 -1.70174,0.1583 -0.25044,0.0126 -0.49991,0.0331 -0.75194,0.0396 -0.269,0.007 -0.52285,-2e-5 -0.79152,0 -0.20853,4e-4 -0.42529,0.004 -0.6332,0 -0.30002,-0.006 -0.61099,-0.0242 -0.91025,-0.0396 -0.18421,-0.009 -0.37076,-0.027 -0.55406,-0.0396 -0.0663,-0.005 -0.13162,0.005 -0.19788,0 -0.18662,-0.014 -0.3681,-0.0617 -0.55406,-0.0792 -0.11899,-0.0114 -0.23738,0.0128 -0.35618,0 -0.10544,-0.0111 -0.21139,-0.0273 -0.3166,-0.0396 -0.21195,-0.0251 -0.42198,-0.0495 -0.63321,-0.0792 -0.0675,-0.009 -0.13046,-0.0298 -0.19788,-0.0396 -0.0796,-0.0117 -0.15799,-0.0272 -0.23746,-0.0396 -0.49845,-0.0758 -0.97435,-0.17728 -1.46429,-0.27703 -0.29195,-0.0594 -0.58192,-0.13009 -0.87067,-0.19788 -0.025,-0.006 -0.0541,0.006 -0.0792,0 -0.1723,-0.0414 -0.34295,-0.0743 -0.51448,-0.11873 -0.0813,-0.0208 -0.15644,-0.0577 -0.23746,-0.0792 -0.0402,-0.0108 -0.0785,-0.0286 -0.11872,-0.0396 -0.0246,-0.007 -0.0546,0.007 -0.0792,0 -0.33014,-0.0908 -0.66248,-0.17495 -0.98939,-0.27702 -0.0675,-0.0211 -0.13056,-0.0576 -0.19787,-0.0792 -0.31271,-0.10006 -0.64042,-0.2063 -0.94982,-0.3166 -0.14484,-0.0513 -0.29154,-0.10487 -0.43533,-0.1583 -0.10842,-0.0405 -0.20863,-0.077 -0.31661,-0.11873 -0.22874,-0.0883 -0.44645,-0.18321 -0.67278,-0.27703 -0.0674,-0.028 -0.13065,-0.0506 -0.19788,-0.0792 -0.0381,-0.0161 -0.0807,-0.0233 -0.11873,-0.0396 -0.0632,-0.0272 -0.13481,-0.0515 -0.19788,-0.0792 -0.14529,-0.0632 -0.29125,-0.13248 -0.43533,-0.19788 -0.19296,-0.088 -0.40243,-0.18484 -0.59363,-0.27703 -0.0424,-0.0204 -0.0764,-0.0586 -0.11873,-0.0791 -0.0812,-0.0396 -0.15657,-0.0784 -0.23745,-0.11872 -0.19378,-0.0967 -0.40204,-0.1762 -0.59364,-0.27703 -0.14572,-0.0765 -0.29103,-0.1587 -0.43533,-0.23746 -0.19902,-0.10926 -0.39691,-0.24226 -0.59363,-0.35618 -0.18703,-0.10797 -0.36941,-0.20461 -0.55406,-0.3166 -0.0404,-0.0245 -0.0785,-0.0545 -0.11873,-0.0792 -0.37245,-0.22867 -0.74496,-0.46682 -1.10812,-0.71237 -0.0242,-0.0163 -0.055,-0.0232 -0.0792,-0.0396 -0.0789,-0.0537 -0.15904,-0.10383 -0.23745,-0.1583 -0.10804,-0.0748 -0.20961,-0.16124 -0.31661,-0.23746 -0.0452,-0.0323 -0.0737,-0.0862 -0.11872,-0.11872 -0.17745,-0.12787 -0.37958,-0.22455 -0.55406,-0.35618 -0.16413,-0.12433 -0.31307,-0.26781 -0.47491,-0.39576 -0.37787,-0.29781 -0.74439,-0.59405 -1.10812,-0.91024 -0.16495,-0.1434 -0.35256,-0.28823 -0.51448,-0.43533 -0.0556,-0.0505 -0.10309,-0.10737 -0.1583,-0.15831 -0.0626,-0.058 -0.13568,-0.0997 -0.19788,-0.1583 -0.15558,-0.1458 -0.28274,-0.32565 -0.43533,-0.47491 -0.1325,-0.12978 -0.26569,-0.26354 -0.39576,-0.39575 -0.12836,-0.13124 -0.26951,-0.26183 -0.39576,-0.39576 -0.29053,-0.30821 -0.59168,-0.62746 -0.87066,-0.94981 -0.0789,-0.0912 -0.15948,-0.18471 -0.23745,-0.27703 -0.17718,-0.20868 -0.34299,-0.41966 -0.51449,-0.63321 -0.093,-0.1163 -0.18555,-0.23822 -0.27703,-0.35618 -0.83785,-1.08048 -1.59181,-2.22446 -2.29538,-3.44308 -0.0469,-0.0813 -0.11223,-0.15596 -0.15831,-0.23746 -0.46487,-0.82233 -0.88628,-1.64881 -1.26642,-2.49326 -0.0239,-0.0531 -0.0556,-0.10514 -0.0792,-0.1583 -0.18244,-0.41158 -0.35186,-0.8506 -0.51448,-1.26643 -0.0213,-0.0545 -0.0582,-0.10374 -0.0792,-0.1583 -0.0236,-0.0622 -0.0164,-0.13548 -0.0396,-0.19788 -0.0146,-0.0389 -0.0251,-0.0798 -0.0396,-0.11872 -0.0435,-0.11868 -0.0767,-0.2368 -0.11873,-0.35618 -0.0941,-0.26291 -0.19062,-0.52726 -0.27703,-0.79152 -0.15792,-0.48942 -0.30067,-0.96177 -0.43533,-1.46429 -0.10638,-0.39703 -0.22692,-0.79004 -0.31661,-1.18727 -0.0239,-0.10514 -0.0565,-0.21136 -0.0792,-0.31661 -0.008,-0.0384 0.008,-0.0803 0,-0.11873 -0.0694,-0.33617 -0.1397,-0.68871 -0.19788,-1.02896 -0.0214,-0.12184 -0.0593,-0.23424 -0.0791,-0.35618 -0.0262,-0.16113 -0.0556,-0.31363 -0.0792,-0.47491 -0.0115,-0.0785 0.0108,-0.15896 0,-0.23745 -0.033,-0.23886 -0.0915,-0.47382 -0.11873,-0.71237 -0.004,-0.039 0.004,-0.0798 0,-0.11872 -0.006,-0.052 0.005,-0.10627 0,-0.1583 -0.0275,-0.27305 -0.0589,-0.5559 -0.0791,-0.83109 -0.002,-0.0261 0.002,-0.053 0,-0.0791 -0.009,-0.13121 -0.0319,-0.26409 -0.0396,-0.39576 -0.005,-0.0786 0.004,-0.15894 0,-0.23745 -6.6e-4,-0.0132 6.4e-4,-0.0264 0,-0.0396 -0.0256,-0.50492 -0.0395,-0.99993 -0.0396,-1.50387 0,-0.21331 -0.004,-0.421 0,-0.63321 0.006,-0.30032 0.0241,-0.61069 0.0396,-0.91024 0.0259,-0.51361 0.0676,-1.03711 0.11872,-1.54345 0.0148,-0.14636 0.0227,-0.28962 0.0396,-0.43534 0.008,-0.0669 0.0312,-0.13103 0.0396,-0.19787 0.0514,-0.41046 0.09,-0.81928 0.1583,-1.22685 0.0616,-0.36753 0.12274,-0.74334 0.19788,-1.10812 0.0217,-0.10664 0.0563,-0.21039 0.0791,-0.3166 0.10193,-0.46927 0.19234,-0.92141 0.3166,-1.38515 0.003,-0.0121 -0.003,-0.0275 0,-0.0396 0.12146,-0.45599 0.29333,-0.89852 0.43533,-1.34558 0.12614,-0.39416 0.25338,-0.79842 0.39576,-1.18726 0.0811,-0.22241 0.15127,-0.4529 0.23745,-0.67279 0.0151,-0.0386 0.0243,-0.0802 0.0396,-0.11873 0.0567,-0.14211 0.0994,-0.29415 0.1583,-0.43533 0.0453,-0.10932 0.11173,-0.20795 0.15831,-0.3166 0.16645,-0.38758 0.33154,-0.76694 0.51448,-1.1477 0.0203,-0.0423 0.0587,-0.0765 0.0792,-0.11872 0.0313,-0.0644 0.0474,-0.13373 0.0791,-0.19788 0.18462,-0.37296 0.3942,-0.74423 0.59364,-1.10812 0.1076,-0.19599 0.20448,-0.39986 0.3166,-0.59364 0.009,-0.0157 0.0305,-0.0239 0.0396,-0.0396 0.009,-0.0155 0.0305,-0.0241 0.0396,-0.0396 0.1126,-0.19332 0.19986,-0.40311 0.31661,-0.59363 0.11433,-0.18623 0.23762,-0.37011 0.35618,-0.55406 0.11988,-0.18642 0.23217,-0.37029 0.35618,-0.55406 0.0102,-0.0152 0.0293,-0.0244 0.0396,-0.0396 0.0429,-0.0632 0.0754,-0.13503 0.11873,-0.19788 0.0373,-0.0541 0.0811,-0.10441 0.11873,-0.1583 0.0762,-0.10909 0.15977,-0.20851 0.23745,-0.31661 0.0107,-0.0149 0.0289,-0.0247 0.0396,-0.0396 0.13286,-0.18436 0.25884,-0.37288 0.39575,-0.55405 0.0684,-0.0903 0.12838,-0.18742 0.19788,-0.27703 0.15583,-0.20121 0.31387,-0.3963 0.47491,-0.59364 0.0353,-0.0432 0.0832,-0.0757 0.11873,-0.11873 0.0422,-0.0511 0.0762,-0.10745 0.11872,-0.1583 0.0237,-0.0283 0.0553,-0.051 0.0791,-0.0791 0.0974,-0.11562 0.17796,-0.24208 0.27703,-0.35618 0.20059,-0.23074 0.42537,-0.44798 0.63321,-0.67279 0.12017,-0.12982 0.23346,-0.26781 0.35618,-0.39575 0.15422,-0.16099 0.31694,-0.31721 0.47491,-0.47491 0.0665,-0.0665 0.13072,-0.13196 0.19788,-0.19788 0.70966,-0.6941 1.46821,-1.34914 2.25581,-1.97878 0.11051,-0.0883 0.20458,-0.19003 0.31661,-0.27703 0.28175,-0.21901 0.58022,-0.42374 0.87066,-0.63321 0.10625,-0.0765 0.2091,-0.16211 0.31661,-0.23745 0.30928,-0.21689 0.63115,-0.42737 0.94981,-0.63321 0.015,-0.01 0.0246,-0.0299 0.0396,-0.0396 0.31967,-0.20588 0.6595,-0.39814 0.98939,-0.59363 0.10097,-0.0598 0.21468,-0.0994 0.3166,-0.15831 0.44046,-0.25429 0.85867,-0.52222 1.306,-0.75193 0.0101,-0.005 0.0294,0.005 0.0396,0 0.19984,-0.10234 0.39254,-0.21914 0.59364,-0.31661 0.25569,-0.12284 0.53182,-0.24041 0.79151,-0.35618 0.5138,-0.23128 1.02299,-0.43289 1.54345,-0.63321 0.47586,-0.18043 0.97488,-0.35656 1.4643,-0.51448 0.10806,-0.0349 0.20789,-0.085 0.3166,-0.11873 0.0121,-0.004 0.0275,0.004 0.0396,0 0.36734,-0.11325 0.73483,-0.21714 1.10812,-0.3166 0.0913,-0.0245 0.18572,-0.0556 0.27703,-0.0792 0.41133,-0.10621 0.85494,-0.1887 1.26642,-0.27703 0.33009,-0.0709 0.65945,-0.13837 0.98939,-0.19788 0.0413,-0.007 0.0774,-0.0325 0.11872,-0.0396 0.1822,-0.032 0.37165,-0.0506 0.55406,-0.0792 0.45027,-0.0708 0.89635,-0.1478 1.34558,-0.19788 0.50107,-0.0558 1.0048,-0.0883 1.50387,-0.11872 0.32319,-0.0192 0.62689,-0.0308 0.94981,-0.0396 z"
       style="opacity:0.05;fill:#002255;fill-opacity:1;stroke:none;display:inline"
       inkscape:connector-curvature="0" />
    <g
       id="g3077"
       transform="matrix(0.91359045,0,0,0.91359045,289.31377,378.35846)"
       inkscape:export-filename="/home/jacobian/Proyectos/hiperborea/app/images/g3053.png"
       inkscape:export-xdpi="179.94208"
       inkscape:export-ydpi="179.94208">
      <path
         inkscape:connector-curvature="0"
         style="fill:#b3b3b3;fill-opacity:1;stroke:none;display:inline"
         d="m 66.842831,-151.73312 -1.33027,64.48648 -80.133016,-1.647001 44.722456,46.559493 -57.835129,55.491311 64.486489,1.330278 -1.647003,80.069659 46.559493,-44.659108 55.491309,57.835138 1.33028,-64.486498 80.13299,1.64702 -44.6591,-46.5594907 57.7718,-55.4913333 -64.4865,-1.330271 1.64702,-80.133007 -46.55949,44.659107 -55.491329,-57.771777 z M 102,-38.216646 c 8.98402,0 16.21664,7.232622 16.21664,16.216644 0,8.984009 -7.23262,16.2166438 -16.21664,16.2166438 -8.984019,0 -16.216639,-7.2326348 -16.216639,-16.2166438 0,-8.98402 7.23262,-16.216644 16.216639,-16.216644 z"
         id="path2988" />
      <path
         inkscape:export-ydpi="90"
         inkscape:export-xdpi="90"
         style="fill:#002255;fill-opacity:1;stroke:none;display:inline"
         d="m 133.58566,-138.62405 -49.884119,51.93415 -41.835853,-40.16546 1.518549,72.054883 -58.00831,1.214819 51.934143,49.8841318 -40.1654458,41.8359282 72.0548368,-1.51869 1.21483,58.008348 49.884109,-52.010008 41.83586,40.16538 -1.51855,-71.978981 58.00836,-1.2146237 -52.01009,-49.8842623 40.24138,-41.835852 -72.05485,1.442645 -1.21485,-57.932408 z m -31.58567,97.186732 c 10.7683,0 19.43733,8.669064 19.43733,19.437339 0,10.768271 -8.66903,19.4373518 -19.43733,19.4373518 -10.768299,0 -19.437329,-8.6690808 -19.437329,-19.4373518 0,-10.768275 8.66905,-19.437339 19.437329,-19.437339 z"
         id="path2990"
         inkscape:connector-curvature="0" />
    </g>
    <g
       id="g3053"
       inkscape:export-xdpi="179.94208"
       inkscape:export-ydpi="179.94208"
       transform="matrix(0.79208243,0,0,0.79208243,287.19714,566.65142)">
      <path
         sodipodi:nodetypes="ccccscccssccc"
         inkscape:connector-curvature="0"
         id="path1"
         d="m -183.68063,133.91674 0,128 8,0 0,-32 c 0,-13.24663 10.75335,-24 24,-24 13.24665,0 24,10.75337 24,24 l 0,32 8,0 0,-32 c 0,-17.6622 -14.3378,-32 -32,-32 -9.55249,0 -18.14003,4.23597 -24,10.87626 l 0,-74.87626 z"
         style="fill:#002255;fill-opacity:1;fill-rule:evenodd;stroke:none;display:inline" />
      <path
         sodipodi:nodetypes="ccccc"
         style="fill:#002255;fill-opacity:1;fill-rule:evenodd;stroke:none;display:inline"
         d="m -103.68063,261.91674 -8,0 0,-64 8,0 z"
         id="path2"
         inkscape:connector-curvature="0" />
      <path
         sodipodi:nodetypes="sscccssssssss"
         inkscape:connector-curvature="0"
         id="path3"
         d="m -63.680635,197.91674 c -17.64701,0 -32,14.35301 -32,32 l 0,96 8,0 0,-74.73477 c 5.85494,6.63459 14.45573,10.73477 24,10.73477 17.647,0 32,-14.35298 32,-32 0,-17.64699 -14.353,-32 -32,-32 z m 0,8 c 13.23525,0 24,10.76477 24,24 0,13.23528 -10.76475,24 -24,24 -13.23526,0 -24,-10.76473 -24,-24 0,-13.23523 10.76474,-24 24,-24 z"
         style="fill:#002255;fill-opacity:1;fill-rule:evenodd;stroke:none;display:inline" />
      <path
         sodipodi:nodetypes="sssccsccssccss"
         inkscape:connector-curvature="0"
         style="fill:#002255;fill-opacity:1;stroke:none;display:inline"
         d="m 0.31936548,197.91674 c -17.66905048,0 -32.00000048,14.33098 -32.00000048,32 0,17.66904 14.33095,32 32.00000048,32 17.66904952,0 31.99012952,-14.3165 31.99999952,-32 l -8,0 c -0.0398,13.25562 -10.75883,24 -23.99999952,24 -6.26383998,0 -11.95903048,-2.42249 -16.22986048,-6.3558 l 43.95843,-33.60529 c -5.7448,-9.93484 -16.2987,-16.03891 -27.72856952,-16.03891 z m 0,8.03361 c 6.12331002,0 12.01427952,2.33989 16.45610952,6.53436 l -37.6362,28.68331 c -1.78419,-3.35358 -2.80048,-7.18764 -2.80048,-11.25128 0,-13.24113 10.7394,-23.96639 23.98057048,-23.96639 z"
         id="path4" />
      <path
         sodipodi:nodetypes="sscccsccs"
         inkscape:connector-curvature="0"
         id="path5"
         d="m 64.319365,197.91673 c -17.67481,0 -32,14.32521 -32,32.00001 l 0,32 8,0 0,-32 c 0,-13.2561 10.7439,-24 24,-24 13.25609,0 24,10.7439 24,24 l 8,0 c 0,-17.6748 -14.32519,-32.00001 -32,-32.00001 z"
         style="fill:#002255;fill-opacity:1;fill-rule:evenodd;stroke:none;display:inline" />
      <path
         style="fill:#002255;fill-opacity:1;fill-rule:evenodd;stroke:none;display:inline"
         d="m 189.56065,189.69711 c -1.56853,-1.56854 -1.56853,-4.09408 0,-5.66262 l 16.98781,-16.98783 c 1.56858,-1.56854 4.09408,-1.56853 5.66261,2e-5 1.56855,1.56851 1.56855,4.09404 0,5.66257 l -16.98784,16.98783 c -1.56849,1.56855 -4.09404,1.56855 -5.66258,3e-5 z"
         id="path7"
         inkscape:connector-curvature="0" />
      <path
         sodipodi:nodetypes="ssssssssss"
         inkscape:connector-curvature="0"
         id="path8"
         d="m 192.31937,197.91674 c -17.69109,0 -32,14.30891 -32,32 0,17.69109 14.30891,32 32,32 17.69105,0 32.3,-14.30891 32.3,-32 0,-17.69109 -14.60895,-32 -32.3,-32 z m 0,8 c 13.2683,0 24,10.73168 24,24 0,13.26831 -10.7317,24 -24,24 -13.26835,0 -24,-10.73169 -24,-24 0,-13.26832 10.73165,-24 24,-24 z"
         style="fill:#002255;fill-opacity:1;fill-rule:evenodd;stroke:none;display:inline" />
      <path
         inkscape:connector-curvature="0"
         id="path11"
         d="m 384.31935,197.91674 c -17.67089,0 -31.99998,14.3291 -31.99998,32 0,17.67091 14.32909,32 31.99998,32 9.55721,0 18.13714,-4.1924 24.00002,-10.83597 l 0,10.83597 8,0 0,-32 c 0,-17.6709 -14.32912,-32 -32.00002,-32 z m 0,8 c 13.25316,0 24.00002,10.84683 24.00002,24.1 0,13.25318 -10.74686,23.9 -24.00002,23.9 -13.25317,0 -24,-10.74682 -24,-24 0,-13.25317 10.74683,-24 24,-24 z"
         style="fill:#002255;fill-opacity:1;fill-rule:evenodd;stroke:none;display:inline"
         sodipodi:nodetypes="ssscccsssssss" />
      <path
         style="fill:#002255;fill-opacity:1;fill-rule:evenodd;stroke:none;display:inline"
         d="m 128.31937,261.91674 c -17.64701,0 -32.000005,-14.35301 -32.000005,-32 l 0,-96 8.000005,0 0,74.73477 c 5.85494,-6.63459 14.45573,-10.73477 24,-10.73477 17.647,0 32,14.35298 32,32 0,17.64699 -14.353,32 -32,32 z m 0,-8 c 13.23525,0 24,-10.76477 24,-24 0,-13.23528 -10.76475,-24 -24,-24 -13.23526,0 -24,10.76473 -24,24 0,13.23523 10.76474,24 24,24 z"
         id="path3014"
         inkscape:connector-curvature="0"
         sodipodi:nodetypes="sscccssssssss" />
      <path
         style="fill:#002255;fill-opacity:1;fill-rule:evenodd;stroke:none;display:inline"
         d="m 256.31937,197.91673 c -17.67481,0 -32,14.32521 -32,32.00001 l 0,32 8,0 0,-32 c 0,-13.2561 10.7439,-24 24,-24 13.25609,0 24,10.7439 24,24 l 8,0 c 0,-17.6748 -14.32519,-32.00001 -32,-32.00001 z"
         id="path3016"
         inkscape:connector-curvature="0"
         sodipodi:nodetypes="sscccsccs" />
      <path
         id="path3018"
         d="m 320.31937,197.91674 c -17.66905,0 -32,14.33098 -32,32 0,17.66904 14.33095,32 32,32 17.66905,0 31.99013,-14.3165 32,-32 l -8,0 c -0.0398,13.25562 -10.75883,24 -24,24 -6.26384,0 -11.95903,-2.42249 -16.22986,-6.3558 l 43.95843,-33.60529 c -5.7448,-9.93484 -16.2987,-16.03891 -27.72857,-16.03891 z m 0,8.03361 c 6.12331,0 12.01428,2.33989 16.45611,6.53436 l -37.6362,28.68331 c -1.78419,-3.35358 -2.80048,-7.18764 -2.80048,-11.25128 0,-13.24113 10.7394,-23.96639 23.98057,-23.96639 z"
         style="fill:#002255;fill-opacity:1;stroke:none;display:inline"
         inkscape:connector-curvature="0"
         sodipodi:nodetypes="sssccsccssccss" />
      <g
         id="text2994"
         style="font-size:48px;font-style:normal;font-variant:normal;font-weight:normal;font-stretch:normal;text-align:start;line-height:125%;letter-spacing:0px;word-spacing:0px;writing-mode:lr-tb;text-anchor:start;fill:#002255;fill-opacity:1;stroke:none;display:inline;font-family:Helvetica Neue LT Com;-inkscape-font-specification:Helvetica Neue LT Com"
         transform="translate(-191.68063,-442.08326)">
        <path
           id="path2997"
           d="m 431.86975,725.28 4.224,0 0,34.272 -4.224,0 0,-34.272"
           inkscape:connector-curvature="0" />
        <path
           id="path2999"
           d="m 452.03575,759.552 -4.224,0 0,-30.528 -8.592,0 0,-3.744 21.456,0 0,3.744 -8.64,0 0,30.528"
           inkscape:connector-curvature="0" />
        <path
           id="path3001"
           d="m 489.91375,734.16 c -10e-6,-0.89597 -0.096,-1.71197 -0.288,-2.448 -0.16001,-0.76797 -0.44801,-1.40797 -0.864,-1.92 -0.41601,-0.54397 -0.97601,-0.95997 -1.68,-1.248 -0.67201,-0.31997 -1.50401,-0.47997 -2.496,-0.48 -1.82401,3e-5 -3.232,0.48003 -4.224,1.44 -0.96,0.92803 -1.44,2.30403 -1.44,4.128 0,1.60003 0.4,2.83203 1.2,3.696 0.8,0.86402 1.792,1.55202 2.976,2.064 1.21599,0.51202 2.51199,0.97602 3.888,1.392 1.40799,0.38402 2.70399,0.91202 3.888,1.584 1.21598,0.67202 2.22398,1.60002 3.024,2.784 0.79998,1.18402 1.19998,2.81601 1.2,4.896 -2e-5,1.98401 -0.33602,3.63201 -1.008,4.944 -0.64002,1.31201 -1.47202,2.352 -2.496,3.12 -1.02401,0.768 -2.17601,1.312 -3.456,1.632 -1.24801,0.32 -2.48001,0.48 -3.696,0.48 -2.01601,0 -3.696,-0.256 -5.04,-0.768 -1.312,-0.512 -2.368,-1.248 -3.168,-2.208 -0.768,-0.95999 -1.328,-2.14399 -1.68,-3.552 -0.32,-1.43999 -0.48,-3.07199 -0.48,-4.896 l 4.224,0 c 0,0.96001 0.048,1.92001 0.144,2.88 0.096,0.92801 0.352,1.77601 0.768,2.544 0.416,0.76801 1.056,1.39201 1.92,1.872 0.86399,0.448 2.06399,0.672 3.6,0.672 0.83199,0 1.61599,-0.144 2.352,-0.432 0.73599,-0.28799 1.35999,-0.68799 1.872,-1.2 0.54399,-0.54399 0.95999,-1.18399 1.248,-1.92 0.31999,-0.73599 0.47999,-1.56799 0.48,-2.496 -1e-5,-1.21599 -0.24001,-2.20799 -0.72,-2.976 -0.44801,-0.76799 -1.05601,-1.40798 -1.824,-1.92 -0.73601,-0.54398 -1.60001,-0.97598 -2.592,-1.296 -0.96001,-0.35198 -1.95201,-0.70398 -2.976,-1.056 -0.992,-0.35198 -1.984,-0.73598 -2.976,-1.152 -0.96,-0.44798 -1.824,-1.00798 -2.592,-1.68 -0.736,-0.70398 -1.344,-1.58398 -1.824,-2.64 -0.448,-1.05598 -0.672,-2.36797 -0.672,-3.936 0,-0.79997 0.112,-1.72797 0.336,-2.784 0.224,-1.08797 0.688,-2.12797 1.392,-3.12 0.736,-0.99197 1.76,-1.82396 3.072,-2.496 1.312,-0.70396 3.05599,-1.05596 5.232,-1.056 3.29599,4e-5 5.69599,0.80004 7.2,2.4 1.53598,1.56803 2.33598,3.95203 2.4,7.152 l -4.224,0"
           inkscape:connector-curvature="0" />
        <path
           id="path3003"
           d="m 502.58575,747.168 c 0,0.99201 0.016,2.06401 0.048,3.216 0.064,1.15201 0.256,2.22401 0.576,3.216 0.32,0.99201 0.8,1.82401 1.44,2.496 0.672,0.64 1.63199,0.96 2.88,0.96 0.95999,0 1.72799,-0.208 2.304,-0.624 0.57599,-0.44799 1.00799,-0.97599 1.296,-1.584 0.31999,-0.63999 0.52799,-1.29599 0.624,-1.968 0.096,-0.70399 0.14399,-1.29599 0.144,-1.776 l 4.032,0 c -10e-6,0.67201 -0.12801,1.53601 -0.384,2.592 -0.22401,1.02401 -0.65601,2.03201 -1.296,3.024 -0.64001,0.96 -1.52001,1.792 -2.64,2.496 -1.12001,0.672 -2.56001,1.008 -4.32,1.008 -3.168,0 -5.456,-1.088 -6.864,-3.264 -1.376,-2.17599 -2.064,-5.48799 -2.064,-9.936 0,-1.59998 0.096,-3.21598 0.288,-4.848 0.224,-1.66398 0.656,-3.15198 1.296,-4.464 0.672,-1.34397 1.6,-2.43197 2.784,-3.264 1.216,-0.86397 2.816,-1.29597 4.8,-1.296 1.95199,3e-5 3.50399,0.38403 4.656,1.152 1.15199,0.76803 2.01599,1.76003 2.592,2.976 0.57599,1.18402 0.94399,2.51202 1.104,3.984 0.15998,1.47202 0.23998,2.89602 0.24,4.272 l 0,1.632 -13.536,0 m 9.312,-3.168 0,-1.392 c -10e-6,-0.70398 -0.064,-1.42398 -0.192,-2.16 -0.12801,-0.76798 -0.36801,-1.45598 -0.72,-2.064 -0.32001,-0.60798 -0.76801,-1.10398 -1.344,-1.488 -0.57601,-0.38398 -1.31201,-0.57597 -2.208,-0.576 -1.05601,3e-5 -1.904,0.28802 -2.544,0.864 -0.608,0.54402 -1.072,1.18402 -1.392,1.92 -0.32,0.73602 -0.528,1.48802 -0.624,2.256 -0.096,0.73602 -0.144,1.29602 -0.144,1.68 l 0,0.96 9.168,0"
           inkscape:connector-curvature="0" />
        <path
           id="path3005"
           d="m 532.747,741.648 c -10e-6,-0.60798 -0.08,-1.23198 -0.24,-1.872 -0.12801,-0.63998 -0.35201,-1.21598 -0.672,-1.728 -0.28801,-0.51198 -0.70401,-0.92798 -1.248,-1.248 -0.51201,-0.31997 -1.15201,-0.47997 -1.92,-0.48 -0.64001,3e-5 -1.26401,0.11203 -1.872,0.336 -0.576,0.22402 -1.104,0.72002 -1.584,1.488 -0.48,0.73602 -0.864,1.80802 -1.152,3.216 -0.288,1.40802 -0.432,3.28002 -0.432,5.616 0,0.83201 0.016,1.82401 0.048,2.976 0.064,1.15201 0.256,2.25601 0.576,3.312 0.32,1.05601 0.8,1.95201 1.44,2.688 0.672,0.736 1.61599,1.104 2.832,1.104 0.86399,0 1.56799,-0.208 2.112,-0.624 0.54399,-0.41599 0.97599,-0.92799 1.296,-1.536 0.31999,-0.63999 0.52799,-1.32799 0.624,-2.064 0.12799,-0.76799 0.19199,-1.50399 0.192,-2.208 l 4.032,0 c -10e-6,1.02401 -0.14401,2.09601 -0.432,3.216 -0.25601,1.12001 -0.72001,2.16001 -1.392,3.12 -0.64001,0.928 -1.50401,1.712 -2.592,2.352 -1.08801,0.608 -2.43201,0.912 -4.032,0.912 -3.168,0 -5.456,-1.088 -6.864,-3.264 -1.376,-2.17599 -2.064,-5.48799 -2.064,-9.936 0,-1.59998 0.096,-3.21598 0.288,-4.848 0.224,-1.66398 0.656,-3.15198 1.296,-4.464 0.672,-1.34397 1.6,-2.43197 2.784,-3.264 1.216,-0.86397 2.816,-1.29597 4.8,-1.296 1.75999,3e-5 3.16799,0.30403 4.224,0.912 1.08799,0.60803 1.91999,1.36003 2.496,2.256 0.60799,0.86402 1.00799,1.79202 1.2,2.784 0.19199,0.96002 0.28799,1.80802 0.288,2.544 l -4.032,0"
           inkscape:connector-curvature="0" />
        <path
           id="path3007"
           d="m 557.8885,759.552 -3.84,0 0,-3.024 -0.096,0 c -0.54401,1.184 -1.40801,2.096 -2.592,2.736 -1.18401,0.64 -2.40001,0.96 -3.648,0.96 -1.696,0 -3.008,-0.272 -3.936,-0.816 -0.896,-0.576 -1.568,-1.28 -2.016,-2.112 -0.416,-0.83199 -0.656,-1.71199 -0.72,-2.64 -0.064,-0.95999 -0.096,-1.82399 -0.096,-2.592 l 0,-18.24 4.032,0 0,17.76 c 0,0.48001 0.016,1.02401 0.048,1.632 0.064,0.60801 0.224,1.18401 0.48,1.728 0.256,0.51201 0.624,0.94401 1.104,1.296 0.512,0.352 1.23199,0.528 2.16,0.528 0.54399,0 1.10399,-0.096 1.68,-0.288 0.60799,-0.19199 1.16799,-0.49599 1.68,-0.912 0.51199,-0.41599 0.92799,-0.94399 1.248,-1.584 0.31999,-0.67199 0.47999,-1.47199 0.48,-2.4 l 0,-17.76 4.032,0 0,25.728"
           inkscape:connector-curvature="0" />
        <path
           id="path3009"
           d="m 563.16325,733.824 4.032,0 0,3.84 0.096,0 c 0.288,-0.60798 0.592,-1.18397 0.912,-1.728 0.352,-0.54397 0.752,-1.02397 1.2,-1.44 0.448,-0.41597 0.94399,-0.73597 1.488,-0.96 0.57599,-0.25597 1.23199,-0.38397 1.968,-0.384 0.79999,3e-5 1.39199,0.096 1.776,0.288 l 0,3.936 c -0.19201,-0.032 -0.44801,-0.064 -0.768,-0.096 -0.28801,-0.064 -0.75201,-0.096 -1.392,-0.096 -0.51201,2e-5 -1.07201,0.12802 -1.68,0.384 -0.60801,0.22402 -1.184,0.59202 -1.728,1.104 -0.512,0.48002 -0.96,1.10402 -1.344,1.872 -0.352,0.76802 -0.528,1.68002 -0.528,2.736 l 0,16.272 -4.032,0 0,-25.728"
           inkscape:connector-curvature="0" />
        <path
           id="path3011"
           d="m 577.65325,725.28 4.032,0 0,4.608 -4.032,0 0,-4.608 m 0,8.544 4.032,0 0,25.728 -4.032,0 0,-25.728"
           inkscape:connector-curvature="0" />
        <path
           id="path3013"
           d="m 588.36325,726.336 4.032,0 0,7.488 4.464,0 0,3.168 -4.464,0 0,16.512 c 0,1.02401 0.176,1.76001 0.528,2.208 0.352,0.44801 1.05599,0.67201 2.112,0.672 0.44799,10e-6 0.79999,-0.016 1.056,-0.048 0.25599,-0.032 0.49599,-0.064 0.72,-0.096 l 0,3.312 c -0.25601,0.064 -0.65601,0.128 -1.2,0.192 -0.54401,0.064 -1.23201,0.096 -2.064,0.096 -1.056,0 -1.92,-0.096 -2.592,-0.288 -0.672,-0.224 -1.2,-0.544 -1.584,-0.96 -0.384,-0.448 -0.656,-0.992 -0.816,-1.632 -0.128,-0.63999 -0.192,-1.37599 -0.192,-2.208 l 0,-17.76 -3.744,0 0,-3.168 3.744,0 0,-7.488"
           inkscape:connector-curvature="0" />
        <path
           id="path3015"
           d="m 597.472,733.824 4.416,0 5.088,20.64 0.096,0 4.512,-20.64 4.416,0 -7.44,27.456 c -0.25601,0.896 -0.52801,1.744 -0.816,2.544 -0.28801,0.8 -0.68801,1.504 -1.2,2.112 -0.48,0.63999 -1.104,1.13599 -1.872,1.488 -0.768,0.38399 -1.76,0.57599 -2.976,0.576 -0.8,-10e-6 -1.408,-0.016 -1.824,-0.048 -0.384,-0.032 -0.752,-0.064 -1.104,-0.096 l 0,-3.168 c 0.576,0.096 1.36,0.144 2.352,0.144 0.928,0 1.616,-0.24 2.064,-0.72 0.48,-0.48 0.848,-1.072 1.104,-1.776 l 0.768,-2.256 -7.584,-26.256"
           inkscape:connector-curvature="0" />
      </g>
    </g>
    <path
       sodipodi:nodetypes="ccccc"
       inkscape:connector-curvature="0"
       id="path3950"
       d="m 0.00789182,39.98737 765.02482818,0 0,-40 -765.02482818,0 z"
       style="fill:#002255;fill-opacity:1;stroke:none" />
    <text
       xml:space="preserve"
       style="font-size:26.24731255px;font-style:normal;font-variant:normal;font-weight:500;font-stretch:condensed;text-align:start;line-height:125%;letter-spacing:0px;word-spacing:0px;writing-mode:lr-tb;text-anchor:start;fill:#ffffff;fill-opacity:1;stroke:none;font-family:Akzidenz-Grotesk BQ Condensed;-inkscape-font-specification:'Akzidenz-Grotesk BQ Condensed, Medium Condensed'"
       x="554.08374"
       y="977.177"
       id="text3963"
       sodipodi:linespacing="125%"><tspan
         sodipodi:role="line"
         id="tspan3965"
         x="554.08374"
         y="977.177">http://hiperborea.com.bo</tspan></text>
    <g
       id="g4010"
       transform="translate(0,-12.91221)">
      <path
         inkscape:connector-curvature="0"
         id="path3991"
         d="m 252.3125,889.90987 c -11.0457,0 -20,8.9543 -20,20 0,11.0457 8.9543,20 20,20 0.0418,0 0.0833,2.6e-4 0.125,0 l 260.125,0 c 11.0457,0 20,-8.9543 20,-20 0,-11.0457 -8.9543,-20 -20,-20 l -260.125,0 c -0.0417,-2.6e-4 -0.0832,0 -0.125,0 z"
         style="fill:#002255;fill-opacity:1;fill-rule:evenodd;stroke:none" />
      <text
         xml:space="preserve"
         style="font-size:27.61387444px;font-style:normal;font-variant:normal;font-weight:500;font-stretch:condensed;text-align:start;line-height:125%;letter-spacing:0px;word-spacing:0px;writing-mode:lr-tb;text-anchor:start;fill:#ffffff;fill-opacity:1;stroke:none;font-family:Helvetica;-inkscape-font-specification:Helvetica Medium Condensed"
         x="264.99936"
         y="919.50018"
         id="text3981"
         sodipodi:linespacing="125%"><tspan
           sodipodi:role="line"
           id="tspan3983"
           x="264.99936"
           y="919.50018">Catálogo de Servicios</tspan></text>
    </g>
  </g>
</svg>
