<svg xmlns="http://www.w3.org/2000/svg" viewBox="0 0 540.00001 145.05841" height="1.612in" width="6in"><g><g><path fill="#025" fill-rule="evenodd" stroke-linecap="square" d="M0 .014h540.078v145.08H0z"/><g><path d="M62.897 36.312l-.372 18.033-22.41-.46 12.507 13.02L36.45 82.422l18.032.372-.46 22.39 13.02-12.487L82.56 108.87l.37-18.033 22.41.46-12.49-13.02 16.157-15.517-18.033-.372.46-22.41-13.02 12.49-15.517-16.156zm9.83 31.744c2.513 0 4.536 2.023 4.536 4.535 0 2.513-2.023 4.536-4.535 4.536s-4.535-2.023-4.535-4.535c0-2.51 2.023-4.534 4.535-4.534z" fill="#b3b3b3" fill-opacity=".471"/><path d="M81.56 39.978L67.61 54.5 55.913 43.27l.425 20.15-16.222.338 14.523 13.95-11.232 11.7 20.15-.426.34 16.222 13.95-14.544 11.698 11.232-.425-20.13 16.22-.338-14.543-13.95 11.253-11.7-20.15.404-.34-16.2zM72.73 67.156c3.01 0 5.435 2.424 5.435 5.435 0 3.012-2.424 5.436-5.435 5.436-3.01 0-5.435-2.424-5.435-5.435 0-3.01 2.424-5.434 5.435-5.434z" fill="#fff"/></g><g fill="#fff"><path d="M127.244 18.533v74.112h4.632V74.117c0-7.67 6.226-13.896 13.896-13.896 7.67 0 13.896 6.227 13.896 13.897v18.528h4.632V74.117c0-10.227-8.302-18.528-18.528-18.528-5.53 0-10.503 2.45-13.896 6.296V18.533z" fill-rule="evenodd"/><path d="M173.564 92.645h-4.632V55.59h4.632z" fill-rule="evenodd"/><path d="M196.724 55.59c-10.218 0-18.528 8.31-18.528 18.527V129.7h4.632V86.43c3.39 3.84 8.37 6.215 13.896 6.215 10.218 0 18.528-8.31 18.528-18.528 0-10.218-8.31-18.528-18.528-18.528zm0 4.63c7.663 0 13.896 6.234 13.896 13.897s-6.233 13.896-13.896 13.896c-7.663 0-13.896-6.233-13.896-13.896 0-7.663 6.233-13.896 13.896-13.896z" fill-rule="evenodd"/><path d="M233.78 55.59c-10.23 0-18.528 8.296-18.528 18.527 0 10.23 8.298 18.528 18.528 18.528 10.23 0 18.522-8.29 18.528-18.528h-4.632c-.023 7.675-6.23 13.896-13.896 13.896-3.627 0-6.924-1.403-9.397-3.68l25.452-19.458c-3.326-5.752-9.437-9.286-16.055-9.286zm0 4.65c3.545 0 6.956 1.355 9.528 3.784l-21.79 16.607c-1.034-1.94-1.623-4.16-1.623-6.513 0-7.667 6.218-13.877 13.885-13.877z"/><path d="M270.836 55.59c-10.234 0-18.528 8.293-18.528 18.527v18.528h4.632V74.117c0-7.676 6.22-13.896 13.896-13.896 7.675 0 13.896 6.22 13.896 13.897h4.632c0-10.234-8.294-18.528-18.528-18.528z" fill-rule="evenodd"/><path d="M343.35 50.83c-.907-.91-.907-2.37 0-3.28l9.837-9.835c.908-.908 2.37-.908 3.278 0 .908.908.908 2.37 0 3.28l-9.836 9.835c-.91.908-2.37.908-3.28 0z" fill-rule="evenodd"/><path d="M344.948 55.59c-10.243 0-18.528 8.284-18.528 18.527s8.285 18.528 18.528 18.528c10.243 0 18.702-8.285 18.702-18.528 0-10.243-8.46-18.528-18.702-18.528zm0 4.63c7.682 0 13.896 6.214 13.896 13.897 0 7.682-6.214 13.896-13.896 13.896s-13.896-6.214-13.896-13.896c0-7.683 6.214-13.896 13.896-13.896z" fill-rule="evenodd"/><path d="M456.116 55.59c-10.23 0-18.528 8.295-18.528 18.527 0 10.23 8.297 18.528 18.528 18.528 5.534 0 10.5-2.428 13.896-6.274v6.275h4.632V74.117c0-10.232-8.297-18.528-18.528-18.528zm0 4.63c7.674 0 13.896 6.28 13.896 13.955 0 7.673-6.222 13.838-13.896 13.838S442.22 81.79 442.22 74.117c0-7.674 6.222-13.896 13.896-13.896z" fill-rule="evenodd"/><path d="M307.892 92.645c-10.218 0-18.528-8.31-18.528-18.528V18.533h4.632v43.27c3.39-3.84 8.37-6.214 13.896-6.214 10.218 0 18.528 8.31 18.528 18.527s-8.31 18.528-18.528 18.528zm0-4.632c7.663 0 13.896-6.233 13.896-13.896 0-7.664-6.233-13.896-13.896-13.896-7.663 0-13.896 6.233-13.896 13.897 0 7.663 6.233 13.896 13.896 13.896z" fill-rule="evenodd"/><path d="M382.004 55.59c-10.234 0-18.528 8.293-18.528 18.527v18.528h4.632V74.117c0-7.676 6.22-13.896 13.896-13.896 7.675 0 13.896 6.22 13.896 13.897h4.632c0-10.234-8.294-18.528-18.528-18.528z" fill-rule="evenodd"/><path d="M419.06 55.59c-10.23 0-18.528 8.296-18.528 18.527 0 10.23 8.298 18.528 18.528 18.528 10.23 0 18.522-8.29 18.528-18.528h-4.632c-.023 7.675-6.23 13.896-13.896 13.896-3.627 0-6.924-1.403-9.397-3.68l25.452-19.458c-3.326-5.752-9.437-9.286-16.055-9.286zm0 4.65c3.545 0 6.956 1.355 9.528 3.784l-21.79 16.607c-1.034-1.94-1.623-4.16-1.623-6.513 0-7.667 6.218-13.877 13.885-13.877z"/><g style="line-height:125%;-inkscape-font-specification:'Helvetica Neue LT Com';text-align:start" font-size="48" font-family="Helvetica Neue LT Com" letter-spacing="0" word-spacing="0"><path d="M372.665 104.966h2.445v19.844h-2.445v-19.844"/><path d="M384.34 124.81h-2.445v-17.676h-4.975v-2.168h12.423v2.168h-5.002v17.676"/><path d="M406.272 110.108c0-.52-.056-.992-.167-1.418-.092-.444-.26-.815-.5-1.11-.24-.316-.565-.557-.973-.724-.39-.185-.87-.278-1.445-.278-1.056 0-1.87.278-2.446.834-.554.537-.832 1.334-.832 2.39 0 .926.23 1.64.694 2.14.464.5 1.038.9 1.724 1.195.704.296 1.454.565 2.25.806.816.222 1.566.528 2.252.917.704.39 1.288.926 1.75 1.612.464.686.696 1.63.696 2.835 0 1.15-.195 2.103-.584 2.862-.37.76-.852 1.36-1.445 1.806-.593.445-1.26.76-2 .945-.724.186-1.437.28-2.14.28-1.168 0-2.14-.15-2.92-.446-.76-.296-1.37-.723-1.834-1.278-.443-.556-.768-1.242-.97-2.057-.187-.835-.28-1.78-.28-2.836h2.446c0 .556.028 1.112.084 1.668.055.537.204 1.028.444 1.473.24.444.612.806 1.112 1.084.5.258 1.195.388 2.085.388.482 0 .936-.084 1.362-.25.426-.167.788-.4 1.084-.695.315-.315.556-.686.723-1.112.184-.425.277-.907.277-1.444 0-.704-.14-1.28-.417-1.723-.26-.445-.612-.815-1.056-1.112-.426-.314-.927-.564-1.5-.75-.557-.203-1.13-.407-1.724-.61-.574-.205-1.15-.427-1.723-.668-.556-.26-1.056-.583-1.5-.972-.427-.408-.78-.918-1.057-1.53-.26-.61-.39-1.37-.39-2.278 0-.463.066-1 .195-1.612.13-.63.4-1.232.806-1.806.427-.575 1.02-1.056 1.78-1.446.76-.407 1.77-.61 3.03-.61 1.908 0 3.297.462 4.168 1.39.89.907 1.353 2.287 1.39 4.14h-2.446"/><path d="M413.61 117.64c0 .574.008 1.194.027 1.86.037.668.148 1.29.333 1.863.186.575.464 1.057.834 1.446.39.37.945.554 1.668.554.556 0 1-.12 1.334-.36.333-.26.583-.566.75-.918.185-.37.306-.75.36-1.14.057-.407.085-.75.085-1.028h2.335c0 .39-.074.89-.222 1.5-.13.594-.38 1.178-.75 1.752-.37.556-.88 1.037-1.53 1.445-.647.39-1.48.584-2.5.584-1.835 0-3.16-.63-3.974-1.89-.798-1.26-1.197-3.18-1.197-5.754 0-.926.056-1.862.167-2.807.13-.965.38-1.826.75-2.586.39-.778.927-1.408 1.613-1.89.704-.5 1.63-.75 2.78-.75 1.13 0 2.028.222 2.695.667.667.446 1.167 1.02 1.5 1.724.334.686.547 1.455.64 2.307.092.853.138 1.678.138 2.474v.945h-7.837m5.39-1.835V115c0-.41-.036-.825-.11-1.252-.074-.444-.213-.843-.417-1.195-.186-.352-.445-.64-.778-.86-.334-.224-.76-.335-1.28-.335-.61 0-1.1.167-1.472.5-.352.316-.62.686-.806 1.112-.185.426-.306.862-.36 1.306-.057.427-.084.75-.084.973v.555H419"/><path d="M431.073 114.443c0-.352-.047-.713-.14-1.084-.074-.37-.203-.705-.39-1-.165-.298-.406-.54-.72-.724-.298-.185-.668-.278-1.113-.278-.37 0-.732.065-1.084.195-.333.13-.64.417-.917.86-.28.428-.5 1.048-.668 1.863-.167.816-.25 1.9-.25 3.252 0 .482.01 1.056.028 1.723.037.668.148 1.307.333 1.92.186.61.464 1.13.834 1.555.39.426.936.64 1.64.64.5 0 .908-.12 1.223-.362.315-.24.565-.537.75-.89.185-.37.306-.768.36-1.194.075-.446.113-.872.113-1.28h2.334c0 .593-.083 1.214-.25 1.862-.148.65-.417 1.25-.806 1.807-.37.536-.87.99-1.5 1.36-.63.353-1.408.53-2.334.53-1.835 0-3.16-.63-3.975-1.89-.795-1.26-1.194-3.18-1.194-5.754 0-.926.056-1.862.167-2.807.13-.965.38-1.826.75-2.586.39-.778.927-1.408 1.612-1.89.704-.5 1.63-.75 2.78-.75 1.02 0 1.834.176 2.445.528.63.352 1.112.788 1.445 1.306.353.5.584 1.038.695 1.612.11.556.167 1.047.167 1.473h-2.334"/><path d="M445.63 124.81h-2.224v-1.75h-.056c-.314.684-.815 1.212-1.5 1.583-.686.37-1.39.556-2.112.556-.982 0-1.742-.16-2.28-.474-.518-.333-.907-.74-1.167-1.223-.24-.48-.378-.99-.416-1.528-.037-.556-.055-1.056-.055-1.5v-10.562h2.333v10.283c0 .278.01.593.028.945.038.353.13.687.28 1.002.147.296.36.546.638.75.297.204.714.306 1.25.306.316 0 .64-.056.974-.167.352-.11.676-.286.972-.527.297-.24.538-.547.723-.917.185-.39.278-.853.278-1.39v-10.283h2.334v14.897"/><path d="M448.684 109.913h2.334v2.223h.056c.166-.352.342-.685.528-1 .203-.315.435-.593.694-.834.26-.24.547-.426.862-.556.334-.148.713-.222 1.14-.222.463 0 .805.056 1.028.167v2.28c-.11-.02-.26-.037-.445-.056-.166-.037-.434-.055-.805-.055-.296 0-.62.073-.973.22-.352.13-.685.344-1 .64-.297.278-.556.64-.778 1.084-.204.445-.306.973-.306 1.584v9.422h-2.334v-14.897"/><path d="M457.073 104.966h2.335v2.668h-2.335v-2.668m0 4.947h2.335v14.897h-2.335v-14.897"/><path d="M463.274 105.578h2.335v4.335h2.584v1.834h-2.585v9.56c0 .594.1 1.02.305 1.28.203.26.61.388 1.222.388.26 0 .464-.01.612-.027l.416-.056v1.918c-.15.037-.38.074-.695.11-.314.038-.712.056-1.194.056-.612 0-1.112-.055-1.5-.166-.39-.13-.696-.315-.918-.556-.222-.26-.38-.575-.473-.945-.074-.372-.11-.798-.11-1.28v-10.283h-2.168v-1.834h2.167v-4.335"/><path d="M468.548 109.913h2.557l2.946 11.95h.057l2.612-11.95h2.556l-4.308 15.897c-.148.52-.305 1.01-.472 1.473-.167.463-.4.87-.695 1.223-.277.37-.638.658-1.083.86-.445.224-1.02.335-1.723.335-.463 0-.815-.008-1.056-.027-.222-.018-.436-.037-.64-.055v-1.835c.334.056.788.084 1.362.084.538 0 .936-.14 1.196-.417.277-.278.49-.62.64-1.028l.443-1.307-4.392-15.202"/></g></g></g></g></svg>