<svg xmlns="http://www.w3.org/2000/svg" viewBox="0 0 1233 145.05883" height="1.612in" width="13.7in"><g><g><path fill="#025" fill-rule="evenodd" stroke-linecap="square" d="M0 .015h1233.18v145.08H0z"/><g><path d="M62.897 36.313l-.372 18.033-22.41-.46 12.507 13.02L36.45 82.423l18.032.372-.46 22.39L67.042 92.7 82.56 108.87l.37-18.032 22.41.46-12.49-13.02 16.157-15.517-18.033-.37.46-22.41-13.02 12.49-15.517-16.157zm9.83 31.744c2.513 0 4.536 2.023 4.536 4.535s-2.023 4.535-4.535 4.535-4.535-2.023-4.535-4.535 2.023-4.535 4.535-4.535z" fill="#b3b3b3" fill-opacity=".471"/><path d="M81.56 39.98L67.61 54.5 55.913 43.27l.425 20.15-16.222.34 14.523 13.95-11.232 11.698 20.15-.425.34 16.222 13.95-14.544 11.698 11.233-.425-20.13 16.22-.338-14.543-13.95 11.253-11.7-20.15.404-.34-16.2zM72.73 67.156c3.01 0 5.435 2.424 5.435 5.435 0 3.01-2.424 5.435-5.435 5.435-3.01 0-5.435-2.424-5.435-5.435 0-3.01 2.424-5.435 5.435-5.435z" fill="#fff"/></g><g fill="#fff"><path d="M127.244 18.534v74.112h4.632V74.118c0-7.67 6.226-13.896 13.896-13.896 7.67 0 13.896 6.226 13.896 13.896v18.528h4.632V74.118c0-10.227-8.302-18.528-18.528-18.528-5.53 0-10.503 2.452-13.896 6.297V18.534z" fill-rule="evenodd"/><path d="M173.564 92.646h-4.632V55.59h4.632z" fill-rule="evenodd"/><path d="M196.724 55.59c-10.218 0-18.528 8.31-18.528 18.528v55.584h4.632V86.43c3.39 3.842 8.37 6.216 13.896 6.216 10.218 0 18.528-8.31 18.528-18.528 0-10.218-8.31-18.528-18.528-18.528zm0 4.632c7.663 0 13.896 6.233 13.896 13.896 0 7.663-6.233 13.896-13.896 13.896-7.663 0-13.896-6.233-13.896-13.896 0-7.663 6.233-13.896 13.896-13.896z" fill-rule="evenodd"/><path d="M233.78 55.59c-10.23 0-18.528 8.297-18.528 18.528 0 10.23 8.298 18.528 18.528 18.528 10.23 0 18.522-8.29 18.528-18.528h-4.632c-.023 7.675-6.23 13.896-13.896 13.896-3.627 0-6.924-1.403-9.397-3.68l25.452-19.458c-3.326-5.752-9.437-9.286-16.055-9.286zm0 4.65c3.545 0 6.956 1.356 9.528 3.785l-21.79 16.607c-1.034-1.942-1.623-4.16-1.623-6.514 0-7.667 6.218-13.877 13.885-13.877z"/><path d="M270.836 55.59c-10.234 0-18.528 8.294-18.528 18.528v18.528h4.632V74.118c0-7.676 6.22-13.896 13.896-13.896 7.675 0 13.896 6.22 13.896 13.896h4.632c0-10.234-8.294-18.528-18.528-18.528z" fill-rule="evenodd"/><path d="M343.35 50.83c-.907-.908-.907-2.37 0-3.278l9.837-9.836c.908-.908 2.37-.908 3.278 0 .908.908.908 2.37 0 3.28l-9.836 9.835c-.91.91-2.37.91-3.28 0z" fill-rule="evenodd"/><path d="M344.948 55.59c-10.243 0-18.528 8.285-18.528 18.528 0 10.243 8.285 18.528 18.528 18.528 10.243 0 18.702-8.285 18.702-18.528 0-10.243-8.46-18.528-18.702-18.528zm0 4.632c7.682 0 13.896 6.213 13.896 13.896 0 7.682-6.214 13.896-13.896 13.896s-13.896-6.214-13.896-13.896c0-7.683 6.214-13.896 13.896-13.896z" fill-rule="evenodd"/><path d="M456.116 55.59c-10.23 0-18.528 8.296-18.528 18.528 0 10.23 8.297 18.528 18.528 18.528 5.534 0 10.5-2.428 13.896-6.274v6.274h4.632V74.118c0-10.232-8.297-18.528-18.528-18.528zm0 4.632c7.674 0 13.896 6.28 13.896 13.954 0 7.673-6.222 13.838-13.896 13.838S442.22 81.79 442.22 74.118c0-7.674 6.222-13.896 13.896-13.896z" fill-rule="evenodd"/><path d="M307.892 92.646c-10.218 0-18.528-8.31-18.528-18.528V18.534h4.632v43.27c3.39-3.84 8.37-6.214 13.896-6.214 10.218 0 18.528 8.31 18.528 18.528 0 10.217-8.31 18.528-18.528 18.528zm0-4.632c7.663 0 13.896-6.233 13.896-13.896 0-7.664-6.233-13.896-13.896-13.896-7.663 0-13.896 6.232-13.896 13.896 0 7.663 6.233 13.896 13.896 13.896z" fill-rule="evenodd"/><path d="M382.004 55.59c-10.234 0-18.528 8.294-18.528 18.528v18.528h4.632V74.118c0-7.676 6.22-13.896 13.896-13.896 7.675 0 13.896 6.22 13.896 13.896h4.632c0-10.234-8.294-18.528-18.528-18.528z" fill-rule="evenodd"/><path d="M419.06 55.59c-10.23 0-18.528 8.297-18.528 18.528 0 10.23 8.298 18.528 18.528 18.528 10.23 0 18.522-8.29 18.528-18.528h-4.632c-.023 7.675-6.23 13.896-13.896 13.896-3.627 0-6.924-1.403-9.397-3.68l25.452-19.458c-3.326-5.752-9.437-9.286-16.055-9.286zm0 4.65c3.545 0 6.956 1.356 9.528 3.785l-21.79 16.607c-1.034-1.942-1.623-4.16-1.623-6.514 0-7.667 6.218-13.877 13.885-13.877z"/><g style="line-height:125%;-inkscape-font-specification:'Helvetica Neue LT Com';text-align:start" font-size="48" font-family="Helvetica Neue LT Com" letter-spacing="0" word-spacing="0"><path d="M372.665 104.967h2.445v19.844h-2.445v-19.843"/><path d="M384.34 124.81h-2.445v-17.675h-4.975v-2.168h12.423v2.168h-5.002v17.676"/><path d="M406.272 110.11c0-.52-.056-.993-.167-1.42-.092-.443-.26-.814-.5-1.11-.24-.315-.565-.556-.973-.723-.39-.185-.87-.278-1.445-.278-1.056 0-1.87.277-2.446.833-.554.537-.832 1.334-.832 2.39 0 .926.23 1.64.694 2.14.464.5 1.038.9 1.724 1.195.704.296 1.454.565 2.25.806.816.222 1.566.528 2.252.917.704.39 1.288.927 1.75 1.613.464.686.696 1.63.696 2.835 0 1.15-.195 2.103-.584 2.862-.37.76-.852 1.362-1.445 1.807-.593.445-1.26.76-2 .945-.724.185-1.437.278-2.14.278-1.168 0-2.14-.15-2.92-.445-.76-.296-1.37-.723-1.834-1.278-.443-.556-.768-1.242-.97-2.057-.187-.834-.28-1.78-.28-2.835h2.446c0 .556.028 1.112.084 1.668.055.537.204 1.028.444 1.473.24.444.612.806 1.112 1.084.5.26 1.195.39 2.085.39.482 0 .936-.085 1.362-.25.426-.168.788-.4 1.084-.696.315-.315.556-.686.723-1.112.184-.426.277-.908.277-1.445 0-.704-.14-1.28-.417-1.723-.26-.445-.612-.815-1.056-1.112-.426-.315-.927-.565-1.5-.75-.557-.204-1.13-.408-1.724-.612-.574-.204-1.15-.426-1.723-.667-.556-.26-1.056-.583-1.5-.972-.427-.407-.78-.917-1.057-1.528-.26-.61-.39-1.37-.39-2.28 0-.462.066-1 .195-1.61.13-.63.4-1.233.806-1.807.427-.575 1.02-1.056 1.78-1.446.76-.408 1.77-.612 3.03-.612 1.908 0 3.297.463 4.168 1.39.89.908 1.353 2.288 1.39 4.14h-2.446"/><path d="M413.61 117.64c0 .575.008 1.195.027 1.862.037.667.148 1.288.333 1.862.186.575.464 1.057.834 1.446.39.37.945.555 1.668.555.556 0 1-.12 1.334-.36.333-.26.583-.566.75-.918.185-.37.306-.75.36-1.14.057-.407.085-.75.085-1.028h2.335c0 .388-.074.89-.222 1.5-.13.593-.38 1.177-.75 1.75-.37.557-.88 1.038-1.53 1.446-.647.39-1.48.584-2.5.584-1.835 0-3.16-.63-3.974-1.89-.798-1.26-1.197-3.178-1.197-5.753 0-.926.056-1.862.167-2.807.13-.964.38-1.825.75-2.585.39-.778.927-1.408 1.613-1.89.704-.5 1.63-.75 2.78-.75 1.13 0 2.028.222 2.695.667.667.445 1.167 1.02 1.5 1.723.334.686.547 1.455.64 2.307.092.852.138 1.677.138 2.473v.945h-7.837m5.39-1.834V115c0-.408-.036-.824-.11-1.25-.074-.445-.213-.844-.417-1.196-.186-.352-.445-.64-.778-.86-.334-.224-.76-.335-1.28-.335-.61 0-1.1.166-1.472.5-.352.315-.62.685-.806 1.11-.185.427-.306.863-.36 1.307-.057.427-.084.75-.084.973v.556H419"/><path d="M431.073 114.444c0-.352-.047-.713-.14-1.084-.074-.37-.203-.704-.39-1-.165-.297-.406-.538-.72-.723-.298-.185-.668-.278-1.113-.278-.37 0-.732.064-1.084.194-.333.13-.64.417-.917.86-.28.428-.5 1.048-.668 1.863-.167.816-.25 1.9-.25 3.252 0 .48.01 1.055.028 1.722.037.667.148 1.306.333 1.918.186.61.464 1.13.834 1.556.39.426.936.64 1.64.64.5 0 .908-.12 1.223-.362.315-.24.565-.537.75-.89.185-.37.306-.768.36-1.194.075-.445.113-.87.113-1.28h2.334c0 .594-.083 1.215-.25 1.863-.148.65-.417 1.25-.806 1.807-.37.537-.87.99-1.5 1.362-.63.352-1.408.528-2.334.528-1.835 0-3.16-.63-3.975-1.89-.795-1.26-1.194-3.178-1.194-5.753 0-.926.056-1.862.167-2.807.13-.964.38-1.825.75-2.585.39-.778.927-1.408 1.612-1.89.704-.5 1.63-.75 2.78-.75 1.02 0 1.834.176 2.445.528.63.352 1.112.788 1.445 1.306.353.5.584 1.037.695 1.61.11.557.167 1.048.167 1.474h-2.334"/><path d="M445.63 124.81h-2.224v-1.75h-.056c-.314.685-.815 1.213-1.5 1.584-.686.37-1.39.556-2.112.556-.982 0-1.742-.158-2.28-.473-.518-.333-.907-.74-1.167-1.223-.24-.48-.378-.99-.416-1.528-.037-.556-.055-1.056-.055-1.5v-10.562h2.333v10.283c0 .278.01.593.028.945.038.352.13.686.28 1 .147.297.36.547.638.75.297.205.714.307 1.25.307.316 0 .64-.057.974-.168.352-.11.676-.287.972-.528.297-.24.538-.547.723-.917.185-.39.278-.853.278-1.39v-10.283h2.334v14.897"/><path d="M448.684 109.914h2.334v2.223h.056c.166-.352.342-.685.528-1 .203-.315.435-.593.694-.834.26-.24.547-.426.862-.556.334-.148.713-.222 1.14-.222.463 0 .805.056 1.028.167v2.28c-.11-.02-.26-.038-.445-.057-.166-.037-.434-.055-.805-.055-.296 0-.62.074-.973.222-.352.13-.685.343-1 .64-.297.277-.556.638-.778 1.083-.204.445-.306.973-.306 1.584v9.42h-2.334v-14.896"/><path d="M457.073 104.967h2.335v2.668h-2.335v-2.668m0 4.947h2.335v14.897h-2.335v-14.896"/><path d="M463.274 105.58h2.335v4.334h2.584v1.834h-2.585v9.56c0 .594.1 1.02.305 1.28.203.26.61.388 1.222.388.26 0 .464-.01.612-.027l.416-.057v1.918c-.15.038-.38.075-.695.112-.314.037-.712.055-1.194.055-.612 0-1.112-.055-1.5-.166-.39-.13-.696-.314-.918-.555-.222-.26-.38-.575-.473-.945-.074-.37-.11-.797-.11-1.28V111.75h-2.168v-1.834h2.167v-4.335"/><path d="M468.548 109.914h2.557l2.946 11.95h.057l2.612-11.95h2.556l-4.308 15.897c-.148.52-.305 1.01-.472 1.474-.167.463-.4.87-.695 1.223-.277.37-.638.658-1.083.86-.445.224-1.02.335-1.723.335-.463 0-.815-.01-1.056-.028-.222-.018-.436-.037-.64-.055v-1.836c.334.056.788.084 1.362.084.538 0 .936-.14 1.196-.417.277-.277.49-.62.64-1.027l.443-1.307-4.392-15.202"/></g></g><g font-size="13.75" letter-spacing="0" word-spacing="0"><text y="81.793" x="458.129" style="line-height:125%;-inkscape-font-specification:'FontAwesome, Normal';text-align:start" font-family="FontAwesome" fill="#fff" transform="matrix(1.612 0 0 1.612 152.565 -100.513)"><tspan style="line-height:125%;-inkscape-font-specification:'FontAwesome, Normal';text-align:start" y="81.793" x="458.129" font-size="13.75" font-family="FontAwesome"></tspan></text><text style="line-height:125%;-inkscape-font-specification:'FontAwesome, Normal';text-align:start" x="456.254" y="102.94" font-family="FontAwesome" fill="#fff" transform="matrix(1.612 0 0 1.612 152.565 -100.513)"><tspan x="456.254" y="102.94" style="line-height:125%;-inkscape-font-specification:'FontAwesome, Normal';text-align:start" font-size="13.75" font-family="FontAwesome"></tspan></text><text y="122.49" x="454.379" style="line-height:125%;-inkscape-font-specification:'FontAwesome, Normal';text-align:start" font-family="FontAwesome" fill="#fff" transform="matrix(1.612 0 0 1.612 152.565 -100.513)"><tspan style="line-height:125%;-inkscape-font-specification:'FontAwesome, Normal';text-align:start" y="122.49" x="454.379" font-size="13.75" font-family="FontAwesome"></tspan></text><text style="line-height:125%;-inkscape-font-specification:'FontAwesome, Normal';text-align:start" x="455.004" y="144.653" font-family="FontAwesome" fill="#fff" transform="matrix(1.612 0 0 1.612 152.565 -100.513)"><tspan x="455.004" y="144.653" style="line-height:125%;-inkscape-font-specification:'FontAwesome, Normal';text-align:start" font-size="13.75" font-family="FontAwesome"></tspan></text><text y="80.677" x="481.784" style="line-height:125%;-inkscape-font-specification:'Helvetica Neue LT Com, Light Condensed';text-align:start" font-weight="300" font-stretch="condensed" font-family="Helvetica Neue LT Com" transform="matrix(1.612 0 0 1.612 152.565 -100.513)"><tspan style="line-height:125%;-inkscape-font-specification:'Helvetica Neue LT Com, Light Condensed';text-align:start" y="80.677" x="481.784" font-weight="300" font-stretch="condensed" font-size="13.75" font-family="Helvetica Neue LT Com" fill="#fff">Avenida Teófilo Vargas #431</tspan></text><text style="line-height:125%;-inkscape-font-specification:'Helvetica Neue LT Com, Light Condensed';text-align:start" x="481.082" y="102.447" font-weight="300" font-stretch="condensed" font-family="Helvetica Neue LT Com" transform="matrix(1.612 0 0 1.612 152.565 -100.513)"><tspan x="481.082" y="102.447" style="line-height:125%;-inkscape-font-specification:'Helvetica Neue LT Com, Light Condensed';text-align:start" font-weight="300" font-stretch="condensed" font-size="13.75" font-family="Helvetica Neue LT Com" fill="#fff">+591 4 403 84 06 / 727-03779</tspan></text><text y="121.852" x="480.972" style="line-height:125%;-inkscape-font-specification:'Helvetica Neue LT Com, Light Condensed';text-align:start" font-weight="300" font-stretch="condensed" font-family="Helvetica Neue LT Com" transform="matrix(1.612 0 0 1.612 152.565 -100.513)"><tspan style="line-height:125%;-inkscape-font-specification:'Helvetica Neue LT Com, Light Condensed';text-align:start" y="121.852" x="480.972" font-weight="300" font-stretch="condensed" font-size="13.75" font-family="Helvetica Neue LT Com" fill="#fff">info@hiperborea.com.bo</tspan></text><text style="line-height:125%;-inkscape-font-specification:'Helvetica Neue LT Com, Light Condensed';text-align:start" x="481.027" y="143.512" font-weight="300" font-stretch="condensed" font-family="Helvetica Neue LT Com" transform="matrix(1.612 0 0 1.612 152.565 -100.513)"><tspan x="481.027" y="143.512" style="line-height:125%;-inkscape-font-specification:'Helvetica Neue LT Com, Light Condensed';text-align:start" font-weight="300" font-stretch="condensed" font-size="13.75" font-family="Helvetica Neue LT Com" fill="#fff">http://hiperborea.com.bo</tspan></text></g></g></g></svg>