<svg xmlns="http://www.w3.org/2000/svg" viewBox="0 0 1233 145.05883" height="1.612in" width="13.7in"><g><g><path fill="#025" fill-rule="evenodd" stroke-linecap="square" d="M0 .015h1233.18v145.08H0z"/><g><path d="M62.897 36.313l-.372 18.033-22.41-.46 12.507 13.02L36.45 82.423l18.032.372-.46 22.39L67.042 92.7 82.56 108.87l.37-18.032 22.41.46-12.49-13.02 16.157-15.517-18.033-.37.46-22.41-13.02 12.49-15.517-16.157zm9.83 31.744c2.513 0 4.536 2.023 4.536 4.535s-2.023 4.535-4.535 4.535-4.535-2.023-4.535-4.535 2.023-4.535 4.535-4.535z" fill="#b3b3b3" fill-opacity=".471"/><path d="M81.56 39.98L67.61 54.5 55.913 43.27l.425 20.15-16.222.34 14.523 13.95-11.232 11.698 20.15-.425.34 16.222 13.95-14.544 11.698 11.233-.425-20.13 16.22-.338-14.543-13.95 11.253-11.7-20.15.404-.34-16.2zM72.73 67.156c3.01 0 5.435 2.424 5.435 5.435 0 3.01-2.424 5.435-5.435 5.435-3.01 0-5.435-2.424-5.435-5.435 0-3.01 2.424-5.435 5.435-5.435z" fill="#fff"/></g><g fill="#fff"><path d="M127.244 18.534v74.112h4.632V74.118c0-7.67 6.226-13.896 13.896-13.896 7.67 0 13.896 6.226 13.896 13.896v18.528h4.632V74.118c0-10.227-8.302-18.528-18.528-18.528-5.53 0-10.503 2.452-13.896 6.297V18.534z" fill-rule="evenodd"/><path d="M173.564 92.646h-4.632V55.59h4.632z" fill-rule="evenodd"/><path d="M196.724 55.59c-10.218 0-18.528 8.31-18.528 18.528v55.584h4.632V86.43c3.39 3.842 8.37 6.216 13.896 6.216 10.218 0 18.528-8.31 18.528-18.528 0-10.218-8.31-18.528-18.528-18.528zm0 4.632c7.663 0 13.896 6.233 13.896 13.896 0 7.663-6.233 13.896-13.896 13.896-7.663 0-13.896-6.233-13.896-13.896 0-7.663 6.233-13.896 13.896-13.896z" fill-rule="evenodd"/><path d="M233.78 55.59c-10.23 0-18.528 8.297-18.528 18.528 0 10.23 8.298 18.528 18.528 18.528 10.23 0 18.522-8.29 18.528-18.528h-4.632c-.023 7.675-6.23 13.896-13.896 13.896-3.627 0-6.924-1.403-9.397-3.68l25.452-19.458c-3.326-5.752-9.437-9.286-16.055-9.286zm0 4.65c3.545 0 6.956 1.356 9.528 3.785l-21.79 16.607c-1.034-1.942-1.623-4.16-1.623-6.514 0-7.667 6.218-13.877 13.885-13.877z"/><path d="M270.836 55.59c-10.234 0-18.528 8.294-18.528 18.528v18.528h4.632V74.118c0-7.676 6.22-13.896 13.896-13.896 7.675 0 13.896 6.22 13.896 13.896h4.632c0-10.234-8.294-18.528-18.528-18.528z" fill-rule="evenodd"/><path d="M343.35 50.83c-.907-.908-.907-2.37 0-3.278l9.837-9.836c.908-.908 2.37-.908 3.278 0 .908.908.908 2.37 0 3.28l-9.836 9.835c-.91.91-2.37.91-3.28 0z" fill-rule="evenodd"/><path d="M344.948 55.59c-10.243 0-18.528 8.285-18.528 18.528 0 10.243 8.285 18.528 18.528 18.528 10.243 0 18.702-8.285 18.702-18.528 0-10.243-8.46-18.528-18.702-18.528zm0 4.632c7.682 0 13.896 6.213 13.896 13.896 0 7.682-6.214 13.896-13.896 13.896s-13.896-6.214-13.896-13.896c0-7.683 6.214-13.896 13.896-13.896z" fill-rule="evenodd"/><path d="M456.116 55.59c-10.23 0-18.528 8.296-18.528 18.528 0 10.23 8.297 18.528 18.528 18.528 5.534 0 10.5-2.428 13.896-6.274v6.274h4.632V74.118c0-10.232-8.297-18.528-18.528-18.528zm0 4.632c7.674 0 13.896 6.28 13.896 13.954 0 7.673-6.222 13.838-13.896 13.838S442.22 81.79 442.22 74.118c0-7.674 6.222-13.896 13.896-13.896z" fill-rule="evenodd"/><path d="M307.892 92.646c-10.218 0-18.528-8.31-18.528-18.528V18.534h4.632v43.27c3.39-3.84 8.37-6.214 13.896-6.214 10.218 0 18.528 8.31 18.528 18.528 0 10.217-8.31 18.528-18.528 18.528zm0-4.632c7.663 0 13.896-6.233 13.896-13.896 0-7.664-6.233-13.896-13.896-13.896-7.663 0-13.896 6.232-13.896 13.896 0 7.663 6.233 13.896 13.896 13.896z" fill-rule="evenodd"/><path d="M382.004 55.59c-10.234 0-18.528 8.294-18.528 18.528v18.528h4.632V74.118c0-7.676 6.22-13.896 13.896-13.896 7.675 0 13.896 6.22 13.896 13.896h4.632c0-10.234-8.294-18.528-18.528-18.528z" fill-rule="evenodd"/><path d="M419.06 55.59c-10.23 0-18.528 8.297-18.528 18.528 0 10.23 8.298 18.528 18.528 18.528 10.23 0 18.522-8.29 18.528-18.528h-4.632c-.023 7.675-6.23 13.896-13.896 13.896-3.627 0-6.924-1.403-9.397-3.68l25.452-19.458c-3.326-5.752-9.437-9.286-16.055-9.286zm0 4.65c3.545 0 6.956 1.356 9.528 3.785l-21.79 16.607c-1.034-1.942-1.623-4.16-1.623-6.514 0-7.667 6.218-13.877 13.885-13.877z"/><g style="line-height:125%;-inkscape-font-specification:'Helvetica Neue LT Com';text-align:start" font-size="48" font-family="Helvetica Neue LT Com" letter-spacing="0" word-spacing="0"><path d="M372.665 104.967h2.445v19.844h-2.445v-19.843"/><path d="M384.34 124.81h-2.445v-17.675h-4.975v-2.168h12.423v2.168h-5.002v17.676"/><path d="M406.272 110.11c0-.52-.056-.993-.167-1.42-.092-.443-.26-.814-.5-1.11-.24-.315-.565-.556-.973-.723-.39-.185-.87-.278-1.445-.278-1.056 0-1.87.277-2.446.833-.554.537-.832 1.334-.832 2.39 0 .926.23 1.64.694 2.14.464.5 1.038.9 1.724 1.195.704.296 1.454.565 2.25.806.816.222 1.566.528 2.252.917.704.39 1.288.927 1.75 1.613.464.686.696 1.63.696 2.835 0 1.15-.195 2.103-.584 2.862-.37.76-.852 1.362-1.445 1.807-.593.445-1.26.76-2 .945-.724.185-1.437.278-2.14.278-1.168 0-2.14-.15-2.92-.445-.76-.296-1.37-.723-1.834-1.278-.443-.556-.768-1.242-.97-2.057-.187-.834-.28-1.78-.28-2.835h2.446c0 .556.028 1.112.084 1.668.055.537.204 1.028.444 1.473.24.444.612.806 1.112 1.084.5.26 1.195.39 2.085.39.482 0 .936-.085 1.362-.25.426-.168.788-.4 1.084-.696.315-.315.556-.686.723-1.112.184-.426.277-.908.277-1.445 0-.704-.14-1.28-.417-1.723-.26-.445-.612-.815-1.056-1.112-.426-.315-.927-.565-1.5-.75-.557-.204-1.13-.408-1.724-.612-.574-.204-1.15-.426-1.723-.667-.556-.26-1.056-.583-1.5-.972-.427-.407-.78-.917-1.057-1.528-.26-.61-.39-1.37-.39-2.28 0-.462.066-1 .195-1.61.13-.63.4-1.233.806-1.807.427-.575 1.02-1.056 1.78-1.446.76-.408 1.77-.612 3.03-.612 1.908 0 3.297.463 4.168 1.39.89.908 1.353 2.288 1.39 4.14h-2.446"/><path d="M413.61 117.64c0 .575.008 1.195.027 1.862.037.667.148 1.288.333 1.862.186.575.464 1.057.834 1.446.39.37.945.555 1.668.555.556 0 1-.12 1.334-.36.333-.26.583-.566.75-.918.185-.37.306-.75.36-1.14.057-.407.085-.75.085-1.028h2.335c0 .388-.074.89-.222 1.5-.13.593-.38 1.177-.75 1.75-.37.557-.88 1.038-1.53 1.446-.647.39-1.48.584-2.5.584-1.835 0-3.16-.63-3.974-1.89-.798-1.26-1.197-3.178-1.197-5.753 0-.926.056-1.862.167-2.807.13-.964.38-1.825.75-2.585.39-.778.927-1.408 1.613-1.89.704-.5 1.63-.75 2.78-.75 1.13 0 2.028.222 2.695.667.667.445 1.167 1.02 1.5 1.723.334.686.547 1.455.64 2.307.092.852.138 1.677.138 2.473v.945h-7.837m5.39-1.834V115c0-.408-.036-.824-.11-1.25-.074-.445-.213-.844-.417-1.196-.186-.352-.445-.64-.778-.86-.334-.224-.76-.335-1.28-.335-.61 0-1.1.166-1.472.5-.352.315-.62.685-.806 1.11-.185.427-.306.863-.36 1.307-.057.427-.084.75-.084.973v.556H419"/><path d="M431.073 114.444c0-.352-.047-.713-.14-1.084-.074-.37-.203-.704-.39-1-.165-.297-.406-.538-.72-.723-.298-.185-.668-.278-1.113-.278-.37 0-.732.064-1.084.194-.333.13-.64.417-.917.86-.28.428-.5 1.048-.668 1.863-.167.816-.25 1.9-.25 3.252 0 .48.01 1.055.028 1.722.037.667.148 1.306.333 1.918.186.61.464 1.13.834 1.556.39.426.936.64 1.64.64.5 0 .908-.12 1.223-.362.315-.24.565-.537.75-.89.185-.37.306-.768.36-1.194.075-.445.113-.87.113-1.28h2.334c0 .594-.083 1.215-.25 1.863-.148.65-.417 1.25-.806 1.807-.37.537-.87.99-1.5 1.362-.63.352-1.408.528-2.334.528-1.835 0-3.16-.63-3.975-1.89-.795-1.26-1.194-3.178-1.194-5.753 0-.926.056-1.862.167-2.807.13-.964.38-1.825.75-2.585.39-.778.927-1.408 1.612-1.89.704-.5 1.63-.75 2.78-.75 1.02 0 1.834.176 2.445.528.63.352 1.112.788 1.445 1.306.353.5.584 1.037.695 1.61.11.557.167 1.048.167 1.474h-2.334"/><path d="M445.63 124.81h-2.224v-1.75h-.056c-.314.685-.815 1.213-1.5 1.584-.686.37-1.39.556-2.112.556-.982 0-1.742-.158-2.28-.473-.518-.333-.907-.74-1.167-1.223-.24-.48-.378-.99-.416-1.528-.037-.556-.055-1.056-.055-1.5v-10.562h2.333v10.283c0 .278.01.593.028.945.038.352.13.686.28 1 .147.297.36.547.638.75.297.205.714.307 1.25.307.316 0 .64-.057.974-.168.352-.11.676-.287.972-.528.297-.24.538-.547.723-.917.185-.39.278-.853.278-1.39v-10.283h2.334v14.897"/><path d="M448.684 109.914h2.334v2.223h.056c.166-.352.342-.685.528-1 .203-.315.435-.593.694-.834.26-.24.547-.426.862-.556.334-.148.713-.222 1.14-.222.463 0 .805.056 1.028.167v2.28c-.11-.02-.26-.038-.445-.057-.166-.037-.434-.055-.805-.055-.296 0-.62.074-.973.222-.352.13-.685.343-1 .64-.297.277-.556.638-.778 1.083-.204.445-.306.973-.306 1.584v9.42h-2.334v-14.896"/><path d="M457.073 104.967h2.335v2.668h-2.335v-2.668m0 4.947h2.335v14.897h-2.335v-14.896"/><path d="M463.274 105.58h2.335v4.334h2.584v1.834h-2.585v9.56c0 .594.1 1.02.305 1.28.203.26.61.388 1.222.388.26 0 .464-.01.612-.027l.416-.057v1.918c-.15.038-.38.075-.695.112-.314.037-.712.055-1.194.055-.612 0-1.112-.055-1.5-.166-.39-.13-.696-.314-.918-.555-.222-.26-.38-.575-.473-.945-.074-.37-.11-.797-.11-1.28V111.75h-2.168v-1.834h2.167v-4.335"/><path d="M468.548 109.914h2.557l2.946 11.95h.057l2.612-11.95h2.556l-4.308 15.897c-.148.52-.305 1.01-.472 1.474-.167.463-.4.87-.695 1.223-.277.37-.638.658-1.083.86-.445.224-1.02.335-1.723.335-.463 0-.815-.01-1.056-.028-.222-.018-.436-.037-.64-.055v-1.836c.334.056.788.084 1.362.084.538 0 .936-.14 1.196-.417.277-.277.49-.62.64-1.027l.443-1.307-4.392-15.202"/></g></g><g font-size="13.75" letter-spacing="0" word-spacing="0" fill="#fff"><g style="line-height:125%;-inkscape-font-specification:'FontAwesome, Normal';text-align:start" font-family="FontAwesome"><path d="M899.64 22.493q.927-.928.927-2.24 0-1.31-.928-2.237-.93-.928-2.24-.928t-2.238.928q-.928.927-.928 2.238 0 1.31.928 2.24.927.927 2.238.927 1.31 0 2.24-.927zm4.093-2.24q0 1.35-.408 2.215l-4.502 9.574q-.198.408-.594.643-.384.235-.83.235-.445 0-.84-.235-.384-.235-.57-.643l-4.514-9.574q-.41-.865-.41-2.214 0-2.622 1.857-4.477 1.855-1.856 4.477-1.856 2.623 0 4.478 1.857 1.855 1.855 1.855 4.477z" style="line-height:125%;-inkscape-font-specification:'FontAwesome, Normal';text-align:start"/></g><g style="line-height:125%;-inkscape-font-specification:'FontAwesome, Normal';text-align:start" font-family="FontAwesome"><path d="M905.46 61.765q0 .334-.123.878-.124.532-.26.84-.26.62-1.51 1.312-1.162.63-2.3.63-.334 0-.655-.036-.31-.05-.705-.162-.396-.11-.594-.173-.186-.074-.68-.26-.495-.185-.606-.222-1.212-.433-2.165-1.027-1.583-.977-3.278-2.66-1.682-1.694-2.66-3.277-.593-.953-1.026-2.166-.037-.11-.222-.606-.186-.494-.26-.68-.062-.198-.173-.594-.11-.396-.16-.705-.038-.322-.038-.656 0-1.138.63-2.3.693-1.25 1.312-1.51.31-.136.84-.26.545-.123.88-.123.172 0 .26.038.222.074.654.94.137.235.372.668.236.433.433.79.198.348.384.657.036.05.21.31.185.26.27.444.088.174.088.347 0 .247-.36.618-.345.37-.766.68-.408.31-.767.656-.346.346-.346.57 0 .11.06.283.063.162.1.25l.173.296q.136.21.15.235.94 1.695 2.15 2.907 1.213 1.213 2.907 2.153.025.012.235.148.21.124.297.173.087.038.248.1.173.062.284.062.223 0 .57-.346.345-.36.655-.767.308-.422.68-.768.37-.36.617-.36.174 0 .347.088.185.086.445.272.26.173.308.21.31.186.656.384.358.198.79.433.434.234.67.37.865.433.94.655.036.087.036.26z" style="line-height:125%;-inkscape-font-specification:'FontAwesome, Normal';text-align:start"/></g><g style="line-height:125%;-inkscape-font-specification:'FontAwesome, Normal';text-align:start" font-family="FontAwesome"><path d="M907.187 86.724v9.82q0 .818-.58 1.4-.582.58-1.4.58h-18.206q-.815 0-1.396-.58-.582-.582-.582-1.4v-9.82q.545.606 1.25 1.076 4.477 3.043 6.147 4.268.704.52 1.137.816.445.285 1.175.594.73.297 1.36.297h.026q.63 0 1.36-.297.73-.31 1.164-.594.445-.297 1.15-.816 2.103-1.522 6.16-4.268.705-.482 1.236-1.076zm0-3.636q0 .977-.606 1.868-.605.89-1.508 1.52l-5.788 4.02q-.124.087-.532.384-.396.285-.668.47-.26.173-.643.396-.37.223-.704.334-.334.11-.62.11h-.024q-.285 0-.62-.11-.333-.11-.716-.334-.37-.223-.643-.396-.26-.185-.668-.47-.396-.297-.52-.383-1.125-.792-3.24-2.25-2.116-1.473-2.536-1.77-.768-.52-1.448-1.422-.68-.916-.68-1.695 0-.965.507-1.608.518-.643 1.47-.643h18.207q.804 0 1.386.58.593.582.593 1.398z" style="line-height:125%;-inkscape-font-specification:'FontAwesome, Normal';text-align:start"/></g><g style="line-height:125%;-inkscape-font-specification:'FontAwesome, Normal';text-align:start" font-family="FontAwesome"><path d="M903.445 125.938v5.937q0 .322-.235.557-.235.235-.556.235h-4.75v-4.75h-3.166v4.75h-4.75q-.322 0-.557-.235-.234-.235-.234-.557V125.9q.013-.024.013-.036l7.11-5.863 7.113 5.864q.013.025.013.074zm2.76-.853l-.768.915q-.1.11-.26.136h-.037q-.16 0-.26-.086l-8.56-7.137-8.558 7.137q-.15.098-.297.086-.16-.025-.26-.136l-.767-.915q-.1-.124-.086-.285.012-.173.136-.272l8.893-7.41q.397-.32.94-.32.545 0 .94.32l3.02 2.524v-2.41q0-.175.11-.286.112-.11.285-.11h2.375q.173 0 .284.11.11.11.11.285v5.047l2.71 2.25q.124.1.136.273.013.16-.086.285z" style="line-height:125%;-inkscape-font-specification:'FontAwesome, Normal';text-align:start"/></g><g style="line-height:125%;-inkscape-font-specification:'Helvetica Neue LT Com, Light Condensed';text-align:start" font-weight="300" font-stretch="condensed" font-family="Helvetica Neue LT Com"><path d="M937.51 24.618h-5.96l-1.51 4.92h-.93l4.92-15.825h1.176l4.743 15.825h-.932l-1.507-4.92zm-2.903-9.975h-.044l-2.793 9.22h5.564l-2.727-9.22z" style="line-height:125%;-inkscape-font-specification:'Helvetica Neue LT Com, Light Condensed';text-align:start"/><path d="M942.938 29.538l-3.258-11.592h.93l2.816 10.528h.044l2.682-10.528h.93l-3.146 11.592h-.998z" style="line-height:125%;-inkscape-font-specification:'Helvetica Neue LT Com, Light Condensed';text-align:start"/><path d="M949.068 23.687q0 .71.044 1.64.045.91.288 1.75.266.82.82 1.397.555.577 1.574.577.91 0 1.463-.398.576-.4.865-.93.31-.533.4-1.087.11-.554.11-.887h.842q0 .665-.2 1.396-.177.71-.62 1.308-.422.577-1.11.975-.686.377-1.66.377-1.132 0-1.863-.443-.708-.442-1.13-1.262-.42-.843-.598-2.017-.155-1.174-.155-2.66 0-2.66.953-4.188.953-1.552 2.926-1.552 1.02 0 1.707.42.71.4 1.13 1.176.42.776.598 1.906.18 1.108.18 2.505h-6.562zm5.63-.754q0-.798-.09-1.596-.087-.798-.376-1.44-.288-.643-.842-1.042-.532-.42-1.418-.42-.976 0-1.552.486-.554.49-.864 1.198-.31.71-.4 1.485-.088.776-.088 1.33h5.63z" style="line-height:125%;-inkscape-font-specification:'Helvetica Neue LT Com, Light Condensed';text-align:start"/><path d="M957.43 17.946h.842v1.75h.044q.155-.376.4-.73.265-.377.62-.643.377-.288.842-.466.488-.177 1.086-.177.62 0 1.153.177.532.178.93.577.4.376.62.975.223.575.223 1.395v8.733h-.842v-8.334q0-1.55-.62-2.15-.6-.62-1.685-.62-.665 0-1.197.288-.51.288-.865.798-.33.487-.53 1.174-.178.665-.178 1.42v7.424h-.842V17.946z" style="line-height:125%;-inkscape-font-specification:'Helvetica Neue LT Com, Light Condensed';text-align:start"/><path d="M966.523 13.713h.842v2.26h-.842v-2.26zm0 4.233h.842v11.592h-.842V17.946z" style="line-height:125%;-inkscape-font-specification:'Helvetica Neue LT Com, Light Condensed';text-align:start"/><path d="M970.367 23.71q0 1.107.11 2.082.134.976.444 1.707.312.708.844 1.13.554.42 1.418.42 1.552 0 2.195-1.396.642-1.396.642-3.945 0-2.86-.776-4.057-.776-1.22-2.106-1.22-1.53 0-2.15 1.308-.62 1.287-.62 3.97zm5.652 3.59h-.045q-.222 1.197-.975 1.862-.732.642-1.95.642-1.02 0-1.708-.443-.687-.442-1.108-1.24-.42-.82-.62-1.93-.178-1.13-.178-2.48 0-1.33.155-2.44.18-1.107.6-1.905t1.13-1.242q.71-.443 1.773-.443 1.197 0 1.884.687.687.687.998 1.618h.044v-6.272h.84v15.825h-.84V27.3z" style="line-height:125%;-inkscape-font-specification:'Helvetica Neue LT Com, Light Condensed';text-align:start"/><path d="M984.548 22.778h-.044q-.222.355-.532.488-.29.11-.93.288l-1.708.465q-1.02.287-1.44.886-.4.598-.4 1.662 0 1.13.488 1.818.51.665 1.64.665 1.485 0 2.194-1.063.732-1.064.732-2.815v-2.394zm.842 5.364q0 .42.133.598.155.178.377.178.31 0 .532-.11v.664q-.266.2-.887.2-.266 0-.642-.29-.355-.287-.355-.974v-.732h-.044q-.244.93-1.042 1.53-.798.598-1.995.598-.776 0-1.33-.266-.532-.244-.887-.665-.354-.443-.532-1.04-.155-.6-.155-1.265 0-1.33.532-2.083.554-.776 1.818-1.11l2.504-.686q.754-.2.93-.577.2-.4.2-1.13 0-.798-.177-1.286t-.487-.776q-.288-.287-.71-.376-.398-.11-.864-.11-.732 0-1.22.22-.488.2-.776.6-.288.377-.42.886-.112.51-.112 1.11h-.842q0-.6.133-1.22.133-.643.488-1.153.377-.532.998-.864.643-.333 1.662-.333.954 0 1.574.244.62.244.975.665.354.42.487.974t.133 1.175v7.402z" style="line-height:125%;-inkscape-font-specification:'Helvetica Neue LT Com, Light Condensed';text-align:start"/><path d="M995.426 14.555h-4.21v-.842h9.352v.842h-4.21v14.983h-.932V14.555z" style="line-height:125%;-inkscape-font-specification:'Helvetica Neue LT Com, Light Condensed';text-align:start"/><path d="M1000.52 23.687q0 .71.044 1.64.044.91.288 1.75.266.82.82 1.397.554.577 1.574.577.908 0 1.463-.398.575-.4.863-.93.31-.533.4-1.087.11-.554.11-.887h.842q0 .665-.2 1.396-.177.71-.62 1.308-.42.577-1.108.975-.688.377-1.663.377-1.13 0-1.862-.443-.71-.442-1.13-1.262-.42-.843-.6-2.017-.154-1.174-.154-2.66 0-2.66.953-4.188.955-1.552 2.927-1.552 1.02 0 1.707.42.71.4 1.13 1.176.422.776.6 1.906.176 1.108.176 2.505h-6.56zm5.63-.754q0-.798-.09-1.596-.088-.798-.376-1.44-.288-.643-.842-1.042-.532-.42-1.42-.42-.974 0-1.55.486-.555.49-.865 1.198-.31.71-.4 1.485-.088.776-.088 1.33h5.63z" style="line-height:125%;-inkscape-font-specification:'Helvetica Neue LT Com, Light Condensed';text-align:start"/><path d="M1015.44 23.753q0-1.263-.154-2.238-.133-.998-.487-1.663-.356-.687-.932-1.042-.555-.376-1.375-.376-.842 0-1.396.376-.554.355-.91 1.042-.353.665-.51 1.663-.132.975-.132 2.238 0 1.24.133 2.24.155.974.51 1.66.355.688.91 1.043.553.355 1.395.355.82 0 1.375-.354.576-.355.93-1.042.355-.687.488-1.662.155-.998.155-2.24zm.932-.022q0 1.264-.177 2.373-.155 1.086-.598 1.928-.444.82-1.22 1.31-.753.464-1.95.464-1.153 0-1.884-.465-.732-.49-1.175-1.31-.42-.84-.598-1.927-.155-1.11-.155-2.372 0-1.24.155-2.348.177-1.11.62-1.93.444-.82 1.197-1.284.776-.488 1.973-.488 1.153 0 1.884.488.73.465 1.153 1.285.443.82.598 1.93.177 1.107.177 2.348zm-2.526-10.505h1.063l-2.062 3.103h-.73l1.728-3.103z" style="line-height:125%;-inkscape-font-specification:'Helvetica Neue LT Com, Light Condensed';text-align:start"/><path d="M1018.96 18.7h-1.573v-.754h1.574v-1.928q0-.488.09-.91.11-.442.332-.73.244-.31.643-.488.4-.177.975-.177.2 0 .42.022.223 0 .444.044v.753q-.31-.067-.73-.067-.555 0-.954.31-.377.31-.377 1.197v1.973h1.928v.754h-1.927v10.838h-.842V18.7zm4.412-4.987h.842v2.26h-.842v-2.26zm0 4.233h.842v11.592h-.842V17.946z" style="line-height:125%;-inkscape-font-specification:'Helvetica Neue LT Com, Light Condensed';text-align:start"/><path d="M1026.61 13.713h.843v15.825h-.842V13.713z" style="line-height:125%;-inkscape-font-specification:'Helvetica Neue LT Com, Light Condensed';text-align:start"/><path d="M1036.35 23.753q0-1.263-.154-2.238-.133-.998-.488-1.663-.355-.687-.93-1.042-.555-.376-1.375-.376-.842 0-1.396.376-.555.355-.91 1.042-.354.665-.51 1.663-.132.975-.132 2.238 0 1.24.133 2.24.155.974.51 1.66.354.688.91 1.043.553.355 1.395.355.82 0 1.374-.354.576-.355.93-1.042.356-.687.49-1.662.154-.998.154-2.24zm.932-.022q0 1.264-.177 2.373-.156 1.086-.6 1.928-.442.82-1.218 1.31-.754.464-1.95.464-1.153 0-1.885-.465-.73-.49-1.174-1.31-.42-.84-.6-1.927-.154-1.11-.154-2.372 0-1.24.155-2.348.177-1.11.62-1.93.443-.82 1.197-1.284.776-.488 1.973-.488 1.152 0 1.884.488.73.465 1.152 1.285.443.82.6 1.93.176 1.107.176 2.348z" style="line-height:125%;-inkscape-font-specification:'Helvetica Neue LT Com, Light Condensed';text-align:start"/><path d="M1042.665 13.713h.93l3.947 14.76h.044l3.945-14.76h.932l-4.322 15.825h-1.152l-4.323-15.825z" style="line-height:125%;-inkscape-font-specification:'Helvetica Neue LT Com, Light Condensed';text-align:start"/><path d="M1058.402 22.778h-.044q-.222.355-.532.488-.288.11-.93.288l-1.708.465q-1.02.287-1.44.886-.4.598-.4 1.662 0 1.13.488 1.818.51.665 1.64.665 1.486 0 2.195-1.063.732-1.064.732-2.815v-2.394zm.843 5.364q0 .42.133.598.155.178.376.178.31 0 .532-.11v.664q-.266.2-.886.2-.266 0-.643-.29-.355-.287-.355-.974v-.732h-.044q-.244.93-1.042 1.53-.798.598-1.995.598-.774 0-1.328-.266-.532-.244-.887-.665-.355-.443-.532-1.04-.155-.6-.155-1.265 0-1.33.532-2.083.554-.776 1.817-1.11l2.505-.686q.754-.2.93-.577.2-.4.2-1.13 0-.798-.177-1.286t-.488-.776q-.288-.287-.71-.376-.398-.11-.863-.11-.732 0-1.22.22-.487.2-.775.6-.29.377-.422.886-.11.51-.11 1.11h-.843q0-.6.133-1.22.133-.643.487-1.153.377-.532.998-.864.642-.333 1.662-.333.953 0 1.574.244.62.244.974.665.355.42.488.974t.133 1.175v7.402z" style="line-height:125%;-inkscape-font-specification:'Helvetica Neue LT Com, Light Condensed';text-align:start"/><path d="M1061.63 17.946h.843v2.017h.045q.31-.997 1.02-1.64.73-.643 1.883-.643h.49v.754h-.49q-.73 0-1.284.332-.554.31-.93.842-.356.51-.555 1.197-.177.665-.177 1.375v7.358h-.842V17.946z" style="line-height:125%;-inkscape-font-specification:'Helvetica Neue LT Com, Light Condensed';text-align:start"/><path d="M1074.093 28.896q0 1.063-.177 1.928-.178.886-.62 1.507-.422.622-1.13.954-.71.333-1.797.333-1.11 0-1.752-.377-.62-.355-.93-.842-.31-.488-.4-.976-.066-.465-.066-.687h.842q0 .93.554 1.53.577.598 1.84.598 1.485 0 2.128-.864.665-.866.665-2.683V27.19h-.065q-.133.376-.333.797-.2.42-.554.776-.333.332-.865.554-.51.22-1.285.22-1.042 0-1.707-.464-.664-.466-1.063-1.264-.4-.798-.554-1.862-.155-1.064-.155-2.26 0-1.198.133-2.284.156-1.086.555-1.906.4-.843 1.108-1.33.71-.488 1.862-.488 1.13 0 1.84.598.71.577 1.042 1.596h.044v-1.928h.843v10.95zm-6.494-5.21q0 1.11.132 2.062.133.93.443 1.618.333.665.864 1.042.554.377 1.374.377.798 0 1.33-.377.554-.377.886-1.064.333-.71.466-1.685.155-.976.155-2.15 0-5.076-2.726-5.076-.71 0-1.263.266-.53.266-.908.886-.354.62-.554 1.618-.2.998-.2 2.483z" style="line-height:125%;-inkscape-font-specification:'Helvetica Neue LT Com, Light Condensed';text-align:start"/><path d="M1081.78 22.778h-.045q-.22.355-.532.488-.288.11-.93.288l-1.707.465q-1.02.287-1.44.886-.4.598-.4 1.662 0 1.13.488 1.818.51.665 1.64.665 1.485 0 2.194-1.063.732-1.064.732-2.815v-2.394zm.842 5.364q0 .42.133.598.155.178.377.178.31 0 .532-.11v.664q-.266.2-.887.2-.266 0-.643-.29-.354-.287-.354-.974v-.732h-.045q-.244.93-1.042 1.53-.798.598-1.994.598-.777 0-1.33-.266-.533-.244-.888-.665-.355-.443-.532-1.04-.155-.6-.155-1.265 0-1.33.532-2.083.554-.776 1.818-1.11l2.504-.686q.753-.2.93-.577.2-.4.2-1.13 0-.798-.178-1.286-.177-.488-.487-.776-.29-.287-.71-.376-.4-.11-.864-.11-.73 0-1.218.22-.488.2-.776.6-.288.377-.42.886-.112.51-.112 1.11h-.842q0-.6.133-1.22.133-.643.488-1.153.376-.532.997-.864.643-.333 1.662-.333.953 0 1.574.244.62.244.975.665.356.42.49.974.132.554.132 1.175v7.402z" style="line-height:125%;-inkscape-font-specification:'Helvetica Neue LT Com, Light Condensed';text-align:start"/><path d="M1089.973 21.204v-.332q0-.4-.066-.82-.067-.42-.31-.776-.222-.377-.665-.6-.422-.242-1.13-.242-.91 0-1.575.51-.664.487-.664 1.64 0 .93.42 1.44.444.51 1.308.843l1.775.665q1.064.4 1.573 1.152.532.732.532 1.93 0 .73-.266 1.328-.266.577-.73.998-.444.42-1.065.643-.6.22-1.287.22-1.197 0-1.884-.376-.688-.376-1.042-.93-.333-.577-.422-1.197-.088-.643-.088-1.153v-.31h.842v.377q0 .62.133 1.152.133.51.443.887t.798.598q.488.2 1.22.2.642 0 1.085-.2.465-.198.753-.53.31-.333.443-.754.133-.444.133-.93 0-.844-.377-1.42-.355-.576-1.353-.953l-1.706-.687q-1.086-.443-1.64-1.108-.532-.665-.532-1.796 0-1.463.886-2.216.887-.776 2.283-.776.954 0 1.553.31.598.288.91.754.33.443.442 1.02.11.554.11 1.086v.354h-.842z" style="line-height:125%;-inkscape-font-specification:'Helvetica Neue LT Com, Light Condensed';text-align:start"/><path d="M1104.11 19.852h-3.037l-.554 3.946h3.036l.554-3.946zm-3.68 4.7l-.686 4.986h-.754l.687-4.987h-2.394V23.8h2.483l.554-3.946h-2.416V19.1h2.505l.686-4.99h.753l-.688 4.99h3.037l.686-4.99h.753l-.688 4.99h2.394v.752h-2.482l-.554 3.946h2.416v.753h-2.505l-.686 4.988h-.754l.687-4.987h-3.036z" style="line-height:125%;-inkscape-font-specification:'Helvetica Neue LT Com, Light Condensed';text-align:start"/><path d="M1114.782 25.305h-6.406v-.842l6.317-10.618h.93V24.55h1.93v.755h-1.93v4.233h-.84v-4.233zm0-10.02h-.045l-5.52 9.266h5.565v-9.264z" style="line-height:125%;-inkscape-font-specification:'Helvetica Neue LT Com, Light Condensed';text-align:start"/><path d="M1122.705 20.96h.687q1.53 0 2.35-.753.82-.776.82-2.438 0-1.486-.776-2.33-.776-.84-2.24-.84-.863 0-1.44.31-.576.288-.952.775-.355.488-.532 1.13-.156.62-.178 1.264h-.93q0-.932.265-1.708.287-.775.82-1.33.53-.576 1.285-.886.754-.31 1.707-.31.864 0 1.573.265.71.245 1.22.755.53.488.82 1.22.288.73.288 1.662 0 .642-.178 1.24-.155.6-.487 1.087-.333.465-.842.798-.488.332-1.153.465v.045q.73.066 1.308.4.6.31.998.82.42.486.643 1.15.223.644.223 1.375 0 1.02-.31 1.885-.29.842-.887 1.462-.577.62-1.44.976-.843.354-1.952.354-1.02 0-1.795-.31-.755-.332-1.287-.91-.51-.575-.797-1.373-.266-.797-.31-1.75h.93q0 .71.2 1.374.2.643.598 1.153.42.487 1.042.776.62.288 1.463.288.708 0 1.35-.22.666-.223 1.153-.688.51-.466.798-1.197.312-.754.312-1.795 0-1.53-.91-2.483-.886-.953-2.77-.953h-.687v-.754z" style="line-height:125%;-inkscape-font-specification:'Helvetica Neue LT Com, Light Condensed';text-align:start"/><path d="M1134.352 15.44q-.288.334-.73.644-.422.31-.932.576-.488.244-1.042.422-.532.177-1.042.22v-.752q.6-.067 1.197-.29.6-.242 1.13-.597.533-.377.93-.842.4-.465.578-.975h.754v15.693h-.842V15.44z" style="line-height:125%;-inkscape-font-specification:'Helvetica Neue LT Com, Light Condensed';text-align:start"/></g><g style="line-height:125%;-inkscape-font-specification:'Helvetica Neue LT Com, Light Condensed';text-align:start" font-weight="300" font-stretch="condensed" font-family="Helvetica Neue LT Com"><path d="M934.34 59.4h-5.23v-.753h5.23v-5.23h.755v5.23h5.23v.753h-5.23v5.23h-.754V59.4z" style="line-height:125%;-inkscape-font-specification:'Helvetica Neue LT Com, Light Condensed';text-align:start"/><path d="M943.51 49.204h6.76v.843h-6.052l-.753 6.228h.044q.464-.842 1.33-1.33.863-.487 1.927-.487 1.086 0 1.884.4.8.375 1.33 1.062.533.688.777 1.596.266.91.266 1.93 0 1.063-.266 2.06-.244.975-.798 1.73-.555.753-1.397 1.218-.843.443-2.04.443-1.13 0-1.928-.354-.798-.355-1.308-.93-.487-.578-.73-1.287-.223-.73-.223-1.463v-.155h.93v.266q.112 1.397.932 2.283.82.887 2.24.887.974 0 1.66-.377.71-.377 1.154-.997.443-.643.643-1.486.2-.842.2-1.773 0-.907-.223-1.683-.22-.798-.665-1.375-.42-.576-1.063-.908-.643-.333-1.463-.333-.733 0-1.287.223-.532.222-.91.554-.376.31-.62.687-.22.355-.354.62h-.932l.93-8.09z" style="line-height:125%;-inkscape-font-specification:'Helvetica Neue LT Com, Light Condensed';text-align:start"/><path d="M960.61 54.014q0-.73-.18-1.507-.176-.776-.575-1.396-.377-.62-1.02-1.02-.62-.398-1.53-.398-1.595 0-2.526 1.153-.91 1.13-.91 3.413 0 .887.2 1.662.2.754.598 1.33.422.554 1.042.887.643.332 1.507.332.887 0 1.508-.333.642-.355 1.064-.953.42-.6.62-1.42t.2-1.75zm-6.318 7.315q0 .464.155.974.155.488.487.91.355.398.887.664.533.266 1.31.266 1.063 0 1.772-.554.71-.577 1.152-1.596.444-1.02.62-2.416.2-1.397.2-3.06v-.31h-.044q-.133.51-.4 1.042-.265.532-.708.976-.443.443-1.086.73-.643.267-1.53.267-1.928 0-3.058-1.263-1.11-1.286-1.11-3.702 0-1.152.267-2.128.266-.975.798-1.684.555-.71 1.375-1.11.842-.398 1.972-.398 1.42 0 2.283.643.865.644 1.33 1.686.466 1.042.6 2.35.154 1.307.154 2.66 0 1.728-.178 3.302-.178 1.573-.688 2.748-.487 1.175-1.418 1.884-.91.687-2.394.687-1.13 0-1.84-.4-.71-.42-1.13-.996-.4-.575-.554-1.174-.155-.598-.155-.997h.932z" style="line-height:125%;-inkscape-font-specification:'Helvetica Neue LT Com, Light Condensed';text-align:start"/><path d="M968.066 50.534q-.288.333-.73.643-.422.31-.932.576-.488.244-1.042.422-.532.177-1.04.22v-.752q.597-.067 1.195-.29.6-.242 1.13-.597.533-.377.932-.842.398-.466.575-.976h.754V64.63h-.844V50.535z" style="line-height:125%;-inkscape-font-specification:'Helvetica Neue LT Com, Light Condensed';text-align:start"/><path d="M985.77 60.398h-6.406v-.842l6.317-10.618h.932v10.706h1.928v.754h-1.928v4.233h-.842V60.4zm0-10.02h-.045l-5.52 9.266h5.565V50.38z" style="line-height:125%;-inkscape-font-specification:'Helvetica Neue LT Com, Light Condensed';text-align:start"/><path d="M1001.744 60.398h-6.406v-.842l6.317-10.618h.93v10.706h1.93v.754h-1.93v4.233h-.84V60.4zm0-10.02h-.044l-5.52 9.266h5.564V50.38z" style="line-height:125%;-inkscape-font-specification:'Helvetica Neue LT Com, Light Condensed';text-align:start"/><path d="M1006.187 56.918q0-4.123 1.042-6.05 1.063-1.93 3.346-1.93 1.22 0 2.062.466.842.465 1.352 1.44.51.976.73 2.483.245 1.507.245 3.59 0 2.173-.266 3.702-.267 1.507-.82 2.46-.533.953-1.375 1.396-.82.42-1.93.42-1.196 0-2.038-.464-.82-.466-1.352-1.44-.532-.998-.776-2.506-.223-1.507-.223-3.568zm.93 0q0 2.24.223 3.657.244 1.397.687 2.194.443.797 1.086 1.086.643.288 1.463.288.82 0 1.463-.288.642-.31 1.085-1.11.443-.82.665-2.215.244-1.418.244-3.612 0-1.108-.067-2.372-.044-1.263-.376-2.35-.31-1.085-1.02-1.795-.708-.708-1.994-.708-.864 0-1.463.377-.576.354-.975.952-.377.598-.598 1.374-.2.776-.31 1.574-.09.798-.11 1.574v1.374z" style="line-height:125%;-inkscape-font-specification:'Helvetica Neue LT Com, Light Condensed';text-align:start"/><path d="M1020.317 56.053h.687q1.53 0 2.35-.753.82-.776.82-2.438 0-1.485-.776-2.328-.776-.842-2.24-.842-.863 0-1.44.31-.576.29-.953.776-.354.488-.532 1.13-.155.62-.177 1.264h-.93q0-.93.265-1.707.29-.775.82-1.33.533-.576 1.287-.886.753-.312 1.707-.312.864 0 1.573.266.71.244 1.22.754.53.488.82 1.22.288.73.288 1.662 0 .642-.178 1.24-.155.6-.487 1.087-.333.465-.843.798-.487.332-1.152.465v.045q.73.066 1.308.4.598.31.997.82.42.486.643 1.15.22.644.22 1.375 0 1.02-.31 1.884-.287.843-.885 1.463-.577.62-1.44.976-.843.354-1.952.354-1.02 0-1.795-.31-.753-.332-1.285-.91-.51-.575-.798-1.373-.266-.798-.31-1.75h.93q0 .708.2 1.373.2.643.6 1.153.42.487 1.04.776.62.288 1.464.288.71 0 1.353-.222.665-.222 1.152-.687.51-.466.798-1.197.31-.754.31-1.795 0-1.53-.908-2.483-.887-.953-2.77-.953h-.688v-.754z" style="line-height:125%;-inkscape-font-specification:'Helvetica Neue LT Com, Light Condensed';text-align:start"/><path d="M1032.81 60.398q0-1.796.866-2.86.886-1.086 2.216-1.285v-.044q-1.285-.245-1.95-1.22-.643-.976-.643-2.217 0-1.73 1.02-2.77 1.018-1.065 2.88-1.065 1.884 0 2.882 1.064 1.02 1.042 1.02 2.77 0 1.22-.62 2.173-.6.953-1.908 1.264v.043q1.397.2 2.195 1.286.82 1.062.82 2.858 0 2.083-1.176 3.302-1.153 1.197-3.236 1.197-2.06 0-3.214-1.197-1.153-1.22-1.153-3.302zm.932 0q0 1.75.91 2.748.93.998 2.548.998 1.552 0 2.505-.998.953-.997.953-2.748 0-1.995-.93-2.904-.932-.91-2.528-.91-.73 0-1.374.245-.62.22-1.086.686-.466.466-.732 1.197-.266.71-.266 1.685zm6.428-7.625q0-1.352-.753-2.216-.754-.865-2.217-.865t-2.216.865q-.754.864-.754 2.216 0 1.463.82 2.26.82.8 2.15.8 1.397 0 2.172-.8.798-.797.798-2.26z" style="line-height:125%;-inkscape-font-specification:'Helvetica Neue LT Com, Light Condensed';text-align:start"/><path d="M1049.667 60.398h-6.405v-.842l6.317-10.618h.93v10.706h1.928v.754h-1.928v4.233h-.843V60.4zm0-10.02h-.044l-5.52 9.266h5.564V50.38z" style="line-height:125%;-inkscape-font-specification:'Helvetica Neue LT Com, Light Condensed';text-align:start"/><path d="M1059.435 56.918q0-4.123 1.042-6.05 1.064-1.93 3.347-1.93 1.22 0 2.06.466.844.465 1.354 1.44.51.976.73 2.483.245 1.507.245 3.59 0 2.173-.266 3.702-.266 1.507-.82 2.46-.532.953-1.375 1.396-.82.42-1.928.42-1.197 0-2.04-.464-.82-.466-1.35-1.44-.533-.998-.777-2.506-.222-1.507-.222-3.568zm.93 0q0 2.24.223 3.657.244 1.397.687 2.194.443.797 1.086 1.086.644.288 1.464.288t1.463-.288q.643-.31 1.086-1.11.443-.82.665-2.215.244-1.418.244-3.612 0-1.108-.067-2.372-.044-1.263-.376-2.35-.312-1.085-1.02-1.795-.71-.708-1.996-.708-.864 0-1.463.377-.575.354-.974.952-.377.598-.598 1.374-.2.776-.31 1.574-.09.798-.112 1.574v1.374z" style="line-height:125%;-inkscape-font-specification:'Helvetica Neue LT Com, Light Condensed';text-align:start"/><path d="M1071.193 59.82q0 .733.178 1.51.178.774.555 1.395.4.62 1.02 1.02.642.4 1.55.4 1.597 0 2.506-1.132.93-1.152.93-3.435 0-.887-.198-1.64-.2-.776-.62-1.33-.4-.577-1.042-.91-.62-.332-1.485-.332-.887 0-1.53.355-.643.333-1.064.932-.398.598-.597 1.418-.2.82-.2 1.75zm6.317-7.313q0-.465-.155-.953-.155-.51-.51-.91-.332-.42-.886-.686-.533-.266-1.287-.266-1.064 0-1.773.576-.71.577-1.153 1.596-.443.998-.642 2.394-.178 1.396-.178 3.06v.287h.045q.133-.488.4-1.02.264-.532.708-.975.443-.443 1.086-.71.643-.287 1.53-.287 1.928 0 3.036 1.285 1.13 1.264 1.13 3.68 0 1.152-.266 2.128-.266.975-.82 1.684-.532.71-1.374 1.108-.82.4-1.95.4-1.44 0-2.306-.643-.842-.643-1.307-1.685-.467-1.042-.622-2.35-.133-1.307-.133-2.66 0-1.728.177-3.28.178-1.573.665-2.748.51-1.197 1.42-1.884.93-.71 2.415-.71 1.13 0 1.84.422.71.4 1.108.975.42.576.576 1.175.155.598.155.997h-.93z" style="line-height:125%;-inkscape-font-specification:'Helvetica Neue LT Com, Light Condensed';text-align:start"/><path d="M1090.603 48.54h.887l-5.674 16.357h-.887l5.673-16.357z" style="line-height:125%;-inkscape-font-specification:'Helvetica Neue LT Com, Light Condensed';text-align:start"/><path d="M1106.287 50.047q-1.02 1.152-1.862 2.504-.82 1.33-1.485 2.75-.665 1.396-1.153 2.793-.487 1.374-.82 2.615-.31 1.24-.465 2.26-.156.998-.156 1.663h-1.02q0-.774.2-1.86.2-1.11.577-2.372.376-1.264.908-2.638.533-1.396 1.198-2.748.687-1.375 1.485-2.638.82-1.263 1.75-2.327h-7.89v-.843h8.734v.843z" style="line-height:125%;-inkscape-font-specification:'Helvetica Neue LT Com, Light Condensed';text-align:start"/><path d="M1108.27 64.63q0-1.683.687-3.035.71-1.375 2.04-2.438l2.238-1.774q.532-.42.997-.864.466-.444.82-.954.355-.532.554-1.108.2-.6.2-1.33 0-1.53-.82-2.483-.82-.953-2.372-.953-.91 0-1.53.355-.62.332-1.02.908-.398.555-.575 1.286-.178.71-.178 1.464h-.93q0-.997.265-1.862.288-.887.82-1.53.554-.642 1.352-.997.82-.377 1.883-.377.598 0 1.308.2.71.177 1.308.665.62.465 1.02 1.285.4.798.4 2.062 0 .864-.223 1.53-.2.664-.576 1.24-.378.555-.91 1.064-.532.488-1.175.998l-2.083 1.662q-.51.42-.975.93-.466.49-.82 1.043-.355.554-.577 1.108-.2.554-.2 1.064h7.67v.84h-8.6z" style="line-height:125%;-inkscape-font-specification:'Helvetica Neue LT Com, Light Condensed';text-align:start"/><path d="M1127.586 50.047q-1.02 1.152-1.862 2.504-.82 1.33-1.485 2.75-.666 1.396-1.154 2.793-.487 1.374-.82 2.615-.31 1.24-.465 2.26-.154.998-.154 1.663h-1.02q0-.774.2-1.86.2-1.11.576-2.372.377-1.264.91-2.638.53-1.396 1.195-2.748.688-1.375 1.486-2.638.82-1.263 1.75-2.327h-7.89v-.843h8.733v.843z" style="line-height:125%;-inkscape-font-specification:'Helvetica Neue LT Com, Light Condensed';text-align:start"/><path d="M1129.946 58.226h4.19v.753h-4.19v-.754z" style="line-height:125%;-inkscape-font-specification:'Helvetica Neue LT Com, Light Condensed';text-align:start"/><path d="M1136.45 56.918q0-4.123 1.042-6.05 1.064-1.93 3.347-1.93 1.218 0 2.06.466.842.465 1.352 1.44.51.976.732 2.483.243 1.507.243 3.59 0 2.173-.265 3.702-.266 1.507-.82 2.46-.533.953-1.375 1.396-.82.42-1.928.42-1.198 0-2.04-.464-.82-.466-1.352-1.44-.532-.998-.776-2.506-.222-1.507-.222-3.568zm.93 0q0 2.24.223 3.657.244 1.397.687 2.194.443.797 1.086 1.086.643.288 1.463.288.82 0 1.462-.288.642-.31 1.086-1.11.443-.82.665-2.215.244-1.418.244-3.612 0-1.108-.067-2.372-.044-1.263-.377-2.35-.31-1.085-1.02-1.795-.71-.708-1.994-.708-.866 0-1.464.377-.576.354-.975.952-.376.598-.598 1.374-.2.776-.31 1.574-.09.798-.11 1.574v1.374z" style="line-height:125%;-inkscape-font-specification:'Helvetica Neue LT Com, Light Condensed';text-align:start"/><path d="M1150.58 56.053h.687q1.53 0 2.35-.753.82-.776.82-2.438 0-1.485-.776-2.328-.775-.842-2.238-.842-.865 0-1.44.31-.577.29-.954.776-.355.488-.532 1.13-.155.62-.177 1.264h-.932q0-.93.266-1.707.288-.775.82-1.33.532-.576 1.286-.886.753-.312 1.706-.312.865 0 1.574.266.71.244 1.22.754.53.488.82 1.22.287.73.287 1.662 0 .642-.177 1.24-.155.6-.488 1.087-.332.465-.842.798-.488.332-1.153.465v.045q.732.066 1.308.4.6.31.998.82.42.486.642 1.15.222.644.222 1.375 0 1.02-.31 1.884-.288.843-.887 1.463-.576.62-1.44.976-.843.354-1.95.354-1.02 0-1.796-.31-.754-.332-1.286-.91-.51-.575-.798-1.373-.266-.798-.31-1.75h.93q0 .708.2 1.373.2.643.6 1.153.42.487 1.04.776.62.288 1.463.288.71 0 1.352-.222.665-.222 1.153-.687.51-.466.798-1.197.31-.754.31-1.795 0-1.53-.91-2.483-.885-.953-2.77-.953h-.686v-.754z" style="line-height:125%;-inkscape-font-specification:'Helvetica Neue LT Com, Light Condensed';text-align:start"/><path d="M1166.505 50.047q-1.02 1.152-1.862 2.504-.82 1.33-1.485 2.75-.665 1.396-1.153 2.793-.488 1.374-.82 2.615-.31 1.24-.466 2.26-.156.998-.156 1.663h-1.02q0-.774.2-1.86.2-1.11.576-2.372.377-1.264.91-2.638.53-1.396 1.196-2.748.687-1.375 1.485-2.638.82-1.263 1.752-2.327h-7.89v-.843h8.732v.843z" style="line-height:125%;-inkscape-font-specification:'Helvetica Neue LT Com, Light Condensed';text-align:start"/><path d="M1177.154 50.047q-1.02 1.152-1.862 2.504-.82 1.33-1.485 2.75-.665 1.396-1.152 2.793-.488 1.374-.82 2.615-.31 1.24-.466 2.26-.156.998-.156 1.663h-1.02q0-.774.2-1.86.2-1.11.576-2.372.377-1.264.91-2.638.53-1.396 1.196-2.748.687-1.375 1.485-2.638.82-1.263 1.752-2.327h-7.89v-.843h8.732v.843z" style="line-height:125%;-inkscape-font-specification:'Helvetica Neue LT Com, Light Condensed';text-align:start"/><path d="M1186.718 54.014q0-.73-.178-1.507-.177-.776-.576-1.396-.377-.62-1.02-1.02-.62-.398-1.53-.398-1.595 0-2.526 1.153-.91 1.13-.91 3.413 0 .887.2 1.662.2.754.6 1.33.42.554 1.04.887.644.332 1.508.332.887 0 1.508-.333.642-.355 1.063-.953.422-.6.62-1.42.2-.82.2-1.75zm-6.317 7.315q0 .464.156.974.155.488.487.91.355.398.887.664t1.308.266q1.064 0 1.773-.554.71-.577 1.154-1.596.443-1.02.62-2.416.2-1.397.2-3.06v-.31h-.045q-.134.51-.4 1.042t-.71.976q-.442.443-1.085.73-.643.267-1.53.267-1.928 0-3.058-1.263-1.108-1.286-1.108-3.702 0-1.152.265-2.128.266-.975.798-1.684.554-.71 1.374-1.11.842-.398 1.972-.398 1.418 0 2.282.643.865.644 1.33 1.686.466 1.042.6 2.35.154 1.307.154 2.66 0 1.728-.177 3.302-.18 1.573-.688 2.748-.488 1.175-1.42 1.884-.908.687-2.393.687-1.13 0-1.84-.4-.71-.42-1.13-.996-.4-.575-.555-1.174-.155-.598-.155-.997h.93z" style="line-height:125%;-inkscape-font-specification:'Helvetica Neue LT Com, Light Condensed';text-align:start"/></g><g style="line-height:125%;-inkscape-font-specification:'Helvetica Neue LT Com, Light Condensed';text-align:start" font-weight="300" font-stretch="condensed" font-family="Helvetica Neue LT Com"><path d="M929.11 80.086h.843v2.26h-.843v-2.26zm0 4.234h.843v11.592h-.843V84.32z" style="line-height:125%;-inkscape-font-specification:'Helvetica Neue LT Com, Light Condensed';text-align:start"/><path d="M932.312 84.32h.842v1.75h.045q.154-.376.397-.73.266-.378.62-.644.378-.288.843-.465.488-.176 1.086-.176.62 0 1.153.177.53.178.93.577.4.377.62.976.222.576.222 1.396v8.732h-.842v-8.334q0-1.552-.62-2.15-.6-.62-1.685-.62-.665 0-1.197.287-.51.29-.865.798-.332.488-.53 1.175-.18.665-.18 1.42v7.424h-.84V84.32z" style="line-height:125%;-inkscape-font-specification:'Helvetica Neue LT Com, Light Condensed';text-align:start"/><path d="M941.937 85.073h-1.574v-.753h1.574v-1.93q0-.486.09-.907.11-.444.33-.732.245-.31.644-.487.4-.177.976-.177.2 0 .42.022.223 0 .445.045v.753q-.31-.066-.73-.066-.555 0-.954.31-.377.31-.377 1.197v1.973h1.928v.753h-1.93v10.84h-.84v-10.84z" style="line-height:125%;-inkscape-font-specification:'Helvetica Neue LT Com, Light Condensed';text-align:start"/><path d="M952.357 90.127q0-1.264-.155-2.24-.133-.996-.487-1.66-.355-.688-.93-1.043-.555-.377-1.375-.377-.843 0-1.397.377-.554.355-.91 1.042-.353.665-.508 1.662-.133.975-.133 2.24 0 1.24.133 2.238.155.975.51 1.662.354.687.908 1.042.554.354 1.397.354.82 0 1.374-.354.576-.355.93-1.042.355-.687.488-1.662.155-.998.155-2.24zm.93-.022q0 1.263-.176 2.37-.154 1.087-.597 1.93-.444.82-1.22 1.307-.753.466-1.95.466-1.153 0-1.884-.466-.733-.487-1.176-1.307-.42-.843-.598-1.93-.155-1.107-.155-2.37 0-1.242.156-2.35.177-1.108.62-1.928.444-.82 1.197-1.286.776-.486 1.973-.486 1.153 0 1.884.487.73.467 1.153 1.287.443.82.598 1.928.178 1.108.178 2.35z" style="line-height:125%;-inkscape-font-specification:'Helvetica Neue LT Com, Light Condensed';text-align:start"/><path d="M967.735 83.566l-2.106 6.472q-.11.355-.244.71-.11.354-.11.598 0 .332.265.554.267.222.62.222.777 0 1.508-.466.754-.487 1.308-1.263.576-.798.91-1.796.354-.997.354-2.04 0-1.417-.6-2.526-.575-1.107-1.55-1.86-.953-.776-2.195-1.175-1.24-.42-2.527-.42-1.573 0-2.97.597-1.396.6-2.438 1.64-1.02 1.02-1.618 2.394-.598 1.352-.598 2.882 0 1.618.642 2.97.665 1.33 1.73 2.305 1.085.975 2.46 1.53 1.396.53 2.837.53 1.928 0 3.59-.863 1.663-.887 2.75-2.416h.93q-.532.93-1.33 1.684-.776.732-1.73 1.264-.952.532-2.038.82-1.064.266-2.172.266-1.862 0-3.436-.62-1.574-.62-2.726-1.707-1.13-1.108-1.794-2.615-.643-1.53-.643-3.302 0-1.73.665-3.214.687-1.486 1.84-2.573 1.174-1.086 2.704-1.706 1.55-.62 3.302-.62 1.662 0 3.08.488 1.442.487 2.484 1.374 1.063.887 1.662 2.128.62 1.24.62 2.77 0 1.242-.487 2.394-.488 1.13-1.264 1.995-.754.864-1.707 1.396-.93.51-1.862.51-.62 0-1.063-.377-.443-.4-.443-1.176h-.045q-.577.753-1.375 1.152-.776.4-1.707.4-.665 0-1.22-.267-.553-.267-.952-.71-.377-.443-.598-1.042-.2-.598-.2-1.263 0-1.13.4-2.283.398-1.153 1.108-2.084.73-.93 1.728-1.507.998-.597 2.195-.597.553 0 .996.177.443.155.754.443.332.266.532.643.2.355.266.732h.044l.532-1.552h.93zm-8.556 5.962q0 1.264.62 1.93.643.664 1.707.664.886 0 1.64-.6.776-.62 1.33-1.506.554-.887.864-1.862.312-.997.312-1.73 0-.376-.067-.82-.044-.442-.266-.82-.223-.398-.644-.642-.4-.266-1.13-.266-.997 0-1.818.554-.798.555-1.374 1.397-.554.82-.864 1.817-.31.998-.31 1.884z" style="line-height:125%;-inkscape-font-specification:'Helvetica Neue LT Com, Light Condensed';text-align:start"/><path d="M973.005 80.086h.843v5.985h.044q.155-.376.4-.73.265-.378.62-.644.376-.288.842-.465.488-.176 1.086-.176.62 0 1.153.177.532.178.93.577.4.377.62.976.223.576.223 1.396v8.732h-.842v-8.334q0-1.552-.62-2.15-.6-.62-1.686-.62-.665 0-1.197.287-.508.29-.863.798-.332.488-.532 1.175-.177.665-.177 1.42v7.424h-.843V80.086z" style="line-height:125%;-inkscape-font-specification:'Helvetica Neue LT Com, Light Condensed';text-align:start"/><path d="M982.1 80.086h.84v2.26h-.84v-2.26zm0 4.234h.84v11.592h-.84V84.32z" style="line-height:125%;-inkscape-font-specification:'Helvetica Neue LT Com, Light Condensed';text-align:start"/><path d="M986.187 90.083q0 2.55.643 3.945.642 1.396 2.194 1.396.864 0 1.396-.42.554-.422.865-1.13.31-.733.42-1.708.134-.975.134-2.083 0-2.793-.755-4.035-.73-1.24-1.906-1.24-1.597 0-2.306 1.307-.687 1.286-.687 3.968zm-.843-5.763h.843v2.04h.044q.156-.467.378-.888.244-.42.576-.73.355-.312.842-.49.51-.198 1.175-.198 1.02 0 1.708.465.687.465 1.108 1.285.42.798.576 1.906.178 1.11.178 2.373 0 1.352-.2 2.482-.177 1.108-.598 1.928-.42.798-1.108 1.242-.688.443-1.707.443-1.22 0-1.973-.643-.73-.665-.953-1.862h-.043v6.14h-.843V84.32z" style="line-height:125%;-inkscape-font-specification:'Helvetica Neue LT Com, Light Condensed';text-align:start"/><path d="M995.38 90.06q0 .71.045 1.64.044.91.288 1.752.266.82.82 1.396.554.576 1.574.576.908 0 1.463-.4.576-.398.864-.93.31-.532.4-1.086.11-.554.11-.886h.842q0 .665-.2 1.396-.177.71-.62 1.308-.42.576-1.108.975-.687.378-1.663.378-1.13 0-1.86-.443-.71-.444-1.132-1.264-.42-.84-.598-2.016-.155-1.175-.155-2.66 0-2.66.953-4.19.953-1.55 2.925-1.55 1.02 0 1.707.42.71.4 1.13 1.176.422.775.6 1.906.176 1.108.176 2.504h-6.56zm5.63-.753q0-.798-.088-1.596-.09-.797-.377-1.44-.288-.643-.842-1.042-.532-.42-1.42-.42-.974 0-1.55.487-.555.488-.865 1.197-.31.71-.4 1.485-.088.776-.088 1.33h5.63z" style="line-height:125%;-inkscape-font-specification:'Helvetica Neue LT Com, Light Condensed';text-align:start"/><path d="M1003.742 84.32h.842v2.017h.045q.31-.998 1.018-1.64.732-.643 1.884-.643h.488v.753h-.488q-.73 0-1.285.333-.554.31-.93.842-.356.51-.555 1.197-.178.664-.178 1.373v7.36h-.842V84.32z" style="line-height:125%;-inkscape-font-specification:'Helvetica Neue LT Com, Light Condensed';text-align:start"/><path d="M1012.946 84.807q-1.596 0-2.305 1.308-.687 1.286-.687 3.968 0 2.55.643 3.945.643 1.396 2.195 1.396.865 0 1.397-.42.554-.422.864-1.13.312-.733.423-1.708.133-.975.133-2.083 0-2.727-.6-3.99-.597-1.286-2.06-1.286zm-3.835-4.72h.843v6.272h.045q.155-.467.377-.888.243-.42.576-.73.356-.312.843-.49.51-.198 1.175-.198 1.086 0 1.773.465.71.465 1.11 1.285.398.798.53 1.906.156 1.11.156 2.373 0 1.352-.2 2.482-.176 1.108-.598 1.928-.42.798-1.108 1.242-.687.443-1.706.443-1.22 0-1.973-.643-.73-.665-.952-1.862h-.045v2.24h-.842V80.085z" style="line-height:125%;-inkscape-font-specification:'Helvetica Neue LT Com, Light Condensed';text-align:start"/><path d="M1025.043 90.127q0-1.264-.155-2.24-.133-.996-.488-1.66-.354-.688-.93-1.043-.555-.377-1.375-.377-.842 0-1.396.377-.555.355-.91 1.042-.355.665-.51 1.662-.133.975-.133 2.24 0 1.24.133 2.238.155.975.51 1.662.355.687.91 1.042.553.354 1.395.354.82 0 1.374-.354.576-.355.93-1.042.355-.687.488-1.662.155-.998.155-2.24zm.93-.022q0 1.263-.176 2.37-.156 1.087-.6 1.93-.442.82-1.218 1.307-.755.466-1.95.466-1.154 0-1.885-.466-.732-.487-1.175-1.307-.42-.843-.6-1.93-.154-1.107-.154-2.37 0-1.242.155-2.35.18-1.108.622-1.928.443-.82 1.197-1.286.775-.486 1.972-.486 1.152 0 1.884.487.73.467 1.152 1.287.443.82.6 1.928.176 1.108.176 2.35z" style="line-height:125%;-inkscape-font-specification:'Helvetica Neue LT Com, Light Condensed';text-align:start"/><path d="M1027.942 84.32h.842v2.017h.044q.31-.998 1.02-1.64.73-.643 1.884-.643h.488v.753h-.488q-.73 0-1.286.333-.554.31-.93.842-.355.51-.555 1.197-.176.664-.176 1.373v7.36h-.842V84.32z" style="line-height:125%;-inkscape-font-specification:'Helvetica Neue LT Com, Light Condensed';text-align:start"/><path d="M1033.91 90.06q0 .71.044 1.64.044.91.288 1.752.266.82.82 1.396.554.576 1.574.576.908 0 1.463-.4.575-.398.863-.93.31-.532.4-1.086.11-.554.11-.886h.842q0 .665-.2 1.396-.177.71-.62 1.308-.42.576-1.108.975-.687.378-1.663.378-1.13 0-1.86-.443-.71-.444-1.132-1.264-.42-.84-.598-2.016-.156-1.175-.156-2.66 0-2.66.954-4.19.953-1.55 2.925-1.55 1.02 0 1.707.42.71.4 1.13 1.176.422.775.6 1.906.176 1.108.176 2.504h-6.56zm5.63-.753q0-.798-.09-1.596-.088-.797-.376-1.44-.288-.643-.842-1.042-.532-.42-1.42-.42-.974 0-1.55.487-.555.488-.865 1.197-.31.71-.4 1.485-.088.776-.088 1.33h5.63z" style="line-height:125%;-inkscape-font-specification:'Helvetica Neue LT Com, Light Condensed';text-align:start"/><path d="M1047.657 89.152h-.044q-.222.354-.532.487-.287.11-.93.287l-1.707.466q-1.02.288-1.44.886-.4.598-.4 1.662 0 1.13.488 1.817.51.664 1.64.664 1.486 0 2.196-1.064.73-1.064.73-2.815v-2.393zm.842 5.364q0 .42.132.598.156.177.377.177.31 0 .53-.11v.666q-.265.2-.885.2-.266 0-.643-.29-.355-.287-.355-.974v-.732h-.044q-.244.93-1.042 1.53-.797.598-1.994.598-.776 0-1.33-.266-.532-.244-.886-.665-.355-.443-.532-1.042-.155-.598-.155-1.263 0-1.33.532-2.084.554-.775 1.817-1.108l2.505-.687q.753-.2.93-.576.2-.4.2-1.13 0-.8-.177-1.286-.177-.487-.488-.775-.288-.288-.71-.377-.398-.11-.863-.11-.733 0-1.22.22-.488.2-.776.6-.288.376-.42.886-.112.51-.112 1.108h-.842q0-.598.133-1.22.133-.64.487-1.15.377-.533.998-.866.642-.332 1.662-.332.953 0 1.574.244.62.243.975.665.354.42.487.975.133.554.133 1.175v7.403z" style="line-height:125%;-inkscape-font-specification:'Helvetica Neue LT Com, Light Condensed';text-align:start"/><path d="M1051.95 93.65h.93v2.262h-.93v-2.26z" style="line-height:125%;-inkscape-font-specification:'Helvetica Neue LT Com, Light Condensed';text-align:start"/><path d="M1063.26 92.122q0 .4-.156 1.086-.133.687-.532 1.352-.377.665-1.086 1.152-.687.466-1.818.466-1.13 0-1.86-.466-.71-.465-1.132-1.285-.42-.82-.598-1.928-.155-1.132-.155-2.44 0-2.88.93-4.433.932-1.573 2.97-1.573 1.065 0 1.707.443.665.443 1.02 1.042.377.597.51 1.196.133.598.133.908h-.93q0-.266-.112-.73-.088-.49-.376-.954-.266-.466-.753-.798-.465-.355-1.22-.355-1.617 0-2.282 1.397-.664 1.374-.664 3.9 0 2.75.664 4.035.665 1.284 2.283 1.284.8 0 1.287-.4.51-.398.776-.93t.354-1.086q.11-.554.11-.886h.932z" style="line-height:125%;-inkscape-font-specification:'Helvetica Neue LT Com, Light Condensed';text-align:start"/><path d="M1071.364 90.127q0-1.264-.155-2.24-.134-.996-.488-1.66-.355-.688-.93-1.043-.555-.377-1.375-.377-.843 0-1.397.377-.554.355-.91 1.042-.353.665-.508 1.662-.133.975-.133 2.24 0 1.24.132 2.238.155.975.51 1.662.354.687.908 1.042.554.354 1.397.354.82 0 1.374-.354.577-.355.932-1.042.354-.687.487-1.662.154-.998.154-2.24zm.93-.022q0 1.263-.176 2.37-.155 1.087-.598 1.93-.444.82-1.22 1.307-.753.466-1.95.466-1.153 0-1.884-.466-.732-.487-1.175-1.307-.42-.843-.597-1.93-.156-1.107-.156-2.37 0-1.242.156-2.35.177-1.108.62-1.928.444-.82 1.197-1.286.776-.486 1.973-.486 1.153 0 1.884.487.73.467 1.153 1.287.443.82.598 1.928.177 1.108.177 2.35z" style="line-height:125%;-inkscape-font-specification:'Helvetica Neue LT Com, Light Condensed';text-align:start"/><path d="M1074.396 84.32h.842v1.728h.045q.244-.93.975-1.462.73-.532 1.818-.532.664 0 1.108.2.465.176.753.487.29.31.422.71.154.377.22.776h.045q.066-.31.265-.687.2-.378.532-.71.355-.333.843-.555.51-.22 1.197-.22 1.396 0 2.083.774.687.775.687 2.172v8.91h-.842v-8.71q0-1.198-.532-1.796-.532-.6-1.463-.6-1.33 0-1.995.954-.665.93-.665 2.46v7.692h-.842V87.6q0-1.33-.465-2.06-.444-.733-1.574-.733-.687 0-1.175.288-.488.266-.82.732-.31.465-.466 1.086-.156.62-.156 1.308v7.692h-.842V84.32z" style="line-height:125%;-inkscape-font-specification:'Helvetica Neue LT Com, Light Condensed';text-align:start"/><path d="M1089.7 93.65h.93v2.262h-.93v-2.26z" style="line-height:125%;-inkscape-font-specification:'Helvetica Neue LT Com, Light Condensed';text-align:start"/><path d="M1097.84 84.807q-1.596 0-2.306 1.308-.687 1.286-.687 3.968 0 2.55.643 3.945.643 1.396 2.194 1.396.865 0 1.397-.42.555-.422.865-1.13.31-.733.42-1.708.134-.975.134-2.083 0-2.727-.6-3.99-.598-1.286-2.06-1.286zm-3.835-4.72h.842v6.272h.045q.155-.467.376-.888.244-.42.577-.73.354-.312.842-.49.51-.198 1.175-.198 1.086 0 1.773.465.71.465 1.108 1.285.4.798.532 1.906.155 1.11.155 2.373 0 1.352-.2 2.482-.177 1.108-.598 1.928-.42.798-1.108 1.242-.687.443-1.707.443-1.22 0-1.972-.643-.732-.665-.953-1.862h-.045v2.24h-.842V80.085z" style="line-height:125%;-inkscape-font-specification:'Helvetica Neue LT Com, Light Condensed';text-align:start"/><path d="M1109.937 90.127q0-1.264-.155-2.24-.133-.996-.488-1.66-.355-.688-.93-1.043-.555-.377-1.375-.377-.843 0-1.398.377-.554.355-.908 1.042-.355.665-.51 1.662-.133.975-.133 2.24 0 1.24.134 2.238.155.975.51 1.662.354.687.908 1.042.555.354 1.397.354.82 0 1.373-.354.576-.355.93-1.042.356-.687.49-1.662.154-.998.154-2.24zm.93-.022q0 1.263-.177 2.37-.155 1.087-.598 1.93-.443.82-1.22 1.307-.753.466-1.95.466-1.152 0-1.884-.466-.73-.487-1.175-1.307-.42-.843-.598-1.93-.155-1.107-.155-2.37 0-1.242.155-2.35.177-1.108.62-1.928.444-.82 1.198-1.286.775-.486 1.972-.486 1.153 0 1.884.487.73.467 1.152 1.287.443.82.598 1.928.178 1.108.178 2.35z" style="line-height:125%;-inkscape-font-specification:'Helvetica Neue LT Com, Light Condensed';text-align:start"/></g><g style="line-height:125%;-inkscape-font-specification:'Helvetica Neue LT Com, Light Condensed';text-align:start" font-weight="300" font-stretch="condensed" font-family="Helvetica Neue LT Com"><path d="M929.11 115.002h.843v5.984h.044q.155-.376.4-.73.265-.378.62-.644.376-.288.842-.465.487-.178 1.085-.178.62 0 1.153.177.532.177.93.576.4.377.62.975.223.576.223 1.397v8.733h-.842v-8.334q0-1.552-.62-2.15-.6-.62-1.685-.62-.665 0-1.197.287-.51.29-.864.8-.332.487-.532 1.174-.177.665-.177 1.418v7.426h-.843v-15.826z" style="line-height:125%;-inkscape-font-specification:'Helvetica Neue LT Com, Light Condensed';text-align:start"/><path d="M937.162 119.235h1.574V115.8h.842v3.435h1.928v.754h-1.928v8.93q0 .844.31 1.065.333.222.71.222.265 0 .51-.022.243-.022.53-.11v.753q-.642.133-1.196.133-.93 0-1.33-.487-.376-.51-.376-1.463v-9.02h-1.574v-.755z" style="line-height:125%;-inkscape-font-specification:'Helvetica Neue LT Com, Light Condensed';text-align:start"/><path d="M941.664 119.235h1.574V115.8h.842v3.435h1.928v.754h-1.928v8.93q0 .844.31 1.065.333.222.71.222.266 0 .51-.022.243-.022.53-.11v.753q-.64.133-1.195.133-.93 0-1.33-.487-.377-.51-.377-1.463v-9.02h-1.574v-.755z" style="line-height:125%;-inkscape-font-specification:'Helvetica Neue LT Com, Light Condensed';text-align:start"/><path d="M948.006 124.998q0 2.55.643 3.946.642 1.396 2.193 1.396.865 0 1.397-.42.554-.422.864-1.132.31-.73.42-1.706.134-.976.134-2.084 0-2.793-.753-4.034-.732-1.24-1.907-1.24-1.595 0-2.305 1.307-.687 1.286-.687 3.968zm-.842-5.763h.842v2.04h.044q.156-.466.377-.887.244-.42.577-.732.354-.31.842-.487.51-.2 1.175-.2 1.02 0 1.707.465t1.11 1.285q.42.798.575 1.907.177 1.108.177 2.37 0 1.353-.2 2.484-.178 1.11-.6 1.93-.42.797-1.107 1.24-.687.444-1.707.444-1.22 0-1.972-.643-.732-.664-.954-1.86h-.044v6.14h-.842v-15.495z" style="line-height:125%;-inkscape-font-specification:'Helvetica Neue LT Com, Light Condensed';text-align:start"/><path d="M957.62 119.812h.932v2.26h-.93v-2.26zm0 8.755h.932v2.26h-.93v-2.26z" style="line-height:125%;-inkscape-font-specification:'Helvetica Neue LT Com, Light Condensed';text-align:start"/><path d="M966.226 114.736h.887l-5.675 16.358h-.886l5.674-16.358z" style="line-height:125%;-inkscape-font-specification:'Helvetica Neue LT Com, Light Condensed';text-align:start"/><path d="M972.373 114.736h.887l-5.674 16.358h-.887l5.673-16.358z" style="line-height:125%;-inkscape-font-specification:'Helvetica Neue LT Com, Light Condensed';text-align:start"/><path d="M974.176 115.002h.843v5.984h.043q.155-.376.4-.73.265-.378.62-.644.376-.288.842-.465.487-.178 1.086-.178.622 0 1.154.177.53.177.93.576.4.377.62.975.223.576.223 1.397v8.733h-.843v-8.334q0-1.552-.62-2.15-.6-.62-1.685-.62-.666 0-1.198.287-.51.29-.864.8-.333.487-.532 1.174-.177.665-.177 1.418v7.426h-.844v-15.826z" style="line-height:125%;-inkscape-font-specification:'Helvetica Neue LT Com, Light Condensed';text-align:start"/><path d="M983.27 115.002h.842v2.26h-.842v-2.26zm0 4.233h.842v11.593h-.842v-11.593z" style="line-height:125%;-inkscape-font-specification:'Helvetica Neue LT Com, Light Condensed';text-align:start"/><path d="M987.358 124.998q0 2.55.642 3.946.643 1.396 2.195 1.396.864 0 1.396-.42.555-.422.866-1.132.31-.73.42-1.706.134-.976.134-2.084 0-2.793-.754-4.034-.73-1.24-1.906-1.24-1.596 0-2.305 1.307-.687 1.286-.687 3.968zm-.843-5.763h.843v2.04h.044q.155-.466.377-.887.243-.42.575-.732.355-.31.842-.487.51-.2 1.175-.2 1.02 0 1.707.465.686.465 1.107 1.285.42.798.576 1.907.178 1.108.178 2.37 0 1.353-.2 2.484-.176 1.11-.597 1.93-.42.797-1.11 1.24-.686.444-1.705.444-1.22 0-1.973-.643-.73-.664-.953-1.86h-.044v6.14h-.843v-15.495z" style="line-height:125%;-inkscape-font-specification:'Helvetica Neue LT Com, Light Condensed';text-align:start"/><path d="M996.55 124.976q0 .71.046 1.64.044.91.288 1.75.266.82.82 1.398.554.576 1.574.576.908 0 1.462-.4.577-.398.865-.93.31-.532.4-1.086.11-.554.11-.887h.842q0 .665-.2 1.397-.177.71-.62 1.308-.42.576-1.108.975-.688.377-1.664.377-1.13 0-1.862-.444-.71-.443-1.13-1.263-.42-.842-.598-2.017-.156-1.175-.156-2.66 0-2.66.953-4.19.954-1.55 2.926-1.55 1.02 0 1.706.42.71.4 1.13 1.175.42.776.6 1.906.176 1.11.176 2.506h-6.56zm5.63-.754q0-.798-.087-1.595-.09-.798-.377-1.44-.288-.644-.843-1.043-.532-.42-1.418-.42-.975 0-1.552.487-.554.488-.864 1.197-.31.71-.4 1.486-.09.775-.09 1.33h5.63z" style="line-height:125%;-inkscape-font-specification:'Helvetica Neue LT Com, Light Condensed';text-align:start"/><path d="M1004.913 119.235h.842v2.017h.045q.31-.997 1.02-1.64.73-.643 1.883-.643h.488v.753h-.487q-.73 0-1.285.332-.554.31-.93.843-.356.51-.555 1.197-.178.665-.178 1.374v7.358h-.842v-11.593z" style="line-height:125%;-inkscape-font-specification:'Helvetica Neue LT Com, Light Condensed';text-align:start"/><path d="M1014.117 119.723q-1.596 0-2.305 1.308-.688 1.286-.688 3.968 0 2.55.643 3.946.643 1.396 2.195 1.396.864 0 1.396-.42.554-.422.864-1.132.31-.73.42-1.706.134-.976.134-2.084 0-2.726-.598-3.99-.598-1.285-2.06-1.285zm-3.835-4.72h.842v6.27h.045q.154-.464.376-.885.243-.42.576-.732.354-.31.842-.487.51-.2 1.175-.2 1.085 0 1.772.465.71.465 1.108 1.285.4.798.532 1.907.155 1.108.155 2.37 0 1.353-.2 2.484-.176 1.11-.597 1.93-.422.797-1.11 1.24-.686.444-1.705.444-1.22 0-1.973-.643-.732-.664-.953-1.86h-.046v2.238h-.842v-15.826z" style="line-height:125%;-inkscape-font-specification:'Helvetica Neue LT Com, Light Condensed';text-align:start"/><path d="M1026.214 125.043q0-1.264-.155-2.24-.134-.997-.49-1.662-.354-.686-.93-1.04-.554-.377-1.374-.377-.842 0-1.397.377-.555.354-.91 1.04-.354.666-.51 1.664-.132.975-.132 2.24 0 1.24.133 2.237.156.976.51 1.664.355.687.91 1.04.554.356 1.396.356.82 0 1.374-.355.576-.354.93-1.04.356-.69.49-1.664.154-.996.154-2.237zm.93-.023q0 1.264-.176 2.372-.156 1.086-.6 1.928-.442.82-1.218 1.308-.754.466-1.95.466-1.153 0-1.885-.466-.73-.487-1.174-1.308-.42-.842-.598-1.928-.155-1.108-.155-2.372 0-1.24.155-2.35.178-1.107.62-1.927.444-.82 1.198-1.286.776-.488 1.972-.488 1.153 0 1.884.487.732.466 1.153 1.286.442.82.598 1.928.177 1.11.177 2.35z" style="line-height:125%;-inkscape-font-specification:'Helvetica Neue LT Com, Light Condensed';text-align:start"/><path d="M1029.113 119.235h.842v2.017h.044q.31-.997 1.02-1.64.73-.643 1.883-.643h.488v.753h-.487q-.732 0-1.286.332-.554.31-.93.843-.355.51-.555 1.197-.177.665-.177 1.374v7.358h-.842v-11.593z" style="line-height:125%;-inkscape-font-specification:'Helvetica Neue LT Com, Light Condensed';text-align:start"/><path d="M1035.08 124.976q0 .71.045 1.64.044.91.288 1.75.266.82.82 1.398.554.576 1.574.576.908 0 1.462-.4.576-.398.864-.93.31-.532.4-1.086.11-.554.11-.887h.842q0 .665-.2 1.397-.177.71-.62 1.308-.42.576-1.108.975-.687.377-1.663.377-1.13 0-1.862-.444-.71-.443-1.13-1.263-.42-.842-.598-2.017-.155-1.175-.155-2.66 0-2.66.953-4.19.953-1.55 2.925-1.55 1.02 0 1.707.42.71.4 1.13 1.175.422.776.6 1.906.176 1.11.176 2.506h-6.56zm5.63-.754q0-.798-.088-1.595-.09-.798-.377-1.44-.288-.644-.843-1.043-.532-.42-1.418-.42-.975 0-1.552.487-.554.488-.864 1.197-.31.71-.4 1.486-.088.775-.088 1.33h5.63z" style="line-height:125%;-inkscape-font-specification:'Helvetica Neue LT Com, Light Condensed';text-align:start"/><path d="M1048.828 124.067h-.044q-.222.355-.532.488-.288.11-.93.288l-1.708.466q-1.02.287-1.44.885-.4.6-.4 1.662 0 1.13.488 1.818.51.665 1.64.665 1.485 0 2.195-1.064.73-1.064.73-2.815v-2.393zm.842 5.364q0 .422.133.6.156.177.377.177.31 0 .532-.11v.664q-.266.2-.886.2-.266 0-.643-.287-.355-.29-.355-.976v-.73h-.044q-.244.93-1.042 1.528-.798.6-1.995.6-.776 0-1.33-.267-.532-.244-.886-.665-.354-.444-.53-1.042-.157-.597-.157-1.262 0-1.33.532-2.084.555-.776 1.818-1.108l2.505-.687q.753-.2.93-.578.2-.4.2-1.13 0-.798-.177-1.286-.177-.487-.487-.775-.288-.287-.71-.376-.398-.11-.864-.11-.732 0-1.22.22-.487.2-.775.6-.29.376-.422.886-.11.51-.11 1.108h-.843q0-.598.133-1.22.133-.642.488-1.152.378-.532.998-.864.643-.333 1.663-.333.954 0 1.574.243.62.244.976.665.354.42.487.976.133.554.133 1.174v7.403z" style="line-height:125%;-inkscape-font-specification:'Helvetica Neue LT Com, Light Condensed';text-align:start"/><path d="M1053.12 128.567h.932v2.26h-.93v-2.26z" style="line-height:125%;-inkscape-font-specification:'Helvetica Neue LT Com, Light Condensed';text-align:start"/><path d="M1064.43 127.037q0 .4-.155 1.086-.133.688-.532 1.353-.377.664-1.086 1.152-.687.466-1.817.466t-1.862-.466q-.71-.465-1.13-1.285-.422-.82-.6-1.93-.154-1.13-.154-2.437 0-2.88.93-4.433.93-1.574 2.97-1.574 1.065 0 1.707.443.666.443 1.02 1.04.378.6.51 1.198.134.6.134.91h-.93q0-.266-.112-.73-.09-.49-.377-.954-.266-.466-.754-.798-.464-.355-1.218-.355-1.618 0-2.283 1.396-.666 1.374-.666 3.9 0 2.75.665 4.034.664 1.286 2.282 1.286.798 0 1.286-.4.51-.398.776-.93t.354-1.086q.11-.554.11-.887h.932z" style="line-height:125%;-inkscape-font-specification:'Helvetica Neue LT Com, Light Condensed';text-align:start"/><path d="M1072.535 125.043q0-1.264-.155-2.24-.133-.997-.488-1.662-.354-.686-.93-1.04-.555-.377-1.375-.377-.842 0-1.396.377-.553.354-.908 1.04-.355.666-.51 1.664-.133.975-.133 2.24 0 1.24.132 2.237.156.976.51 1.664.355.687.91 1.04.553.356 1.395.356.82 0 1.375-.355.576-.354.93-1.04.355-.69.488-1.664.155-.996.155-2.237zm.93-.023q0 1.264-.176 2.372-.156 1.086-.6 1.928-.443.82-1.22 1.308-.752.466-1.95.466-1.152 0-1.883-.466-.732-.487-1.175-1.308-.42-.842-.598-1.928-.155-1.108-.155-2.372 0-1.24.154-2.35.177-1.107.62-1.927.444-.82 1.197-1.286.777-.488 1.974-.488 1.152 0 1.884.487.73.466 1.152 1.286.444.82.6 1.928.176 1.11.176 2.35z" style="line-height:125%;-inkscape-font-specification:'Helvetica Neue LT Com, Light Condensed';text-align:start"/><path d="M1075.567 119.235h.842v1.73h.044q.243-.932.975-1.464.73-.53 1.816-.53.665 0 1.11.2.464.176.752.486t.42.71q.157.377.223.775h.045q.067-.31.266-.686.2-.376.533-.71.355-.33.843-.553.51-.22 1.197-.22 1.396 0 2.083.775.687.776.687 2.172v8.91h-.842v-8.71q0-1.197-.53-1.796-.533-.597-1.464-.597-1.33 0-1.995.953-.664.93-.664 2.46v7.692h-.842v-8.312q0-1.33-.465-2.062-.445-.73-1.575-.73-.687 0-1.175.287-.488.267-.82.733-.31.465-.466 1.086-.155.62-.155 1.306v7.692h-.843v-11.593z" style="line-height:125%;-inkscape-font-specification:'Helvetica Neue LT Com, Light Condensed';text-align:start"/><path d="M1090.87 128.567h.932v2.26h-.93v-2.26z" style="line-height:125%;-inkscape-font-specification:'Helvetica Neue LT Com, Light Condensed';text-align:start"/><path d="M1099.01 119.723q-1.596 0-2.305 1.308-.687 1.286-.687 3.968 0 2.55.643 3.946.644 1.396 2.195 1.396.865 0 1.397-.42.554-.422.864-1.132.31-.73.42-1.706.134-.976.134-2.084 0-2.726-.598-3.99-.6-1.285-2.062-1.285zm-3.834-4.72h.842v6.27h.044q.156-.464.377-.885.243-.42.576-.732.354-.31.842-.487.51-.2 1.175-.2 1.086 0 1.773.465.71.465 1.108 1.285.4.798.532 1.907.155 1.108.155 2.37 0 1.353-.198 2.484-.178 1.11-.6 1.93-.42.797-1.107 1.24-.687.444-1.707.444-1.22 0-1.973-.643-.73-.664-.953-1.86h-.044v2.238h-.842v-15.826z" style="line-height:125%;-inkscape-font-specification:'Helvetica Neue LT Com, Light Condensed';text-align:start"/><path d="M1111.108 125.043q0-1.264-.156-2.24-.133-.997-.487-1.662-.355-.686-.93-1.04-.555-.377-1.375-.377-.843 0-1.397.377-.554.354-.91 1.04-.353.666-.508 1.664-.133.975-.133 2.24 0 1.24.133 2.237.155.976.51 1.664.354.687.908 1.04.554.356 1.397.356.82 0 1.374-.355.576-.354.93-1.04.355-.69.488-1.664.156-.996.156-2.237zm.93-.023q0 1.264-.177 2.372-.154 1.086-.597 1.928-.444.82-1.22 1.308-.753.466-1.95.466-1.152 0-1.884-.466-.732-.487-1.176-1.308-.42-.842-.598-1.928-.155-1.108-.155-2.372 0-1.24.156-2.35.177-1.107.62-1.927.444-.82 1.197-1.286.776-.488 1.973-.488 1.153 0 1.884.487.732.466 1.153 1.286.443.82.598 1.928.18 1.11.18 2.35z" style="line-height:125%;-inkscape-font-specification:'Helvetica Neue LT Com, Light Condensed';text-align:start"/></g></g></g></g></svg>