<svg xmlns="http://www.w3.org/2000/svg" width="192" height="192"><g><g><g><path d="M86.013 30.08l-.377 18.25-22.678-.466L75.615 61.04 59.248 76.744l18.25.377-.467 22.66 13.177-12.638 15.704 16.367.378-18.25 22.678.466-12.64-13.176 16.35-15.704-18.25-.377.467-22.68-13.176 12.64-15.704-16.35zm9.95 32.126c2.54 0 4.588 2.047 4.588 4.59 0 2.54-2.046 4.588-4.588 4.588-2.542 0-4.59-2.047-4.59-4.59 0-2.54 2.048-4.588 4.59-4.588z" fill="#b3b3b3"/><path d="M104.9 33.79L90.785 48.488 78.944 37.12l.43 20.392-16.417.344 14.698 14.117-11.367 11.84 20.39-.43.345 16.417 14.117-14.72 11.84 11.368-.43-20.37 16.417-.344-14.72-14.117 11.39-11.84-20.392.408-.344-16.395zm-8.938 27.504c3.047 0 5.5 2.454 5.5 5.5 0 3.048-2.453 5.502-5.5 5.502s-5.5-2.454-5.5-5.5c0-3.048 2.453-5.502 5.5-5.502z" fill="#025"/></g><g fill="#025"><path d="M9.923 107.52v36.223h2.264v-9.056c0-3.748 3.044-6.792 6.792-6.792 3.748 0 6.79 3.044 6.79 6.792v9.056h2.265v-9.056c0-4.998-4.057-9.056-9.056-9.056-2.704 0-5.134 1.2-6.793 3.08v-21.19z" fill-rule="evenodd"/><path d="M32.563 143.743H30.3V125.63h2.263z" fill-rule="evenodd"/><path d="M43.883 125.63c-4.994 0-9.056 4.063-9.056 9.057v27.168h2.264v-21.15c1.658 1.878 4.092 3.038 6.793 3.038 4.994 0 9.056-4.06 9.056-9.056 0-4.994-4.063-9.056-9.057-9.056zm0 2.265c3.746 0 6.792 3.047 6.792 6.792 0 3.746-3.046 6.792-6.792 6.792-3.745 0-6.792-3.047-6.792-6.793 0-3.745 3.048-6.792 6.793-6.792z" fill-rule="evenodd"/><path d="M61.995 125.63c-5 0-9.056 4.057-9.056 9.057s4.055 9.056 9.055 9.056 9.054-4.05 9.056-9.056h-2.263c-.01 3.752-3.044 6.792-6.792 6.792-1.772 0-3.384-.686-4.593-1.8l12.44-9.51c-1.625-2.81-4.612-4.54-7.847-4.54zm0 2.275c1.733 0 3.4.662 4.657 1.85l-10.65 8.117c-.506-.95-.793-2.035-.793-3.185 0-3.747 3.038-6.782 6.785-6.782z"/><path d="M80.107 125.63c-5.002 0-9.056 4.055-9.056 9.057v9.056h2.265v-9.056c0-3.75 3.04-6.792 6.792-6.792s6.792 3.04 6.792 6.792h2.263c0-5.002-4.054-9.056-9.056-9.056z" fill-rule="evenodd"/><path d="M115.55 123.305c-.443-.444-.443-1.158 0-1.602l4.808-4.808c.444-.444 1.16-.444 1.603 0 .445.444.445 1.16 0 1.603l-4.807 4.807c-.444.444-1.158.444-1.602 0z" fill-rule="evenodd"/><path d="M116.33 125.63c-5.005 0-9.055 4.05-9.055 9.057 0 5.007 4.05 9.056 9.056 9.056 5.008 0 9.142-4.05 9.142-9.056 0-5.006-4.134-9.056-9.14-9.056zm0 2.265c3.756 0 6.793 3.038 6.793 6.792 0 3.755-3.037 6.792-6.792 6.792-3.754 0-6.79-3.038-6.79-6.793 0-3.754 3.036-6.792 6.79-6.792z" fill-rule="evenodd"/><path d="M170.667 125.63c-5 0-9.056 4.057-9.056 9.057s4.057 9.056 9.057 9.056c2.705 0 5.133-1.186 6.792-3.066v3.066h2.263v-9.056c0-5-4.055-9.056-9.056-9.056zm0 2.265c3.75 0 6.792 3.07 6.792 6.82 0 3.75-3.042 6.764-6.793 6.764-3.75 0-6.792-3.042-6.792-6.793 0-3.75 3.042-6.792 6.792-6.792z" fill-rule="evenodd"/><path d="M98.22 143.743c-4.995 0-9.057-4.06-9.057-9.056V107.52h2.264v21.15c1.657-1.878 4.09-3.04 6.792-3.04 4.993 0 9.055 4.063 9.055 9.057 0 4.995-4.062 9.056-9.056 9.056zm0-2.264c3.745 0 6.79-3.047 6.79-6.793 0-3.745-3.045-6.792-6.79-6.792-3.746 0-6.793 3.047-6.793 6.792 0 3.746 3.047 6.792 6.792 6.792z" fill-rule="evenodd"/><path d="M134.443 125.63c-5.002 0-9.056 4.055-9.056 9.057v9.056h2.264v-9.056c0-3.75 3.042-6.792 6.793-6.792 3.752 0 6.792 3.04 6.792 6.792h2.264c0-5.002-4.055-9.056-9.057-9.056z" fill-rule="evenodd"/><path d="M152.555 125.63c-5 0-9.056 4.057-9.056 9.057s4.055 9.056 9.055 9.056 9.054-4.05 9.056-9.056h-2.263c-.01 3.752-3.044 6.792-6.792 6.792-1.772 0-3.384-.686-4.593-1.8l12.44-9.51c-1.625-2.81-4.612-4.54-7.847-4.54zm0 2.275c1.733 0 3.4.662 4.657 1.85l-10.65 8.117c-.506-.95-.793-2.035-.793-3.185 0-3.747 3.038-6.782 6.785-6.782z"/><g style="text-align:start;line-height:125%;-inkscape-font-specification:Helvetica Neue LT Com" font-size="48" letter-spacing="0" word-spacing="0" font-family="Helvetica Neue LT Com"><path d="M129.878 149.765h1.196v9.7h-1.196v-9.7"/><path d="M135.585 159.464h-1.195v-8.64h-2.432v-1.06h6.072v1.06h-2.445v8.64"/><path d="M146.305 152.278c0-.253-.028-.484-.082-.693-.045-.217-.127-.398-.244-.543-.12-.154-.278-.272-.477-.353-.19-.092-.425-.137-.706-.137-.516 0-.915.136-1.196.408-.27.263-.406.653-.406 1.17 0 .452.113.8.34 1.045.226.244.507.44.842.584.344.144.71.275 1.1.393.398.11.765.258 1.1.448.344.19.63.454.856.79.226.334.34.796.34 1.385 0 .56-.095 1.027-.286 1.4-.18.37-.416.664-.706.882-.29.217-.616.37-.978.462-.353.09-.702.134-1.046.134-.57 0-1.046-.072-1.426-.217-.372-.145-.67-.353-.897-.625-.217-.27-.376-.607-.475-1.005-.09-.408-.136-.87-.136-1.386h1.195c0 .273.014.545.04.816.028.263.1.503.218.72.118.218.3.394.544.53.243.127.583.19 1.018.19.235 0 .457-.04.665-.122.208-.08.385-.195.53-.34.154-.153.272-.335.353-.543.09-.207.136-.443.136-.705 0-.344-.068-.625-.204-.842-.127-.218-.3-.4-.516-.544-.208-.155-.453-.277-.734-.368-.27-.1-.552-.2-.842-.298-.28-.1-.56-.21-.842-.326-.272-.127-.516-.286-.734-.476-.208-.2-.38-.448-.516-.747-.126-.3-.19-.67-.19-1.114 0-.225.032-.488.095-.787.063-.308.194-.602.393-.883.208-.28.498-.516.87-.706.37-.2.864-.3 1.48-.3.933 0 1.612.227 2.038.68.435.444.662 1.12.68 2.024h-1.195"/><path d="M149.89 155.96c0 .28.005.584.014.91.018.326.073.63.163.91.09.28.227.516.408.706.19.18.462.272.815.272.272 0 .49-.06.652-.177.163-.126.285-.275.367-.447.09-.18.148-.367.175-.557.027-.2.04-.367.04-.503h1.142c0 .19-.036.435-.11.734-.062.29-.184.575-.365.856-.18.27-.43.507-.747.706-.317.19-.725.284-1.223.284-.897 0-1.544-.308-1.943-.923-.39-.615-.585-1.552-.585-2.81 0-.454.028-.91.082-1.373.063-.47.186-.892.367-1.264.19-.38.452-.688.788-.923.344-.245.796-.367 1.358-.367.552 0 .992.11 1.318.326.326.216.57.497.733.84.164.336.268.712.314 1.13.045.415.067.818.067 1.208v.462h-3.83m2.636-.897v-.394c0-.2-.018-.404-.054-.612-.036-.218-.104-.412-.204-.584-.09-.172-.217-.313-.38-.42-.163-.11-.372-.164-.625-.164-.3 0-.54.08-.72.244-.172.154-.304.335-.394.543-.092.21-.15.422-.178.64-.027.207-.04.366-.04.474v.273h2.594"/><path d="M158.426 154.397c0-.172-.022-.348-.068-.53-.036-.18-.1-.344-.19-.488-.08-.146-.2-.264-.353-.355-.145-.09-.326-.135-.543-.135-.18 0-.358.03-.53.095-.163.063-.312.203-.448.42-.136.21-.245.512-.326.91-.082.4-.123.93-.123 1.59 0 .236.005.516.014.842.017.326.07.64.162.938.09.3.226.552.408.76.19.21.457.313.8.313.246 0 .445-.06.6-.177.153-.116.275-.26.365-.433.09-.182.15-.376.177-.585.036-.217.054-.425.054-.624h1.14c0 .29-.04.593-.12.91-.073.317-.205.61-.395.883-.18.263-.424.485-.732.666-.308.172-.69.258-1.14.258-.898 0-1.545-.308-1.944-.923-.39-.615-.584-1.552-.584-2.81 0-.454.027-.91.082-1.373.063-.47.185-.892.366-1.264.19-.38.453-.688.788-.923.344-.245.797-.367 1.36-.367.497 0 .895.086 1.194.258.308.173.543.386.706.64.172.244.286.507.34.787.054.272.08.512.08.72h-1.14"/><path d="M165.54 159.464h-1.085v-.856h-.027c-.154.335-.4.594-.734.775-.335.18-.68.27-1.032.27-.48 0-.852-.076-1.114-.23-.254-.163-.444-.362-.57-.597-.12-.236-.186-.485-.205-.747-.018-.273-.027-.518-.027-.735v-5.162h1.14v5.026c0 .135.006.29.015.46.02.173.064.336.137.49.072.145.176.267.312.367.144.1.348.15.61.15.154 0 .313-.028.476-.082.172-.054.33-.14.475-.258.146-.118.264-.267.355-.45.09-.19.135-.415.135-.678v-5.027h1.14v7.28"/><path d="M167.034 152.183h1.14v1.087h.028c.082-.172.168-.335.26-.49.098-.153.21-.29.338-.407.127-.117.267-.208.42-.27.164-.074.35-.11.558-.11.227 0 .394.027.503.082v1.113c-.054-.01-.126-.018-.217-.027-.08-.017-.212-.026-.394-.026-.145 0-.304.036-.476.11-.172.062-.335.166-.49.31-.144.137-.27.314-.38.53-.1.218-.15.476-.15.775v4.604h-1.14v-7.28"/><path d="M171.135 149.765h1.14v1.304h-1.14v-1.305m0 2.418h1.14v7.28h-1.14v-7.28"/><path d="M174.166 150.064h1.14v2.12h1.264v.896h-1.263v4.673c0 .29.05.498.15.624.1.127.298.19.597.19.127 0 .226-.004.3-.013l.203-.027v.937c-.073.018-.186.036-.34.055-.154.017-.35.026-.584.026-.3 0-.543-.027-.734-.082-.19-.063-.34-.154-.45-.27-.108-.128-.185-.282-.23-.463-.036-.18-.054-.39-.054-.624v-5.026h-1.06v-.897h1.06v-2.12"/><path d="M176.744 152.183h1.25l1.44 5.84h.026l1.277-5.84h1.25l-2.106 7.77c-.07.254-.148.494-.23.72-.08.227-.194.426-.34.598-.135.182-.31.322-.53.422-.216.11-.497.163-.84.163-.227 0-.4-.005-.517-.014-.11-.008-.213-.017-.313-.026v-.896c.163.027.385.04.666.04.263 0 .457-.067.584-.203.136-.136.24-.304.313-.503l.217-.638-2.146-7.43"/></g></g></g></g></svg>