<svg xmlns="http://www.w3.org/2000/svg" width="192" height="192"><g transform="translate(-.941 -.026)"><g><path d="M86.978 30.05l-.377 18.274-22.707-.467 12.673 13.194-16.389 15.725 18.274.377-.467 22.689 13.194-12.655 15.725 16.389.377-18.274 22.707.467-12.655-13.194 16.371-15.725-18.274-.377.467-22.707-13.194 12.655-15.725-16.371zm9.962 32.167c2.546 0 4.595 2.05 4.595 4.595 0 2.546-2.05 4.595-4.595 4.595-2.546 0-4.595-2.05-4.595-4.595 0-2.546 2.05-4.595 4.595-4.595z" fill="#b3b3b3"/><path d="M105.891 33.765l-14.136 14.717-11.855-11.382.43 20.418-16.438.344 14.717 14.136-11.382 11.855 20.418-.43.344 16.438 14.136-14.738 11.855 11.382-.43-20.397 16.438-.344-14.738-14.136 11.403-11.855-20.418.409-.344-16.416zm-8.95 27.54c3.051 0 5.508 2.457 5.508 5.508s-2.457 5.508-5.508 5.508-5.508-2.457-5.508-5.508 2.457-5.508 5.508-5.508z" fill="#025"/></g><g transform="matrix(.283 0 0 .283 62.846 69.647)" fill="#025"><path d="M-183.681 133.917v128h8v-32c0-13.247 10.753-24 24-24s24 10.753 24 24v32h8v-32c0-17.662-14.338-32-32-32-9.552 0-18.14 4.236-24 10.876v-74.876z" fill-rule="evenodd"/><path d="M-103.681 261.917h-8v-64h8z" fill-rule="evenodd"/><path d="M-63.681 197.917c-17.647 0-32 14.353-32 32v96h8v-74.735c5.855 6.635 14.456 10.735 24 10.735 17.647 0 32-14.353 32-32s-14.353-32-32-32zm0 8c13.235 0 24 10.765 24 24s-10.765 24-24 24-24-10.765-24-24 10.765-24 24-24z" fill-rule="evenodd"/><path d="M.319 197.917c-17.669 0-32 14.331-32 32s14.331 32 32 32 31.99-14.316 32-32h-8c-.04 13.256-10.759 24-24 24-6.264 0-11.959-2.422-16.23-6.356l43.958-33.605c-5.745-9.935-16.299-16.039-27.729-16.039zm0 8.034c6.123 0 12.014 2.34 16.456 6.534l-37.636 28.683c-1.784-3.354-2.8-7.188-2.8-11.251 0-13.241 10.739-23.966 23.981-23.966z"/><path d="M64.319 197.917c-17.675 0-32 14.325-32 32v32h8v-32c0-13.256 10.744-24 24-24s24 10.744 24 24h8c0-17.675-14.325-32-32-32z" fill-rule="evenodd"/><path d="M189.561 189.697c-1.569-1.569-1.569-4.094 0-5.663l16.988-16.988c1.569-1.569 4.094-1.569 5.663 0s1.569 4.094 0 5.663l-16.988 16.988c-1.568 1.569-4.094 1.569-5.663 0z" fill-rule="evenodd"/><path d="M192.319 197.917c-17.691 0-32 14.309-32 32 0 17.691 14.309 32 32 32 17.691 0 32.3-14.309 32.3-32 0-17.691-14.609-32-32.3-32zm0 8c13.268 0 24 10.732 24 24s-10.732 24-24 24-24-10.732-24-24 10.732-24 24-24z" fill-rule="evenodd"/><path d="M384.319 197.917c-17.671 0-32 14.329-32 32s14.329 32 32 32c9.557 0 18.137-4.192 24-10.836v10.836h8v-32c0-17.671-14.329-32-32-32zm0 8c13.253 0 24 10.847 24 24.1 0 13.253-10.747 23.9-24 23.9s-24-10.747-24-24 10.747-24 24-24z" fill-rule="evenodd"/><path d="M128.319 261.917c-17.647 0-32-14.353-32-32v-96h8v74.735c5.855-6.635 14.456-10.735 24-10.735 17.647 0 32 14.353 32 32s-14.353 32-32 32zm0-8c13.235 0 24-10.765 24-24s-10.765-24-24-24-24 10.765-24 24 10.765 24 24 24z" fill-rule="evenodd"/><path d="M256.319 197.917c-17.675 0-32 14.325-32 32v32h8v-32c0-13.256 10.744-24 24-24s24 10.744 24 24h8c0-17.675-14.325-32-32-32z" fill-rule="evenodd"/><path d="M320.319 197.917c-17.669 0-32 14.331-32 32s14.331 32 32 32 31.99-14.316 32-32h-8c-.04 13.256-10.759 24-24 24-6.264 0-11.959-2.422-16.23-6.356l43.958-33.605c-5.745-9.935-16.299-16.039-27.729-16.039zm0 8.034c6.123 0 12.014 2.34 16.456 6.534l-37.636 28.683c-1.784-3.354-2.8-7.188-2.8-11.251 0-13.241 10.739-23.966 23.981-23.966z"/><g style="text-align:start;line-height:125%;-inkscape-font-specification:Helvetica Neue LT Com" font-size="48" letter-spacing="0" word-spacing="0" font-family="Helvetica Neue LT Com"><path d="M240.189 283.197h4.224v34.272h-4.224v-34.272"/><path d="M260.355 317.469h-4.224v-30.528h-8.592v-3.744h21.456v3.744h-8.64v30.528"/><path d="M298.233 292.077c0-.896-.096-1.712-.288-2.448-.16-.768-.448-1.408-.864-1.92-.416-.544-.976-.96-1.68-1.248-.672-.32-1.504-.48-2.496-.48-1.824 0-3.232.48-4.224 1.44-.96.928-1.44 2.304-1.44 4.128 0 1.6.4 2.832 1.2 3.696.8.864 1.792 1.552 2.976 2.064 1.216.512 2.512.976 3.888 1.392 1.408.384 2.704.912 3.888 1.584 1.216.672 2.224 1.6 3.024 2.784.8 1.184 1.2 2.816 1.2 4.896 0 1.984-.336 3.632-1.008 4.944-.64 1.312-1.472 2.352-2.496 3.12-1.024.768-2.176 1.312-3.456 1.632-1.248.32-2.48.48-3.696.48-2.016 0-3.696-.256-5.04-.768-1.312-.512-2.368-1.248-3.168-2.208-.768-.96-1.328-2.144-1.68-3.552-.32-1.44-.48-3.072-.48-4.896h4.224c0 .96.048 1.92.144 2.88.096.928.352 1.776.768 2.544.416.768 1.056 1.392 1.92 1.872.864.448 2.064.672 3.6.672.832 0 1.616-.144 2.352-.432.736-.288 1.36-.688 1.872-1.2.544-.544.96-1.184 1.248-1.92.32-.736.48-1.568.48-2.496 0-1.216-.24-2.208-.72-2.976-.448-.768-1.056-1.408-1.824-1.92-.736-.544-1.6-.976-2.592-1.296-.96-.352-1.952-.704-2.976-1.056-.992-.352-1.984-.736-2.976-1.152-.96-.448-1.824-1.008-2.592-1.68-.736-.704-1.344-1.584-1.824-2.64-.448-1.056-.672-2.368-.672-3.936 0-.8.112-1.728.336-2.784.224-1.088.688-2.128 1.392-3.12.736-.992 1.76-1.824 3.072-2.496 1.312-.704 3.056-1.056 5.232-1.056 3.296 0 5.696.8 7.2 2.4 1.536 1.568 2.336 3.952 2.4 7.152h-4.224"/><path d="M310.905 305.085c0 .992.016 2.064.048 3.216.064 1.152.256 2.224.576 3.216.32.992.8 1.824 1.44 2.496.672.64 1.632.96 2.88.96.96 0 1.728-.208 2.304-.624.576-.448 1.008-.976 1.296-1.584.32-.64.528-1.296.624-1.968.096-.704.144-1.296.144-1.776h4.032c0 .672-.128 1.536-.384 2.592-.224 1.024-.656 2.032-1.296 3.024-.64.96-1.52 1.792-2.64 2.496-1.12.672-2.56 1.008-4.32 1.008-3.168 0-5.456-1.088-6.864-3.264-1.376-2.176-2.064-5.488-2.064-9.936 0-1.6.096-3.216.288-4.848.224-1.664.656-3.152 1.296-4.464.672-1.344 1.6-2.432 2.784-3.264 1.216-.864 2.816-1.296 4.8-1.296 1.952 0 3.504.384 4.656 1.152 1.152.768 2.016 1.76 2.592 2.976.576 1.184.944 2.512 1.104 3.984.16 1.472.24 2.896.24 4.272v1.632h-13.536m9.312-3.168v-1.392c0-.704-.064-1.424-.192-2.16-.128-.768-.368-1.456-.72-2.064-.32-.608-.768-1.104-1.344-1.488-.576-.384-1.312-.576-2.208-.576-1.056 0-1.904.288-2.544.864-.608.544-1.072 1.184-1.392 1.92-.32.736-.528 1.488-.624 2.256-.096.736-.144 1.296-.144 1.68v.96h9.168"/><path d="M341.066 299.565c0-.608-.08-1.232-.24-1.872-.128-.64-.352-1.216-.672-1.728-.288-.512-.704-.928-1.248-1.248-.512-.32-1.152-.48-1.92-.48-.64 0-1.264.112-1.872.336-.576.224-1.104.72-1.584 1.488-.48.736-.864 1.808-1.152 3.216-.288 1.408-.432 3.28-.432 5.616 0 .832.016 1.824.048 2.976.064 1.152.256 2.256.576 3.312.32 1.056.8 1.952 1.44 2.688.672.736 1.616 1.104 2.832 1.104.864 0 1.568-.208 2.112-.624.544-.416.976-.928 1.296-1.536.32-.64.528-1.328.624-2.064.128-.768.192-1.504.192-2.208h4.032c0 1.024-.144 2.096-.432 3.216-.256 1.12-.72 2.16-1.392 3.12-.64.928-1.504 1.712-2.592 2.352-1.088.608-2.432.912-4.032.912-3.168 0-5.456-1.088-6.864-3.264-1.376-2.176-2.064-5.488-2.064-9.936 0-1.6.096-3.216.288-4.848.224-1.664.656-3.152 1.296-4.464.672-1.344 1.6-2.432 2.784-3.264 1.216-.864 2.816-1.296 4.8-1.296 1.76 0 3.168.304 4.224.912 1.088.608 1.92 1.36 2.496 2.256.608.864 1.008 1.792 1.2 2.784.192.96.288 1.808.288 2.544h-4.032"/><path d="M366.208 317.469h-3.84v-3.024h-.096c-.544 1.184-1.408 2.096-2.592 2.736-1.184.64-2.4.96-3.648.96-1.696 0-3.008-.272-3.936-.816-.896-.576-1.568-1.28-2.016-2.112-.416-.832-.656-1.712-.72-2.64-.064-.96-.096-1.824-.096-2.592v-18.24h4.032v17.76c0 .48.016 1.024.048 1.632.064.608.224 1.184.48 1.728.256.512.624.944 1.104 1.296.512.352 1.232.528 2.16.528.544 0 1.104-.096 1.68-.288.608-.192 1.168-.496 1.68-.912.512-.416.928-.944 1.248-1.584.32-.672.48-1.472.48-2.4v-17.76h4.032v25.728"/><path d="M371.483 291.741h4.032v3.84h.096c.288-.608.592-1.184.912-1.728.352-.544.752-1.024 1.2-1.44.448-.416.944-.736 1.488-.96.576-.256 1.232-.384 1.968-.384.8 0 1.392.096 1.776.288v3.936c-.192-.032-.448-.064-.768-.096-.288-.064-.752-.096-1.392-.096-.512 0-1.072.128-1.68.384-.608.224-1.184.592-1.728 1.104-.512.48-.96 1.104-1.344 1.872-.352.768-.528 1.68-.528 2.736v16.272h-4.032v-25.728"/><path d="M385.973 283.197h4.032v4.608h-4.032v-4.608m0 8.544h4.032v25.728h-4.032v-25.728"/><path d="M396.683 284.253h4.032v7.488h4.464v3.168h-4.464v16.512c0 1.024.176 1.76.528 2.208.352.448 1.056.672 2.112.672.448 0 .8-.016 1.056-.048l.72-.096v3.312c-.256.064-.656.128-1.2.192-.544.064-1.232.096-2.064.096-1.056 0-1.92-.096-2.592-.288-.672-.224-1.2-.544-1.584-.96-.384-.448-.656-.992-.816-1.632-.128-.64-.192-1.376-.192-2.208v-17.76h-3.744v-3.168h3.744v-7.488"/><path d="M405.791 291.741h4.416l5.088 20.64h.096l4.512-20.64h4.416l-7.44 27.456c-.256.896-.528 1.744-.816 2.544-.288.8-.688 1.504-1.2 2.112-.48.64-1.104 1.136-1.872 1.488-.768.384-1.76.576-2.976.576-.8 0-1.408-.016-1.824-.048l-1.104-.096v-3.168c.576.096 1.36.144 2.352.144.928 0 1.616-.24 2.064-.72.48-.48.848-1.072 1.104-1.776l.768-2.256-7.584-26.256"/></g></g></g></svg>