<svg xmlns="http://www.w3.org/2000/svg" width="128" height="128"><defs><path d="M213.482 88.244a42 42 0 1 1-9.181 2.053" transform="matrix(.727 0 0 .727 32.862 703.985)" stroke="#fff" fill="none"/></defs><path d="M38.413 1.156c-5.371 0-9.694 4.324-9.694 9.694v106.299c0 5.37 4.324 9.694 9.694 9.694h51.174c5.371 0 9.694-4.324 9.694-9.694v-106.299c0-5.371-4.324-9.694-9.694-9.694h-51.174zm1.995 13.553h47.184c1.655 0 2.983 1.327 2.983 2.983 0 1.655-1.327 2.983-2.983 2.983h-47.184c-1.655 0-3.001-1.327-3.001-2.983 0-1.655 1.346-2.983 3.001-2.983zm0 13.721h47.184c1.655 0 2.983 1.327 2.983 2.983 0 1.655-1.327 2.983-2.983 2.983h-47.184c-1.655 0-3.001-1.328-3.001-2.983s1.346-2.983 3.001-2.983zm0 13.572h47.184c1.655 0 2.983 1.327 2.983 2.983 0 1.655-1.327 2.983-2.983 2.983h-47.184c-1.655 0-3.001-1.327-3.001-2.983 0-1.655 1.346-2.983 3.001-2.983zm45.488 20.153c2.587 0 4.679 2.092 4.679 4.679s-2.092 4.679-4.679 4.679-4.679-2.092-4.679-4.679 2.092-4.679 4.679-4.679zm-47.221 23.545c.702 0 1.268.565 1.268 1.268v30.126c0 .702-.565 1.268-1.268 1.268-.702 0-1.268-.565-1.268-1.268v-30.126c0-.702.565-1.268 1.268-1.268zm8.445 0c.702 0 1.268.565 1.268 1.268v30.126c0 .702-.565 1.268-1.268 1.268-.702 0-1.268-.565-1.268-1.268v-30.126c0-.702.565-1.268 1.268-1.268zm8.445 0c.702 0 1.268.565 1.268 1.268v30.126c0 .702-.565 1.268-1.268 1.268-.702 0-1.268-.565-1.268-1.268v-30.126c0-.702.565-1.268 1.268-1.268zm8.426 0c.702 0 1.268.565 1.268 1.268v30.126c0 .702-.565 1.268-1.268 1.268-.702 0-1.268-.565-1.268-1.268v-30.126c0-.702.565-1.268 1.268-1.268zm8.445 0c.702 0 1.268.565 1.268 1.268v30.126c0 .702-.565 1.268-1.268 1.268-.702 0-1.268-.565-1.268-1.268v-30.126c0-.702.565-1.268 1.268-1.268zm8.445 0c.702 0 1.268.565 1.268 1.268v30.126c0 .702-.565 1.268-1.268 1.268-.702 0-1.268-.565-1.268-1.268v-30.126c0-.702.565-1.268 1.268-1.268zm8.426 0c.702 0 1.268.565 1.268 1.268v30.126c0 .702-.565 1.268-1.268 1.268-.702 0-1.268-.565-1.268-1.268v-30.126c0-.702.565-1.268 1.268-1.268z" fill="#fff" fill-rule="evenodd"/></svg>