<svg xmlns="http://www.w3.org/2000/svg" width="128" height="384"><g fill="#fff"><g transform="matrix(.388 0 0 .388 12.882 -97.652)"><circle r="1.649" cy="28.477" cx="14.47" transform="matrix(4.092 0 0 4.092 -3.985 954.737)"/><circle r="1.65" cy="28.477" cx="23.681" transform="matrix(4.092 0 0 4.092 -3.985 954.737)"/><circle r="1.65" cy="28.477" cx="32.892" transform="matrix(4.092 0 0 4.092 -3.985 954.737)"/><circle r="1.65" cy="28.477" cx="42.103" transform="matrix(4.092 0 0 4.092 -3.985 954.737)"/><path d="M30.277 1071.762v-.965c0-15.85 12.89-28.745 28.74-28.745h135.63c1.354 0 2.803.123 4.427.376l.185.03.158-.098c4.923-2.938 10.567-4.493 16.312-4.493 2.087 0 4.158.2 6.155.593l1.96.38-1.53-1.276c-7.76-6.474-17.59-10.038-27.67-10.038H59.018c-23.858 0-43.268 19.41-43.268 43.268v.966c0 23.858 19.41 43.27 43.267 43.27h118.78v-14.52H59.018c-15.85 0-28.74-12.896-28.74-28.746z"/><path d="M243.857 1084.833H240.3v-17.998c0-12.735-11.012-23.1-24.566-23.1-13.558 0-24.578 10.36-24.578 23.1v17.998H187.6c-1.97 0-3.565 2.157-3.565 4.834v28.192c0 2.67 2.177 4.844 4.833 4.844h53.725c2.672 0 4.833-2.173 4.833-4.845v-28.193c-.004-2.677-1.592-4.833-3.57-4.833zm-28.123 23.728c-3.34 0-6.048-2.716-6.048-6.056s2.71-6.044 6.048-6.044c3.34 0 6.05 2.7 6.05 6.044 0 3.34-2.706 6.057-6.05 6.057zm16.525-23.727h-33.042v-17.998c0-8.287 7.407-15.04 16.516-15.04 9.102 0 16.525 6.75 16.525 15.04v17.998z"/></g><g><g><path d="M24 223.36h31.36v-47.042H24v47.042zm16.342-2.357c-.835 0-1.51-.682-1.51-1.514 0-.835.675-1.512 1.51-1.512.836 0 1.513.677 1.513 1.51s-.677 1.515-1.513 1.515zM28.536 180.85H50.83l-.003 34.71h-22.29v-34.71z"/><path d="M39.51 174.307v-9.22h50.254v20.393h4.43v-24.818h-59.11v13.645z"/><path d="M57.38 195.21h23.29v4.424H57.38z"/><path d="M82.96 187.198v35.428h21.06v-35.428H82.96zm10.998 1.467c.28 0 .508.227.508.508 0 .28-.227.51-.508.51-.282 0-.51-.23-.51-.51 0-.282.228-.508.51-.508zm-3.03 1.7h6.06v.486h-6.06v-.486zm2.83 30.73c-.67 0-1.213-.544-1.213-1.215 0-.67.542-1.215 1.214-1.215.667 0 1.213.544 1.213 1.215 0 .67-.544 1.215-1.214 1.215zm6.883-4.17c-5.468.03-11.59.05-14.3.028v-24.36l14.3-.003v24.334z"/><path d="M72.992 204.13v1.174h-15.61v2.427h23.29v-6.284H57.38v2.685z"/></g></g><path d="M47.714 24c-3.418 0-6.17 2.752-6.17 6.17v67.66c0 3.418 2.752 6.17 6.17 6.17h32.572c3.418 0 6.17-2.752 6.17-6.17V30.17c0-3.418-2.752-6.17-6.17-6.17H47.714zm1.27 8.627h30.032c1.054 0 1.9.844 1.9 1.898 0 1.054-.846 1.9-1.9 1.9H48.984c-1.054 0-1.91-.846-1.91-1.9 0-1.054.856-1.898 1.91-1.898zm0 8.733h30.032c1.054 0 1.9.845 1.9 1.898 0 1.054-.846 1.9-1.9 1.9H48.984c-1.054 0-1.91-.846-1.91-1.9 0-1.053.856-1.898 1.91-1.898zm0 8.638h30.032c1.054 0 1.9.845 1.9 1.9 0 1.052-.846 1.897-1.9 1.897H48.984c-1.054 0-1.91-.845-1.91-1.898 0-1.054.856-1.9 1.91-1.9zm28.953 12.827c1.646 0 2.978 1.332 2.978 2.98 0 1.645-1.332 2.977-2.978 2.977-1.647 0-2.98-1.332-2.98-2.978 0-1.647 1.333-2.98 2.98-2.98zM47.88 77.812c.447 0 .807.36.807.807v19.174c0 .447-.36.807-.807.807-.447 0-.807-.36-.807-.806V78.62c0-.448.36-.808.807-.808zm5.375 0c.447 0 .807.36.807.807v19.174c0 .447-.36.807-.807.807-.447 0-.806-.36-.806-.806V78.62c0-.448.358-.808.805-.808zm5.376 0c.448 0 .808.36.808.807v19.174c0 .447-.36.807-.807.807-.446 0-.806-.36-.806-.806V78.62c0-.448.36-.808.807-.808zm5.364 0c.447 0 .807.36.807.807v19.174c0 .447-.36.807-.806.807-.447 0-.807-.36-.807-.806V78.62c0-.448.36-.808.807-.808zm5.375 0c.446 0 .806.36.806.807v19.174c0 .447-.36.807-.807.807-.448 0-.808-.36-.808-.806V78.62c0-.448.36-.808.807-.808zm5.375 0c.447 0 .806.36.806.807v19.174c0 .447-.358.807-.805.807-.447 0-.807-.36-.807-.806V78.62c0-.448.36-.808.807-.808zm5.363 0c.447 0 .807.36.807.807v19.174c0 .447-.36.807-.807.807-.447 0-.807-.36-.807-.806V78.62c0-.448.36-.808.808-.808z" fill-rule="evenodd"/></g></svg>