<svg xmlns="http://www.w3.org/2000/svg" width="25" height="100" viewBox="0 0 25 99.999996"><g><g><path fill="none" fill-rule="evenodd" stroke-width=".4704" d="M.008 50.022H25.01v25.002H.008z"/><g style="line-height:125%;-inkscape-font-specification:'FontAwesome, Normal';text-align:start" font-size="6.497" font-family="FontAwesome" letter-spacing="0" word-spacing="0" fill="#fff"><path d="M20.15 60.39v6.772q0 .563-.4.963-.402.4-.965.4H6.233q-.563 0-.964-.4-.4-.4-.4-.963v-6.77q.374.417.86.74 3.087 2.1 4.238 2.943.486.358.784.563.307.196.81.41.504.204.94.204h.014q.435 0 .938-.205.504-.213.802-.41.307-.204.793-.562 1.45-1.05 4.247-2.942.486-.333.852-.742zm0-2.506q0 .674-.418 1.288t-1.04 1.05q-3.207 2.224-3.99 2.77-.087.06-.368.264-.273.196-.46.324-.18.12-.444.273-.256.154-.486.23-.23.077-.426.077H12.5q-.195 0-.426-.077-.23-.076-.494-.23-.256-.153-.444-.273l-.46-.324q-.273-.204-.358-.264-.776-.546-2.235-1.552-1.458-1.015-1.748-1.22-.528-.358-.997-.98-.47-.63-.47-1.168 0-.665.35-1.11.358-.442 1.015-.442h12.552q.555 0 .955.4.41.4.41.964z" style="line-height:125%;-inkscape-font-specification:'FontAwesome, Normal';text-align:start"/></g><path fill="none" fill-rule="evenodd" stroke-width=".4704" d="M.008 75.024H25.01v25.002H.008z"/><g style="line-height:125%;-inkscape-font-specification:'FontAwesome, Normal';text-align:start" font-size="8.75" font-family="FontAwesome" letter-spacing="0" word-spacing="0" fill="#fff"><path d="M19.124 88.644v5.513q0 .298-.218.517-.218.218-.517.218h-4.41v-4.41h-2.94v4.41H6.63q-.3 0-.518-.218-.218-.22-.218-.517V88.61q.012-.024.012-.035l6.603-5.443 6.603 5.443q.01.024.01.07zm2.56-.792l-.71.85q-.093.103-.242.126h-.035q-.15 0-.24-.08l-7.948-6.627L4.56 88.75q-.138.092-.276.08-.15-.024-.24-.126l-.713-.85q-.092-.115-.08-.264.01-.16.126-.253l8.256-6.88q.368-.298.873-.298.504 0 .872.3l2.802 2.342v-2.24q0-.162.103-.265.104-.103.265-.103h2.205q.16 0 .264.103.104.103.104.264v4.685l2.515 2.09q.114.092.125.253.012.15-.08.264z" style="line-height:125%;-inkscape-font-specification:'FontAwesome, Normal';text-align:start"/></g><path fill="none" fill-rule="evenodd" stroke-width=".4704" d="M.008.02H25.01v25H.008z"/><g style="line-height:125%;-inkscape-font-specification:'FontAwesome, Normal';text-align:start" font-size="8.75" font-family="FontAwesome" letter-spacing="0" word-spacing="0" fill="#fff"><path d="M14.588 11.658q.86-.86.86-2.078t-.86-2.08q-.862-.86-2.08-.86-1.216 0-2.078.86-.86.862-.86 2.08 0 1.217.86 2.078.862.862 2.08.862 1.216 0 2.078-.862zm3.8-2.078q0 1.252-.378 2.056l-4.18 8.888q-.184.38-.55.598-.357.218-.77.218-.414 0-.782-.218-.356-.22-.528-.598l-4.192-8.888q-.38-.804-.38-2.056 0-2.435 1.724-4.158Q10.074 3.7 12.51 3.7q2.434 0 4.156 1.722Q18.39 7.145 18.39 9.58z" style="line-height:125%;-inkscape-font-specification:'FontAwesome, Normal';text-align:start"/></g><path fill="none" fill-rule="evenodd" stroke-width=".4704" d="M.008 25.02H25.01v25.002H.008z"/><g style="line-height:125%;-inkscape-font-specification:'FontAwesome, Normal';text-align:start" font-size="8.75" font-family="FontAwesome" letter-spacing="0" word-spacing="0" fill="#fff"><path d="M20.594 42.207q0 .31-.115.815-.116.494-.242.78-.24.576-1.4 1.22-1.08.584-2.137.584-.31 0-.608-.034-.287-.046-.654-.15-.368-.103-.552-.16-.172-.07-.63-.242-.46-.172-.564-.206-1.126-.402-2.01-.954-1.47-.907-3.043-2.47-1.563-1.572-2.47-3.042-.552-.884-.954-2.01-.034-.103-.206-.563-.172-.46-.24-.63-.06-.185-.162-.552-.104-.368-.15-.655-.034-.3-.034-.61 0-1.055.586-2.135.643-1.16 1.217-1.4.287-.127.78-.242.506-.114.816-.114.16 0 .242.035.206.07.608.873.127.22.345.62.218.402.402.735.184.322.356.61.034.045.195.286.173.24.254.414.08.16.08.32 0 .23-.333.575-.32.345-.71.632-.38.287-.713.61-.322.32-.322.527 0 .103.058.264.057.15.092.23l.16.275q.127.197.138.22.873 1.573 2 2.7 1.124 1.124 2.697 1.997.023.012.22.138l.274.16q.08.035.23.092.16.058.264.058.207 0 .528-.322.322-.333.61-.712.286-.39.63-.71.345-.334.575-.334.162 0 .322.08.173.08.414.253.24.16.287.194.287.173.61.357.332.184.734.402.402.22.62.345.804.402.873.61.034.08.034.24z" style="line-height:125%;-inkscape-font-specification:'FontAwesome, Normal';text-align:start"/></g></g></g></svg>