<svg xmlns="http://www.w3.org/2000/svg" width="25" height="100" viewBox="0 0 25 99.999996"><g><g><path fill="none" fill-rule="evenodd" stroke-width=".4704" d="M.008 50.022H25.01v25.002H.008z"/><text y="155.023" x="56.004" style="line-height:125%;-inkscape-font-specification:'FontAwesome, Normal';text-align:start" font-size="6.497" font-family="FontAwesome" letter-spacing="0" word-spacing="0" fill="#fff" transform="matrix(2.352 0 0 2.352 -126.854 -297.18)"><tspan style="line-height:125%;-inkscape-font-specification:'FontAwesome, Normal';text-align:start" y="155.023" x="56.004" font-size="6.497" font-family="FontAwesome" fill="#fff"></tspan></text><path fill="none" fill-rule="evenodd" stroke-width=".4704" d="M.008 75.024H25.01v25.002H.008z"/><text style="line-height:125%;-inkscape-font-specification:'FontAwesome, Normal';text-align:start" x="55.19" y="166.697" font-size="8.75" font-family="FontAwesome" letter-spacing="0" word-spacing="0" fill="#fff" transform="matrix(2.352 0 0 2.352 -126.854 -297.18)"><tspan x="55.19" y="166.697" style="line-height:125%;-inkscape-font-specification:'FontAwesome, Normal';text-align:start" font-size="8.75" font-family="FontAwesome" fill="#fff"></tspan></text><path fill="none" fill-rule="evenodd" stroke-width=".4704" d="M.008.02H25.01v25H.008z"/><text y="134.8" x="56.753" style="line-height:125%;-inkscape-font-specification:'FontAwesome, Normal';text-align:start" font-size="8.75" font-family="FontAwesome" letter-spacing="0" word-spacing="0" fill="#fff" transform="matrix(2.352 0 0 2.352 -126.854 -297.18)"><tspan style="line-height:125%;-inkscape-font-specification:'FontAwesome, Normal';text-align:start" y="134.8" x="56.753" font-size="8.75" font-family="FontAwesome" fill="#fff"></tspan></text><path fill="none" fill-rule="evenodd" stroke-width=".4704" d="M.008 25.02H25.01v25.002H.008z"/><text style="line-height:125%;-inkscape-font-specification:'FontAwesome, Normal';text-align:start" x="55.816" y="145.743" font-size="8.75" font-family="FontAwesome" letter-spacing="0" word-spacing="0" fill="#fff" transform="matrix(2.352 0 0 2.352 -126.854 -297.18)"><tspan x="55.816" y="145.743" style="line-height:125%;-inkscape-font-specification:'FontAwesome, Normal';text-align:start" font-size="8.75" font-family="FontAwesome" fill="#fff"></tspan></text></g></g></svg>