<svg xmlns="http://www.w3.org/2000/svg" width="96" height="192"><g transform="translate(0 -860.362)" fill="#fff"><path d="M48 877.362c-17.121 0-31 13.879-31 31 0 17.121 13.879 31 31 31 17.121 0 31-13.879 31-31 0-17.121-13.879-31-31-31zm18.41 49.41c-2.393 2.393-5.177 4.27-8.277 5.582-.787.333-1.587.625-2.398.877v-4.646c0-2.442-.838-4.238-2.513-5.389 1.05-.101 2.013-.242 2.891-.424.878-.182 1.806-.444 2.785-.787.979-.343 1.857-.752 2.634-1.226.777-.474 1.524-1.09 2.24-1.847.717-.757 1.317-1.615 1.801-2.573.484-.959.868-2.109 1.15-3.451.283-1.342.424-2.821.424-4.435 0-3.128-1.019-5.792-3.058-7.992.928-2.422.827-5.056-.303-7.901l-.757-.091c-.525-.06-1.468.161-2.831.666-1.362.505-2.891 1.332-4.586 2.482-2.402-.666-4.894-.999-7.478-.999-2.604 0-5.086.333-7.447.999-1.07-.727-2.084-1.327-3.042-1.801-.959-.474-1.726-.797-2.301-.969-.575-.172-1.11-.278-1.604-.318-.494-.041-.812-.051-.954-.031l-.303.06c-1.13 2.866-1.231 5.5-.303 7.901-2.038 2.2-3.058 4.864-3.058 7.992 0 1.615.141 3.093.424 4.435.283 1.342.666 2.492 1.15 3.451.484.959 1.085 1.816 1.801 2.573.717.757 1.463 1.372 2.24 1.847.777.474 1.655.883 2.634 1.226.979.343 1.907.606 2.785.787.878.182 1.842.323 2.891.424-1.655 1.13-2.482 2.926-2.482 5.389v4.737c-.914-.272-1.815-.594-2.7-.968-3.1-1.311-5.884-3.189-8.277-5.582-2.393-2.393-4.271-5.178-5.582-8.277-1.356-3.206-2.044-6.616-2.044-10.132 0-3.517.688-6.926 2.044-10.133 1.311-3.1 3.189-5.884 5.582-8.277 2.393-2.393 5.177-4.271 8.277-5.582 3.207-1.356 6.616-2.044 10.133-2.044 3.517 0 6.926.688 10.133 2.044 3.1 1.311 5.885 3.189 8.277 5.582 2.393 2.393 4.27 5.178 5.582 8.277 1.356 3.207 2.044 6.616 2.044 10.133 0 3.517-.688 6.926-2.044 10.132-1.311 3.1-3.189 5.885-5.582 8.277z"/><g transform="matrix(.542 0 0 .542 -34.326 925.988)"><rect x="112.197" y="168.302" width="31.703" height="15.852"/><rect x="159.75" y="168.302" width="31.683" height="15.852"/><rect x="112.173" y="136.599" width="79.27" height="15.852"/><rect x="112.197" y="104.898" width="47.559" height="15.851"/><rect x="175.602" y="104.898" width="15.851" height="15.851"/></g></g></svg>