<svg xmlns="http://www.w3.org/2000/svg" width="128" height="128"><defs><path d="M213.482 88.244a42 42 0 1 1-9.181 2.053" transform="matrix(.727 0 0 .727 32.862 703.985)" stroke="#fff" fill="none"/></defs><g fill="#fff" transform="matrix(2.553 0 0 2.553 .179 .179)"><path d="M1.241 43.616h18.622v-27.935h-18.622v27.935zm9.704-1.4c-.496 0-.897-.405-.897-.899 0-.495.401-.897.897-.897s.898.402.898.897c.001.494-.402.899-.898.899zm-7.011-23.843h13.238l-.001 20.611h-13.237v-20.611z"/><polygon points="42.923,21.122 42.923,6.384 7.822,6.384 7.822,14.487 10.451,14.487 10.451,9.012 40.293,9.012 40.293,21.122"/><rect x="21.063" y="26.899" width="13.829" height="2.628"/><path d="M36.252 22.142v21.038h12.507v-21.038h-12.507zm6.531.871c.167 0 .302.135.302.302 0 .166-.135.303-.302.303-.167 0-.302-.137-.302-.303 0-.168.135-.302.302-.302zm-1.799 1.009h3.598v.289h-3.598v-.289zm1.681 18.249c-.398 0-.721-.323-.721-.722 0-.397.322-.721.721-.721.397 0 .721.323.721.721 0 .399-.323.722-.721.722zm4.087-2.477c-3.248.018-6.883.03-8.493.017v-14.465l8.493-.002v14.45z"/><polygon points="21.063,30.603 21.063,32.197 30.333,32.197 30.333,32.894 21.063,32.894 21.063,34.335 34.893,34.335 34.893,30.603 25.87,30.603 24.869,30.603"/></g></svg>