<svg xmlns="http://www.w3.org/2000/svg" width="128" height="384"><g transform="translate(0 -668.362)" fill="#fff"><g transform="matrix(.388 0 0 .388 12.882 570.71)"><circle r="1.649" cy="28.477" cx="14.47" transform="matrix(4.092 0 0 4.092 -3.985 954.737)"/><circle r="1.65" cy="28.477" cx="23.681" transform="matrix(4.092 0 0 4.092 -3.985 954.737)"/><circle r="1.65" cy="28.477" cx="32.892" transform="matrix(4.092 0 0 4.092 -3.985 954.737)"/><circle r="1.65" cy="28.477" cx="42.103" transform="matrix(4.092 0 0 4.092 -3.985 954.737)"/><path d="M30.277 1071.762v-.966c0-15.85 12.891-28.745 28.741-28.745h135.629c1.355 0 2.803.123 4.428.376l.184.03.16-.098c4.923-2.938 10.566-4.493 16.312-4.493 2.087 0 4.158.2 6.155.594l1.96.381-1.531-1.277c-7.759-6.474-17.589-10.039-27.668-10.039h-135.629c-23.858 0-43.269 19.41-43.269 43.269v.966c0 23.858 19.41 43.269 43.269 43.269h118.781v-14.52h-118.781c-15.85 0-28.741-12.895-28.741-28.745z"/><path d="M243.857 1084.833h-3.556v-17.998c0-12.736-11.013-23.102-24.566-23.102-13.558 0-24.579 10.362-24.579 23.102v17.998h-3.556c-1.968 0-3.564 2.157-3.564 4.833v28.192c0 2.672 2.177 4.845 4.833 4.845h53.725c2.672 0 4.833-2.173 4.833-4.845v-28.192c-.004-2.676-1.592-4.833-3.569-4.833zm-28.123 23.727c-3.339 0-6.048-2.717-6.048-6.057 0-3.339 2.709-6.044 6.048-6.044s6.049 2.701 6.049 6.044c0 3.339-2.705 6.057-6.049 6.057zm16.525-23.727h-33.042v-17.998c0-8.287 7.407-15.04 16.517-15.04 9.101 0 16.525 6.748 16.525 15.04v17.998z"/></g><g fill="#fff" transform="matrix(1.684 0 0 1.684 21.911 818.273)"><path d="M1.241 43.616h18.622v-27.935h-18.622v27.935zm9.704-1.4c-.496 0-.897-.405-.897-.899 0-.495.401-.897.897-.897s.898.402.898.897c.001.494-.402.899-.898.899zm-7.011-23.843h13.238l-.001 20.611h-13.237v-20.611z"/><polygon points="10.451,14.487 10.451,9.012 40.293,9.012 40.293,21.122 42.923,21.122 42.923,6.384 7.822,6.384 7.822,14.487"/><rect x="21.063" y="26.899" width="13.829" height="2.628"/><path d="M36.252 22.142v21.038h12.507v-21.038h-12.507zm6.531.871c.167 0 .302.135.302.302 0 .166-.135.303-.302.303-.167 0-.302-.137-.302-.303 0-.168.135-.302.302-.302zm-1.799 1.009h3.598v.289h-3.598v-.289zm1.681 18.249c-.398 0-.721-.323-.721-.722 0-.397.322-.721.721-.721.397 0 .721.323.721.721 0 .399-.323.722-.721.722zm4.087-2.477c-3.248.018-6.883.03-8.493.017v-14.465l8.493-.002v14.45z"/><polygon points="30.333,32.197 30.333,32.894 21.063,32.894 21.063,34.335 34.893,34.335 34.893,30.603 25.87,30.603 24.869,30.603 21.063,30.603 21.063,32.197"/></g><path d="M47.714 692.362c-3.418 0-6.17 2.752-6.17 6.17v67.659c0 3.418 2.752 6.17 6.17 6.17h32.572c3.418 0 6.17-2.752 6.17-6.17v-67.659c0-3.418-2.752-6.17-6.17-6.17h-32.572zm1.27 8.627h30.033c1.054 0 1.899.845 1.899 1.899s-.845 1.899-1.899 1.899h-30.033c-1.054 0-1.91-.845-1.91-1.899s.857-1.899 1.91-1.899zm0 8.733h30.033c1.054 0 1.899.845 1.899 1.899s-.845 1.899-1.899 1.899h-30.033c-1.054 0-1.91-.845-1.91-1.899s.857-1.899 1.91-1.899zm0 8.638h30.033c1.054 0 1.899.845 1.899 1.899s-.845 1.899-1.899 1.899h-30.033c-1.054 0-1.91-.845-1.91-1.899s.857-1.899 1.91-1.899zm28.953 12.827c1.647 0 2.978 1.332 2.978 2.978 0 1.647-1.332 2.978-2.978 2.978-1.647 0-2.978-1.332-2.978-2.978 0-1.647 1.332-2.978 2.978-2.978zm-30.056 14.987c.447 0 .807.36.807.807v19.175c0 .447-.36.807-.807.807-.447 0-.807-.36-.807-.807v-19.175c0-.447.36-.807.807-.807zm5.375 0c.447 0 .807.36.807.807v19.175c0 .447-.36.807-.807.807-.447 0-.807-.36-.807-.807v-19.175c0-.447.36-.807.807-.807zm5.375 0c.447 0 .807.36.807.807v19.175c0 .447-.36.807-.807.807-.447 0-.807-.36-.807-.807v-19.175c0-.447.36-.807.807-.807zm5.363 0c.447 0 .807.36.807.807v19.175c0 .447-.36.807-.807.807-.447 0-.807-.36-.807-.807v-19.175c0-.447.36-.807.807-.807zm5.375 0c.447 0 .807.36.807.807v19.175c0 .447-.36.807-.807.807-.447 0-.807-.36-.807-.807v-19.175c0-.447.36-.807.807-.807zm5.375 0c.447 0 .807.36.807.807v19.175c0 .447-.36.807-.807.807-.447 0-.807-.36-.807-.807v-19.175c0-.447.36-.807.807-.807zm5.363 0c.447 0 .807.36.807.807v19.175c0 .447-.36.807-.807.807-.447 0-.807-.36-.807-.807v-19.175c0-.447.36-.807.807-.807z" fill-rule="evenodd"/></g></svg>