<svg xmlns="http://www.w3.org/2000/svg" width="96" height="192"><g fill="#fff"><path d="M48 17c-17.12 0-31 13.88-31 31 0 17.12 13.88 31 31 31 17.12 0 31-13.88 31-31 0-17.12-13.88-31-31-31zm18.41 49.41c-2.393 2.392-5.178 4.27-8.278 5.58-.787.334-1.587.627-2.397.88v-4.647c0-2.442-.838-4.24-2.513-5.39 1.05-.1 2.013-.24 2.89-.423.88-.18 1.808-.444 2.786-.787.98-.343 1.857-.752 2.634-1.226.777-.474 1.524-1.09 2.24-1.847.717-.757 1.317-1.614 1.802-2.573.484-.96.867-2.11 1.15-3.45.283-1.343.424-2.822.424-4.436 0-3.127-1.02-5.79-3.058-7.99.93-2.423.828-5.057-.303-7.903l-.756-.09c-.524-.06-1.468.16-2.83.665s-2.89 1.333-4.586 2.483c-2.402-.666-4.895-1-7.478-1-2.603 0-5.086.334-7.447 1-1.07-.727-2.085-1.327-3.044-1.8-.958-.476-1.725-.8-2.3-.97-.576-.172-1.11-.278-1.605-.318-.493-.04-.81-.05-.953-.03-.14.02-.242.04-.302.06-1.13 2.866-1.23 5.5-.303 7.9-2.038 2.2-3.058 4.865-3.058 7.993 0 1.615.142 3.093.424 4.436.283 1.342.666 2.492 1.15 3.45.485.96 1.085 1.817 1.802 2.574.716.757 1.463 1.372 2.24 1.847.777.474 1.655.883 2.634 1.226.98.343 1.907.605 2.785.787.877.18 1.84.323 2.89.424-1.655 1.13-2.482 2.926-2.482 5.388v4.737c-.914-.273-1.815-.595-2.7-.97-3.1-1.31-5.885-3.188-8.278-5.58-2.392-2.393-4.27-5.178-5.58-8.278-1.357-3.206-2.045-6.616-2.045-10.132 0-3.517.688-6.926 2.044-10.133 1.31-3.1 3.188-5.884 5.58-8.277 2.393-2.393 5.178-4.27 8.277-5.582 3.207-1.356 6.616-2.044 10.133-2.044 3.517 0 6.926.688 10.133 2.044 3.1 1.312 5.884 3.19 8.277 5.582 2.392 2.393 4.27 5.178 5.58 8.277 1.357 3.207 2.045 6.616 2.045 10.133 0 3.516-.688 6.926-2.044 10.132-1.31 3.1-3.188 5.885-5.58 8.277z"/><g><path d="M26.485 156.846h17.183v8.59H26.485z"/><path d="M52.26 156.846h17.17v8.59H52.26z"/><path d="M26.472 139.663h42.964v8.59H26.472z"/><path d="M26.485 122.48h25.777v8.592H26.485z"/><path d="M60.85 122.48h8.592v8.592H60.85z"/></g></g></svg>