<svg xmlns="http://www.w3.org/2000/svg" width="53" height="53"><g transform="translate(0 -999.362)"><path d="M19.319 999.362l-.272 13.172-16.368-.336 9.135 9.51-11.814 11.335 13.172.272-.336 16.355 9.51-9.122 11.335 11.814.272-13.172 16.368.336-9.122-9.51 11.801-11.335-13.172-.272.336-16.368-9.51 9.122-11.335-11.801zm7.181 23.187c1.835 0 3.312 1.477 3.312 3.313 0 1.835-1.477 3.313-3.312 3.313-1.835 0-3.312-1.477-3.312-3.313 0-1.835 1.477-3.313 3.312-3.313z" fill="#b3b3b3" fill-opacity=".471"/><path d="M32.952 1002.04l-10.19 10.608-8.546-8.204.31 14.718-11.849.248 10.608 10.19-8.204 8.546 14.718-.31.248 11.849 10.19-10.624 8.546 8.204-.31-14.703 11.849-.248-10.624-10.19 8.22-8.546-14.718.295-.248-11.834zm-6.452 19.852c2.2 0 3.97 1.771 3.97 3.97 0 2.2-1.771 3.97-3.97 3.97-2.2 0-3.97-1.771-3.97-3.97 0-2.2 1.771-3.97 3.97-3.97z" fill="#fff"/></g></svg>