<svg xmlns="http://www.w3.org/2000/svg" width="128" height="128"><defs><path d="M213.482 88.244a42 42 0 1 1-9.181 2.053" transform="matrix(.727 0 0 .727 32.862 703.985)" stroke="#fff" fill="none"/></defs><g transform="matrix(.519 0 0 .519 -4.298 -494.034)" fill="#f9f9f9"><circle r="1.649" cy="28.477" cx="14.47" transform="matrix(4.092 0 0 4.092 -3.985 954.737)"/><circle r="1.65" cy="28.477" cx="23.681" transform="matrix(4.092 0 0 4.092 -3.985 954.737)"/><circle r="1.65" cy="28.477" cx="32.892" transform="matrix(4.092 0 0 4.092 -3.985 954.737)"/><circle r="1.65" cy="28.477" cx="42.103" transform="matrix(4.092 0 0 4.092 -3.985 954.737)"/><path d="M30.277 1071.762v-.966c0-15.85 12.891-28.745 28.741-28.745h135.629c1.355 0 2.803.123 4.428.376l.184.03.16-.098c4.923-2.938 10.566-4.493 16.312-4.493 2.087 0 4.158.2 6.155.594l1.96.381-1.531-1.277c-7.759-6.474-17.589-10.039-27.668-10.039h-135.629c-23.858 0-43.269 19.41-43.269 43.269v.966c0 23.858 19.41 43.269 43.269 43.269h118.781v-14.52h-118.781c-15.85 0-28.741-12.895-28.741-28.745z"/><path d="M243.857 1084.833h-3.556v-17.998c0-12.736-11.013-23.102-24.566-23.102-13.558 0-24.579 10.362-24.579 23.102v17.998h-3.556c-1.968 0-3.564 2.157-3.564 4.833v28.192c0 2.672 2.177 4.845 4.833 4.845h53.725c2.672 0 4.833-2.173 4.833-4.845v-28.192c-.004-2.676-1.592-4.833-3.569-4.833zm-28.123 23.727c-3.339 0-6.048-2.717-6.048-6.057 0-3.339 2.709-6.044 6.048-6.044s6.049 2.701 6.049 6.044c0 3.339-2.705 6.057-6.049 6.057zm16.525-23.727h-33.042v-17.998c0-8.287 7.407-15.04 16.517-15.04 9.101 0 16.525 6.748 16.525 15.04v17.998z"/></g></svg>