<svg xmlns="http://www.w3.org/2000/svg" width="192" height="384"><g><path d="M74.393 208.267l-.818 39.633-49.25-1.012 27.487 28.615-35.545 34.104 39.633.818-1.012 49.21 28.615-27.447 34.104 35.545.818-39.633 49.25 1.012-27.448-28.615 35.506-34.104-39.633-.818 1.012-49.25-28.615 27.448-34.104-35.506zM96 278.033c5.522 0 9.967 4.445 9.967 9.967s-4.445 9.967-9.967 9.967-9.967-4.445-9.967-9.967 4.445-9.967 9.967-9.967z" fill="#b3b3b3"/><path d="M115.412 24.324L84.754 56.242 59.042 31.557l.933 44.284-35.65.748 31.917 30.658-24.685 25.712 44.284-.933.748 35.65 30.658-31.964 25.712 24.687-.933-44.238 35.65-.748-31.964-30.658 24.733-25.712-44.284.886-.748-35.604zM96 84.054c6.618 0 11.946 5.328 11.946 11.946 0 6.618-5.328 11.946-11.946 11.946-6.618 0-11.946-5.328-11.946-11.946 0-6.618 5.328-11.946 11.946-11.946z" fill="#025"/></g></svg>