<svg xmlns="http://www.w3.org/2000/svg" width="192" height="384"><g><path d="M74.393 208.267l-.818 39.633-49.249-1.012 27.486 28.615-35.545 34.105 39.633.818-1.012 49.21 28.615-27.447 34.105 35.545.818-39.633 49.249 1.012-27.447-28.615 35.506-34.105-39.633-.818 1.012-49.249-28.615 27.447-34.105-35.506zm21.607 69.766c5.522 0 9.967 4.445 9.967 9.967s-4.445 9.967-9.967 9.967-9.967-4.445-9.967-9.967 4.445-9.967 9.967-9.967z" fill="#b3b3b3"/><path d="M115.412 24.324l-30.658 31.918-25.712-24.685.933 44.284-35.652.747 31.918 30.658-24.685 25.712 44.284-.933.747 35.652 30.658-31.965 25.712 24.685-.933-44.238 35.652-.747-31.965-30.659 24.732-25.712-44.284.887-.747-35.605zm-19.412 59.73c6.618 0 11.946 5.328 11.946 11.946 0 6.618-5.328 11.946-11.946 11.946-6.618 0-11.946-5.328-11.946-11.946 0-6.618 5.328-11.946 11.946-11.946z" fill="#025"/></g></svg>