<svg xmlns="http://www.w3.org/2000/svg" width="128" height="128"><path d="M46.656 0l-.656 31.813-39.531-.813 22.063 22.969-28.531 27.375 31.813.656-.813 39.5 22.969-22.031 27.375 28.531.656-31.813 39.531.813-22.031-22.969 28.5-27.375-31.813-.656.813-39.531-22.969 22.031-27.375-28.5zm17.344 56c4.432 0 8 3.568 8 8s-3.568 8-8 8-8-3.568-8-8 3.568-8 8-8z" fill="#b3b3b3"/><path d="M79.582 6.467l-24.609 25.62-20.638-19.814.749 35.546-28.617.599 25.62 24.609-19.814 20.639 35.546-.749.599 28.617 24.609-25.658 20.638 19.814-.749-35.509 28.617-.599-25.658-24.609 19.852-20.638-35.546.712-.599-28.579zm-15.582 47.944c5.312 0 9.589 4.277 9.589 9.589s-4.277 9.589-9.589 9.589-9.589-4.277-9.589-9.589 4.277-9.589 9.589-9.589z" fill="#025"/></svg>