<svg xmlns="http://www.w3.org/2000/svg" width="1328.754" height="425.219"><g fill="#fff"><path d="M0 0v283.469h17.719v-70.844c0-29.354 23.771-53.156 53.125-53.156s53.156 23.803 53.156 53.156v70.844h17.719v-70.844c0-39.138-31.737-70.875-70.875-70.875-21.168 0-40.14 9.286-53.125 24v-165.75h-17.719z" fill-rule="evenodd"/><path d="M177.155 283.478h-17.717v-141.732h17.717z" fill-rule="evenodd"/><path d="M265.749 141.75c-39.138 0-70.875 31.737-70.875 70.875v212.594h17.719v-165.75c12.985 14.714 31.989 24 53.156 24 39.138 0 70.875-31.705 70.875-70.844 0-39.138-31.737-70.875-70.875-70.875zm0 17.719c29.354 0 53.156 23.803 53.156 53.156 0 29.354-23.803 53.125-53.156 53.125-29.354 0-53.156-23.771-53.156-53.125s23.803-53.156 53.156-53.156z" fill-rule="evenodd"/><path d="M407.298 141.938c-39.039 0-70.688 31.648-70.688 70.688 0 39.039 31.648 70.688 70.688 70.688 39.039 0 70.697-31.648 70.719-70.719h-17.656c-.088 29.288-23.806 53-53.063 53-13.84 0-26.407-5.309-35.844-14l97.125-74.25c-12.693-21.951-36.027-35.406-61.281-35.406zm0 17.719c13.529 0 26.561 5.17 36.375 14.438l-83.156 63.375c-3.942-7.41-6.188-15.865-6.188-24.844 0-29.256 23.713-52.969 52.969-52.969z"/><path d="M549.186 141.75c-39.138 0-70.844 31.737-70.844 70.875v70.844h17.719v-70.844c0-29.354 23.771-53.156 53.125-53.156s53.156 23.803 53.156 53.156h17.719c0-39.138-31.737-70.875-70.875-70.875z" fill-rule="evenodd"/><path d="M690.937 283.478c-39.138 0-70.875-31.737-70.875-70.875v-212.594h17.719v165.75c12.985-14.714 31.988-24 53.156-24 39.138 0 70.875 31.705 70.875 70.844 0 39.138-31.737 70.875-70.875 70.875zm0-17.719c29.354 0 53.156-23.803 53.156-53.156 0-29.354-23.802-53.125-53.156-53.125s-53.156 23.771-53.156 53.125 23.802 53.156 53.156 53.156z" fill-rule="evenodd"/><path d="M829.627 122.923c-3.47-3.47-3.47-9.057 0-12.527l37.582-37.582c3.47-3.47 9.057-3.47 12.527 0 3.47 3.47 3.47 9.057 0 12.527l-37.582 37.582c-3.47 3.47-9.057 3.47-12.527 0z" fill-rule="evenodd"/><path d="M832.682 141.759c-39.138 0-70.875 31.705-70.875 70.844 0 39.138 31.737 70.875 70.875 70.875 39.138 0 70.875-31.737 70.875-70.875 0-39.138-31.737-70.844-70.875-70.844zm0 17.719c29.354 0 53.156 23.771 53.156 53.125s-23.802 53.156-53.156 53.156-53.156-23.803-53.156-53.156c0-29.354 23.802-53.125 53.156-53.125z" fill-rule="evenodd"/><path d="M974.371 141.75c-39.138 0-70.844 31.737-70.844 70.875v70.844h17.719v-70.844c0-29.354 23.771-53.156 53.125-53.156s53.156 23.803 53.156 53.156h17.719c0-39.138-31.737-70.875-70.875-70.875z" fill-rule="evenodd"/><path d="M1116.125 142.094c-39.039 0-70.688 31.648-70.688 70.688 0 39.039 31.648 70.688 70.688 70.688 39.039 0 70.697-31.648 70.719-70.719h-17.656c-.088 29.288-23.806 53-53.063 53-13.84 0-26.407-5.309-35.844-14l97.125-74.25c-12.693-21.951-36.027-35.406-61.281-35.406zm0 17.719c13.529 0 26.561 5.17 36.375 14.438l-83.156 63.375c-3.942-7.41-6.188-15.865-6.188-24.844 0-29.256 23.713-52.969 52.969-52.969z"/><path d="M1257.879 141.75c-39.138 0-70.875 31.737-70.875 70.875 0 39.138 31.737 70.844 70.875 70.844 21.168 0 40.171-9.286 53.156-24v24h17.719v-70.844c0-39.138-31.737-70.875-70.875-70.875zm0 17.719c29.354 0 53.156 23.803 53.156 53.156 0 29.354-23.803 53.125-53.156 53.125-29.354 0-53.156-23.771-53.156-53.125s23.803-53.156 53.156-53.156z" fill-rule="evenodd"/></g></svg>