<svg xmlns="http://www.w3.org/2000/svg" width="32" height="32"><g color="#000" fill="#ccc" font-family="Sans"><path style="text-indent:0;text-align:start;line-height:normal;text-transform:none;block-progression:tb;-inkscape-font-specification:Sans" d="M.156-.156l-.313.313 32 32 .313-.313-32-32z" overflow="visible" enable-background="accumulate"/><path style="text-indent:0;text-align:start;line-height:normal;text-transform:none;block-progression:tb;-inkscape-font-specification:Sans" d="M31.844-.143l-32 32 .313.281 32-32-.313-.281z" overflow="visible" enable-background="accumulate"/><path style="text-indent:0;text-align:start;line-height:normal;text-transform:none;block-progression:tb;-inkscape-font-specification:Sans" d="M15.938-.081l-16 16 .125.156 16-16-.125-.156z" overflow="visible" enable-background="accumulate"/><path style="text-indent:0;text-align:start;line-height:normal;text-transform:none;block-progression:tb;-inkscape-font-specification:Sans" d="M31.938 15.919l-16 16 .125.156 16-16-.125-.156z" overflow="visible" enable-background="accumulate"/><path style="text-indent:0;text-align:start;line-height:normal;text-transform:none;block-progression:tb;-inkscape-font-specification:Sans" d="M16.063-.081l-.125.156 16 16 .125-.156-16-16z" overflow="visible" enable-background="accumulate"/><path style="text-indent:0;text-align:start;line-height:normal;text-transform:none;block-progression:tb;-inkscape-font-specification:Sans" d="M.063 15.919l-.125.156 16 16 .125-.156-16-16z" overflow="visible" enable-background="accumulate"/><path style="text-indent:0;text-align:start;line-height:normal;text-transform:none;block-progression:tb;-inkscape-font-specification:Sans" d="M23.969-.05l-24 24 .063.094 24-24-.063-.094z" overflow="visible" enable-background="accumulate"/><path style="text-indent:0;text-align:start;line-height:normal;text-transform:none;block-progression:tb;-inkscape-font-specification:Sans" d="M7.969-.05l-8 8 .063.094 8-8-.063-.094z" overflow="visible" enable-background="accumulate"/><path style="text-indent:0;text-align:start;line-height:normal;text-transform:none;block-progression:tb;-inkscape-font-specification:Sans" d="M31.969 7.95l-24 24 .063.094 24-24-.063-.094z" overflow="visible" enable-background="accumulate"/><path style="text-indent:0;text-align:start;line-height:normal;text-transform:none;block-progression:tb;-inkscape-font-specification:Sans" d="M31.969 23.95l-8 8 .063.094 8-8-.063-.094z" overflow="visible" enable-background="accumulate"/><path style="text-indent:0;text-align:start;line-height:normal;text-transform:none;block-progression:tb;-inkscape-font-specification:Sans" d="M8.031-.05l-.063.094 24 24 .063-.094-24-24z" overflow="visible" enable-background="accumulate"/><path style="text-indent:0;text-align:start;line-height:normal;text-transform:none;block-progression:tb;-inkscape-font-specification:Sans" d="M24.031-.05l-.063.094 8 8 .063-.094-8-8z" overflow="visible" enable-background="accumulate"/><path style="text-indent:0;text-align:start;line-height:normal;text-transform:none;block-progression:tb;-inkscape-font-specification:Sans" d="M.031 7.95l-.063.094 24 24 .063-.094-24-24z" overflow="visible" enable-background="accumulate"/><path style="text-indent:0;text-align:start;line-height:normal;text-transform:none;block-progression:tb;-inkscape-font-specification:Sans" d="M.031 23.95l-.063.094 8 8 .063-.094-8-8z" overflow="visible" enable-background="accumulate"/></g></svg>