<?xml version="1.0" encoding="UTF-8" standalone="no"?>
<!-- Created with Inkscape (http://www.inkscape.org/) -->

<svg
   xmlns:dc="http://purl.org/dc/elements/1.1/"
   xmlns:cc="http://creativecommons.org/ns#"
   xmlns:rdf="http://www.w3.org/1999/02/22-rdf-syntax-ns#"
   xmlns:svg="http://www.w3.org/2000/svg"
   xmlns="http://www.w3.org/2000/svg"
   xmlns:sodipodi="http://sodipodi.sourceforge.net/DTD/sodipodi-0.dtd"
   xmlns:inkscape="http://www.inkscape.org/namespaces/inkscape"
   width="32"
   height="32"
   id="svg2"
   version="1.1"
   inkscape:version="0.48.5 r10040"
   sodipodi:docname="borders.svg">
  <defs
     id="defs4" />
  <sodipodi:namedview
     id="base"
     pagecolor="#000000"
     bordercolor="#666666"
     borderopacity="1.0"
     inkscape:pageopacity="1"
     inkscape:pageshadow="2"
     inkscape:zoom="16.000001"
     inkscape:cx="14.490791"
     inkscape:cy="14.670182"
     inkscape:document-units="px"
     inkscape:current-layer="layer1"
     showgrid="true"
     inkscape:showpageshadow="false"
     inkscape:window-width="1455"
     inkscape:window-height="923"
     inkscape:window-x="193"
     inkscape:window-y="76"
     inkscape:window-maximized="0">
    <inkscape:grid
       type="xygrid"
       id="grid3760"
       empspacing="4"
       visible="true"
       enabled="true"
       snapvisiblegridlinesonly="true" />
  </sodipodi:namedview>
  <metadata
     id="metadata7">
    <rdf:RDF>
      <cc:Work
         rdf:about="">
        <dc:format>image/svg+xml</dc:format>
        <dc:type
           rdf:resource="http://purl.org/dc/dcmitype/StillImage" />
        <dc:title />
      </cc:Work>
    </rdf:RDF>
  </metadata>
  <g
     inkscape:label="Capa 1"
     inkscape:groupmode="layer"
     id="layer1"
     transform="translate(0,-1020.3622)">
    <path
       style="fill:#ffffff;fill-opacity:1;fill-rule:evenodd;stroke:none"
       d="m 0,0 0,16 c 4.418278,0 6.024086,-4.048172 8,-8 2,-4 3.581722,-8 8,-8 z m 16,0 c 4.418278,0 6,4 8,8 1.975914,3.951828 3.581722,8 8,8 L 32,0 z"
       transform="translate(0,1020.3622)"
       id="rect3044"
       inkscape:connector-curvature="0"
       sodipodi:nodetypes="ccscccsccc" />
    <path
       sodipodi:nodetypes="ccscccsccc"
       inkscape:connector-curvature="0"
       id="path3047"
       d="m 0,1052.3622 0,-16 c 4.418278,0 6.024086,4.0482 8,8 2,4 3.581722,8 8,8 z m 16,0 c 4.418278,0 6,-4 8,-8 1.975914,-3.9518 3.581722,-8 8,-8 l 0,16 z"
       style="fill:#ffffff;fill-opacity:1;fill-rule:evenodd;stroke:none" />
  </g>
</svg>
