<?xml version="1.0" encoding="UTF-8" standalone="no"?>
<svg
   xmlns:dc="http://purl.org/dc/elements/1.1/"
   xmlns:cc="http://creativecommons.org/ns#"
   xmlns:rdf="http://www.w3.org/1999/02/22-rdf-syntax-ns#"
   xmlns:svg="http://www.w3.org/2000/svg"
   xmlns="http://www.w3.org/2000/svg"
   xmlns:sodipodi="http://sodipodi.sourceforge.net/DTD/sodipodi-0.dtd"
   xmlns:inkscape="http://www.inkscape.org/namespaces/inkscape"
   width="192"
   height="192"
   id="svg2"
   version="1.1"
   inkscape:version="0.91 r13725"
   sodipodi:docname="hiperborea2.svg">
  <metadata
     id="metadata64">
    <rdf:RDF>
      <cc:Work
         rdf:about="">
        <dc:format>image/svg+xml</dc:format>
        <dc:type
           rdf:resource="http://purl.org/dc/dcmitype/StillImage" />
        <dc:title></dc:title>
      </cc:Work>
    </rdf:RDF>
  </metadata>
  <defs
     id="defs62" />
  <sodipodi:namedview
     pagecolor="#ffffff"
     bordercolor="#666666"
     borderopacity="1"
     objecttolerance="10"
     gridtolerance="10"
     guidetolerance="10"
     inkscape:pageopacity="0"
     inkscape:pageshadow="2"
     inkscape:window-width="1360"
     inkscape:window-height="744"
     id="namedview60"
     showgrid="false"
     inkscape:showpageshadow="false"
     inkscape:zoom="1.7383042"
     inkscape:cx="75.948037"
     inkscape:cy="53.252212"
     inkscape:window-x="0"
     inkscape:window-y="0"
     inkscape:window-maximized="1"
     inkscape:current-layer="g6" />
  <g
     id="g4">
    <g
       id="g6">
      <g
         id="g8">
        <path
           d="M86.013 30.08l-.377 18.25-22.678-.466L75.615 61.04 59.248 76.744l18.25.377-.467 22.66 13.177-12.638 15.704 16.367.378-18.25 22.678.466-12.64-13.176 16.35-15.704-18.25-.377.467-22.68-13.176 12.64-15.704-16.35zm9.95 32.126c2.54 0 4.588 2.047 4.588 4.59 0 2.54-2.046 4.588-4.588 4.588-2.542 0-4.59-2.047-4.59-4.59 0-2.54 2.048-4.588 4.59-4.588z"
           id="path10"
           style="fill:#b3b3b3;fill-opacity:0.47058824"
           fill="#b3b3b3" />
        <path
           d="M104.9 33.79L90.785 48.488 78.944 37.12l.43 20.392-16.417.344 14.698 14.117-11.367 11.84 20.39-.43.345 16.417 14.117-14.72 11.84 11.368-.43-20.37 16.417-.344-14.72-14.117 11.39-11.84-20.392.408-.344-16.395zm-8.938 27.504c3.047 0 5.5 2.454 5.5 5.5 0 3.048-2.453 5.502-5.5 5.502s-5.5-2.454-5.5-5.5c0-3.048 2.453-5.502 5.5-5.502z"
           id="path12"
           fill="#025"
           style="fill:#ffffff;fill-opacity:1" />
      </g>
      <g
         id="g14"
         fill="#025">
        <path
           d="M 9.9238281 107.51953 L 9.9238281 143.74219 L 12.1875 143.74219 L 12.1875 134.6875 C 12.1875 130.9395 15.230516 127.89453 18.978516 127.89453 C 22.726516 127.89453 25.769531 130.9395 25.769531 134.6875 L 25.769531 143.74219 L 28.033203 143.74219 L 28.033203 134.6875 C 28.033203 129.6895 23.977516 125.63086 18.978516 125.63086 C 16.274516 125.63086 13.844547 126.83094 12.185547 128.71094 L 12.185547 107.52148 L 9.9238281 107.51953 z M 89.162109 107.51953 L 89.162109 134.6875 C 89.162109 139.68284 93.226606 143.74112 98.220703 143.74219 C 103.2138 143.74112 107.27344 139.68184 107.27344 134.6875 C 107.27344 129.6935 103.21175 125.63086 98.21875 125.63086 C 95.51675 125.63086 93.084734 126.79192 91.427734 128.66992 L 91.427734 107.51953 L 89.162109 107.51953 z M 89.162109 134.6875 C 89.162109 129.6855 85.109422 125.63086 80.107422 125.63086 C 75.105422 125.63086 71.050781 129.6855 71.050781 134.6875 L 71.050781 143.74219 L 73.316406 143.74219 L 73.316406 134.6875 C 73.316406 130.9375 76.355422 127.89453 80.107422 127.89453 C 83.859422 127.89453 86.900391 130.9355 86.900391 134.6875 L 89.162109 134.6875 z M 71.050781 134.6875 L 68.787109 134.6875 C 68.777109 138.4395 65.742141 141.47852 61.994141 141.47852 C 60.222141 141.47852 58.611344 140.79369 57.402344 139.67969 L 69.841797 130.16992 C 68.216797 127.35992 65.229141 125.62891 61.994141 125.62891 L 61.994141 125.63086 C 56.994141 125.63086 52.939453 129.6875 52.939453 134.6875 C 52.939453 139.6875 56.994141 143.74219 61.994141 143.74219 C 66.994141 143.74219 71.048781 139.6935 71.050781 134.6875 z M 52.939453 134.6875 C 52.939453 129.6935 48.876813 125.63086 43.882812 125.63086 C 38.888813 125.63086 34.826172 129.6935 34.826172 134.6875 L 34.826172 161.85547 L 37.091797 161.85547 L 37.091797 140.70508 C 38.749797 142.58308 41.183766 143.74219 43.884766 143.74219 C 48.878766 143.74219 52.939453 139.6835 52.939453 134.6875 z M 121.16016 116.5625 C 120.87028 116.5625 120.57942 116.67253 120.35742 116.89453 L 115.55078 121.70312 C 115.10778 122.14713 115.10778 122.86069 115.55078 123.30469 L 115.55273 123.30469 C 115.99673 123.74869 116.7103 123.74869 117.1543 123.30469 L 121.96094 118.49805 C 122.40594 118.05505 122.40594 117.33853 121.96094 116.89453 C 121.73944 116.67253 121.45003 116.5625 121.16016 116.5625 z M 152.55469 125.62891 L 152.55469 125.63086 C 147.5613 125.63086 143.5107 129.67707 143.5 134.66797 C 143.48935 129.67504 139.43878 125.63086 134.44336 125.63086 C 129.72826 125.63086 125.85843 129.23483 125.42969 133.83789 C 124.99361 129.23115 121.0515 125.63086 116.33203 125.63086 L 116.33008 125.63086 C 111.32508 125.63086 107.27539 129.6805 107.27539 134.6875 C 107.27539 139.6945 111.32408 143.74219 116.33008 143.74219 C 120.93817 143.74219 124.79834 140.31089 125.38672 135.86328 L 125.38672 143.74219 L 127.65039 143.74219 L 127.65039 134.6875 C 127.65039 130.9375 130.69236 127.89453 134.44336 127.89453 C 138.19536 127.89453 141.23633 130.9355 141.23633 134.6875 L 143.49805 134.6875 C 143.49805 139.6875 147.55469 143.74219 152.55469 143.74219 C 157.55469 143.74219 161.60738 139.6935 161.60938 134.6875 L 159.34766 134.6875 C 159.33766 138.4395 156.30269 141.47852 152.55469 141.47852 C 150.78269 141.47852 149.17189 140.79369 147.96289 139.67969 L 160.40234 130.16992 C 158.77734 127.35992 155.78969 125.62891 152.55469 125.62891 z M 30.300781 125.63086 L 30.300781 143.74219 L 32.5625 143.74219 L 32.5625 125.63086 L 30.300781 125.63086 z M 170.66797 125.63086 C 165.66797 125.63086 161.61133 129.6875 161.61133 134.6875 C 161.61133 139.6875 165.66797 143.74219 170.66797 143.74219 C 173.37297 143.74219 175.80194 142.55773 177.46094 140.67773 L 177.46094 143.74219 L 179.72266 143.74219 L 179.72266 134.6875 C 179.72266 129.6875 175.66897 125.63086 170.66797 125.63086 z M 43.882812 127.89453 L 43.884766 127.89453 C 47.629862 127.8956 50.675781 130.94316 50.675781 134.6875 C 50.675781 138.4335 47.628813 141.47852 43.882812 141.47852 C 40.137813 141.47852 37.091797 138.43155 37.091797 134.68555 C 37.091797 130.9412 40.138715 127.8956 43.882812 127.89453 z M 98.220703 127.89453 C 101.9657 127.89453 105.00977 130.94055 105.00977 134.68555 C 105.00977 138.43155 101.9657 141.47852 98.220703 141.47852 L 98.21875 141.47852 C 94.47375 141.47852 91.427734 138.43155 91.427734 134.68555 C 91.427734 130.94055 94.474703 127.89453 98.220703 127.89453 z M 116.33008 127.89453 C 120.08608 127.89453 123.12305 130.9335 123.12305 134.6875 C 123.12305 138.4425 120.08508 141.47852 116.33008 141.47852 C 112.57608 141.47852 109.54102 138.44055 109.54102 134.68555 C 109.54102 130.93155 112.57608 127.89453 116.33008 127.89453 z M 170.66602 127.89453 L 170.66797 127.89453 C 174.41797 127.89453 177.45898 130.96484 177.45898 134.71484 C 177.45898 138.46484 174.41702 141.47852 170.66602 141.47852 C 166.91602 141.47852 163.87305 138.43655 163.87305 134.68555 C 163.87305 130.93555 166.91602 127.89453 170.66602 127.89453 z M 61.994141 127.9043 C 63.727141 127.9043 65.395344 128.56786 66.652344 129.75586 L 56.001953 137.87109 C 55.495953 136.92109 55.208984 135.8375 55.208984 134.6875 C 55.208984 130.9405 58.247141 127.9043 61.994141 127.9043 z M 152.55469 127.9043 C 154.28769 127.9043 155.95589 128.56786 157.21289 129.75586 L 146.5625 137.87109 C 146.0565 136.92109 145.76953 135.8375 145.76953 134.6875 C 145.76953 130.9405 148.80769 127.9043 152.55469 127.9043 z M 174.16406 150.0625 L 174.16406 152.18359 L 173.10547 152.18359 L 173.10547 153.08008 L 174.16406 153.08008 L 174.16406 158.10547 C 174.16406 158.33947 174.18275 158.55047 174.21875 158.73047 C 174.26375 158.91147 174.34122 159.06536 174.44922 159.19336 C 174.55922 159.30936 174.70844 159.39989 174.89844 159.46289 C 175.08944 159.51789 175.33281 159.54492 175.63281 159.54492 C 175.86681 159.54492 176.0628 159.53653 176.2168 159.51953 C 176.3708 159.50053 176.48364 159.48284 176.55664 159.46484 L 176.55664 158.52734 L 176.35352 158.55469 C 176.27952 158.56369 176.18169 158.56641 176.05469 158.56641 C 175.75569 158.56641 175.55703 158.50395 175.45703 158.37695 C 175.35703 158.25095 175.30664 158.04391 175.30664 157.75391 L 175.30664 153.08008 L 176.57031 153.08008 L 176.57031 152.18359 L 175.30664 152.18359 L 175.30664 150.06445 L 174.16602 150.06445 L 174.16406 150.0625 z M 176.74414 152.18359 L 176.74414 152.18555 L 178.89062 159.61523 L 178.67383 160.25391 C 178.60083 160.45291 178.49733 160.62181 178.36133 160.75781 C 178.23433 160.89381 178.04034 160.96094 177.77734 160.96094 C 177.49634 160.96094 177.27433 160.94692 177.11133 160.91992 L 177.11133 161.81641 C 177.21133 161.82541 177.31383 161.8338 177.42383 161.8418 C 177.54083 161.8508 177.71441 161.85547 177.94141 161.85547 C 178.28441 161.85547 178.56525 161.80336 178.78125 161.69336 C 179.00125 161.59336 179.17555 161.45348 179.31055 161.27148 C 179.45655 161.09948 179.57039 160.90083 179.65039 160.67383 C 179.73239 160.44783 179.81086 160.20712 179.88086 159.95312 L 181.98633 152.18359 L 180.73633 152.18359 L 179.46094 158.02344 L 179.43359 158.02344 L 177.99414 152.18359 L 176.74414 152.18359 z "
           id="path16"
           style="fill:#ffffff;fill-opacity:1" />
        <g
           style="text-align:start;line-height:125%;-inkscape-font-specification:Helvetica Neue LT Com"
           font-size="48"
           letter-spacing="0"
           word-spacing="0"
           id="g38"
           font-family="Helvetica Neue LT Com">
          <path
             d="M129.878 149.765h1.196v9.7h-1.196v-9.7"
             id="path40"
             style="fill:#ffffff;fill-opacity:1" />
          <path
             d="M135.585 159.464h-1.195v-8.64h-2.432v-1.06h6.072v1.06h-2.445v8.64"
             id="path42"
             style="fill:#ffffff;fill-opacity:1" />
          <path
             d="M146.305 152.278c0-.253-.028-.484-.082-.693-.045-.217-.127-.398-.244-.543-.12-.154-.278-.272-.477-.353-.19-.092-.425-.137-.706-.137-.516 0-.915.136-1.196.408-.27.263-.406.653-.406 1.17 0 .452.113.8.34 1.045.226.244.507.44.842.584.344.144.71.275 1.1.393.398.11.765.258 1.1.448.344.19.63.454.856.79.226.334.34.796.34 1.385 0 .56-.095 1.027-.286 1.4-.18.37-.416.664-.706.882-.29.217-.616.37-.978.462-.353.09-.702.134-1.046.134-.57 0-1.046-.072-1.426-.217-.372-.145-.67-.353-.897-.625-.217-.27-.376-.607-.475-1.005-.09-.408-.136-.87-.136-1.386h1.195c0 .273.014.545.04.816.028.263.1.503.218.72.118.218.3.394.544.53.243.127.583.19 1.018.19.235 0 .457-.04.665-.122.208-.08.385-.195.53-.34.154-.153.272-.335.353-.543.09-.207.136-.443.136-.705 0-.344-.068-.625-.204-.842-.127-.218-.3-.4-.516-.544-.208-.155-.453-.277-.734-.368-.27-.1-.552-.2-.842-.298-.28-.1-.56-.21-.842-.326-.272-.127-.516-.286-.734-.476-.208-.2-.38-.448-.516-.747-.126-.3-.19-.67-.19-1.114 0-.225.032-.488.095-.787.063-.308.194-.602.393-.883.208-.28.498-.516.87-.706.37-.2.864-.3 1.48-.3.933 0 1.612.227 2.038.68.435.444.662 1.12.68 2.024h-1.195"
             id="path44"
             style="fill:#ffffff;fill-opacity:1" />
          <path
             d="M149.89 155.96c0 .28.005.584.014.91.018.326.073.63.163.91.09.28.227.516.408.706.19.18.462.272.815.272.272 0 .49-.06.652-.177.163-.126.285-.275.367-.447.09-.18.148-.367.175-.557.027-.2.04-.367.04-.503h1.142c0 .19-.036.435-.11.734-.062.29-.184.575-.365.856-.18.27-.43.507-.747.706-.317.19-.725.284-1.223.284-.897 0-1.544-.308-1.943-.923-.39-.615-.585-1.552-.585-2.81 0-.454.028-.91.082-1.373.063-.47.186-.892.367-1.264.19-.38.452-.688.788-.923.344-.245.796-.367 1.358-.367.552 0 .992.11 1.318.326.326.216.57.497.733.84.164.336.268.712.314 1.13.045.415.067.818.067 1.208v.462h-3.83m2.636-.897v-.394c0-.2-.018-.404-.054-.612-.036-.218-.104-.412-.204-.584-.09-.172-.217-.313-.38-.42-.163-.11-.372-.164-.625-.164-.3 0-.54.08-.72.244-.172.154-.304.335-.394.543-.092.21-.15.422-.178.64-.027.207-.04.366-.04.474v.273h2.594"
             id="path46"
             style="fill:#ffffff;fill-opacity:1" />
          <path
             d="M158.426 154.397c0-.172-.022-.348-.068-.53-.036-.18-.1-.344-.19-.488-.08-.146-.2-.264-.353-.355-.145-.09-.326-.135-.543-.135-.18 0-.358.03-.53.095-.163.063-.312.203-.448.42-.136.21-.245.512-.326.91-.082.4-.123.93-.123 1.59 0 .236.005.516.014.842.017.326.07.64.162.938.09.3.226.552.408.76.19.21.457.313.8.313.246 0 .445-.06.6-.177.153-.116.275-.26.365-.433.09-.182.15-.376.177-.585.036-.217.054-.425.054-.624h1.14c0 .29-.04.593-.12.91-.073.317-.205.61-.395.883-.18.263-.424.485-.732.666-.308.172-.69.258-1.14.258-.898 0-1.545-.308-1.944-.923-.39-.615-.584-1.552-.584-2.81 0-.454.027-.91.082-1.373.063-.47.185-.892.366-1.264.19-.38.453-.688.788-.923.344-.245.797-.367 1.36-.367.497 0 .895.086 1.194.258.308.173.543.386.706.64.172.244.286.507.34.787.054.272.08.512.08.72h-1.14"
             id="path48"
             style="fill:#ffffff;fill-opacity:1" />
          <path
             d="M165.54 159.464h-1.085v-.856h-.027c-.154.335-.4.594-.734.775-.335.18-.68.27-1.032.27-.48 0-.852-.076-1.114-.23-.254-.163-.444-.362-.57-.597-.12-.236-.186-.485-.205-.747-.018-.273-.027-.518-.027-.735v-5.162h1.14v5.026c0 .135.006.29.015.46.02.173.064.336.137.49.072.145.176.267.312.367.144.1.348.15.61.15.154 0 .313-.028.476-.082.172-.054.33-.14.475-.258.146-.118.264-.267.355-.45.09-.19.135-.415.135-.678v-5.027h1.14v7.28"
             id="path50"
             style="fill:#ffffff;fill-opacity:1" />
          <path
             d="M167.034 152.183h1.14v1.087h.028c.082-.172.168-.335.26-.49.098-.153.21-.29.338-.407.127-.117.267-.208.42-.27.164-.074.35-.11.558-.11.227 0 .394.027.503.082v1.113c-.054-.01-.126-.018-.217-.027-.08-.017-.212-.026-.394-.026-.145 0-.304.036-.476.11-.172.062-.335.166-.49.31-.144.137-.27.314-.38.53-.1.218-.15.476-.15.775v4.604h-1.14v-7.28"
             id="path52"
             style="fill:#ffffff;fill-opacity:1" />
          <path
             d="M171.135 149.765h1.14v1.304h-1.14v-1.305m0 2.418h1.14v7.28h-1.14v-7.28"
             id="path54"
             style="fill:#ffffff;fill-opacity:1" />
        </g>
      </g>
    </g>
  </g>
</svg>
