<?xml version="1.0" encoding="UTF-8" standalone="no"?>
<!-- Created with Inkscape (http://www.inkscape.org/) -->

<svg
   xmlns:dc="http://purl.org/dc/elements/1.1/"
   xmlns:cc="http://creativecommons.org/ns#"
   xmlns:rdf="http://www.w3.org/1999/02/22-rdf-syntax-ns#"
   xmlns:svg="http://www.w3.org/2000/svg"
   xmlns="http://www.w3.org/2000/svg"
   xmlns:sodipodi="http://sodipodi.sourceforge.net/DTD/sodipodi-0.dtd"
   xmlns:inkscape="http://www.inkscape.org/namespaces/inkscape"
   width="96"
   height="192"
   id="svg2"
   version="1.1"
   inkscape:version="0.91 r13725"
   sodipodi:docname="icons2.svg">
  <defs
     id="defs4" />
  <sodipodi:namedview
     id="base"
     pagecolor="#000000"
     bordercolor="#666666"
     borderopacity="1.0"
     inkscape:pageopacity="1"
     inkscape:pageshadow="2"
     inkscape:zoom="2"
     inkscape:cx="-16.748151"
     inkscape:cy="98.48402"
     inkscape:document-units="px"
     inkscape:current-layer="layer1"
     showgrid="false"
     inkscape:showpageshadow="false"
     inkscape:window-width="1914"
     inkscape:window-height="1055"
     inkscape:window-x="0"
     inkscape:window-y="0"
     inkscape:window-maximized="1"
     showguides="false" />
  <metadata
     id="metadata7">
    <rdf:RDF>
      <cc:Work
         rdf:about="">
        <dc:format>image/svg+xml</dc:format>
        <dc:type
           rdf:resource="http://purl.org/dc/dcmitype/StillImage" />
        <dc:title></dc:title>
      </cc:Work>
    </rdf:RDF>
  </metadata>
  <g
     inkscape:label="Capa 1"
     inkscape:groupmode="layer"
     id="layer1"
     transform="translate(0,-860.36218)">
    <path
       inkscape:connector-curvature="0"
       d="m 48.000001,877.3622 c -17.120842,0 -31,13.87912 -31,30.99998 0,17.12086 13.879158,30.99999 31,30.99999 17.120835,0 30.999998,-13.87913 30.999998,-30.99999 0,-17.12086 -13.879163,-30.99998 -30.999998,-30.99998 z m 18.409636,49.40959 c -2.392812,2.39255 -5.177488,4.27047 -8.27724,5.58164 -0.78747,0.33299 -1.587053,0.62529 -2.397664,0.8774 l 0,-4.64601 c 0,-2.44214 -0.837597,-4.23826 -2.512689,-5.3886 1.04952,-0.10092 2.013186,-0.24225 2.891114,-0.42389 0.877928,-0.18165 1.806354,-0.4441 2.785148,-0.78712 0.97881,-0.34309 1.856738,-0.75175 2.633799,-1.22608 0.777054,-0.47431 1.52372,-1.0898 2.24023,-1.84663 0.716511,-0.75688 1.316895,-1.61462 1.80127,-2.57328 0.484384,-0.95874 0.867885,-2.10907 1.150395,-3.45115 0.282511,-1.34215 0.423825,-2.82051 0.423825,-4.43507 0,-3.12825 -1.019249,-5.79228 -3.057616,-7.99218 0.928427,-2.42187 0.827429,-5.05567 -0.302731,-7.90136 l -0.756841,-0.0908 c -0.524699,-0.0605 -1.46826,0.16144 -2.830563,0.66598 -1.362303,0.50463 -2.891122,1.33206 -4.586427,2.48247 -2.401647,-0.66606 -4.894241,-0.99906 -7.477541,-0.99906 -2.603511,0 -5.085929,0.333 -7.447261,0.99906 -1.069632,-0.72659 -2.083782,-1.32701 -3.042488,-1.80132 -0.95869,-0.47433 -1.725575,-0.79714 -2.300773,-0.96869 -0.575197,-0.17162 -1.110071,-0.2776 -1.604498,-0.31792 -0.494426,-0.0405 -0.812293,-0.0505 -0.953607,-0.0306 -0.14132,0.0207 -0.242187,0.0405 -0.302737,0.0605 -1.130167,2.86588 -1.231158,5.49969 -0.302731,7.90136 -2.038374,2.19989 -3.057615,4.86401 -3.057615,7.99218 0,1.61456 0.141306,3.09298 0.423824,4.43507 0.282511,1.34208 0.666012,2.49241 1.150386,3.45115 0.484384,0.95874 1.084761,1.8164 1.801271,2.57328 0.716511,0.75683 1.463177,1.37231 2.24023,1.84663 0.777062,0.47439 1.654997,0.88306 2.633791,1.22608 0.978803,0.3431 1.907237,0.60555 2.785157,0.78711 0.877927,0.18165 1.841593,0.32298 2.891122,0.42383 -1.654997,1.1302 -2.482433,2.92648 -2.482433,5.38874 l 0,4.73654 c -0.914137,-0.27209 -1.81519,-0.59362 -2.700388,-0.96808 -3.099635,-1.31101 -5.884427,-3.18901 -8.277123,-5.58157 -2.392564,-2.39271 -4.270606,-5.17757 -5.581565,-8.2772 -1.356134,-3.20646 -2.043822,-6.61553 -2.043822,-10.1324 0,-3.51696 0.687688,-6.92594 2.043938,-10.13255 1.311083,-3.09956 3.189009,-5.88442 5.581573,-8.27713 2.392572,-2.39263 5.177488,-4.27055 8.277123,-5.58157 3.206563,-1.35616 6.615594,-2.04388 10.132521,-2.04388 3.516919,0 6.92595,0.68772 10.13252,2.04388 3.099876,1.31117 5.884543,3.18901 8.27724,5.58157 2.392573,2.39263 4.270491,5.17757 5.581573,8.27713 1.356126,3.20661 2.043814,6.61559 2.043814,10.13255 0,3.51687 -0.687688,6.92594 -2.043938,10.13247 -1.311083,3.09956 -3.189008,5.88457 -5.581572,8.27713 z"
       id="path3"
       style="fill:#ffffff" />
    <g
       transform="matrix(0.54228582,0,0,0.54228582,-34.326037,925.98778)"
       id="g11"
       style="opacity:1;fill:#ffffff">
      <rect
         x="112.197"
         y="168.302"
         width="31.702999"
         height="15.852"
         id="rect13"
         style="fill:#ffffff" />
      <rect
         x="159.75"
         y="168.302"
         width="31.683001"
         height="15.852"
         id="rect15"
         style="fill:#ffffff" />
      <rect
         x="112.173"
         y="136.599"
         width="79.269997"
         height="15.852"
         id="rect17"
         style="fill:#ffffff" />
      <rect
         x="112.197"
         y="104.898"
         width="47.558998"
         height="15.851"
         id="rect19"
         style="fill:#ffffff" />
      <rect
         x="175.60201"
         y="104.898"
         width="15.851"
         height="15.851"
         id="rect21"
         style="fill:#ffffff" />
    </g>
  </g>
</svg>
