<?xml version="1.0" encoding="UTF-8" standalone="no"?>
<!-- Created with Inkscape (http://www.inkscape.org/) -->

<svg
   xmlns:dc="http://purl.org/dc/elements/1.1/"
   xmlns:cc="http://creativecommons.org/ns#"
   xmlns:rdf="http://www.w3.org/1999/02/22-rdf-syntax-ns#"
   xmlns:svg="http://www.w3.org/2000/svg"
   xmlns="http://www.w3.org/2000/svg"
   xmlns:sodipodi="http://sodipodi.sourceforge.net/DTD/sodipodi-0.dtd"
   xmlns:inkscape="http://www.inkscape.org/namespaces/inkscape"
   width="128"
   height="384"
   id="svg2"
   version="1.1"
   inkscape:version="0.48.5 r10040"
   sodipodi:docname="icons.svg">
  <defs
     id="defs4" />
  <sodipodi:namedview
     id="base"
     pagecolor="#000000"
     bordercolor="#666666"
     borderopacity="1.0"
     inkscape:pageopacity="1"
     inkscape:pageshadow="2"
     inkscape:zoom="1.979899"
     inkscape:cx="-17.879361"
     inkscape:cy="143.31891"
     inkscape:document-units="px"
     inkscape:current-layer="layer1"
     showgrid="false"
     inkscape:showpageshadow="false"
     inkscape:window-width="1914"
     inkscape:window-height="1055"
     inkscape:window-x="0"
     inkscape:window-y="0"
     inkscape:window-maximized="1" />
  <metadata
     id="metadata7">
    <rdf:RDF>
      <cc:Work
         rdf:about="">
        <dc:format>image/svg+xml</dc:format>
        <dc:type
           rdf:resource="http://purl.org/dc/dcmitype/StillImage" />
        <dc:title />
      </cc:Work>
    </rdf:RDF>
  </metadata>
  <g
     inkscape:label="Capa 1"
     inkscape:groupmode="layer"
     id="layer1"
     transform="translate(0,-668.36218)">
    <g
       style="display:inline"
       id="g3003"
       transform="matrix(0.38847214,0,0,0.38847214,12.882013,570.71002)">
      <circle
         style="fill:#ffffff"
         id="circle3"
         r="1.649"
         cy="28.476999"
         cx="14.47"
         sodipodi:cx="14.47"
         sodipodi:cy="28.476999"
         sodipodi:rx="1.649"
         sodipodi:ry="1.649"
         transform="matrix(4.0923629,0,0,4.0923629,-3.9845345,954.73717)"
         d="m 16.119,28.476999 c 0,0.910718 -0.738282,1.649 -1.649,1.649 -0.910717,0 -1.649,-0.738282 -1.649,-1.649 0,-0.910717 0.738283,-1.649 1.649,-1.649 0.910718,0 1.649,0.738283 1.649,1.649 z" />
      <circle
         style="fill:#ffffff"
         id="circle5"
         r="1.65"
         cy="28.476999"
         cx="23.681"
         sodipodi:cx="23.681"
         sodipodi:cy="28.476999"
         sodipodi:rx="1.65"
         sodipodi:ry="1.65"
         transform="matrix(4.0923629,0,0,4.0923629,-3.9845345,954.73717)"
         d="m 25.331,28.476999 c 0,0.91127 -0.73873,1.65 -1.65,1.65 -0.91127,0 -1.65,-0.73873 -1.65,-1.65 0,-0.91127 0.73873,-1.65 1.65,-1.65 0.91127,0 1.65,0.73873 1.65,1.65 z" />
      <circle
         style="fill:#ffffff"
         id="circle7"
         r="1.65"
         cy="28.476999"
         cx="32.891998"
         sodipodi:cx="32.891998"
         sodipodi:cy="28.476999"
         sodipodi:rx="1.65"
         sodipodi:ry="1.65"
         transform="matrix(4.0923629,0,0,4.0923629,-3.9845345,954.73717)"
         d="m 34.541998,28.476999 c 0,0.91127 -0.73873,1.65 -1.65,1.65 -0.91127,0 -1.65,-0.73873 -1.65,-1.65 0,-0.91127 0.73873,-1.65 1.65,-1.65 0.91127,0 1.65,0.73873 1.65,1.65 z" />
      <circle
         style="fill:#ffffff"
         id="circle9"
         r="1.65"
         cy="28.476999"
         cx="42.103001"
         sodipodi:cx="42.103001"
         sodipodi:cy="28.476999"
         sodipodi:rx="1.65"
         sodipodi:ry="1.65"
         transform="matrix(4.0923629,0,0,4.0923629,-3.9845345,954.73717)"
         d="m 43.753001,28.476999 c 0,0.91127 -0.738731,1.65 -1.65,1.65 -0.91127,0 -1.65,-0.73873 -1.65,-1.65 0,-0.91127 0.73873,-1.65 1.65,-1.65 0.911269,0 1.65,0.73873 1.65,1.65 z" />
      <path
         style="fill:#ffffff"
         id="path11"
         d="m 30.27673,1071.7624 v -0.9658 c 0,-15.8497 12.890943,-28.7447 28.740664,-28.7447 H 194.64649 c 1.35456,0 2.80326,0.1232 4.42793,0.3764 l 0.18416,0.03 0.15953,-0.098 c 4.92311,-2.9383 10.56649,-4.4934 16.31215,-4.4934 2.08712,0 4.15785,0.1997 6.15492,0.5935 l 1.96024,0.3807 -1.53055,-1.2768 c -7.7591,-6.4742 -17.58897,-10.0387 -27.66844,-10.0387 H 59.017394 c -23.858476,0 -43.268552,19.4101 -43.268552,43.2687 v 0.9656 c 0,23.8585 19.410076,43.2686 43.268552,43.2686 H 177.79822 v -14.5197 H 59.017394 c -15.849721,0 -28.740664,-12.895 -28.740664,-28.7447 z"
         inkscape:connector-curvature="0" />
      <path
         style="fill:#ffffff"
         id="path13"
         d="m 243.85714,1084.8335 h -3.55625 v -17.9982 c 0,-12.7355 -11.01254,-23.1015 -24.56646,-23.1015 -13.558,0 -24.57872,10.362 -24.57872,23.1015 v 17.9982 c 0,0 -1.59194,0 -3.55628,0 -1.96841,0 -3.56445,2.1567 -3.56445,4.8331 v 28.1921 c 0,2.6724 2.17714,4.8454 4.83309,4.8454 h 53.72453 c 2.67232,0 4.83309,-2.173 4.83309,-4.8454 v -28.1921 c -0.004,-2.6764 -1.59193,-4.8331 -3.56855,-4.8331 z m -28.12271,23.7275 c -3.33936,0 -6.0485,-2.7174 -6.0485,-6.0568 0,-3.3393 2.70914,-6.0444 6.0485,-6.0444 3.33937,0 6.04852,2.701 6.04852,6.0444 0,3.3394 -2.70505,6.0568 -6.04852,6.0568 z m 16.52497,-23.7275 h -33.04175 v -17.9982 c 0,-8.2871 7.40718,-15.0395 16.51678,-15.0395 9.10141,0 16.52497,6.7483 16.52497,15.0395 v 17.9982 z"
         inkscape:connector-curvature="0" />
    </g>
    <g
       transform="matrix(1.6835725,0,0,1.6835725,21.910688,818.27287)"
       id="Layer_64"
       style="fill:#ffffff;display:inline">
      <g
         id="g66"
         style="fill:#ffffff">
        <path
           inkscape:connector-curvature="0"
           d="M 1.241,43.616 H 19.863 V 15.681 H 1.241 v 27.935 z m 9.704,-1.4 c -0.496,0 -0.897,-0.405 -0.897,-0.899 0,-0.495 0.401,-0.897 0.897,-0.897 0.496,0 0.898,0.402 0.898,0.897 10e-4,0.494 -0.402,0.899 -0.898,0.899 z M 3.934,18.373 H 17.172 L 17.171,38.984 H 3.934 V 18.373 z"
           id="path68"
           style="fill:#ffffff" />
        <polygon
           points="10.451,14.487 10.451,9.012 40.293,9.012 40.293,21.122 42.923,21.122 42.923,6.384 7.822,6.384 7.822,14.487 "
           id="polygon70"
           style="fill:#ffffff" />
        <rect
           x="21.063"
           y="26.899"
           width="13.829"
           height="2.628"
           id="rect72"
           style="fill:#ffffff" />
        <path
           inkscape:connector-curvature="0"
           d="M 36.252,22.142 V 43.18 H 48.759 V 22.142 H 36.252 z m 6.531,0.871 c 0.167,0 0.302,0.135 0.302,0.302 0,0.166 -0.135,0.303 -0.302,0.303 -0.167,0 -0.302,-0.137 -0.302,-0.303 0,-0.168 0.135,-0.302 0.302,-0.302 z m -1.799,1.009 h 3.598 v 0.289 h -3.598 v -0.289 z m 1.681,18.249 c -0.398,0 -0.721,-0.323 -0.721,-0.722 0,-0.397 0.322,-0.721 0.721,-0.721 0.397,0 0.721,0.323 0.721,0.721 0,0.399 -0.323,0.722 -0.721,0.722 z m 4.087,-2.477 c -3.248,0.018 -6.883,0.03 -8.493,0.017 V 25.346 l 8.493,-0.002 v 14.45 z"
           id="path74"
           style="fill:#ffffff" />
        <polygon
           points="30.333,32.197 30.333,32.894 21.063,32.894 21.063,34.335 34.893,34.335 34.893,30.603 25.87,30.603 24.869,30.603 21.063,30.603 21.063,32.197 "
           id="polygon76"
           style="fill:#ffffff" />
      </g>
    </g>
    <path
       style="fill:#ffffff;fill-opacity:1;fill-rule:evenodd;stroke:none;display:inline"
       d="m 47.714043,692.36218 c -3.418328,0 -6.170276,2.75195 -6.170276,6.17028 l 0,67.65944 c 0,3.41832 2.751948,6.17028 6.170276,6.17028 l 32.571916,0 c 3.41833,0 6.170274,-2.75196 6.170274,-6.17028 l 0,-67.65944 c 0,-3.41833 -2.751944,-6.17028 -6.170274,-6.17028 l -32.571916,0 z m 1.269648,8.62652 30.032618,0 c 1.053598,0 1.89855,0.84496 1.89855,1.89855 0,1.05359 -0.844952,1.89854 -1.89855,1.89854 l -30.032618,0 c -1.053588,0 -1.910406,-0.84495 -1.910406,-1.89854 0,-1.05359 0.856818,-1.89855 1.910406,-1.89855 z m 0,8.7333 30.032618,0 c 1.053598,0 1.89855,0.84495 1.89855,1.89856 0,1.05358 -0.844952,1.89854 -1.89855,1.89854 l -30.032618,0 c -1.053588,0 -1.910406,-0.84496 -1.910406,-1.89854 0,-1.05361 0.856818,-1.89856 1.910406,-1.89856 z m 0,8.63839 30.032618,0 c 1.053598,0 1.89855,0.84494 1.89855,1.89855 0,1.05362 -0.844952,1.89855 -1.89855,1.89855 l -30.032618,0 c -1.053588,0 -1.910406,-0.84493 -1.910406,-1.89855 0,-1.05361 0.856818,-1.89855 1.910406,-1.89855 z m 28.952824,12.82708 c 1.646814,0 2.978344,1.33152 2.978344,2.97831 0,1.6468 -1.33153,2.97838 -2.978344,2.97838 -1.64682,0 -2.978349,-1.33154 -2.978349,-2.97838 0,-1.64679 1.331529,-2.97831 2.978349,-2.97831 z m -30.056352,14.9866 c 0.447012,0 0.806882,0.35989 0.806882,0.80689 l 0,19.17535 c 0,0.44702 -0.35987,0.80683 -0.806882,0.80683 -0.447015,0 -0.806878,-0.35981 -0.806878,-0.80683 l 0,-19.17535 c 0,-0.447 0.359863,-0.80689 0.806878,-0.80689 z m 5.375256,0 c 0.447013,0 0.806884,0.35989 0.806884,0.80689 l 0,19.17535 c 0,0.44702 -0.359871,0.80683 -0.806884,0.80683 -0.447014,0 -0.806883,-0.35981 -0.806883,-0.80683 l 0,-19.17535 c 0,-0.447 0.359869,-0.80689 0.806883,-0.80689 z m 5.375256,0 c 0.447014,0 0.806885,0.35989 0.806885,0.80689 l 0,19.17535 c 0,0.44702 -0.359871,0.80683 -0.806885,0.80683 -0.447012,0 -0.806881,-0.35981 -0.806881,-0.80683 l 0,-19.17535 c 0,-0.447 0.359869,-0.80689 0.806881,-0.80689 z m 5.363393,0 c 0.447014,0 0.806883,0.35989 0.806883,0.80689 l 0,19.17535 c 0,0.44702 -0.359869,0.80683 -0.806883,0.80683 -0.447013,0 -0.806882,-0.35981 -0.806882,-0.80683 l 0,-19.17535 c 0,-0.447 0.359869,-0.80689 0.806882,-0.80689 z m 5.375257,0 c 0.447014,0 0.806884,0.35989 0.806884,0.80689 l 0,19.17535 c 0,0.44702 -0.35987,0.80683 -0.806884,0.80683 -0.447012,0 -0.806882,-0.35981 -0.806882,-0.80683 l 0,-19.17535 c 0,-0.447 0.35987,-0.80689 0.806882,-0.80689 z m 5.375256,0 c 0.447014,0 0.806885,0.35989 0.806885,0.80689 l 0,19.17535 c 0,0.44702 -0.359871,0.80683 -0.806885,0.80683 -0.447011,0 -0.806882,-0.35981 -0.806882,-0.80683 l 0,-19.17535 c 0,-0.447 0.359871,-0.80689 0.806882,-0.80689 z m 5.363394,0 c 0.447006,0 0.806884,0.35989 0.806884,0.80689 l 0,19.17535 c 0,0.44702 -0.359878,0.80683 -0.806884,0.80683 -0.447012,0 -0.806883,-0.35981 -0.806883,-0.80683 l 0,-19.17535 c 0,-0.447 0.359871,-0.80689 0.806883,-0.80689 z"
       id="rect3006-3"
       inkscape:connector-curvature="0" />
  </g>
</svg>
