<?xml version="1.0" encoding="UTF-8" standalone="no"?>
<!-- Created with Inkscape (http://www.inkscape.org/) -->

<svg
   xmlns:dc="http://purl.org/dc/elements/1.1/"
   xmlns:cc="http://creativecommons.org/ns#"
   xmlns:rdf="http://www.w3.org/1999/02/22-rdf-syntax-ns#"
   xmlns:svg="http://www.w3.org/2000/svg"
   xmlns="http://www.w3.org/2000/svg"
   xmlns:sodipodi="http://sodipodi.sourceforge.net/DTD/sodipodi-0.dtd"
   xmlns:inkscape="http://www.inkscape.org/namespaces/inkscape"
   width="25"
   height="100"
   viewBox="0 0 25 99.999996"
   id="svg2"
   version="1.1"
   inkscape:version="0.91 r13725"
   sodipodi:docname="icons3.svg">
  <defs
     id="defs4">
    <inkscape:perspective
       sodipodi:type="inkscape:persp3d"
       inkscape:vp_x="-7.0978263 : 191.69784 : 1"
       inkscape:vp_y="0 : 1203.7043 : 0"
       inkscape:vp_z="206.15685 : 194.15161 : 1"
       inkscape:persp3d-origin="80.390207 : 155.20354 : 1"
       id="perspective4345" />
    <inkscape:perspective
       sodipodi:type="inkscape:persp3d"
       inkscape:vp_x="37.91507 : 176.73553 : 1"
       inkscape:vp_y="0 : 633.02048 : 0"
       inkscape:vp_z="150.06435 : 178.02595 : 1"
       inkscape:persp3d-origin="83.924473 : 157.54341 : 1"
       id="perspective4329" />
    <inkscape:perspective
       sodipodi:type="inkscape:persp3d"
       inkscape:vp_x="8.9694269 : 186.35707 : 1"
       inkscape:vp_y="0 : 1000 : 0"
       inkscape:vp_z="186.13476 : 188.39558 : 1"
       inkscape:persp3d-origin="81.651755 : 156.03874 : 1"
       id="perspective3457" />
  </defs>
  <sodipodi:namedview
     id="base"
     pagecolor="#000000"
     bordercolor="#666666"
     borderopacity="1.0"
     inkscape:pageopacity="0"
     inkscape:pageshadow="2"
     inkscape:zoom="2.8183594"
     inkscape:cx="4.7961682"
     inkscape:cy="45.030738"
     inkscape:document-units="px"
     inkscape:current-layer="g3524"
     showgrid="false"
     units="px"
     inkscape:showpageshadow="false"
     showguides="false"
     inkscape:guide-bbox="true"
     inkscape:window-width="1360"
     inkscape:window-height="743"
     inkscape:window-x="0"
     inkscape:window-y="0"
     inkscape:window-maximized="0"
     objecttolerance="10"
     inkscape:snap-path-clip="true"
     inkscape:snap-path-mask="true"
     inkscape:snap-perpendicular="true"
     inkscape:snap-tangential="true"
     guidetolerance="10"
     gridtolerance="10">
    <inkscape:grid
       type="xygrid"
       id="grid3336"
       units="cm"
       spacingx="11.810905"
       spacingy="11.810905"
       empspacing="5" />
    <sodipodi:guide
       position="318.89443,177.16358"
       orientation="1,0"
       id="guide4419" />
    <sodipodi:guide
       position="0,177.16358"
       orientation="0,1"
       id="guide4421" />
    <sodipodi:guide
       position="0,177.16358"
       orientation="1,0"
       id="guide4425" />
    <sodipodi:guide
       position="0,0"
       orientation="0,1"
       id="guide4427" />
    <sodipodi:guide
       position="0,10.629921"
       orientation="0,1"
       id="guide4511"
       inkscape:label=""
       inkscape:color="rgb(0,0,255)" />
  </sodipodi:namedview>
  <metadata
     id="metadata7">
    <rdf:RDF>
      <cc:Work
         rdf:about="">
        <dc:format>image/svg+xml</dc:format>
        <dc:type
           rdf:resource="http://purl.org/dc/dcmitype/StillImage" />
        <dc:title />
      </cc:Work>
    </rdf:RDF>
  </metadata>
  <g
     inkscape:groupmode="layer"
     id="layer4"
     inkscape:label="footer"
     style="display:inline"
     transform="translate(0,-77.165374)">
    <g
       id="g3524"
       transform="matrix(2.351851,0,0,2.351851,-126.85424,-220.01485)">
      <rect
         style="display:inline;opacity:1;fill:none;fill-opacity:1;fill-rule:evenodd;stroke:none;stroke-width:0.2;stroke-linecap:butt;stroke-linejoin:miter;stroke-miterlimit:4;stroke-dasharray:none;stroke-dashoffset:0;stroke-opacity:1"
         id="rect4515-9-5"
         width="10.629922"
         height="10.629922"
         x="53.938046"
         y="147.61998" />
      <g
         style="font-style:normal;font-variant:normal;font-weight:normal;font-stretch:normal;font-size:6.49704409px;line-height:125%;font-family:FontAwesome;-inkscape-font-specification:'FontAwesome, Normal';text-align:start;letter-spacing:0px;word-spacing:0px;writing-mode:lr-tb;text-anchor:start;fill:#ffffff;fill-opacity:1;stroke:none;stroke-width:1px;stroke-linecap:butt;stroke-linejoin:miter;stroke-opacity:1"
         id="text4780">
        <path
           d="m 62.501526,152.02854 0,2.87871 q 0,0.23929 -0.170402,0.40969 -0.170402,0.1704 -0.409691,0.1704 l -5.336858,0 q -0.239288,0 -0.40969,-0.1704 -0.170403,-0.1704 -0.170403,-0.40969 l 0,-2.87871 q 0.159526,0.17765 0.366184,0.31542 1.312461,0.8919 1.801915,1.25083 0.206658,0.15227 0.333553,0.23929 0.130521,0.0834 0.344431,0.17403 0.213909,0.087 0.398814,0.087 l 0.0036,0 0.0036,0 q 0.184905,0 0.398814,-0.087 0.213909,-0.0906 0.340805,-0.17403 0.130521,-0.087 0.337179,-0.23929 0.616349,-0.44595 1.80554,-1.25083 0.206658,-0.14139 0.362558,-0.31542 z m 0,-1.06592 q 0,0.28642 -0.177653,0.54746 -0.177654,0.26104 -0.442321,0.44595 -1.363219,0.94627 -1.696773,1.17831 -0.03626,0.0254 -0.1559,0.11239 -0.116019,0.0834 -0.195781,0.13778 -0.07614,0.0507 -0.188531,0.11601 -0.108767,0.0653 -0.206658,0.0979 -0.09789,0.0326 -0.181279,0.0326 l -0.0036,0 -0.0036,0 q -0.08339,0 -0.181279,-0.0326 -0.09789,-0.0326 -0.210284,-0.0979 -0.108768,-0.0653 -0.18853,-0.11601 -0.07614,-0.0544 -0.195782,-0.13778 -0.116019,-0.087 -0.152274,-0.11239 -0.329928,-0.23204 -0.949903,-0.65985 -0.619975,-0.43145 -0.743245,-0.51846 -0.224786,-0.15228 -0.424193,-0.41695 -0.199407,-0.26829 -0.199407,-0.4967 0,-0.2828 0.148649,-0.47133 0.152275,-0.18853 0.431444,-0.18853 l 5.336858,0 q 0.235663,0 0.406065,0.17041 0.174028,0.1704 0.174028,0.40969 z"
           style="font-style:normal;font-variant:normal;font-weight:normal;font-stretch:normal;font-size:6.49704409px;line-height:125%;font-family:FontAwesome;-inkscape-font-specification:'FontAwesome, Normal';text-align:start;writing-mode:lr-tb;text-anchor:start;fill:#ffffff;fill-opacity:1"
           id="path4162" />
      </g>
      <rect
         style="opacity:1;fill:none;fill-opacity:1;fill-rule:evenodd;stroke:none;stroke-width:0.2;stroke-linecap:butt;stroke-linejoin:miter;stroke-miterlimit:4;stroke-dasharray:none;stroke-dashoffset:0;stroke-opacity:1"
         id="rect4517"
         width="10.629922"
         height="10.629922"
         x="53.938042"
         y="158.24991" />
      <g
         style="font-style:normal;font-variant:normal;font-weight:normal;font-stretch:normal;font-size:8.75px;line-height:125%;font-family:FontAwesome;-inkscape-font-specification:'FontAwesome, Normal';text-align:start;letter-spacing:0px;word-spacing:0px;writing-mode:lr-tb;text-anchor:start;fill:#ffffff;fill-opacity:1;stroke:none;stroke-width:1px;stroke-linecap:butt;stroke-linejoin:miter;stroke-opacity:1"
         id="text4784">
        <path
           d="m 62.065498,164.04094 0,2.34375 q 0,0.12695 -0.09277,0.21973 -0.09277,0.0928 -0.219727,0.0928 l -1.875,0 0,-1.875 -1.25,0 0,1.875 -1.875,0 q -0.126953,0 -0.219726,-0.0928 -0.09277,-0.0928 -0.09277,-0.21973 l 0,-2.34375 q 0,-0.005 0,-0.0147 0.0049,-0.01 0.0049,-0.0146 l 2.807617,-2.31445 2.807618,2.31445 q 0.0049,0.01 0.0049,0.0293 z m 1.088868,-0.33691 -0.302735,0.36132 q -0.03906,0.0439 -0.102539,0.0537 l -0.01465,0 q -0.06348,0 -0.102539,-0.0342 l -3.378907,-2.81738 -3.378906,2.81738 q -0.05859,0.0391 -0.117187,0.0342 -0.06348,-0.01 -0.102539,-0.0537 l -0.302735,-0.36132 q -0.03906,-0.0488 -0.03418,-0.11231 0.0049,-0.0684 0.05371,-0.10742 l 3.510743,-2.92481 q 0.15625,-0.12695 0.371093,-0.12695 0.214844,0 0.371094,0.12695 l 1.191406,0.9961 0,-0.95215 q 0,-0.0684 0.04395,-0.11231 0.04394,-0.0439 0.112304,-0.0439 l 0.9375,0 q 0.06836,0 0.112305,0.0439 0.04395,0.0439 0.04395,0.11231 l 0,1.99219 1.069336,0.88867 q 0.04883,0.0391 0.05371,0.10742 0.0049,0.0635 -0.03418,0.11231 z"
           style="font-style:normal;font-variant:normal;font-weight:normal;font-stretch:normal;font-size:8.75px;line-height:125%;font-family:FontAwesome;-inkscape-font-specification:'FontAwesome, Normal';text-align:start;writing-mode:lr-tb;text-anchor:start;fill:#ffffff;fill-opacity:1"
           id="path4165" />
      </g>
      <rect
         style="display:inline;opacity:1;fill:none;fill-opacity:1;fill-rule:evenodd;stroke:none;stroke-width:0.2;stroke-linecap:butt;stroke-linejoin:miter;stroke-miterlimit:4;stroke-dasharray:none;stroke-dashoffset:0;stroke-opacity:1"
         id="rect4515-9"
         width="10.629922"
         height="10.629922"
         x="53.938049"
         y="126.36013" />
      <g
         style="font-style:normal;font-variant:normal;font-weight:normal;font-stretch:normal;font-size:8.75px;line-height:125%;font-family:FontAwesome;-inkscape-font-specification:'FontAwesome, Normal';text-align:start;letter-spacing:0px;word-spacing:0px;writing-mode:lr-tb;text-anchor:start;fill:#ffffff;fill-opacity:1;stroke:none;stroke-width:1px;stroke-linecap:butt;stroke-linejoin:miter;stroke-opacity:1"
         id="text4796">
        <path
           d="m 60.136799,131.30888 q 0.366211,-0.36621 0.366211,-0.88379 0,-0.51757 -0.366211,-0.88378 -0.366211,-0.36622 -0.883789,-0.36622 -0.517578,0 -0.883789,0.36622 -0.366211,0.36621 -0.366211,0.88378 0,0.51758 0.366211,0.88379 0.366211,0.36621 0.883789,0.36621 0.517578,0 0.883789,-0.36621 z m 1.616211,-0.88379 q 0,0.53223 -0.161133,0.87403 l -1.777344,3.77929 q -0.07813,0.16114 -0.234375,0.25391 -0.151367,0.0928 -0.327148,0.0928 -0.175781,0 -0.332031,-0.0928 -0.151368,-0.0928 -0.22461,-0.25391 l -1.782226,-3.77929 q -0.161133,-0.3418 -0.161133,-0.87403 0,-1.03515 0.732422,-1.76757 0.732422,-0.73243 1.767578,-0.73243 1.035156,0 1.767578,0.73243 0.732422,0.73242 0.732422,1.76757 z"
           style="font-style:normal;font-variant:normal;font-weight:normal;font-stretch:normal;font-size:8.75px;line-height:125%;font-family:FontAwesome;-inkscape-font-specification:'FontAwesome, Normal';text-align:start;writing-mode:lr-tb;text-anchor:start;fill:#ffffff;fill-opacity:1"
           id="path4156" />
      </g>
      <rect
         y="136.99007"
         x="53.938049"
         height="10.629922"
         width="10.629922"
         id="rect4515"
         style="opacity:1;fill:none;fill-opacity:1;fill-rule:evenodd;stroke:none;stroke-width:0.2;stroke-linecap:butt;stroke-linejoin:miter;stroke-miterlimit:4;stroke-dasharray:none;stroke-dashoffset:0;stroke-opacity:1" />
      <g
         style="font-style:normal;font-variant:normal;font-weight:normal;font-stretch:normal;font-size:8.75px;line-height:125%;font-family:FontAwesome;-inkscape-font-specification:'FontAwesome, Normal';text-align:start;letter-spacing:0px;word-spacing:0px;writing-mode:lr-tb;text-anchor:start;fill:#ffffff;fill-opacity:1;stroke:none;stroke-width:1px;stroke-linecap:butt;stroke-linejoin:miter;stroke-opacity:1"
         id="text4800">
        <path
           d="m 62.69051,144.29721 q 0,0.13184 -0.04883,0.34668 -0.04883,0.20996 -0.102539,0.33203 -0.102539,0.24414 -0.595704,0.51758 -0.458984,0.24902 -0.908203,0.24902 -0.131836,0 -0.258789,-0.0147 -0.12207,-0.0195 -0.27832,-0.0635 -0.15625,-0.0439 -0.234375,-0.0684 -0.07324,-0.0293 -0.268555,-0.10254 -0.195312,-0.0732 -0.239258,-0.0879 -0.478515,-0.1709 -0.854492,-0.40527 -0.625,-0.38575 -1.293945,-1.04981 -0.664063,-0.66894 -1.049805,-1.29394 -0.234375,-0.37598 -0.405273,-0.8545 -0.01465,-0.0439 -0.08789,-0.23925 -0.07324,-0.19532 -0.102539,-0.26856 -0.02441,-0.0781 -0.06836,-0.23437 -0.04395,-0.15625 -0.06348,-0.27832 -0.01465,-0.12696 -0.01465,-0.25879 0,-0.44922 0.249023,-0.90821 0.273438,-0.49316 0.517578,-0.5957 0.122071,-0.0537 0.332032,-0.10254 0.214843,-0.0488 0.346679,-0.0488 0.06836,0 0.102539,0.0146 0.08789,0.0293 0.258789,0.3711 0.05371,0.0928 0.146485,0.26367 0.09277,0.1709 0.170898,0.3125 0.07813,0.13672 0.151367,0.25879 0.01465,0.0195 0.08301,0.12207 0.07324,0.10254 0.107422,0.17578 0.03418,0.0684 0.03418,0.13672 0,0.0977 -0.141602,0.24414 -0.136719,0.14648 -0.302734,0.26855 -0.161133,0.12207 -0.302735,0.25879 -0.136718,0.13672 -0.136718,0.22461 0,0.0439 0.02441,0.11231 0.02441,0.0635 0.03906,0.0976 0.01953,0.0342 0.06836,0.11719 0.05371,0.083 0.05859,0.0928 0.371094,0.66895 0.84961,1.14746 0.478515,0.47852 1.147461,0.84961 0.0098,0.005 0.09277,0.0586 0.08301,0.0488 0.117188,0.0684 0.03418,0.0146 0.09766,0.0391 0.06836,0.0244 0.112305,0.0244 0.08789,0 0.224609,-0.13672 0.136719,-0.1416 0.258789,-0.30273 0.12207,-0.16602 0.268555,-0.30274 0.146484,-0.1416 0.24414,-0.1416 0.06836,0 0.136719,0.0342 0.07324,0.0342 0.175781,0.10742 0.102539,0.0684 0.122071,0.083 0.12207,0.0732 0.258789,0.15137 0.141601,0.0781 0.3125,0.1709 0.170898,0.0928 0.263672,0.14648 0.341796,0.1709 0.371093,0.25879 0.01465,0.0342 0.01465,0.10254 z"
           style="font-style:normal;font-variant:normal;font-weight:normal;font-stretch:normal;font-size:8.75px;line-height:125%;font-family:FontAwesome;-inkscape-font-specification:'FontAwesome, Normal';text-align:start;writing-mode:lr-tb;text-anchor:start;fill:#ffffff;fill-opacity:1"
           id="path4159" />
      </g>
    </g>
  </g>
</svg>
