<?xml version="1.0" encoding="UTF-8" standalone="no"?>
<!-- Created with Inkscape (http://www.inkscape.org/) -->

<svg
   xmlns:dc="http://purl.org/dc/elements/1.1/"
   xmlns:cc="http://creativecommons.org/ns#"
   xmlns:rdf="http://www.w3.org/1999/02/22-rdf-syntax-ns#"
   xmlns:svg="http://www.w3.org/2000/svg"
   xmlns="http://www.w3.org/2000/svg"
   xmlns:sodipodi="http://sodipodi.sourceforge.net/DTD/sodipodi-0.dtd"
   xmlns:inkscape="http://www.inkscape.org/namespaces/inkscape"
   width="616"
   height="192"
   id="svg2"
   version="1.1"
   inkscape:version="0.91 r13725"
   sodipodi:docname="text_white.svg">
  <defs
     id="defs4" />
  <sodipodi:namedview
     id="base"
     pagecolor="#000000"
     bordercolor="#666666"
     borderopacity="1.0"
     inkscape:pageopacity="0"
     inkscape:pageshadow="2"
     inkscape:zoom="0.70710678"
     inkscape:cx="437.37947"
     inkscape:cy="272.74676"
     inkscape:document-units="px"
     inkscape:current-layer="layer2"
     showgrid="true"
     inkscape:showpageshadow="false"
     inkscape:window-width="1914"
     inkscape:window-height="1055"
     inkscape:window-x="0"
     inkscape:window-y="0"
     inkscape:window-maximized="1"
     inkscape:snap-global="false">
    <inkscape:grid
       type="xygrid"
       id="grid2985"
       empspacing="4"
       visible="true"
       enabled="true"
       snapvisiblegridlinesonly="true"
       spacingx="16px"
       spacingy="16px" />
  </sodipodi:namedview>
  <metadata
     id="metadata7">
    <rdf:RDF>
      <cc:Work
         rdf:about="">
        <dc:format>image/svg+xml</dc:format>
        <dc:type
           rdf:resource="http://purl.org/dc/dcmitype/StillImage" />
        <dc:title></dc:title>
      </cc:Work>
    </rdf:RDF>
  </metadata>
  <g
     inkscape:groupmode="layer"
     id="layer2"
     inkscape:label="text"
     style="display:inline"
     transform="translate(0,-576)">
    <path
       style="fill:#ffffff;fill-opacity:1;fill-rule:evenodd;stroke:none;display:inline"
       d="m 8,576 0,128 8,0 0,-32 c 0,-13.24663 10.753349,-24 24,-24 13.246651,0 24,10.75337 24,24 l 0,32 8,0 0,-32 c 0,-17.6622 -14.337801,-32 -32,-32 -9.55249,0 -18.140031,4.23597 -24,10.87626 L 16,576 z"
       id="path1"
       inkscape:connector-curvature="0"
       sodipodi:nodetypes="ccccscccssccc" />
    <path
       inkscape:connector-curvature="0"
       id="path2"
       d="m 88,704 -8,0 0,-64 8,0 z"
       style="fill:#ffffff;fill-opacity:1;fill-rule:evenodd;stroke:none;display:inline"
       sodipodi:nodetypes="ccccc" />
    <path
       style="fill:#ffffff;fill-opacity:1;fill-rule:evenodd;stroke:none;display:inline"
       d="m 128,640 c -17.64701,0 -32,14.35301 -32,32 l 0,96 8,0 0,-74.73477 C 109.85494,699.89982 118.45573,704 128,704 c 17.647,0 32,-14.35298 32,-32 0,-17.64699 -14.353,-32 -32,-32 z m 0,8 c 13.23525,0 24,10.76477 24,24 0,13.23528 -10.76475,24 -24,24 -13.23526,0 -24,-10.76473 -24,-24 0,-13.23523 10.76474,-24 24,-24 z"
       id="path3"
       inkscape:connector-curvature="0"
       sodipodi:nodetypes="sscccssssssss" />
    <path
       id="path4"
       d="m 192,640 c -17.66905,0 -32,14.33098 -32,32 0,17.66904 14.33095,32 32,32 17.66905,0 31.99013,-14.3165 32,-32 l -8,0 c -0.0398,13.25562 -10.75883,24 -24,24 -6.26384,0 -11.95903,-2.42249 -16.22986,-6.3558 l 43.95843,-33.60529 C 213.98377,646.10407 203.42987,640 192,640 z m 0,8.03361 c 6.12331,0 12.01428,2.33989 16.45611,6.53436 l -37.6362,28.68331 c -1.78419,-3.35358 -2.80048,-7.18764 -2.80048,-11.25128 0,-13.24113 10.7394,-23.96639 23.98057,-23.96639 z"
       style="fill:#ffffff;fill-opacity:1;stroke:none;display:inline"
       inkscape:connector-curvature="0"
       sodipodi:nodetypes="sssccsccssccss" />
    <path
       style="fill:#ffffff;fill-opacity:1;fill-rule:evenodd;stroke:none;display:inline"
       d="m 256,639.99999 c -17.67481,0 -32,14.32521 -32,32.00001 l 0,32 8,0 0,-32 c 0,-13.2561 10.7439,-24 24,-24 13.25609,0 24,10.7439 24,24 l 8,0 c 0,-17.6748 -14.32519,-32.00001 -32,-32.00001 z"
       id="path5"
       inkscape:connector-curvature="0"
       sodipodi:nodetypes="sscccsccs" />
    <path
       inkscape:connector-curvature="0"
       id="path7"
       d="m 381.24128,631.78037 c -1.56853,-1.56854 -1.56853,-4.09408 0,-5.66262 l 16.98781,-16.98783 c 1.56858,-1.56854 4.09408,-1.56853 5.66261,2e-5 1.56855,1.56851 1.56855,4.09404 0,5.66257 l -16.98784,16.98783 c -1.56849,1.56855 -4.09404,1.56855 -5.66258,3e-5 z"
       style="fill:#ffffff;fill-opacity:1;fill-rule:evenodd;stroke:none;display:inline" />
    <path
       style="fill:#ffffff;fill-opacity:1;fill-rule:evenodd;stroke:none;display:inline"
       d="m 384,640 c -17.69109,0 -32,14.30891 -32,32 0,17.69109 14.30891,32 32,32 17.69105,0 32.3,-14.30891 32.3,-32 0,-17.69109 -14.60895,-32 -32.3,-32 z m 0,8 c 13.2683,0 24,10.73168 24,24 0,13.26831 -10.7317,24 -24,24 -13.26835,0 -24,-10.73169 -24,-24 0,-13.26832 10.73165,-24 24,-24 z"
       id="path8"
       inkscape:connector-curvature="0"
       sodipodi:nodetypes="ssssssssss" />
    <path
       sodipodi:nodetypes="ssscccsssssss"
       style="fill:#ffffff;fill-opacity:1;fill-rule:evenodd;stroke:none;display:inline"
       d="M 575.99998,640 C 558.32909,640 544,654.3291 544,672 c 0,17.67091 14.32909,32 31.99998,32 9.55721,0 18.13714,-4.1924 24.00002,-10.83597 L 600,704 l 8,0 0,-32 c 0,-17.6709 -14.32912,-32 -32.00002,-32 z m 0,8 C 589.25314,648 600,658.84683 600,672.1 c 0,13.25318 -10.74686,23.9 -24.00002,23.9 -13.25317,0 -24,-10.74682 -24,-24 0,-13.25317 10.74683,-24 24,-24 z"
       id="path11"
       inkscape:connector-curvature="0" />
    <path
       sodipodi:nodetypes="sscccssssssss"
       inkscape:connector-curvature="0"
       id="path3014"
       d="m 320,704 c -17.64701,0 -32,-14.35301 -32,-32 l 0,-96 8,0 0,74.73477 C 301.85494,644.10018 310.45573,640 320,640 c 17.647,0 32,14.35298 32,32 0,17.64699 -14.353,32 -32,32 z m 0,-8 c 13.23525,0 24,-10.76477 24,-24 0,-13.23528 -10.76475,-24 -24,-24 -13.23526,0 -24,10.76473 -24,24 0,13.23523 10.76474,24 24,24 z"
       style="fill:#ffffff;fill-opacity:1;fill-rule:evenodd;stroke:none;display:inline" />
    <path
       sodipodi:nodetypes="sscccsccs"
       inkscape:connector-curvature="0"
       id="path3016"
       d="m 448,639.99999 c -17.67481,0 -32,14.32521 -32,32.00001 l 0,32 8,0 0,-32 c 0,-13.2561 10.7439,-24 24,-24 13.25609,0 24,10.7439 24,24 l 8,0 c 0,-17.6748 -14.32519,-32.00001 -32,-32.00001 z"
       style="fill:#ffffff;fill-opacity:1;fill-rule:evenodd;stroke:none;display:inline" />
    <path
       sodipodi:nodetypes="sssccsccssccss"
       inkscape:connector-curvature="0"
       style="fill:#ffffff;fill-opacity:1;stroke:none;display:inline"
       d="m 512,640 c -17.66905,0 -32,14.33098 -32,32 0,17.66904 14.33095,32 32,32 17.66905,0 31.99013,-14.3165 32,-32 l -8,0 c -0.0398,13.25562 -10.75883,24 -24,24 -6.26384,0 -11.95903,-2.42249 -16.22986,-6.3558 l 43.95843,-33.60529 C 533.98377,646.10407 523.42987,640 512,640 z m 0,8.03361 c 6.12331,0 12.01428,2.33989 16.45611,6.53436 l -37.6362,28.68331 c -1.78419,-3.35358 -2.80048,-7.18764 -2.80048,-11.25128 0,-13.24113 10.7394,-23.96639 23.98057,-23.96639 z"
       id="path3018" />
    <g
       style="font-size:48px;font-style:normal;font-variant:normal;font-weight:normal;font-stretch:normal;text-align:start;line-height:125%;letter-spacing:0px;word-spacing:0px;writing-mode:lr-tb;text-anchor:start;fill:#ffffff;fill-opacity:1;stroke:none;font-family:Helvetica Neue LT Com;-inkscape-font-specification:Helvetica Neue LT Com"
       id="text2994">
      <path
         d="m 431.86975,725.28 4.224,0 0,34.272 -4.224,0 0,-34.272"
         style="fill:#ffffff;fill-opacity:1"
         id="path2997" />
      <path
         d="m 452.03575,759.552 -4.224,0 0,-30.528 -8.592,0 0,-3.744 21.456,0 0,3.744 -8.64,0 0,30.528"
         style="fill:#ffffff;fill-opacity:1"
         id="path2999" />
      <path
         d="m 489.91375,734.16 c -10e-6,-0.89597 -0.096,-1.71197 -0.288,-2.448 -0.16001,-0.76797 -0.44801,-1.40797 -0.864,-1.92 -0.41601,-0.54397 -0.97601,-0.95997 -1.68,-1.248 -0.67201,-0.31997 -1.50401,-0.47997 -2.496,-0.48 -1.82401,3e-5 -3.232,0.48003 -4.224,1.44 -0.96,0.92803 -1.44,2.30403 -1.44,4.128 0,1.60003 0.4,2.83203 1.2,3.696 0.8,0.86402 1.792,1.55202 2.976,2.064 1.21599,0.51202 2.51199,0.97602 3.888,1.392 1.40799,0.38402 2.70399,0.91202 3.888,1.584 1.21598,0.67202 2.22398,1.60002 3.024,2.784 0.79998,1.18402 1.19998,2.81601 1.2,4.896 -2e-5,1.98401 -0.33602,3.63201 -1.008,4.944 -0.64002,1.31201 -1.47202,2.352 -2.496,3.12 -1.02401,0.768 -2.17601,1.312 -3.456,1.632 -1.24801,0.32 -2.48001,0.48 -3.696,0.48 -2.01601,0 -3.696,-0.256 -5.04,-0.768 -1.312,-0.512 -2.368,-1.248 -3.168,-2.208 -0.768,-0.95999 -1.328,-2.14399 -1.68,-3.552 -0.32,-1.43999 -0.48,-3.07199 -0.48,-4.896 l 4.224,0 c 0,0.96001 0.048,1.92001 0.144,2.88 0.096,0.92801 0.352,1.77601 0.768,2.544 0.416,0.76801 1.056,1.39201 1.92,1.872 0.86399,0.448 2.06399,0.672 3.6,0.672 0.83199,0 1.61599,-0.144 2.352,-0.432 0.73599,-0.28799 1.35999,-0.68799 1.872,-1.2 0.54399,-0.54399 0.95999,-1.18399 1.248,-1.92 0.31999,-0.73599 0.47999,-1.56799 0.48,-2.496 -1e-5,-1.21599 -0.24001,-2.20799 -0.72,-2.976 -0.44801,-0.76799 -1.05601,-1.40798 -1.824,-1.92 -0.73601,-0.54398 -1.60001,-0.97598 -2.592,-1.296 -0.96001,-0.35198 -1.95201,-0.70398 -2.976,-1.056 -0.992,-0.35198 -1.984,-0.73598 -2.976,-1.152 -0.96,-0.44798 -1.824,-1.00798 -2.592,-1.68 -0.736,-0.70398 -1.344,-1.58398 -1.824,-2.64 -0.448,-1.05598 -0.672,-2.36797 -0.672,-3.936 0,-0.79997 0.112,-1.72797 0.336,-2.784 0.224,-1.08797 0.688,-2.12797 1.392,-3.12 0.736,-0.99197 1.76,-1.82396 3.072,-2.496 1.312,-0.70396 3.05599,-1.05596 5.232,-1.056 3.29599,4e-5 5.69599,0.80004 7.2,2.4 1.53598,1.56803 2.33598,3.95203 2.4,7.152 l -4.224,0"
         style="fill:#ffffff;fill-opacity:1"
         id="path3001" />
      <path
         d="m 502.58575,747.168 c 0,0.99201 0.016,2.06401 0.048,3.216 0.064,1.15201 0.256,2.22401 0.576,3.216 0.32,0.99201 0.8,1.82401 1.44,2.496 0.672,0.64 1.63199,0.96 2.88,0.96 0.95999,0 1.72799,-0.208 2.304,-0.624 0.57599,-0.44799 1.00799,-0.97599 1.296,-1.584 0.31999,-0.63999 0.52799,-1.29599 0.624,-1.968 0.096,-0.70399 0.14399,-1.29599 0.144,-1.776 l 4.032,0 c -10e-6,0.67201 -0.12801,1.53601 -0.384,2.592 -0.22401,1.02401 -0.65601,2.03201 -1.296,3.024 -0.64001,0.96 -1.52001,1.792 -2.64,2.496 -1.12001,0.672 -2.56001,1.008 -4.32,1.008 -3.168,0 -5.456,-1.088 -6.864,-3.264 -1.376,-2.17599 -2.064,-5.48799 -2.064,-9.936 0,-1.59998 0.096,-3.21598 0.288,-4.848 0.224,-1.66398 0.656,-3.15198 1.296,-4.464 0.672,-1.34397 1.6,-2.43197 2.784,-3.264 1.216,-0.86397 2.816,-1.29597 4.8,-1.296 1.95199,3e-5 3.50399,0.38403 4.656,1.152 1.15199,0.76803 2.01599,1.76003 2.592,2.976 0.57599,1.18402 0.94399,2.51202 1.104,3.984 0.15998,1.47202 0.23998,2.89602 0.24,4.272 l 0,1.632 -13.536,0 m 9.312,-3.168 0,-1.392 c -10e-6,-0.70398 -0.064,-1.42398 -0.192,-2.16 -0.12801,-0.76798 -0.36801,-1.45598 -0.72,-2.064 -0.32001,-0.60798 -0.76801,-1.10398 -1.344,-1.488 -0.57601,-0.38398 -1.31201,-0.57597 -2.208,-0.576 -1.05601,3e-5 -1.904,0.28802 -2.544,0.864 -0.608,0.54402 -1.072,1.18402 -1.392,1.92 -0.32,0.73602 -0.528,1.48802 -0.624,2.256 -0.096,0.73602 -0.144,1.29602 -0.144,1.68 l 0,0.96 9.168,0"
         style="fill:#ffffff;fill-opacity:1"
         id="path3003" />
      <path
         d="m 532.747,741.648 c -10e-6,-0.60798 -0.08,-1.23198 -0.24,-1.872 -0.12801,-0.63998 -0.35201,-1.21598 -0.672,-1.728 -0.28801,-0.51198 -0.70401,-0.92798 -1.248,-1.248 -0.51201,-0.31997 -1.15201,-0.47997 -1.92,-0.48 -0.64001,3e-5 -1.26401,0.11203 -1.872,0.336 -0.576,0.22402 -1.104,0.72002 -1.584,1.488 -0.48,0.73602 -0.864,1.80802 -1.152,3.216 -0.288,1.40802 -0.432,3.28002 -0.432,5.616 0,0.83201 0.016,1.82401 0.048,2.976 0.064,1.15201 0.256,2.25601 0.576,3.312 0.32,1.05601 0.8,1.95201 1.44,2.688 0.672,0.736 1.61599,1.104 2.832,1.104 0.86399,0 1.56799,-0.208 2.112,-0.624 0.54399,-0.41599 0.97599,-0.92799 1.296,-1.536 0.31999,-0.63999 0.52799,-1.32799 0.624,-2.064 0.12799,-0.76799 0.19199,-1.50399 0.192,-2.208 l 4.032,0 c -10e-6,1.02401 -0.14401,2.09601 -0.432,3.216 -0.25601,1.12001 -0.72001,2.16001 -1.392,3.12 -0.64001,0.928 -1.50401,1.712 -2.592,2.352 -1.08801,0.608 -2.43201,0.912 -4.032,0.912 -3.168,0 -5.456,-1.088 -6.864,-3.264 -1.376,-2.17599 -2.064,-5.48799 -2.064,-9.936 0,-1.59998 0.096,-3.21598 0.288,-4.848 0.224,-1.66398 0.656,-3.15198 1.296,-4.464 0.672,-1.34397 1.6,-2.43197 2.784,-3.264 1.216,-0.86397 2.816,-1.29597 4.8,-1.296 1.75999,3e-5 3.16799,0.30403 4.224,0.912 1.08799,0.60803 1.91999,1.36003 2.496,2.256 0.60799,0.86402 1.00799,1.79202 1.2,2.784 0.19199,0.96002 0.28799,1.80802 0.288,2.544 l -4.032,0"
         style="fill:#ffffff;fill-opacity:1"
         id="path3005" />
      <path
         d="m 557.8885,759.552 -3.84,0 0,-3.024 -0.096,0 c -0.54401,1.184 -1.40801,2.096 -2.592,2.736 -1.18401,0.64 -2.40001,0.96 -3.648,0.96 -1.696,0 -3.008,-0.272 -3.936,-0.816 -0.896,-0.576 -1.568,-1.28 -2.016,-2.112 -0.416,-0.83199 -0.656,-1.71199 -0.72,-2.64 -0.064,-0.95999 -0.096,-1.82399 -0.096,-2.592 l 0,-18.24 4.032,0 0,17.76 c 0,0.48001 0.016,1.02401 0.048,1.632 0.064,0.60801 0.224,1.18401 0.48,1.728 0.256,0.51201 0.624,0.94401 1.104,1.296 0.512,0.352 1.23199,0.528 2.16,0.528 0.54399,0 1.10399,-0.096 1.68,-0.288 0.60799,-0.19199 1.16799,-0.49599 1.68,-0.912 0.51199,-0.41599 0.92799,-0.94399 1.248,-1.584 0.31999,-0.67199 0.47999,-1.47199 0.48,-2.4 l 0,-17.76 4.032,0 0,25.728"
         style="fill:#ffffff;fill-opacity:1"
         id="path3007" />
      <path
         d="m 563.16325,733.824 4.032,0 0,3.84 0.096,0 c 0.288,-0.60798 0.592,-1.18397 0.912,-1.728 0.352,-0.54397 0.752,-1.02397 1.2,-1.44 0.448,-0.41597 0.94399,-0.73597 1.488,-0.96 0.57599,-0.25597 1.23199,-0.38397 1.968,-0.384 0.79999,3e-5 1.39199,0.096 1.776,0.288 l 0,3.936 c -0.19201,-0.032 -0.44801,-0.064 -0.768,-0.096 -0.28801,-0.064 -0.75201,-0.096 -1.392,-0.096 -0.51201,2e-5 -1.07201,0.12802 -1.68,0.384 -0.60801,0.22402 -1.184,0.59202 -1.728,1.104 -0.512,0.48002 -0.96,1.10402 -1.344,1.872 -0.352,0.76802 -0.528,1.68002 -0.528,2.736 l 0,16.272 -4.032,0 0,-25.728"
         style="fill:#ffffff;fill-opacity:1"
         id="path3009" />
      <path
         d="m 577.65325,725.28 4.032,0 0,4.608 -4.032,0 0,-4.608 m 0,8.544 4.032,0 0,25.728 -4.032,0 0,-25.728"
         style="fill:#ffffff;fill-opacity:1"
         id="path3011" />
      <path
         d="m 588.36325,726.336 4.032,0 0,7.488 4.464,0 0,3.168 -4.464,0 0,16.512 c 0,1.02401 0.176,1.76001 0.528,2.208 0.352,0.44801 1.05599,0.67201 2.112,0.672 0.44799,10e-6 0.79999,-0.016 1.056,-0.048 0.25599,-0.032 0.49599,-0.064 0.72,-0.096 l 0,3.312 c -0.25601,0.064 -0.65601,0.128 -1.2,0.192 -0.54401,0.064 -1.23201,0.096 -2.064,0.096 -1.056,0 -1.92,-0.096 -2.592,-0.288 -0.672,-0.224 -1.2,-0.544 -1.584,-0.96 -0.384,-0.448 -0.656,-0.992 -0.816,-1.632 -0.128,-0.63999 -0.192,-1.37599 -0.192,-2.208 l 0,-17.76 -3.744,0 0,-3.168 3.744,0 0,-7.488"
         style="fill:#ffffff;fill-opacity:1"
         id="path3013" />
      <path
         d="m 597.472,733.824 4.416,0 5.088,20.64 0.096,0 4.512,-20.64 4.416,0 -7.44,27.456 c -0.25601,0.896 -0.52801,1.744 -0.816,2.544 -0.28801,0.8 -0.68801,1.504 -1.2,2.112 -0.48,0.63999 -1.104,1.13599 -1.872,1.488 -0.768,0.38399 -1.76,0.57599 -2.976,0.576 -0.8,-10e-6 -1.408,-0.016 -1.824,-0.048 -0.384,-0.032 -0.752,-0.064 -1.104,-0.096 l 0,-3.168 c 0.576,0.096 1.36,0.144 2.352,0.144 0.928,0 1.616,-0.24 2.064,-0.72 0.48,-0.48 0.848,-1.072 1.104,-1.776 l 0.768,-2.256 -7.584,-26.256"
         style="fill:#ffffff;fill-opacity:1"
         id="path3015" />
    </g>
  </g>
</svg>
