<?xml version="1.0" encoding="UTF-8" standalone="no"?>
<!-- Created with Inkscape (http://www.inkscape.org/) -->

<svg
   xmlns:dc="http://purl.org/dc/elements/1.1/"
   xmlns:cc="http://creativecommons.org/ns#"
   xmlns:rdf="http://www.w3.org/1999/02/22-rdf-syntax-ns#"
   xmlns:svg="http://www.w3.org/2000/svg"
   xmlns="http://www.w3.org/2000/svg"
   xmlns:sodipodi="http://sodipodi.sourceforge.net/DTD/sodipodi-0.dtd"
   xmlns:inkscape="http://www.inkscape.org/namespaces/inkscape"
   width="128"
   height="1152"
   id="svg2"
   version="1.1"
   inkscape:version="0.91 r13725"
   sodipodi:docname="icons.svg">
  <defs
     id="defs4" />
  <sodipodi:namedview
     id="base"
     pagecolor="#000000"
     bordercolor="#666666"
     borderopacity="1.0"
     inkscape:pageopacity="1"
     inkscape:pageshadow="2"
     inkscape:zoom="0.43020266"
     inkscape:cx="-482.79921"
     inkscape:cy="612.72044"
     inkscape:document-units="px"
     inkscape:current-layer="layer1"
     showgrid="false"
     inkscape:showpageshadow="false"
     inkscape:window-width="1914"
     inkscape:window-height="1056"
     inkscape:window-x="0"
     inkscape:window-y="0"
     inkscape:window-maximized="1" />
  <metadata
     id="metadata7">
    <rdf:RDF>
      <cc:Work
         rdf:about="">
        <dc:format>image/svg+xml</dc:format>
        <dc:type
           rdf:resource="http://purl.org/dc/dcmitype/StillImage" />
        <dc:title></dc:title>
      </cc:Work>
    </rdf:RDF>
  </metadata>
  <g
     inkscape:label="Capa 1"
     inkscape:groupmode="layer"
     id="layer1"
     transform="translate(0,99.63782)">
    <g
       style="display:inline"
       id="g3003"
       transform="matrix(0.38847214,0,0,0.38847214,12.882013,570.71002)">
      <circle
         style="fill:#ffffff"
         id="circle3"
         r="1.649"
         cy="28.476999"
         cx="14.47"
         transform="matrix(4.0923629,0,0,4.0923629,-3.9845345,954.73717)" />
      <circle
         style="fill:#ffffff"
         id="circle5"
         r="1.65"
         cy="28.476999"
         cx="23.681"
         transform="matrix(4.0923629,0,0,4.0923629,-3.9845345,954.73717)" />
      <circle
         style="fill:#ffffff"
         id="circle7"
         r="1.65"
         cy="28.476999"
         cx="32.891998"
         transform="matrix(4.0923629,0,0,4.0923629,-3.9845345,954.73717)" />
      <circle
         style="fill:#ffffff"
         id="circle9"
         r="1.65"
         cy="28.476999"
         cx="42.103001"
         transform="matrix(4.0923629,0,0,4.0923629,-3.9845345,954.73717)" />
      <path
         style="fill:#ffffff"
         id="path11"
         d="m 30.27673,1071.7624 0,-0.9658 c 0,-15.8497 12.890943,-28.7447 28.740664,-28.7447 l 135.629096,0 c 1.35456,0 2.80326,0.1232 4.42793,0.3764 l 0.18416,0.03 0.15953,-0.098 c 4.92311,-2.9383 10.56649,-4.4934 16.31215,-4.4934 2.08712,0 4.15785,0.1997 6.15492,0.5935 l 1.96024,0.3807 -1.53055,-1.2768 c -7.7591,-6.4742 -17.58897,-10.0387 -27.66844,-10.0387 l -135.629036,0 c -23.858476,0 -43.268552,19.4101 -43.268552,43.2687 l 0,0.9656 c 0,23.8585 19.410076,43.2686 43.268552,43.2686 l 118.780826,0 0,-14.5197 -118.780826,0 c -15.849721,0 -28.740664,-12.895 -28.740664,-28.7447 z"
         inkscape:connector-curvature="0" />
      <path
         style="fill:#ffffff"
         id="path13"
         d="m 243.85714,1084.8335 -3.55625,0 0,-17.9982 c 0,-12.7355 -11.01254,-23.1015 -24.56646,-23.1015 -13.558,0 -24.57872,10.362 -24.57872,23.1015 l 0,17.9982 c 0,0 -1.59194,0 -3.55628,0 -1.96841,0 -3.56445,2.1567 -3.56445,4.8331 l 0,28.1921 c 0,2.6724 2.17714,4.8454 4.83309,4.8454 l 53.72453,0 c 2.67232,0 4.83309,-2.173 4.83309,-4.8454 l 0,-28.1921 c -0.004,-2.6764 -1.59193,-4.8331 -3.56855,-4.8331 z m -28.12271,23.7275 c -3.33936,0 -6.0485,-2.7174 -6.0485,-6.0568 0,-3.3393 2.70914,-6.0444 6.0485,-6.0444 3.33937,0 6.04852,2.701 6.04852,6.0444 0,3.3394 -2.70505,6.0568 -6.04852,6.0568 z m 16.52497,-23.7275 -33.04175,0 0,-17.9982 c 0,-8.2871 7.40718,-15.0395 16.51678,-15.0395 9.10141,0 16.52497,6.7483 16.52497,15.0395 l 0,17.9982 z"
         inkscape:connector-curvature="0" />
    </g>
    <g
       transform="matrix(1.6835725,0,0,1.6835725,21.910688,818.27287)"
       id="Layer_64"
       style="display:inline;fill:#ffffff">
      <g
         id="g66"
         style="fill:#ffffff">
        <path
           inkscape:connector-curvature="0"
           d="m 1.241,43.616 18.622,0 0,-27.935 -18.622,0 0,27.935 z m 9.704,-1.4 c -0.496,0 -0.897,-0.405 -0.897,-0.899 0,-0.495 0.401,-0.897 0.897,-0.897 0.496,0 0.898,0.402 0.898,0.897 10e-4,0.494 -0.402,0.899 -0.898,0.899 z m -7.011,-23.843 13.238,0 -0.001,20.611 -13.237,0 0,-20.611 z"
           id="path68"
           style="fill:#ffffff" />
        <polygon
           points="40.293,21.122 42.923,21.122 42.923,6.384 7.822,6.384 7.822,14.487 10.451,14.487 10.451,9.012 40.293,9.012 "
           id="polygon70"
           style="fill:#ffffff" />
        <rect
           x="21.063"
           y="26.899"
           width="13.829"
           height="2.628"
           id="rect72"
           style="fill:#ffffff" />
        <path
           inkscape:connector-curvature="0"
           d="m 36.252,22.142 0,21.038 12.507,0 0,-21.038 -12.507,0 z m 6.531,0.871 c 0.167,0 0.302,0.135 0.302,0.302 0,0.166 -0.135,0.303 -0.302,0.303 -0.167,0 -0.302,-0.137 -0.302,-0.303 0,-0.168 0.135,-0.302 0.302,-0.302 z m -1.799,1.009 3.598,0 0,0.289 -3.598,0 0,-0.289 z m 1.681,18.249 c -0.398,0 -0.721,-0.323 -0.721,-0.722 0,-0.397 0.322,-0.721 0.721,-0.721 0.397,0 0.721,0.323 0.721,0.721 0,0.399 -0.323,0.722 -0.721,0.722 z m 4.087,-2.477 c -3.248,0.018 -6.883,0.03 -8.493,0.017 l 0,-14.465 8.493,-0.002 0,14.45 z"
           id="path74"
           style="fill:#ffffff" />
        <polygon
           points="30.333,32.894 21.063,32.894 21.063,34.335 34.893,34.335 34.893,30.603 25.87,30.603 24.869,30.603 21.063,30.603 21.063,32.197 30.333,32.197 "
           id="polygon76"
           style="fill:#ffffff" />
      </g>
    </g>
    <path
       style="display:inline;fill:#ffffff;fill-opacity:1;fill-rule:evenodd;stroke:none"
       d="m 47.714043,692.36218 c -3.418328,0 -6.170276,2.75195 -6.170276,6.17028 l 0,67.65944 c 0,3.41832 2.751948,6.17028 6.170276,6.17028 l 32.571916,0 c 3.41833,0 6.170274,-2.75196 6.170274,-6.17028 l 0,-67.65944 c 0,-3.41833 -2.751944,-6.17028 -6.170274,-6.17028 l -32.571916,0 z m 1.269648,8.62652 30.032618,0 c 1.053598,0 1.89855,0.84496 1.89855,1.89855 0,1.05359 -0.844952,1.89854 -1.89855,1.89854 l -30.032618,0 c -1.053588,0 -1.910406,-0.84495 -1.910406,-1.89854 0,-1.05359 0.856818,-1.89855 1.910406,-1.89855 z m 0,8.7333 30.032618,0 c 1.053598,0 1.89855,0.84495 1.89855,1.89856 0,1.05358 -0.844952,1.89854 -1.89855,1.89854 l -30.032618,0 c -1.053588,0 -1.910406,-0.84496 -1.910406,-1.89854 0,-1.05361 0.856818,-1.89856 1.910406,-1.89856 z m 0,8.63839 30.032618,0 c 1.053598,0 1.89855,0.84494 1.89855,1.89855 0,1.05362 -0.844952,1.89855 -1.89855,1.89855 l -30.032618,0 c -1.053588,0 -1.910406,-0.84493 -1.910406,-1.89855 0,-1.05361 0.856818,-1.89855 1.910406,-1.89855 z m 28.952824,12.82708 c 1.646814,0 2.978344,1.33152 2.978344,2.97831 0,1.6468 -1.33153,2.97838 -2.978344,2.97838 -1.64682,0 -2.978349,-1.33154 -2.978349,-2.97838 0,-1.64679 1.331529,-2.97831 2.978349,-2.97831 z m -30.056352,14.9866 c 0.447012,0 0.806882,0.35989 0.806882,0.80689 l 0,19.17535 c 0,0.44702 -0.35987,0.80683 -0.806882,0.80683 -0.447015,0 -0.806878,-0.35981 -0.806878,-0.80683 l 0,-19.17535 c 0,-0.447 0.359863,-0.80689 0.806878,-0.80689 z m 5.375256,0 c 0.447013,0 0.806884,0.35989 0.806884,0.80689 l 0,19.17535 c 0,0.44702 -0.359871,0.80683 -0.806884,0.80683 -0.447014,0 -0.806883,-0.35981 -0.806883,-0.80683 l 0,-19.17535 c 0,-0.447 0.359869,-0.80689 0.806883,-0.80689 z m 5.375256,0 c 0.447014,0 0.806885,0.35989 0.806885,0.80689 l 0,19.17535 c 0,0.44702 -0.359871,0.80683 -0.806885,0.80683 -0.447012,0 -0.806881,-0.35981 -0.806881,-0.80683 l 0,-19.17535 c 0,-0.447 0.359869,-0.80689 0.806881,-0.80689 z m 5.363393,0 c 0.447014,0 0.806883,0.35989 0.806883,0.80689 l 0,19.17535 c 0,0.44702 -0.359869,0.80683 -0.806883,0.80683 -0.447013,0 -0.806882,-0.35981 -0.806882,-0.80683 l 0,-19.17535 c 0,-0.447 0.359869,-0.80689 0.806882,-0.80689 z m 5.375257,0 c 0.447014,0 0.806884,0.35989 0.806884,0.80689 l 0,19.17535 c 0,0.44702 -0.35987,0.80683 -0.806884,0.80683 -0.447012,0 -0.806882,-0.35981 -0.806882,-0.80683 l 0,-19.17535 c 0,-0.447 0.35987,-0.80689 0.806882,-0.80689 z m 5.375256,0 c 0.447014,0 0.806885,0.35989 0.806885,0.80689 l 0,19.17535 c 0,0.44702 -0.359871,0.80683 -0.806885,0.80683 -0.447011,0 -0.806882,-0.35981 -0.806882,-0.80683 l 0,-19.17535 c 0,-0.447 0.359871,-0.80689 0.806882,-0.80689 z m 5.363394,0 c 0.447006,0 0.806884,0.35989 0.806884,0.80689 l 0,19.17535 c 0,0.44702 -0.359878,0.80683 -0.806884,0.80683 -0.447012,0 -0.806883,-0.35981 -0.806883,-0.80683 l 0,-19.17535 c 0,-0.447 0.359871,-0.80689 0.806883,-0.80689 z"
       id="rect3006-3"
       inkscape:connector-curvature="0" />
    <path
       inkscape:connector-curvature="0"
       d="m 64,441.05234 c -19.501119,0 -35.30987,15.8087 -35.30987,35.30984 0,19.50116 15.808752,35.30985 35.30987,35.30985 19.50112,0 35.30987,-15.80869 35.30987,-35.30985 0,-19.50114 -15.80875,-35.30984 -35.30987,-35.30984 z m 20.969098,56.27887 c -2.725478,2.72524 -5.897307,4.86422 -9.428009,6.35772 -0.896951,0.37929 -1.807695,0.71223 -2.731003,0.99938 l 0,-5.29193 c 0,-2.78173 -0.95405,-4.82754 -2.862025,-6.13781 1.195434,-0.11495 2.293069,-0.27592 3.293057,-0.48282 0.999986,-0.20691 2.057483,-0.50585 3.172363,-0.89656 1.114893,-0.39078 2.114879,-0.85626 2.999973,-1.39653 0.885082,-0.54025 1.735561,-1.24132 2.551684,-2.10337 0.816126,-0.8621 1.499976,-1.83909 2.051699,-2.93103 0.551721,-1.09204 0.98854,-2.40229 1.310326,-3.93096 0.321788,-1.52875 0.482755,-3.21264 0.482755,-5.05167 0,-3.56317 -1.160955,-6.59757 -3.482715,-9.10332 1.057508,-2.75857 0.942465,-5.75855 -0.344819,-8.99987 l -0.862062,-0.10343 c -0.597647,-0.0689 -1.672389,0.18389 -3.224087,0.75858 -1.55171,0.57478 -3.293078,1.51725 -5.224072,2.8276 -2.735547,-0.75866 -5.574678,-1.13795 -8.517129,-1.13795 -2.965471,0 -5.793017,0.37929 -8.482638,1.13795 -1.218339,-0.8276 -2.373484,-1.5115 -3.465482,-2.05176 -1.091975,-0.54027 -1.965484,-0.90796 -2.620642,-1.10336 -0.655169,-0.19548 -1.264401,-0.3162 -1.827571,-0.36212 -0.56317,-0.0462 -0.925221,-0.0575 -1.086188,-0.0349 -0.160968,0.0236 -0.275861,0.0462 -0.34483,0.0689 -1.287284,3.26431 -1.402314,6.2643 -0.344818,8.99987 -2.32176,2.50574 -3.482703,5.54025 -3.482703,9.10332 0,1.83903 0.160945,3.52299 0.482743,5.05167 0.321787,1.52866 0.758603,2.83892 1.310326,3.93095 0.551723,1.09203 1.235573,2.06893 2.051697,2.93105 0.816126,0.86204 1.666604,1.56309 2.551685,2.10336 0.885093,0.54034 1.885092,1.00583 2.999961,1.39654 1.114881,0.3908 2.172401,0.68974 3.172376,0.89654 0.999975,0.2069 2.097623,0.36788 3.293067,0.48275 -1.885092,1.28732 -2.827558,3.33336 -2.827558,6.13788 l 0,5.39511 c -1.041231,-0.30992 -2.067552,-0.67612 -3.07582,-1.10269 -3.530577,-1.49326 -6.702532,-3.63236 -9.427872,-6.3576 -2.725205,-2.72535 -4.864346,-5.89736 -6.357565,-9.42792 -1.544671,-3.65225 -2.327969,-7.53527 -2.327969,-11.54109 0,-4.00592 0.783298,-7.88883 2.328105,-11.54126 1.493357,-3.53048 3.632372,-6.70252 6.357565,-9.42788 2.725204,-2.72527 5.897307,-4.86427 9.427873,-6.35757 3.652373,-1.5447 7.535354,-2.32803 11.541225,-2.32803 4.005871,0 7.888852,0.78333 11.541225,2.32803 3.530851,1.49346 6.702669,3.63238 9.428009,6.35757 2.725216,2.72527 4.864208,5.8974 6.357577,9.42788 1.544659,3.65243 2.327957,7.53534 2.327957,11.54126 0,4.00582 -0.783298,7.88884 -2.328105,11.54117 -1.493357,3.53048 -3.632372,6.70272 -6.357565,9.42784 z"
       id="path3"
       style="fill:#ffffff" />
    <g
       transform="matrix(0.74373717,0,0,0.74373717,-48.908971,496.87282)"
       id="g11"
       style="opacity:1;fill:#ffffff">
      <rect
         x="112.197"
         y="168.302"
         width="31.702999"
         height="15.852"
         id="rect13"
         style="fill:#ffffff" />
      <rect
         x="159.75"
         y="168.302"
         width="31.683001"
         height="15.852"
         id="rect15"
         style="fill:#ffffff" />
      <rect
         x="112.173"
         y="136.599"
         width="79.269997"
         height="15.852"
         id="rect17"
         style="fill:#ffffff" />
      <rect
         x="112.197"
         y="104.898"
         width="47.558998"
         height="15.851"
         id="rect19"
         style="fill:#ffffff" />
      <rect
         x="175.60201"
         y="104.898"
         width="15.851"
         height="15.851"
         id="rect21"
         style="fill:#ffffff" />
    </g>
    <g
       transform="matrix(9.8960968,0,0,9.8960968,-522.37344,-1270.2917)"
       style="font-style:normal;font-variant:normal;font-weight:normal;font-stretch:normal;font-size:8.75px;line-height:125%;font-family:FontAwesome;-inkscape-font-specification:'FontAwesome, Normal';text-align:start;letter-spacing:0px;word-spacing:0px;writing-mode:lr-tb;text-anchor:start;display:inline;fill:#ffffff;fill-opacity:1;stroke:none;stroke-width:1px;stroke-linecap:butt;stroke-linejoin:miter;stroke-opacity:1"
       id="text4784">
      <path
         inkscape:connector-curvature="0"
         d="m 62.065498,164.04094 0,2.34375 q 0,0.12695 -0.09277,0.21973 -0.09277,0.0928 -0.219727,0.0928 l -1.875,0 0,-1.875 -1.25,0 0,1.875 -1.875,0 q -0.126953,0 -0.219726,-0.0928 -0.09277,-0.0928 -0.09277,-0.21973 l 0,-2.34375 q 0,-0.005 0,-0.0147 0.0049,-0.01 0.0049,-0.0146 l 2.807617,-2.31445 2.807618,2.31445 q 0.0049,0.01 0.0049,0.0293 z m 1.088868,-0.33691 -0.302735,0.36132 q -0.03906,0.0439 -0.102539,0.0537 l -0.01465,0 q -0.06348,0 -0.102539,-0.0342 l -3.378907,-2.81738 -3.378906,2.81738 q -0.05859,0.0391 -0.117187,0.0342 -0.06348,-0.01 -0.102539,-0.0537 l -0.302735,-0.36132 q -0.03906,-0.0488 -0.03418,-0.11231 0.0049,-0.0684 0.05371,-0.10742 l 3.510743,-2.92481 q 0.15625,-0.12695 0.371093,-0.12695 0.214844,0 0.371094,0.12695 l 1.191406,0.9961 0,-0.95215 q 0,-0.0684 0.04395,-0.11231 0.04394,-0.0439 0.112304,-0.0439 l 0.9375,0 q 0.06836,0 0.112305,0.0439 0.04395,0.0439 0.04395,0.11231 l 0,1.99219 1.069336,0.88867 q 0.04883,0.0391 0.05371,0.10742 0.0049,0.0635 -0.03418,0.11231 z"
         style="font-style:normal;font-variant:normal;font-weight:normal;font-stretch:normal;font-size:8.75px;line-height:125%;font-family:FontAwesome;-inkscape-font-specification:'FontAwesome, Normal';text-align:start;writing-mode:lr-tb;text-anchor:start;fill:#ffffff;fill-opacity:1"
         id="path4165" />
    </g>
    <g
       transform="matrix(9.8960968,0,0,9.8960968,-522.37372,-1549.0967)"
       style="font-style:normal;font-variant:normal;font-weight:normal;font-stretch:normal;font-size:6.49704409px;line-height:125%;font-family:FontAwesome;-inkscape-font-specification:'FontAwesome, Normal';text-align:start;letter-spacing:0px;word-spacing:0px;writing-mode:lr-tb;text-anchor:start;display:inline;fill:#ffffff;fill-opacity:1;stroke:none;stroke-width:1px;stroke-linecap:butt;stroke-linejoin:miter;stroke-opacity:1"
       id="text4780">
      <path
         inkscape:connector-curvature="0"
         d="m 62.501526,152.02854 0,2.87871 q 0,0.23929 -0.170402,0.40969 -0.170402,0.1704 -0.409691,0.1704 l -5.336858,0 q -0.239288,0 -0.40969,-0.1704 -0.170403,-0.1704 -0.170403,-0.40969 l 0,-2.87871 q 0.159526,0.17765 0.366184,0.31542 1.312461,0.8919 1.801915,1.25083 0.206658,0.15227 0.333553,0.23929 0.130521,0.0834 0.344431,0.17403 0.213909,0.087 0.398814,0.087 l 0.0036,0 0.0036,0 q 0.184905,0 0.398814,-0.087 0.213909,-0.0906 0.340805,-0.17403 0.130521,-0.087 0.337179,-0.23929 0.616349,-0.44595 1.80554,-1.25083 0.206658,-0.14139 0.362558,-0.31542 z m 0,-1.06592 q 0,0.28642 -0.177653,0.54746 -0.177654,0.26104 -0.442321,0.44595 -1.363219,0.94627 -1.696773,1.17831 -0.03626,0.0254 -0.1559,0.11239 -0.116019,0.0834 -0.195781,0.13778 -0.07614,0.0507 -0.188531,0.11601 -0.108767,0.0653 -0.206658,0.0979 -0.09789,0.0326 -0.181279,0.0326 l -0.0036,0 -0.0036,0 q -0.08339,0 -0.181279,-0.0326 -0.09789,-0.0326 -0.210284,-0.0979 -0.108768,-0.0653 -0.18853,-0.11601 -0.07614,-0.0544 -0.195782,-0.13778 -0.116019,-0.087 -0.152274,-0.11239 -0.329928,-0.23204 -0.949903,-0.65985 -0.619975,-0.43145 -0.743245,-0.51846 -0.224786,-0.15228 -0.424193,-0.41695 -0.199407,-0.26829 -0.199407,-0.4967 0,-0.2828 0.148649,-0.47133 0.152275,-0.18853 0.431444,-0.18853 l 5.336858,0 q 0.235663,0 0.406065,0.17041 0.174028,0.1704 0.174028,0.40969 z"
         style="font-style:normal;font-variant:normal;font-weight:normal;font-stretch:normal;font-size:6.49704409px;line-height:125%;font-family:FontAwesome;-inkscape-font-specification:'FontAwesome, Normal';text-align:start;writing-mode:lr-tb;text-anchor:start;fill:#ffffff;fill-opacity:1"
         id="path4162" />
    </g>
    <g
       transform="matrix(9.8960968,0,0,9.8960968,-522.37352,-1082.7074)"
       style="font-style:normal;font-variant:normal;font-weight:normal;font-stretch:normal;font-size:8.75px;line-height:125%;font-family:FontAwesome;-inkscape-font-specification:'FontAwesome, Normal';text-align:start;letter-spacing:0px;word-spacing:0px;writing-mode:lr-tb;text-anchor:start;display:inline;fill:#ffffff;fill-opacity:1;stroke:none;stroke-width:1px;stroke-linecap:butt;stroke-linejoin:miter;stroke-opacity:1"
       id="text4796">
      <path
         inkscape:connector-curvature="0"
         d="m 60.136799,131.30888 q 0.366211,-0.36621 0.366211,-0.88379 0,-0.51757 -0.366211,-0.88378 -0.366211,-0.36622 -0.883789,-0.36622 -0.517578,0 -0.883789,0.36622 -0.366211,0.36621 -0.366211,0.88378 0,0.51758 0.366211,0.88379 0.366211,0.36621 0.883789,0.36621 0.517578,0 0.883789,-0.36621 z m 1.616211,-0.88379 q 0,0.53223 -0.161133,0.87403 l -1.777344,3.77929 q -0.07813,0.16114 -0.234375,0.25391 -0.151367,0.0928 -0.327148,0.0928 -0.175781,0 -0.332031,-0.0928 -0.151368,-0.0928 -0.22461,-0.25391 l -1.782226,-3.77929 q -0.161133,-0.3418 -0.161133,-0.87403 0,-1.03515 0.732422,-1.76757 0.732422,-0.73243 1.767578,-0.73243 1.035156,0 1.767578,0.73243 0.732422,0.73242 0.732422,1.76757 z"
         style="font-style:normal;font-variant:normal;font-weight:normal;font-stretch:normal;font-size:8.75px;line-height:125%;font-family:FontAwesome;-inkscape-font-specification:'FontAwesome, Normal';text-align:start;writing-mode:lr-tb;text-anchor:start;fill:#ffffff;fill-opacity:1"
         id="path4156" />
    </g>
    <g
       transform="matrix(9.8960968,0,0,9.8960968,-522.37349,-1315.9016)"
       style="font-style:normal;font-variant:normal;font-weight:normal;font-stretch:normal;font-size:8.75px;line-height:125%;font-family:FontAwesome;-inkscape-font-specification:'FontAwesome, Normal';text-align:start;letter-spacing:0px;word-spacing:0px;writing-mode:lr-tb;text-anchor:start;display:inline;fill:#ffffff;fill-opacity:1;stroke:none;stroke-width:1px;stroke-linecap:butt;stroke-linejoin:miter;stroke-opacity:1"
       id="text4800">
      <path
         inkscape:connector-curvature="0"
         d="m 62.69051,144.29721 q 0,0.13184 -0.04883,0.34668 -0.04883,0.20996 -0.102539,0.33203 -0.102539,0.24414 -0.595704,0.51758 -0.458984,0.24902 -0.908203,0.24902 -0.131836,0 -0.258789,-0.0147 -0.12207,-0.0195 -0.27832,-0.0635 -0.15625,-0.0439 -0.234375,-0.0684 -0.07324,-0.0293 -0.268555,-0.10254 -0.195312,-0.0732 -0.239258,-0.0879 -0.478515,-0.1709 -0.854492,-0.40527 -0.625,-0.38575 -1.293945,-1.04981 -0.664063,-0.66894 -1.049805,-1.29394 -0.234375,-0.37598 -0.405273,-0.8545 -0.01465,-0.0439 -0.08789,-0.23925 -0.07324,-0.19532 -0.102539,-0.26856 -0.02441,-0.0781 -0.06836,-0.23437 -0.04395,-0.15625 -0.06348,-0.27832 -0.01465,-0.12696 -0.01465,-0.25879 0,-0.44922 0.249023,-0.90821 0.273438,-0.49316 0.517578,-0.5957 0.122071,-0.0537 0.332032,-0.10254 0.214843,-0.0488 0.346679,-0.0488 0.06836,0 0.102539,0.0146 0.08789,0.0293 0.258789,0.3711 0.05371,0.0928 0.146485,0.26367 0.09277,0.1709 0.170898,0.3125 0.07813,0.13672 0.151367,0.25879 0.01465,0.0195 0.08301,0.12207 0.07324,0.10254 0.107422,0.17578 0.03418,0.0684 0.03418,0.13672 0,0.0977 -0.141602,0.24414 -0.136719,0.14648 -0.302734,0.26855 -0.161133,0.12207 -0.302735,0.25879 -0.136718,0.13672 -0.136718,0.22461 0,0.0439 0.02441,0.11231 0.02441,0.0635 0.03906,0.0976 0.01953,0.0342 0.06836,0.11719 0.05371,0.083 0.05859,0.0928 0.371094,0.66895 0.84961,1.14746 0.478515,0.47852 1.147461,0.84961 0.0098,0.005 0.09277,0.0586 0.08301,0.0488 0.117188,0.0684 0.03418,0.0146 0.09766,0.0391 0.06836,0.0244 0.112305,0.0244 0.08789,0 0.224609,-0.13672 0.136719,-0.1416 0.258789,-0.30273 0.12207,-0.16602 0.268555,-0.30274 0.146484,-0.1416 0.24414,-0.1416 0.06836,0 0.136719,0.0342 0.07324,0.0342 0.175781,0.10742 0.102539,0.0684 0.122071,0.083 0.12207,0.0732 0.258789,0.15137 0.141601,0.0781 0.3125,0.1709 0.170898,0.0928 0.263672,0.14648 0.341796,0.1709 0.371093,0.25879 0.01465,0.0342 0.01465,0.10254 z"
         style="font-style:normal;font-variant:normal;font-weight:normal;font-stretch:normal;font-size:8.75px;line-height:125%;font-family:FontAwesome;-inkscape-font-specification:'FontAwesome, Normal';text-align:start;writing-mode:lr-tb;text-anchor:start;fill:#ffffff;fill-opacity:1"
         id="path4159" />
    </g>
  </g>
</svg>
