<?xml version="1.0" encoding="UTF-8" standalone="no"?>
<!-- Created with Inkscape (http://www.inkscape.org/) -->

<svg
   xmlns:dc="http://purl.org/dc/elements/1.1/"
   xmlns:cc="http://creativecommons.org/ns#"
   xmlns:rdf="http://www.w3.org/1999/02/22-rdf-syntax-ns#"
   xmlns:svg="http://www.w3.org/2000/svg"
   xmlns="http://www.w3.org/2000/svg"
   xmlns:sodipodi="http://sodipodi.sourceforge.net/DTD/sodipodi-0.dtd"
   xmlns:inkscape="http://www.inkscape.org/namespaces/inkscape"
   width="111.27941"
   height="222.56003"
   viewBox="0 0 111.27941 222.56004"
   id="svg4629"
   version="1.1"
   inkscape:version="0.91 r13725"
   sodipodi:docname="icon.svg">
  <defs
     id="defs4631" />
  <sodipodi:namedview
     id="base"
     pagecolor="#000000"
     bordercolor="#666666"
     borderopacity="1.0"
     inkscape:pageopacity="1"
     inkscape:pageshadow="2"
     inkscape:zoom="2.8284271"
     inkscape:cx="66.282198"
     inkscape:cy="113.29967"
     inkscape:document-units="px"
     inkscape:current-layer="layer1"
     showgrid="false"
     fit-margin-top="0"
     fit-margin-left="0"
     fit-margin-right="0"
     fit-margin-bottom="0"
     inkscape:showpageshadow="false"
     inkscape:window-width="997"
     inkscape:window-height="1056"
     inkscape:window-x="0"
     inkscape:window-y="0"
     inkscape:window-maximized="0"
     units="px" />
  <metadata
     id="metadata4634">
    <rdf:RDF>
      <cc:Work
         rdf:about="">
        <dc:format>image/svg+xml</dc:format>
        <dc:type
           rdf:resource="http://purl.org/dc/dcmitype/StillImage" />
        <dc:title></dc:title>
      </cc:Work>
    </rdf:RDF>
  </metadata>
  <g
     inkscape:label="Capa 1"
     inkscape:groupmode="layer"
     id="layer1"
     transform="translate(-143.84061,-639.38541)">
    <path
       id="path5889-5"
       d="m 184.40217,639.38541 -0.57053,27.65684 -34.36729,-0.70636 19.18048,19.96835 -24.80422,23.79901 27.65684,0.57053 -0.70636,34.34013 19.96835,-19.15332 23.79901,24.80423 0.57053,-27.65685 34.36729,0.70637 -19.15332,-19.96835 24.77707,-23.79902 -27.65685,-0.57053 0.70637,-34.36729 -19.96835,19.15331 -23.79902,-24.77705 z m 15.07814,48.68473 c 3.85305,0 6.95496,3.10192 6.95496,6.95497 0,3.85304 -3.10191,6.95496 -6.95496,6.95496 -3.85305,0 -6.95496,-3.10192 -6.95496,-6.95496 0,-3.85305 3.10191,-6.95497 6.95496,-6.95497 z"
       style="display:inline;fill:#1f4582;fill-opacity:1;stroke:none"
       inkscape:connector-curvature="0" />
    <path
       id="path5891-8"
       d="m 213.02672,756.28843 -21.39421,22.27343 -17.94248,-17.22609 0.65127,30.90276 -24.8785,0.52101 22.27342,21.39422 -17.22608,17.94251 30.90275,-0.65133 0.52101,24.87851 21.39421,-22.30595 17.94248,17.22605 -0.65127,-30.87021 24.87852,-0.52093 -22.30599,-21.39427 17.25865,-17.94248 -30.90276,0.61872 -0.52102,-24.84595 z m -13.5464,41.68127 c 4.61829,0 8.33624,3.71797 8.33624,8.33625 0,4.61828 -3.71795,8.33625 -8.33624,8.33625 -4.61829,0 -8.33625,-3.71797 -8.33625,-8.33625 0,-4.61828 3.71797,-8.33625 8.33625,-8.33625 z"
       style="display:inline;fill:#ffffff;fill-opacity:1;stroke:none"
       inkscape:connector-curvature="0" />
  </g>
</svg>
