<?xml version="1.0" encoding="UTF-8" standalone="no"?>
<!-- Created with Inkscape (http://www.inkscape.org/) -->

<svg
   xmlns:dc="http://purl.org/dc/elements/1.1/"
   xmlns:cc="http://creativecommons.org/ns#"
   xmlns:rdf="http://www.w3.org/1999/02/22-rdf-syntax-ns#"
   xmlns:svg="http://www.w3.org/2000/svg"
   xmlns="http://www.w3.org/2000/svg"
   xmlns:sodipodi="http://sodipodi.sourceforge.net/DTD/sodipodi-0.dtd"
   xmlns:inkscape="http://www.inkscape.org/namespaces/inkscape"
   width="347.54977"
   height="111.2159"
   viewBox="0 0 347.54976 111.2159"
   id="svg4456"
   version="1.1"
   inkscape:version="0.91 r13725"
   sodipodi:docname="text.svg">
  <defs
     id="defs4458" />
  <sodipodi:namedview
     id="base"
     pagecolor="#000000"
     bordercolor="#666666"
     borderopacity="1.0"
     inkscape:pageopacity="1"
     inkscape:pageshadow="2"
     inkscape:zoom="0.87226562"
     inkscape:cx="136.88648"
     inkscape:cy="98.851551"
     inkscape:document-units="px"
     inkscape:current-layer="layer1"
     showgrid="false"
     fit-margin-top="0"
     fit-margin-left="0"
     fit-margin-right="0"
     fit-margin-bottom="0"
     inkscape:showpageshadow="false"
     inkscape:window-width="997"
     inkscape:window-height="1056"
     inkscape:window-x="0"
     inkscape:window-y="0"
     inkscape:window-maximized="0"
     units="px" />
  <metadata
     id="metadata4461">
    <rdf:RDF>
      <cc:Work
         rdf:about="">
        <dc:format>image/svg+xml</dc:format>
        <dc:type
           rdf:resource="http://purl.org/dc/dcmitype/StillImage" />
        <dc:title></dc:title>
      </cc:Work>
    </rdf:RDF>
  </metadata>
  <g
     inkscape:label="Capa 1"
     inkscape:groupmode="layer"
     id="layer1"
     transform="translate(-370.9855,-614.12489)">
    <g
       style="display:inline"
       id="g4267"
       transform="translate(0.81713401,8893.2584)">
      <path
         inkscape:connector-curvature="0"
         id="path1"
         d="m 370.16837,-8279.1335 0,74.1439 4.634,0 0,-18.536 c 0,-7.6731 6.22887,-13.902 13.90199,-13.902 7.67311,0 13.90199,6.2289 13.90199,13.902 l 0,18.536 4.63399,0 0,-18.536 c 0,-10.2308 -8.30516,-18.536 -18.53598,-18.536 -5.53328,0 -10.50761,2.4537 -13.90199,6.3001 l 0,-43.372 z"
         style="display:inline;fill:#ffffff;fill-opacity:1;fill-rule:evenodd;stroke:none" />
      <path
         inkscape:connector-curvature="0"
         style="display:inline;fill:#ffffff;fill-opacity:1;fill-rule:evenodd;stroke:none"
         d="m 416.50834,-8204.9896 -4.634,0 0,-37.072 4.634,0 z"
         id="path2" />
      <path
         inkscape:connector-curvature="0"
         id="path3"
         d="m 439.67832,-8242.0616 c -10.22202,0 -18.53599,8.314 -18.53599,18.536 l 0,55.608 4.634,0 0,-43.2901 c 3.39147,3.8431 8.37348,6.2181 13.90199,6.2181 10.22202,0 18.53599,-8.314 18.53599,-18.536 0,-10.222 -8.31397,-18.536 -18.53599,-18.536 z m 0,4.634 c 7.66651,0 13.90199,6.2355 13.90199,13.902 0,7.6665 -6.23548,13.902 -13.90199,13.902 -7.66652,0 -13.90199,-6.2355 -13.90199,-13.902 0,-7.6665 6.23547,-13.902 13.90199,-13.902 z"
         style="display:inline;fill:#ffffff;fill-opacity:1;fill-rule:evenodd;stroke:none" />
      <path
         inkscape:connector-curvature="0"
         style="display:inline;fill:#ffffff;fill-opacity:1;stroke:none"
         d="m 476.7503,-8242.0616 c -10.23479,0 -18.53599,8.3012 -18.53599,18.536 0,10.2348 8.3012,18.536 18.53599,18.536 10.23479,0 18.53027,-8.2928 18.53598,-18.536 l -4.63399,0 c -0.0231,7.6783 -6.23205,13.902 -13.90199,13.902 -3.62833,0 -6.92727,-1.4032 -9.40114,-3.6816 l 25.4629,-19.4658 c -3.32767,-5.7548 -9.44102,-9.2906 -16.06176,-9.2906 z m 0,4.6535 c 3.54692,0 6.95926,1.3554 9.53219,3.785 l -21.80075,16.6148 c -1.03349,-1.9426 -1.62218,-4.1634 -1.62218,-6.5173 0,-7.6699 6.22079,-13.8825 13.89074,-13.8825 z"
         id="path4" />
      <path
         inkscape:connector-curvature="0"
         id="path5"
         d="m 513.82227,-8242.0616 c -10.23813,0 -18.53599,8.2979 -18.53599,18.536 l 0,18.536 4.634,0 0,-18.536 c 0,-7.6786 6.2234,-13.902 13.90199,-13.902 7.67858,0 13.90199,6.2234 13.90199,13.902 l 4.634,0 c 0,-10.2381 -8.29786,-18.536 -18.53599,-18.536 z"
         style="display:inline;fill:#ffffff;fill-opacity:1;fill-rule:evenodd;stroke:none" />
      <path
         inkscape:connector-curvature="0"
         style="display:inline;fill:#ffffff;fill-opacity:1;fill-rule:evenodd;stroke:none"
         d="m 586.36823,-8246.8228 c -0.90857,-0.9086 -0.90857,-2.3715 0,-3.2801 l 9.84018,-9.8402 c 0.9086,-0.9085 2.3715,-0.9085 3.28007,1e-4 0.90858,0.9085 0.90858,2.3714 0,3.28 l -9.8402,9.8402 c -0.90855,0.9086 -2.37147,0.9086 -3.28005,0 z"
         id="path7" />
      <path
         inkscape:connector-curvature="0"
         id="path8"
         d="m 587.96622,-8242.0616 c -10.24756,0 -18.53599,8.2885 -18.53599,18.536 0,10.2476 8.28843,18.536 18.53599,18.536 10.24753,0 18.70976,-8.2884 18.70976,-18.536 0,-10.2475 -8.46223,-18.536 -18.70976,-18.536 z m 0,4.634 c 7.68566,0 13.90199,6.2163 13.90199,13.902 0,7.6857 -6.21633,13.902 -13.90199,13.902 -7.68569,0 -13.90199,-6.2163 -13.90199,-13.902 0,-7.6857 6.2163,-13.902 13.90199,-13.902 z"
         style="display:inline;fill:#ffffff;fill-opacity:1;fill-rule:evenodd;stroke:none" />
      <path
         inkscape:connector-curvature="0"
         id="path11"
         d="m 699.18213,-8242.0616 c -10.23586,0 -18.53598,8.3001 -18.53598,18.536 0,10.2359 8.30012,18.536 18.53598,18.536 5.53601,0 10.50593,-2.4284 13.902,-6.2767 l 0,6.2767 4.634,0 0,-18.536 c 0,-10.2359 -8.30014,-18.536 -18.536,-18.536 z m 0,4.634 c 7.67689,0 13.902,6.283 13.902,13.9599 0,7.6769 -6.22511,13.8441 -13.902,13.8441 -7.67689,0 -13.90199,-6.2251 -13.90199,-13.902 0,-7.6769 6.2251,-13.902 13.90199,-13.902 z"
         style="display:inline;fill:#ffffff;fill-opacity:1;fill-rule:evenodd;stroke:none" />
      <path
         inkscape:connector-curvature="0"
         style="display:inline;fill:#ffffff;fill-opacity:1;fill-rule:evenodd;stroke:none"
         d="m 550.89424,-8204.9896 c -10.22202,0 -18.53598,-8.314 -18.53598,-18.536 l 0,-55.6079 4.63399,0 0,43.29 c 3.39148,-3.843 8.37348,-6.2181 13.90199,-6.2181 10.22202,0 18.53599,8.314 18.53599,18.536 0,10.222 -8.31397,18.536 -18.53599,18.536 z m 0,-4.634 c 7.66652,0 13.90199,-6.2355 13.90199,-13.902 0,-7.6665 -6.23547,-13.902 -13.90199,-13.902 -7.66652,0 -13.90199,6.2355 -13.90199,13.902 0,7.6665 6.23547,13.902 13.90199,13.902 z"
         id="path3014" />
      <path
         inkscape:connector-curvature="0"
         style="display:inline;fill:#ffffff;fill-opacity:1;fill-rule:evenodd;stroke:none"
         d="m 625.03819,-8242.0616 c -10.23812,0 -18.53598,8.2979 -18.53598,18.536 l 0,18.536 4.63399,0 0,-18.536 c 0,-7.6786 6.2234,-13.902 13.90199,-13.902 7.67859,0 13.90199,6.2234 13.90199,13.902 l 4.634,0 c 0,-10.2381 -8.29786,-18.536 -18.53599,-18.536 z"
         id="path3016" />
      <path
         inkscape:connector-curvature="0"
         id="path3018"
         d="m 662.11017,-8242.0616 c -10.23479,0 -18.53599,8.3012 -18.53599,18.536 0,10.2348 8.3012,18.536 18.53599,18.536 10.23479,0 18.53027,-8.2928 18.53598,-18.536 l -4.63399,0 c -0.0231,7.6783 -6.23205,13.902 -13.90199,13.902 -3.62833,0 -6.92727,-1.4032 -9.40114,-3.6816 l 25.4629,-19.4658 c -3.32767,-5.7548 -9.44102,-9.2906 -16.06176,-9.2906 z m 0,4.6535 c 3.54692,0 6.95926,1.3554 9.53219,3.785 l -21.80075,16.6148 c -1.03349,-1.9426 -1.62218,-4.1634 -1.62218,-6.5173 0,-7.6699 6.22079,-13.8825 13.89074,-13.8825 z"
         style="display:inline;fill:#ffffff;fill-opacity:1;stroke:none" />
    </g>
    <g
       transform="translate(0.75084401,349.72624)"
       style="font-style:normal;font-variant:normal;font-weight:normal;font-stretch:normal;font-size:25.74571228px;line-height:125%;font-family:'Helvetica Neue LT Com';-inkscape-font-specification:'Helvetica Neue LT Com, Normal';text-align:start;letter-spacing:0px;word-spacing:0px;writing-mode:lr-tb;text-anchor:start;display:inline;fill:#ffffff;fill-opacity:1;stroke:none;stroke-width:1px;stroke-linecap:butt;stroke-linejoin:miter;stroke-opacity:1"
       id="text4241">
      <path
         inkscape:connector-curvature="0"
         d="m 604.46719,352.68818 2.26562,0 0,18.38244 -2.26562,0 0,-18.38244 z"
         style="letter-spacing:-0.5px"
         id="path4397" />
      <path
         inkscape:connector-curvature="0"
         d="m 614.78361,371.07062 -2.26563,0 0,-16.37428 -4.60848,0 0,-2.00816 11.50834,0 0,2.00816 -4.63423,0 0,16.37428 z"
         style="letter-spacing:-0.5px"
         id="path4399" />
      <path
         inkscape:connector-curvature="0"
         d="m 635.51621,365.97297 q 0.2832,-0.69514 0.43767,-1.519 0.18022,-0.82386 0.28321,-2.05966 l 2.00816,0 q 0,0.51492 -0.15447,1.28729 -0.12873,0.77237 -0.3347,1.57049 -0.20596,0.79811 -0.48917,1.49325 -0.25745,0.66939 -0.51491,1.00408 l 2.36861,3.3212 -2.44585,0 -1.23579,-1.72497 q -1.05557,1.02983 -2.05966,1.57049 -0.97833,0.51492 -2.47159,0.51492 -1.67347,0 -2.75479,-0.56641 -1.05557,-0.5664 -1.67347,-1.36452 -0.59215,-0.79812 -0.82386,-1.67347 -0.20597,-0.87536 -0.20597,-1.49325 0,-1.46751 0.66939,-2.67756 0.66939,-1.21005 1.82795,-2.0854 l 1.33877,-1.00408 -0.5664,-0.92685 q -0.51492,-0.77237 -0.92685,-1.57049 -0.41193,-0.79811 -0.41193,-1.77645 0,-0.79812 0.2832,-1.46751 0.30895,-0.66939 0.82387,-1.13281 0.54066,-0.48917 1.23579,-0.74662 0.69514,-0.25746 1.46751,-0.25746 1.77645,0 2.83203,0.82386 1.05557,0.79812 1.05557,2.67756 0,0.66938 -0.23171,1.23579 -0.20597,0.56641 -0.56641,1.05557 -0.33469,0.48917 -0.79811,0.92685 -0.46343,0.41193 -0.92685,0.79812 l -0.66939,0.5664 3.63015,5.20064 z m -5.17489,-4.01633 q -1.10707,0.66938 -1.87944,1.69921 -0.74662,1.02983 -0.74662,2.49734 0,0.84961 0.25745,1.49325 0.28321,0.6179 0.74663,1.05557 0.46342,0.43768 1.08132,0.66939 0.6179,0.20597 1.28728,0.20597 1.08132,0 1.8537,-0.51492 0.77237,-0.51491 1.44176,-1.26154 l -4.04208,-5.84427 z m 1.08132,-3.01225 q 0.6179,-0.59215 1.13281,-1.21005 0.51491,-0.6179 0.51491,-1.54474 0,-0.79812 -0.51491,-1.28729 -0.51491,-0.51491 -1.33878,-0.51491 -0.82386,0 -1.33877,0.51491 -0.48917,0.48917 -0.48917,1.28729 0,0.61789 0.33469,1.28728 0.3347,0.66939 0.77237,1.31303 l 0.43768,0.6179 0.48917,-0.46342 z"
         style="letter-spacing:-0.5px"
         id="path4401" />
      <path
         inkscape:connector-curvature="0"
         d="m 653.61631,357.45114 q 0,-0.72088 -0.15448,-1.31304 -0.12873,-0.61789 -0.46342,-1.02982 -0.33469,-0.43768 -0.9011,-0.66939 -0.54066,-0.25746 -1.33878,-0.25746 -1.4675,0 -2.26562,0.77237 -0.77237,0.74663 -0.77237,2.21413 0,1.28729 0.64364,1.98242 0.64365,0.69514 1.59624,1.10707 0.97833,0.41193 2.0854,0.74662 1.13281,0.30895 2.0854,0.84961 0.97834,0.54066 1.62198,1.49325 0.64364,0.9526 0.64364,2.62607 0,1.59623 -0.54066,2.65181 -0.51491,1.05557 -1.33877,1.67347 -0.82387,0.61789 -1.85369,0.87535 -1.00409,0.25746 -1.98242,0.25746 -1.62198,0 -2.7033,-0.41193 -1.05558,-0.41194 -1.69922,-1.18431 -0.6179,-0.77237 -0.9011,-1.90518 -0.25746,-1.15856 -0.25746,-2.62606 l 2.26563,0 q 0,0.77237 0.0772,1.54474 0.0772,0.74663 0.41193,1.36452 0.3347,0.6179 1.02983,1.00409 0.69514,0.36044 1.93093,0.36044 0.66939,0 1.26154,-0.23172 0.59215,-0.23171 1.00408,-0.64364 0.43768,-0.43767 0.66939,-1.02983 0.25746,-0.59215 0.25746,-1.33877 0,-0.97834 -0.38619,-1.59624 -0.36044,-0.61789 -0.97833,-1.02983 -0.59216,-0.43767 -1.39027,-0.69513 -0.77237,-0.2832 -1.59624,-0.56641 -0.79811,-0.2832 -1.59623,-0.61789 -0.77237,-0.36044 -1.39027,-0.9011 -0.59215,-0.56641 -0.97834,-1.41602 -0.36044,-0.84961 -0.36044,-2.11115 0,-0.64364 0.18022,-1.49325 0.18022,-0.87535 0.74663,-1.67347 0.59215,-0.79812 1.64773,-1.33878 1.05557,-0.5664 2.80628,-0.5664 2.65181,0 3.86185,1.28728 1.2358,1.26154 1.28729,3.83612 l -2.26562,0 z"
         style="letter-spacing:-0.5px"
         id="path4403" />
      <path
         inkscape:connector-curvature="0"
         d="m 659.91318,364.42822 q 0,0.79812 0.0257,1.72497 0.0515,0.92684 0.30895,1.72496 0.25746,0.79812 0.77237,1.33878 0.54066,0.51491 1.54474,0.51491 0.77238,0 1.2358,-0.33469 0.46342,-0.36044 0.69513,-0.84961 0.25746,-0.51492 0.3347,-1.05558 0.0772,-0.5664 0.0772,-0.95259 l 2.16264,0 q 0,0.54066 -0.20596,1.39027 -0.18022,0.82386 -0.69514,1.62198 -0.51491,0.77237 -1.41601,1.33878 -0.9011,0.54066 -2.31711,0.54066 -2.54883,0 -3.68164,-1.75071 -1.10707,-1.75071 -1.10707,-5.32936 0,-1.28729 0.15448,-2.60032 0.18022,-1.33878 0.69513,-2.39435 0.54066,-1.08132 1.49325,-1.75071 0.97834,-0.69513 2.57457,-0.69513 1.57049,0 2.49734,0.61789 0.92684,0.6179 1.39027,1.59624 0.46342,0.95259 0.59215,2.13689 0.12873,1.1843 0.12873,2.29137 l 0,0.87535 -7.26029,0 z m 4.99466,-1.69921 0,-0.74663 q 0,-0.5664 -0.10298,-1.15856 -0.10298,-0.61789 -0.38618,-1.10706 -0.25746,-0.48917 -0.72088,-0.79812 -0.46343,-0.30895 -1.18431,-0.30895 -0.84961,0 -1.36452,0.46343 -0.48917,0.43767 -0.74663,1.02982 -0.25745,0.59216 -0.33469,1.21005 -0.0772,0.59215 -0.0772,0.9011 l 0,0.51492 4.91743,0 z"
         style="letter-spacing:-0.5px"
         id="path4405" />
      <path
         inkscape:connector-curvature="0"
         d="m 675.59074,361.46747 q 0,-0.48917 -0.12873,-1.00409 -0.10298,-0.51491 -0.36044,-0.92684 -0.23171,-0.41193 -0.66939,-0.66939 -0.41193,-0.25746 -1.02983,-0.25746 -0.51491,0 -1.00408,0.18022 -0.46342,0.18022 -0.84961,0.79812 -0.38619,0.59215 -0.6179,1.72496 -0.23171,1.13281 -0.23171,3.01225 0,0.66939 0.0257,1.59624 0.0515,0.92684 0.30895,1.77645 0.25745,0.84961 0.77237,1.44176 0.54066,0.59215 1.51899,0.59215 0.69514,0 1.13282,-0.33469 0.43767,-0.3347 0.69513,-0.82387 0.25746,-0.51491 0.33469,-1.10706 0.10299,-0.6179 0.10299,-1.1843 l 2.16264,0 q 0,0.82386 -0.23172,1.72496 -0.20596,0.9011 -0.74662,1.67347 -0.51491,0.74662 -1.39027,1.26154 -0.87535,0.48917 -2.16264,0.48917 -2.54882,0 -3.68164,-1.75071 -1.10706,-1.75071 -1.10706,-5.32936 0,-1.28729 0.15447,-2.60032 0.18022,-1.33878 0.69514,-2.39435 0.54066,-1.08132 1.49325,-1.75071 0.97834,-0.69513 2.57457,-0.69513 1.41601,0 2.26562,0.48916 0.87536,0.48917 1.33878,1.21005 0.48917,0.69514 0.64364,1.49325 0.15448,0.77238 0.15448,1.36453 l -2.16264,0 z"
         style="letter-spacing:-0.5px"
         id="path4407" />
      <path
         inkscape:connector-curvature="0"
         d="m 688.57586,371.07062 -2.05966,0 0,-1.62198 -0.0515,0 q -0.43768,0.95259 -1.39027,1.4675 -0.95259,0.51492 -1.95667,0.51492 -1.36452,0 -2.11115,-0.43768 -0.72088,-0.46342 -1.08132,-1.13281 -0.33469,-0.66939 -0.38618,-1.41601 -0.0515,-0.77238 -0.0515,-1.39027 l 0,-9.78337 2.16264,0 0,9.52591 q 0,0.38619 0.0258,0.87535 0.0515,0.48917 0.25746,0.92685 0.20596,0.41193 0.59215,0.69513 0.41193,0.28321 1.15855,0.28321 0.43768,0 0.9011,-0.15448 0.48917,-0.15447 0.9011,-0.48917 0.41194,-0.33469 0.66939,-0.8496 0.25746,-0.54066 0.25746,-1.28729 l 0,-9.52591 2.16264,0 0,13.7997 z"
         style="letter-spacing:-0.5px"
         id="path4409" />
      <path
         inkscape:connector-curvature="0"
         d="m 690.90507,357.27092 2.16264,0 0,2.05965 0.0515,0 q 0.23171,-0.48917 0.48917,-0.92684 0.2832,-0.43768 0.64364,-0.77237 0.36044,-0.3347 0.79812,-0.51492 0.46342,-0.20596 1.05557,-0.20596 0.64364,0 0.95259,0.15447 l 0,2.11115 q -0.15447,-0.0258 -0.41193,-0.0515 -0.23171,-0.0515 -0.74663,-0.0515 -0.41193,0 -0.9011,0.20596 -0.48916,0.18022 -0.92684,0.59215 -0.41193,0.38619 -0.72088,1.00409 -0.2832,0.61789 -0.2832,1.4675 l 0,8.7278 -2.16264,0 0,-13.7997 z"
         style="letter-spacing:-0.5px"
         id="path4411" />
      <path
         inkscape:connector-curvature="0"
         d="m 698.17705,352.68818 2.16264,0 0,2.47159 -2.16264,0 0,-2.47159 z m 0,4.58274 2.16264,0 0,13.7997 -2.16264,0 0,-13.7997 z"
         style="letter-spacing:-0.5px"
         id="path4413" />
      <path
         inkscape:connector-curvature="0"
         d="m 703.42156,353.25458 2.16264,0 0,4.01634 2.39436,0 0,1.69921 -2.39436,0 0,8.85653 q 0,0.82386 0.28321,1.1843 0.2832,0.36044 1.13281,0.36044 0.36044,0 0.5664,-0.0258 0.20597,-0.0257 0.38619,-0.0515 l 0,1.77646 q -0.20597,0.0515 -0.64364,0.10298 -0.43768,0.0515 -1.10707,0.0515 -0.84961,0 -1.39027,-0.15447 -0.54066,-0.18022 -0.84961,-0.51492 -0.30894,-0.36044 -0.43767,-0.87535 -0.10299,-0.51492 -0.10299,-1.1843 l 0,-9.52592 -2.00816,0 0,-1.69921 2.00816,0 0,-4.01634 z"
         style="letter-spacing:-0.5px"
         id="path4415" />
      <path
         inkscape:connector-curvature="0"
         d="m 707.80722,357.27092 2.3686,0 2.72905,11.07065 0.0515,0 2.4201,-11.07065 2.3686,0 -3.99058,14.72654 q -0.20597,0.72088 -0.43768,1.36453 -0.23171,0.64364 -0.64364,1.13281 -0.38619,0.51491 -1.00409,0.79811 -0.61789,0.30895 -1.59623,0.30895 -0.64364,0 -0.97834,-0.0257 -0.30895,-0.0258 -0.59215,-0.0515 l 0,-1.69922 q 0.46342,0.0772 1.26154,0.0772 0.74663,0 1.10707,-0.38619 0.38618,-0.38619 0.59215,-0.95259 l 0.41193,-1.21005 -4.06782,-14.0829 z"
         style="letter-spacing:-0.5px"
         id="path4417" />
    </g>
  </g>
</svg>
