<?xml version="1.0" encoding="UTF-8" standalone="no"?>
<!-- Created with Inkscape (http://www.inkscape.org/) -->

<svg
   xmlns:dc="http://purl.org/dc/elements/1.1/"
   xmlns:cc="http://creativecommons.org/ns#"
   xmlns:rdf="http://www.w3.org/1999/02/22-rdf-syntax-ns#"
   xmlns:svg="http://www.w3.org/2000/svg"
   xmlns="http://www.w3.org/2000/svg"
   xmlns:sodipodi="http://sodipodi.sourceforge.net/DTD/sodipodi-0.dtd"
   xmlns:inkscape="http://www.inkscape.org/namespaces/inkscape"
   width="1920"
   height="1080"
   id="svg2"
   version="1.1"
   inkscape:version="0.48.4 r9939"
   sodipodi:docname="background2.svg">
  <defs
     id="defs4">
    <inkscape:perspective
       sodipodi:type="inkscape:persp3d"
       inkscape:vp_x="307.08637 : 564.24366 : 1"
       inkscape:vp_y="966.06092 : 867.04556 : 1"
       inkscape:vp_z="1909.8985 : 1164.2743 : 1"
       inkscape:persp3d-origin="960 : 360 : 1"
       id="perspective3790" />
  </defs>
  <sodipodi:namedview
     id="base"
     pagecolor="#ffffff"
     bordercolor="#666666"
     borderopacity="1.0"
     inkscape:pageopacity="0.0"
     inkscape:pageshadow="2"
     inkscape:zoom="0.28885244"
     inkscape:cx="811.13506"
     inkscape:cy="284.85909"
     inkscape:document-units="px"
     inkscape:current-layer="layer4"
     showgrid="false"
     inkscape:showpageshadow="false"
     inkscape:window-width="1360"
     inkscape:window-height="743"
     inkscape:window-x="0"
     inkscape:window-y="0"
     inkscape:window-maximized="1" />
  <metadata
     id="metadata7">
    <rdf:RDF>
      <cc:Work
         rdf:about="">
        <dc:format>image/svg+xml</dc:format>
        <dc:type
           rdf:resource="http://purl.org/dc/dcmitype/StillImage" />
        <dc:title />
      </cc:Work>
    </rdf:RDF>
  </metadata>
  <g
     inkscape:groupmode="layer"
     id="layer2"
     inkscape:label="landscape"
     style="display:inline"
     sodipodi:insensitive="true">
    <rect
       style="fill:#002255;fill-opacity:1;fill-rule:evenodd;stroke:none"
       id="rect2985-3"
       width="1920"
       height="1080"
       x="0"
       y="0" />
  </g>
  <g
     inkscape:groupmode="layer"
     id="layer4"
     inkscape:label="aura">
    <path
       transform="matrix(2.2213068,0,0,2.2213068,-1020.1364,-185.78583)"
       d="m 1142.8572,588.57141 a 251.42857,251.42857 0 1 1 -502.85718,0 251.42857,251.42857 0 1 1 502.85718,0 z"
       sodipodi:ry="251.42857"
       sodipodi:rx="251.42857"
       sodipodi:cy="588.57141"
       sodipodi:cx="891.42859"
       id="path3778"
       style="fill:#ff6600;fill-opacity:0.03921569000000000;fill-rule:evenodd;stroke:none;display:inline"
       sodipodi:type="arc" />
    <path
       sodipodi:type="arc"
       style="fill:#ff6600;fill-opacity:0.07843138;fill-rule:evenodd;stroke:none;display:inline"
       id="path3774"
       sodipodi:cx="891.42859"
       sodipodi:cy="588.57141"
       sodipodi:rx="251.42857"
       sodipodi:ry="251.42857"
       d="m 1142.8572,588.57141 a 251.42857,251.42857 0 1 1 -502.85718,0 251.42857,251.42857 0 1 1 502.85718,0 z"
       transform="matrix(2.2153409,0,0,2.2153409,-1014.8182,-182.27447)" />
    <path
       transform="matrix(2.1477273,0,0,2.1477273,-954.54552,-142.47904)"
       d="m 1142.8572,588.57141 a 251.42857,251.42857 0 1 1 -502.85718,0 251.42857,251.42857 0 1 1 502.85718,0 z"
       sodipodi:ry="251.42857"
       sodipodi:rx="251.42857"
       sodipodi:cy="588.57141"
       sodipodi:cx="891.42859"
       id="path3772"
       style="fill:#ff6600;fill-opacity:0.15686275;fill-rule:evenodd;stroke:none;display:inline"
       sodipodi:type="arc" />
    <path
       sodipodi:type="arc"
       style="fill:#ff6600;fill-opacity:0.3137255;fill-rule:evenodd;stroke:none;display:inline"
       id="path3770"
       sodipodi:cx="891.42859"
       sodipodi:cy="588.57141"
       sodipodi:rx="251.42857"
       sodipodi:ry="251.42857"
       d="m 1142.8572,588.57141 a 251.42857,251.42857 0 1 1 -502.85718,0 251.42857,251.42857 0 1 1 502.85718,0 z"
       transform="matrix(1.9090909,0,0,1.9090909,-741.81821,-2.024472)" />
    <path
       transform="matrix(1.4318182,0,0,1.4318182,-316.36368,278.88459)"
       d="m 1142.8572,588.57141 a 251.42857,251.42857 0 1 1 -502.85718,0 251.42857,251.42857 0 1 1 502.85718,0 z"
       sodipodi:ry="251.42857"
       sodipodi:rx="251.42857"
       sodipodi:cy="588.57141"
       sodipodi:cx="891.42859"
       id="path3768"
       style="fill:#ff6600;fill-opacity:0.47058824;fill-rule:evenodd;stroke:none;display:inline"
       sodipodi:type="arc" />
    <path
       sodipodi:type="arc"
       style="fill:#ff6600;fill-opacity:0.78431374;fill-rule:evenodd;stroke:none;display:inline"
       id="path3766"
       sodipodi:cx="891.42859"
       sodipodi:cy="588.57141"
       sodipodi:rx="251.42857"
       sodipodi:ry="251.42857"
       d="m 1142.8572,588.57141 a 251.42857,251.42857 0 1 1 -502.85718,0 251.42857,251.42857 0 1 1 502.85718,0 z"
       transform="matrix(0.47727272,0,0,0.47727272,534.54545,840.70277)" />
  </g>
  <g
     inkscape:groupmode="layer"
     id="layer3"
     inkscape:label="moon"
     style="display:inline"
     sodipodi:insensitive="true">
    <rect
       style="fill:#008000;fill-opacity:1;fill-rule:evenodd;stroke:none"
       id="rect2996"
       width="1920"
       height="25"
       x="0"
       y="1055" />
  </g>
  <g
     inkscape:label="layouts"
     inkscape:groupmode="layer"
     id="layer1"
     transform="translate(0,27.637817)"
     sodipodi:insensitive="true"
     style="display:none">
    <rect
       style="fill:#000000;fill-opacity:0.39215686;fill-rule:evenodd;stroke:none"
       id="rect2985"
       width="1920"
       height="1080"
       x="0"
       y="-27.637817" />
    <rect
       y="412.36218"
       x="780"
       height="640"
       width="360"
       id="rect3894"
       style="fill:#000000;fill-opacity:0.39215686;fill-rule:evenodd;stroke:none" />
    <rect
       style="fill:#000000;fill-opacity:0.39215686;fill-rule:evenodd;stroke:none"
       id="rect3892"
       width="320"
       height="480"
       x="800"
       y="572.36218" />
    <rect
       y="-1200"
       x="732.36218"
       height="480"
       width="320"
       id="rect3790"
       style="fill:#000000;fill-opacity:0.39215686;fill-rule:evenodd;stroke:none"
       transform="matrix(0,1,-1,0,0,0)" />
    <rect
       style="fill:#000000;fill-opacity:0.39215686;fill-rule:evenodd;stroke:none"
       id="rect3792"
       width="360"
       height="640"
       x="692.36218"
       y="-1280"
       transform="matrix(0,1,-1,0,0,0)" />
    <rect
       style="fill:#000000;fill-opacity:0.39215686;fill-rule:evenodd;stroke:none"
       id="rect3794"
       width="768"
       height="1024"
       x="576"
       y="28.362183" />
    <rect
       y="-1472"
       x="284.36218"
       height="1024"
       width="768"
       id="rect3796"
       style="fill:#000000;fill-opacity:0.39215686;fill-rule:evenodd;stroke:none"
       transform="matrix(0,1,-1,0,0,0)" />
    <rect
       transform="scale(-1,-1)"
       style="fill:#000000;fill-opacity:0.39215686;fill-rule:evenodd;stroke:none"
       id="rect3798"
       width="1280"
       height="800"
       x="-1600"
       y="-1052.3622" />
  </g>
</svg>
