<?xml version="1.0" encoding="UTF-8" standalone="no"?>
<!-- Created with Inkscape (http://www.inkscape.org/) -->

<svg
   xmlns:dc="http://purl.org/dc/elements/1.1/"
   xmlns:cc="http://creativecommons.org/ns#"
   xmlns:rdf="http://www.w3.org/1999/02/22-rdf-syntax-ns#"
   xmlns:svg="http://www.w3.org/2000/svg"
   xmlns="http://www.w3.org/2000/svg"
   xmlns:sodipodi="http://sodipodi.sourceforge.net/DTD/sodipodi-0.dtd"
   xmlns:inkscape="http://www.inkscape.org/namespaces/inkscape"
   width="128"
   height="128"
   id="svg2"
   version="1.1"
   inkscape:version="0.48.4 r9939"
   sodipodi:docname="icon1.svg">
  <defs
     id="defs4">
    <path
       sodipodi:type="arc"
       style="fill:none;stroke:#ffffff;stroke-opacity:1"
       id="path2996"
       sodipodi:cx="218"
       sodipodi:cy="130"
       sodipodi:rx="42"
       sodipodi:ry="42"
       d="m 213.48204,88.243707 a 42,42 0 1 1 -9.18067,2.053049"
       transform="matrix(0.72668183,0,0,0.72668183,32.86194,703.98486)"
       sodipodi:start="4.6046099"
       sodipodi:end="10.663338"
       sodipodi:open="true" />
  </defs>
  <sodipodi:namedview
     id="base"
     pagecolor="#000000"
     bordercolor="#666666"
     borderopacity="1.0"
     inkscape:pageopacity="1"
     inkscape:pageshadow="2"
     inkscape:zoom="2.8284271"
     inkscape:cx="7.3232926"
     inkscape:cy="44.160801"
     inkscape:document-units="px"
     inkscape:current-layer="g3381"
     showgrid="true"
     inkscape:showpageshadow="false"
     inkscape:window-width="1360"
     inkscape:window-height="743"
     inkscape:window-x="0"
     inkscape:window-y="0"
     inkscape:window-maximized="1">
    <inkscape:grid
       type="xygrid"
       id="grid2985"
       empspacing="2"
       visible="true"
       enabled="true"
       snapvisiblegridlinesonly="true"
       spacingx="4px"
       spacingy="4px" />
  </sodipodi:namedview>
  <metadata
     id="metadata7">
    <rdf:RDF>
      <cc:Work
         rdf:about="">
        <dc:format>image/svg+xml</dc:format>
        <dc:type
           rdf:resource="http://purl.org/dc/dcmitype/StillImage" />
        <dc:title />
      </cc:Work>
    </rdf:RDF>
  </metadata>
  <g
     inkscape:label="f"
     inkscape:groupmode="layer"
     id="layer1"
     transform="translate(0,-924.36218)"
     style="display:inline">
    <g
       id="g3381"
       transform="matrix(0.51904888,0,0,0.51904888,20.827776,463.74018)">
      <path
         d="m 108.0156,994.80233 11.66548,-2.35324 v 7.4154 l -11.74854,-2.0627 -0.0737,0.22035 7.99697,9.02606 -6.5434,3.8209 -4.18074,-11.3749 -0.13389,0.0748 -4.27766,11.3055 -6.294196,-3.8162 7.830826,-9.17364 v -0.1485 l -11.513213,2.13189 v -7.41537 l 11.374773,2.27493 0.0692,-0.15329 -7.775453,-9.25227 6.529543,-3.74219 4.11153,11.23617 h 0.15233 l 4.17612,-11.23617 6.46032,3.67776 -7.92773,9.3167 0.10148,0.22513 z m -33.418331,-0.22993 7.923126,-9.31669 -6.45571,-3.67777 -4.185367,11.23641 h -0.133817 l -4.12999,-11.23641 -6.534156,3.74243 7.793919,9.25203 -0.08307,0.15329 -11.379398,-2.27492 v 7.41572 l 11.527062,-2.132 v 0.1485 l -7.858522,9.17381 6.321888,3.816 4.263812,-11.30557 0.138441,-0.0738 4.189981,11.37497 6.534158,-3.8163 -7.996959,-9.02617 0.07843,-0.22035 11.74856,2.06267 v -7.41538 l -11.679342,2.35325 -0.08307,-0.22994 z m -33.344495,0 7.923124,-9.31669 -6.455707,-3.67777 -4.185367,11.23641 H 38.39176 l -4.111532,-11.23641 -6.529541,3.74243 7.77546,9.25203 -0.06922,0.15329 -11.384011,-2.27492 v 7.41572 l 11.522447,-2.132 v 0.1485 l -7.844677,9.17381 6.308043,3.816 4.268429,-11.30557 0.143037,-0.0738 4.185368,11.37497 6.534153,-3.821 -7.992341,-9.02602 0.07385,-0.22276 11.739331,2.06268 v -7.41538 l -11.670114,2.35325 -0.08768,-0.22515 z M 193.92402,941.63938 v 105.68172 c 0,13.4743 -10.91791,24.3875 -24.3831,24.3875 h -49.79063 v 14.2265 h 22.87417 c 5.03905,0 9.13214,4.0839 9.13214,9.1461 0,5.053 -4.09771,9.1322 -9.13214,9.1322 H 23.731456 c -5.052895,0 -9.145973,-4.084 -9.145973,-9.1322 0,-5.0483 4.09769,-9.1461 9.145973,-9.1461 h 22.864927 v -14.2265 H -3.1850191 c -13.4651589,0 -24.3877179,-10.9087 -24.3877179,-24.3831 V 941.63938 c 0,-13.46058 10.922559,-24.37842 24.3877179,-24.37842 H 169.55477 c 13.45134,0 24.36925,10.91784 24.36925,24.37842 z m -32.80921,35.15327 c 0,-6.62191 -5.37127,-11.97916 -12.00234,-11.97916 H 17.229599 c -6.635671,0 -12.0023549,5.3666 -12.0023549,11.9885 v 37.39581 c 0,6.6313 5.3712979,11.9934 12.0023549,11.9934 H 149.11247 c 6.63107,0 12.00234,-5.3714 12.00234,-11.9934 v -37.40515 z m -37.02225,39.51415 h 19.23792 v -7.4157 h -19.23792 v 7.4157 z"
         id="path3"
         inkscape:connector-curvature="0"
         style="fill:#ffffff" />
    </g>
  </g>
</svg>
