<?xml version="1.0" encoding="UTF-8" standalone="no"?>
<!-- Created with Inkscape (http://www.inkscape.org/) -->

<svg
   xmlns:dc="http://purl.org/dc/elements/1.1/"
   xmlns:cc="http://creativecommons.org/ns#"
   xmlns:rdf="http://www.w3.org/1999/02/22-rdf-syntax-ns#"
   xmlns:svg="http://www.w3.org/2000/svg"
   xmlns="http://www.w3.org/2000/svg"
   xmlns:sodipodi="http://sodipodi.sourceforge.net/DTD/sodipodi-0.dtd"
   xmlns:inkscape="http://www.inkscape.org/namespaces/inkscape"
   width="128"
   height="128"
   id="svg2"
   version="1.1"
   inkscape:version="0.48.4 r9939"
   sodipodi:docname="icon1.svg">
  <defs
     id="defs4">
    <path
       sodipodi:type="arc"
       style="fill:none;stroke:#ffffff;stroke-opacity:1"
       id="path2996"
       sodipodi:cx="218"
       sodipodi:cy="130"
       sodipodi:rx="42"
       sodipodi:ry="42"
       d="m 213.48204,88.243707 a 42,42 0 1 1 -9.18067,2.053049"
       transform="matrix(0.72668183,0,0,0.72668183,32.86194,703.98486)"
       sodipodi:start="4.6046099"
       sodipodi:end="10.663338"
       sodipodi:open="true" />
  </defs>
  <sodipodi:namedview
     id="base"
     pagecolor="#000000"
     bordercolor="#666666"
     borderopacity="1.0"
     inkscape:pageopacity="1"
     inkscape:pageshadow="2"
     inkscape:zoom="2"
     inkscape:cx="46.429355"
     inkscape:cy="70.639271"
     inkscape:document-units="px"
     inkscape:current-layer="layer1"
     showgrid="true"
     inkscape:showpageshadow="false"
     inkscape:window-width="1403"
     inkscape:window-height="1025"
     inkscape:window-x="315"
     inkscape:window-y="24"
     inkscape:window-maximized="0">
    <inkscape:grid
       type="xygrid"
       id="grid2985"
       empspacing="2"
       visible="true"
       enabled="true"
       snapvisiblegridlinesonly="true"
       spacingx="4px"
       spacingy="4px" />
  </sodipodi:namedview>
  <metadata
     id="metadata7">
    <rdf:RDF>
      <cc:Work
         rdf:about="">
        <dc:format>image/svg+xml</dc:format>
        <dc:type
           rdf:resource="http://purl.org/dc/dcmitype/StillImage" />
        <dc:title></dc:title>
      </cc:Work>
    </rdf:RDF>
  </metadata>
  <g
     inkscape:label="f"
     inkscape:groupmode="layer"
     id="layer1"
     transform="translate(0,-924.36218)"
     style="display:inline">
    <path
       style="fill:#ffffff;fill-opacity:1;fill-rule:evenodd;stroke:none;display:inline"
       d="m 38.41321,925.5184 c -5.370524,0 -9.694085,4.32356 -9.694085,9.69409 l 0,106.29941 c 0,5.3705 4.323561,9.6941 9.694085,9.6941 l 51.173585,0 c 5.370518,0 9.694085,-4.3236 9.694085,-9.6941 l 0,-106.29941 c 0,-5.37053 -4.323567,-9.69409 -9.694085,-9.69409 l -51.173585,0 z m 1.994744,13.55308 47.184097,0 c 1.655296,0 2.982795,1.3275 2.982795,2.98279 0,1.6553 -1.327499,2.9828 -2.982795,2.9828 l -47.184097,0 c -1.655296,0 -3.001438,-1.3275 -3.001438,-2.9828 0,-1.65529 1.346142,-2.98279 3.001438,-2.98279 z m 0,13.72086 47.184097,0 c 1.655296,0 2.982795,1.32749 2.982795,2.9828 0,1.65528 -1.327499,2.9828 -2.982795,2.9828 l -47.184097,0 c -1.655296,0 -3.001438,-1.32752 -3.001438,-2.9828 0,-1.65531 1.346142,-2.9828 3.001438,-2.9828 z m 0,13.57173 47.184097,0 c 1.655296,0 2.982795,1.32746 2.982795,2.98279 0,1.65533 -1.327499,2.9828 -2.982795,2.9828 l -47.184097,0 c -1.655296,0 -3.001438,-1.32747 -3.001438,-2.9828 0,-1.65533 1.346142,-2.98279 3.001438,-2.98279 z m 45.487632,20.15254 c 2.587307,0 4.67926,2.09195 4.67926,4.67922 0,2.58728 -2.091953,4.67932 -4.67926,4.67932 -2.587309,0 -4.679263,-2.09198 -4.679263,-4.67932 0,-2.58727 2.091954,-4.67922 4.679263,-4.67922 z M 38.674204,1010.062 c 0.702299,0 1.267688,0.5654 1.267688,1.2677 l 0,30.1263 c 0,0.7023 -0.565389,1.2676 -1.267688,1.2676 -0.702299,0 -1.267688,-0.5653 -1.267688,-1.2676 l 0,-30.1263 c 0,-0.7023 0.565389,-1.2677 1.267688,-1.2677 z m 8.445039,0 c 0.7023,0 1.267689,0.5654 1.267689,1.2677 l 0,30.1263 c 0,0.7023 -0.565389,1.2676 -1.267689,1.2676 -0.702299,0 -1.267688,-0.5653 -1.267688,-1.2676 l 0,-30.1263 c 0,-0.7023 0.565389,-1.2677 1.267688,-1.2677 z m 8.44504,0 c 0.702299,0 1.267688,0.5654 1.267688,1.2677 l 0,30.1263 c 0,0.7023 -0.565389,1.2676 -1.267688,1.2676 -0.702299,0 -1.267688,-0.5653 -1.267688,-1.2676 l 0,-30.1263 c 0,-0.7023 0.565389,-1.2677 1.267688,-1.2677 z m 8.426397,0 c 0.702299,0 1.267688,0.5654 1.267688,1.2677 l 0,30.1263 c 0,0.7023 -0.565389,1.2676 -1.267688,1.2676 -0.702299,0 -1.267688,-0.5653 -1.267688,-1.2676 l 0,-30.1263 c 0,-0.7023 0.565389,-1.2677 1.267688,-1.2677 z m 8.445039,0 c 0.702299,0 1.267688,0.5654 1.267688,1.2677 l 0,30.1263 c 0,0.7023 -0.565389,1.2676 -1.267688,1.2676 -0.702299,0 -1.267688,-0.5653 -1.267688,-1.2676 l 0,-30.1263 c 0,-0.7023 0.565389,-1.2677 1.267688,-1.2677 z m 8.44504,0 c 0.702299,0 1.267688,0.5654 1.267688,1.2677 l 0,30.1263 c 0,0.7023 -0.565389,1.2676 -1.267688,1.2676 -0.7023,0 -1.267689,-0.5653 -1.267689,-1.2676 l 0,-30.1263 c 0,-0.7023 0.565389,-1.2677 1.267689,-1.2677 z m 8.426399,0 c 0.702294,0 1.267688,0.5654 1.267688,1.2677 l 0,30.1263 c 0,0.7023 -0.565394,1.2676 -1.267688,1.2676 -0.702299,0 -1.267688,-0.5653 -1.267688,-1.2676 l 0,-30.1263 c 0,-0.7023 0.565389,-1.2677 1.267688,-1.2677 z"
       id="rect3006"
       inkscape:connector-curvature="0" />
  </g>
</svg>
