<?xml version="1.0" encoding="UTF-8" standalone="no"?>
<!-- Created with Inkscape (http://www.inkscape.org/) -->

<svg
   xmlns:dc="http://purl.org/dc/elements/1.1/"
   xmlns:cc="http://creativecommons.org/ns#"
   xmlns:rdf="http://www.w3.org/1999/02/22-rdf-syntax-ns#"
   xmlns:svg="http://www.w3.org/2000/svg"
   xmlns="http://www.w3.org/2000/svg"
   xmlns:sodipodi="http://sodipodi.sourceforge.net/DTD/sodipodi-0.dtd"
   xmlns:inkscape="http://www.inkscape.org/namespaces/inkscape"
   width="128"
   height="128"
   id="svg2"
   version="1.1"
   inkscape:version="0.48.4 r9939"
   sodipodi:docname="icon2.svg">
  <defs
     id="defs4">
    <path
       sodipodi:type="arc"
       style="fill:none;stroke:#ffffff;stroke-opacity:1"
       id="path2996"
       sodipodi:cx="218"
       sodipodi:cy="130"
       sodipodi:rx="42"
       sodipodi:ry="42"
       d="m 213.48204,88.243707 a 42,42 0 1 1 -9.18067,2.053049"
       transform="matrix(0.72668183,0,0,0.72668183,32.86194,703.98486)"
       sodipodi:start="4.6046099"
       sodipodi:end="10.663338"
       sodipodi:open="true" />
  </defs>
  <sodipodi:namedview
     id="base"
     pagecolor="#000000"
     bordercolor="#666666"
     borderopacity="1.0"
     inkscape:pageopacity="1"
     inkscape:pageshadow="2"
     inkscape:zoom="1.74"
     inkscape:cx="0.81240555"
     inkscape:cy="70.639271"
     inkscape:document-units="px"
     inkscape:current-layer="layer1"
     showgrid="true"
     inkscape:showpageshadow="false"
     inkscape:window-width="1360"
     inkscape:window-height="743"
     inkscape:window-x="0"
     inkscape:window-y="0"
     inkscape:window-maximized="1">
    <inkscape:grid
       type="xygrid"
       id="grid2985"
       empspacing="2"
       visible="true"
       enabled="true"
       snapvisiblegridlinesonly="true"
       spacingx="4px"
       spacingy="4px" />
  </sodipodi:namedview>
  <metadata
     id="metadata7">
    <rdf:RDF>
      <cc:Work
         rdf:about="">
        <dc:format>image/svg+xml</dc:format>
        <dc:type
           rdf:resource="http://purl.org/dc/dcmitype/StillImage" />
        <dc:title />
      </cc:Work>
    </rdf:RDF>
  </metadata>
  <g
     inkscape:label="f"
     inkscape:groupmode="layer"
     id="layer1"
     transform="translate(0,-924.36218)"
     style="display:inline">
    <g
       transform="matrix(2.5528431,0,0,2.5528431,0.1789225,924.5411)"
       id="Layer_64"
       style="fill:#ffffff">
      <g
         id="g66"
         style="fill:#ffffff">
        <path
           inkscape:connector-curvature="0"
           d="M 1.241,43.616 H 19.863 V 15.681 H 1.241 v 27.935 z m 9.704,-1.4 c -0.496,0 -0.897,-0.405 -0.897,-0.899 0,-0.495 0.401,-0.897 0.897,-0.897 0.496,0 0.898,0.402 0.898,0.897 10e-4,0.494 -0.402,0.899 -0.898,0.899 z M 3.934,18.373 H 17.172 L 17.171,38.984 H 3.934 V 18.373 z"
           id="path68"
           style="fill:#ffffff" />
        <polygon
           points="42.923,21.122 42.923,6.384 7.822,6.384 7.822,14.487 10.451,14.487 10.451,9.012 40.293,9.012 40.293,21.122 "
           id="polygon70"
           style="fill:#ffffff" />
        <rect
           x="21.063"
           y="26.899"
           width="13.829"
           height="2.628"
           id="rect72"
           style="fill:#ffffff" />
        <path
           inkscape:connector-curvature="0"
           d="M 36.252,22.142 V 43.18 H 48.759 V 22.142 H 36.252 z m 6.531,0.871 c 0.167,0 0.302,0.135 0.302,0.302 0,0.166 -0.135,0.303 -0.302,0.303 -0.167,0 -0.302,-0.137 -0.302,-0.303 0,-0.168 0.135,-0.302 0.302,-0.302 z m -1.799,1.009 h 3.598 v 0.289 h -3.598 v -0.289 z m 1.681,18.249 c -0.398,0 -0.721,-0.323 -0.721,-0.722 0,-0.397 0.322,-0.721 0.721,-0.721 0.397,0 0.721,0.323 0.721,0.721 0,0.399 -0.323,0.722 -0.721,0.722 z m 4.087,-2.477 c -3.248,0.018 -6.883,0.03 -8.493,0.017 V 25.346 l 8.493,-0.002 v 14.45 z"
           id="path74"
           style="fill:#ffffff" />
        <polygon
           points="21.063,30.603 21.063,32.197 30.333,32.197 30.333,32.894 21.063,32.894 21.063,34.335 34.893,34.335 34.893,30.603 25.87,30.603 24.869,30.603 "
           id="polygon76"
           style="fill:#ffffff" />
      </g>
    </g>
  </g>
</svg>
