<?xml version="1.0" encoding="UTF-8" standalone="no"?>
<!-- Created with Inkscape (http://www.inkscape.org/) -->

<svg
   xmlns:dc="http://purl.org/dc/elements/1.1/"
   xmlns:cc="http://creativecommons.org/ns#"
   xmlns:rdf="http://www.w3.org/1999/02/22-rdf-syntax-ns#"
   xmlns:svg="http://www.w3.org/2000/svg"
   xmlns="http://www.w3.org/2000/svg"
   xmlns:sodipodi="http://sodipodi.sourceforge.net/DTD/sodipodi-0.dtd"
   xmlns:inkscape="http://www.inkscape.org/namespaces/inkscape"
   width="128"
   height="128"
   id="svg2"
   version="1.1"
   inkscape:version="0.48.4 r9939"
   sodipodi:docname="icon1.svg">
  <defs
     id="defs4">
    <path
       sodipodi:type="arc"
       style="fill:none;stroke:#ffffff;stroke-opacity:1"
       id="path2996"
       sodipodi:cx="218"
       sodipodi:cy="130"
       sodipodi:rx="42"
       sodipodi:ry="42"
       d="m 213.48204,88.243707 a 42,42 0 1 1 -9.18067,2.053049"
       transform="matrix(0.72668183,0,0,0.72668183,32.86194,703.98486)"
       sodipodi:start="4.6046099"
       sodipodi:end="10.663338"
       sodipodi:open="true" />
  </defs>
  <sodipodi:namedview
     id="base"
     pagecolor="#000000"
     bordercolor="#666666"
     borderopacity="1.0"
     inkscape:pageopacity="1"
     inkscape:pageshadow="2"
     inkscape:zoom="2.8284271"
     inkscape:cx="-2.5073256"
     inkscape:cy="44.160801"
     inkscape:document-units="px"
     inkscape:current-layer="g3381"
     showgrid="true"
     inkscape:showpageshadow="false"
     inkscape:window-width="1360"
     inkscape:window-height="743"
     inkscape:window-x="0"
     inkscape:window-y="0"
     inkscape:window-maximized="1">
    <inkscape:grid
       type="xygrid"
       id="grid2985"
       empspacing="2"
       visible="true"
       enabled="true"
       snapvisiblegridlinesonly="true"
       spacingx="4px"
       spacingy="4px" />
  </sodipodi:namedview>
  <metadata
     id="metadata7">
    <rdf:RDF>
      <cc:Work
         rdf:about="">
        <dc:format>image/svg+xml</dc:format>
        <dc:type
           rdf:resource="http://purl.org/dc/dcmitype/StillImage" />
        <dc:title />
      </cc:Work>
    </rdf:RDF>
  </metadata>
  <g
     inkscape:label="f"
     inkscape:groupmode="layer"
     id="layer1"
     transform="translate(0,-924.36218)"
     style="display:inline">
    <g
       id="g3381"
       transform="matrix(0.51904888,0,0,0.51904888,20.827776,463.74018)">
      <g
         id="g3003"
         transform="translate(-48.411624,-64.377672)">
        <circle
           style="fill:#f9f9f9"
           id="circle3"
           r="1.649"
           cy="28.476999"
           cx="14.47"
           sodipodi:cx="14.47"
           sodipodi:cy="28.476999"
           sodipodi:rx="1.649"
           sodipodi:ry="1.649"
           transform="matrix(4.0923629,0,0,4.0923629,-3.9845345,954.73717)"
           d="m 16.119,28.476999 c 0,0.910718 -0.738282,1.649 -1.649,1.649 -0.910717,0 -1.649,-0.738282 -1.649,-1.649 0,-0.910717 0.738283,-1.649 1.649,-1.649 0.910718,0 1.649,0.738283 1.649,1.649 z" />
        <circle
           style="fill:#f9f9f9"
           id="circle5"
           r="1.65"
           cy="28.476999"
           cx="23.681"
           sodipodi:cx="23.681"
           sodipodi:cy="28.476999"
           sodipodi:rx="1.65"
           sodipodi:ry="1.65"
           transform="matrix(4.0923629,0,0,4.0923629,-3.9845345,954.73717)"
           d="m 25.331,28.476999 c 0,0.91127 -0.73873,1.65 -1.65,1.65 -0.91127,0 -1.65,-0.73873 -1.65,-1.65 0,-0.91127 0.73873,-1.65 1.65,-1.65 0.91127,0 1.65,0.73873 1.65,1.65 z" />
        <circle
           style="fill:#f9f9f9"
           id="circle7"
           r="1.65"
           cy="28.476999"
           cx="32.891998"
           sodipodi:cx="32.891998"
           sodipodi:cy="28.476999"
           sodipodi:rx="1.65"
           sodipodi:ry="1.65"
           transform="matrix(4.0923629,0,0,4.0923629,-3.9845345,954.73717)"
           d="m 34.541998,28.476999 c 0,0.91127 -0.73873,1.65 -1.65,1.65 -0.91127,0 -1.65,-0.73873 -1.65,-1.65 0,-0.91127 0.73873,-1.65 1.65,-1.65 0.91127,0 1.65,0.73873 1.65,1.65 z" />
        <circle
           style="fill:#f9f9f9"
           id="circle9"
           r="1.65"
           cy="28.476999"
           cx="42.103001"
           sodipodi:cx="42.103001"
           sodipodi:cy="28.476999"
           sodipodi:rx="1.65"
           sodipodi:ry="1.65"
           transform="matrix(4.0923629,0,0,4.0923629,-3.9845345,954.73717)"
           d="m 43.753001,28.476999 c 0,0.91127 -0.738731,1.65 -1.65,1.65 -0.91127,0 -1.65,-0.73873 -1.65,-1.65 0,-0.91127 0.73873,-1.65 1.65,-1.65 0.911269,0 1.65,0.73873 1.65,1.65 z" />
        <path
           style="fill:#f9f9f9"
           id="path11"
           d="m 30.27673,1071.7624 v -0.9658 c 0,-15.8497 12.890943,-28.7447 28.740664,-28.7447 H 194.64649 c 1.35456,0 2.80326,0.1232 4.42793,0.3764 l 0.18416,0.03 0.15953,-0.098 c 4.92311,-2.9383 10.56649,-4.4934 16.31215,-4.4934 2.08712,0 4.15785,0.1997 6.15492,0.5935 l 1.96024,0.3807 -1.53055,-1.2768 c -7.7591,-6.4742 -17.58897,-10.0387 -27.66844,-10.0387 H 59.017394 c -23.858476,0 -43.268552,19.4101 -43.268552,43.2687 v 0.9656 c 0,23.8585 19.410076,43.2686 43.268552,43.2686 H 177.79822 v -14.5197 H 59.017394 c -15.849721,0 -28.740664,-12.895 -28.740664,-28.7447 z"
           inkscape:connector-curvature="0" />
        <path
           style="fill:#f9f9f9"
           id="path13"
           d="m 243.85714,1084.8335 h -3.55625 v -17.9982 c 0,-12.7355 -11.01254,-23.1015 -24.56646,-23.1015 -13.558,0 -24.57872,10.362 -24.57872,23.1015 v 17.9982 c 0,0 -1.59194,0 -3.55628,0 -1.96841,0 -3.56445,2.1567 -3.56445,4.8331 v 28.1921 c 0,2.6724 2.17714,4.8454 4.83309,4.8454 h 53.72453 c 2.67232,0 4.83309,-2.173 4.83309,-4.8454 v -28.1921 c -0.004,-2.6764 -1.59193,-4.8331 -3.56855,-4.8331 z m -28.12271,23.7275 c -3.33936,0 -6.0485,-2.7174 -6.0485,-6.0568 0,-3.3393 2.70914,-6.0444 6.0485,-6.0444 3.33937,0 6.04852,2.701 6.04852,6.0444 0,3.3394 -2.70505,6.0568 -6.04852,6.0568 z m 16.52497,-23.7275 h -33.04175 v -17.9982 c 0,-8.2871 7.40718,-15.0395 16.51678,-15.0395 9.10141,0 16.52497,6.7483 16.52497,15.0395 v 17.9982 z"
           inkscape:connector-curvature="0" />
      </g>
    </g>
  </g>
</svg>
