<?xml version="1.0" encoding="UTF-8" standalone="no"?>
<!-- Created with Inkscape (http://www.inkscape.org/) -->

<svg
   xmlns:dc="http://purl.org/dc/elements/1.1/"
   xmlns:cc="http://creativecommons.org/ns#"
   xmlns:rdf="http://www.w3.org/1999/02/22-rdf-syntax-ns#"
   xmlns:svg="http://www.w3.org/2000/svg"
   xmlns="http://www.w3.org/2000/svg"
   xmlns:sodipodi="http://sodipodi.sourceforge.net/DTD/sodipodi-0.dtd"
   xmlns:inkscape="http://www.inkscape.org/namespaces/inkscape"
   width="128"
   height="128"
   id="svg2"
   version="1.1"
   inkscape:version="0.48.4 r9939"
   sodipodi:docname="icon1.svg">
  <defs
     id="defs4">
    <path
       sodipodi:type="arc"
       style="fill:none;stroke:#ffffff;stroke-opacity:1"
       id="path2996"
       sodipodi:cx="218"
       sodipodi:cy="130"
       sodipodi:rx="42"
       sodipodi:ry="42"
       d="m 213.48204,88.243707 a 42,42 0 1 1 -9.18067,2.053049"
       transform="matrix(0.72668183,0,0,0.72668183,32.86194,703.98486)"
       sodipodi:start="4.6046099"
       sodipodi:end="10.663338"
       sodipodi:open="true" />
  </defs>
  <sodipodi:namedview
     id="base"
     pagecolor="#000000"
     bordercolor="#666666"
     borderopacity="1.0"
     inkscape:pageopacity="1"
     inkscape:pageshadow="2"
     inkscape:zoom="2.8284271"
     inkscape:cx="62.88243"
     inkscape:cy="61.51672"
     inkscape:document-units="px"
     inkscape:current-layer="layer1"
     showgrid="true"
     inkscape:showpageshadow="false"
     inkscape:window-width="1914"
     inkscape:window-height="1055"
     inkscape:window-x="0"
     inkscape:window-y="0"
     inkscape:window-maximized="1">
    <inkscape:grid
       type="xygrid"
       id="grid2985"
       empspacing="2"
       visible="true"
       enabled="true"
       snapvisiblegridlinesonly="true"
       spacingx="4px"
       spacingy="4px" />
  </sodipodi:namedview>
  <metadata
     id="metadata7">
    <rdf:RDF>
      <cc:Work
         rdf:about="">
        <dc:format>image/svg+xml</dc:format>
        <dc:type
           rdf:resource="http://purl.org/dc/dcmitype/StillImage" />
        <dc:title />
      </cc:Work>
    </rdf:RDF>
  </metadata>
  <g
     inkscape:label="f"
     inkscape:groupmode="layer"
     id="layer1"
     transform="translate(0,-924.36218)"
     style="display:inline">
    <path
       style="font-size:medium;font-style:normal;font-variant:normal;font-weight:normal;font-stretch:normal;text-indent:0;text-align:start;text-decoration:none;line-height:normal;letter-spacing:normal;word-spacing:normal;text-transform:none;direction:ltr;block-progression:tb;writing-mode:lr-tb;text-anchor:start;baseline-shift:baseline;color:#000000;fill:#ffffff;fill-opacity:1;stroke:none;stroke-width:2.03392577;marker:none;visibility:visible;display:inline;overflow:visible;enable-background:accumulate;font-family:Sans;-inkscape-font-specification:Sans"
       d="M 67.65625 0.25 L 66.78125 14.09375 C 66.126973 14.05774 65.473244 14.04187 64.8125 14.03125 L 64.8125 4 L 63.1875 4 L 63.1875 14.03125 C 62.537947 14.04169 61.893307 14.02755 61.25 14.0625 L 60.375 0.28125 L 59.59375 0.3125 L 60.46875 14.125 C 59.686843 14.17964 58.896585 14.253568 58.125 14.34375 L 56.40625 0.625 L 55.59375 0.71875 L 57.34375 14.4375 C 56.562403 14.54132 55.800764 14.673025 55.03125 14.8125 L 52.4375 1.21875 L 51.625 1.375 L 54.21875 14.96875 C 53.464981 15.118432 52.709903 15.285593 51.96875 15.46875 L 48.53125 2.0625 L 47.71875 2.28125 L 51.15625 15.65625 C 50.409969 15.853984 49.669658 16.081548 48.9375 16.3125 L 44.65625 3.15625 L 43.90625 3.40625 L 48.1875 16.5625 C 47.437594 16.812341 46.702386 17.091069 45.96875 17.375 L 40.875 4.5 L 40.125 4.78125 L 45.21875 17.65625 C 44.492855 17.950653 43.77096 18.266703 43.0625 18.59375 L 37.1875 6.09375 L 36.46875 6.4375 L 42.34375 18.9375 C 41.64849 19.272022 40.958198 19.603463 40.28125 19.96875 L 33.625 7.875 L 32.90625 8.25 L 39.5625 20.375 C 38.886407 20.754381 38.218697 21.153069 37.5625 21.5625 L 30.125 9.875 L 29.46875 10.34375 L 36.875 22 C 36.330972 22.351926 35.810462 22.72154 35.28125 23.09375 L 27.125 11.875 L 25.8125 12.8125 L 33.96875 24.03125 C 33.453281 24.419251 32.937204 24.811544 32.4375 25.21875 L 23.625 14.59375 L 23 15.0625 L 31.8125 25.71875 C 31.221976 26.215759 30.660472 26.757877 30.09375 27.28125 L 20.625 17.1875 L 20 17.75 L 29.5 27.84375 C 28.93209 28.385682 28.385682 28.93209 27.84375 29.5 L 17.75 20 L 17.1875 20.59375 L 27.28125 30.0625 C 26.762426 30.623789 26.242954 31.196581 25.75 31.78125 L 15.09375 22.96875 L 14.5625 23.625 L 25.21875 32.4375 C 24.727271 33.040619 24.24467 33.655247 23.78125 34.28125 L 12.59375 26.15625 L 12.125 26.78125 L 23.34375 34.9375 C 22.889405 35.571939 22.424915 36.187653 22 36.84375 L 10.3125 29.4375 L 9.875 30.125 L 21.5625 37.53125 C 21.148044 38.194716 20.75872 38.878675 20.375 39.5625 L 8.28125 32.90625 L 7.90625 33.625 L 19.96875 40.25 C 19.603166 40.926594 19.272342 41.61759 18.9375 42.3125 L 6.4375 36.4375 L 6.09375 37.15625 L 18.59375 43.0625 C 18.266703 43.77096 17.950653 44.492855 17.65625 45.21875 L 4.78125 40.125 L 4.53125 40.875 L 17.375 45.96875 C 17.14342 46.567117 16.92771 47.172001 16.71875 47.78125 L 3.5625 43.5 L 3.0625 45.03125 L 16.1875 49.3125 C 15.997951 49.930541 15.822233 50.55952 15.65625 51.1875 L 2.3125 47.75 L 2.09375 48.5 L 15.46875 51.9375 C 15.282725 52.688291 15.120414 53.455001 14.96875 54.21875 L 1.40625 51.625 L 1.25 52.4375 L 14.8125 55.03125 C 14.674855 55.790671 14.540425 56.54155 14.4375 57.3125 L 0.75 55.59375 L 0.625 56.40625 L 14.34375 58.15625 C 14.25641 58.907527 14.178649 59.676441 14.125 60.4375 L 0.34375 59.5625 L 0.28125 60.40625 L 14.0625 61.28125 C 14.02119 62.049503 14.00624 62.816665 14 63.59375 L 0.1875 63.59375 L 0.1875 64.375 L 14 64.375 C 14.0058 65.162698 14.02063 65.940119 14.0625 66.71875 L 0.28125 67.59375 L 0.3125 68.40625 L 14.125 67.53125 C 14.17964 68.313157 14.253568 69.103415 14.34375 69.875 L 0.65625 71.59375 L 0.75 72.40625 L 14.4375 70.65625 C 14.539952 71.427302 14.675321 72.177965 14.8125 72.9375 L 1.25 75.53125 L 1.375 76.34375 L 14.96875 73.75 C 15.12195 74.523997 15.28027 75.301799 15.46875 76.0625 L 2.0625 79.5 L 2.3125 80.25 L 15.65625 76.8125 C 15.822233 77.44048 15.997951 78.069459 16.1875 78.6875 L 3.0625 82.96875 L 3.5625 84.5 L 16.71875 80.21875 C 16.930847 80.837145 17.139603 81.45532 17.375 82.0625 L 4.53125 87.125 L 4.8125 87.875 L 17.65625 82.78125 C 17.950653 83.507145 18.266703 84.22904 18.59375 84.9375 L 6.09375 90.8125 L 6.4375 91.5625 L 18.9375 85.6875 C 19.272342 86.38241 19.603166 87.073406 19.96875 87.75 L 7.875 94.40625 L 8.28125 95.125 L 20.40625 88.46875 C 20.779227 89.132102 21.160573 89.793329 21.5625 90.4375 L 9.90625 97.84375 L 10.34375 98.5625 L 22.03125 91.15625 C 22.449997 91.802349 22.8652 92.437413 23.3125 93.0625 L 12.125 101.1875 L 12.59375 101.84375 L 23.78125 93.71875 C 24.249575 94.351379 24.721774 94.984497 25.21875 95.59375 L 14.59375 104.375 L 15.09375 105 L 25.75 96.1875 C 26.257244 96.789685 26.77784 97.391351 27.3125 97.96875 L 17.25 107.40625 L 17.78125 107.96875 L 27.84375 98.5 C 28.385682 99.06791 28.93209 99.614318 29.5 100.15625 L 20.03125 110.21875 L 20.59375 110.8125 L 30.09375 100.71875 C 30.660472 101.24212 31.221976 101.78424 31.8125 102.28125 L 23 112.9375 L 23.65625 113.40625 L 32.4375 102.78125 C 32.937204 103.18846 33.453281 103.58075 33.96875 103.96875 L 25.84375 115.15625 L 27.15625 116.125 L 35.28125 104.9375 C 35.812796 105.31106 36.359771 105.6469 36.90625 106 L 29.5 117.65625 L 30.15625 118.09375 L 37.5625 106.4375 C 38.218697 106.84693 38.886407 107.24562 39.5625 107.625 L 32.90625 119.71875 L 33.625 120.125 L 40.28125 108.03125 C 40.958198 108.39654 41.64849 108.72798 42.34375 109.0625 L 36.46875 121.5625 L 37.21875 121.9375 L 43.09375 109.40625 C 43.793818 109.72894 44.501673 110.05292 45.21875 110.34375 L 40.125 123.1875 L 40.90625 123.5 L 46 110.65625 C 46.721366 110.93476 47.450423 111.19193 48.1875 111.4375 L 43.90625 124.59375 L 44.65625 124.8125 L 48.9375 111.6875 C 49.679146 111.92144 50.431369 112.1439 51.1875 112.34375 L 47.75 125.71875 L 48.53125 125.9375 L 51.96875 112.53125 C 52.729727 112.71931 53.506984 112.8785 54.28125 113.03125 L 51.6875 126.59375 L 52.46875 126.75 L 55.0625 113.1875 C 55.811939 113.32286 56.551843 113.46095 57.3125 113.5625 L 55.59375 127.25 L 56.40625 127.375 L 58.125 113.65625 C 58.906734 113.74765 59.707676 113.82012 60.5 113.875 L 59.625 127.6875 L 60.40625 127.6875 L 61.28125 113.9375 C 61.914332 113.9715 62.548374 113.95855 63.1875 113.96875 L 63.1875 127.8125 L 64.8125 127.8125 L 64.8125 113.96875 C 65.462053 113.95835 66.106693 113.9727 66.75 113.9375 L 67.625 127.71875 L 68.40625 127.6875 L 67.53125 113.875 C 68.302721 113.8211 69.082322 113.74477 69.84375 113.65625 L 71.59375 127.375 L 72.40625 127.28125 L 70.6875 113.5625 C 71.45845 113.45957 72.209329 113.32515 72.96875 113.1875 L 75.5625 126.75 L 76.375 126.625 L 73.78125 113.03125 C 74.535019 112.88157 75.290097 112.71441 76.03125 112.53125 L 79.46875 125.9375 L 80.28125 125.71875 L 76.84375 112.34375 C 77.590031 112.14602 78.330342 111.91845 79.0625 111.6875 L 83.34375 124.84375 L 84.09375 124.59375 L 79.8125 111.4375 C 80.562406 111.18766 81.297614 110.90893 82.03125 110.625 L 87.125 123.5 L 87.875 123.1875 L 82.78125 110.34375 C 83.507145 110.04935 84.22904 109.7333 84.9375 109.40625 L 90.8125 121.90625 L 91.53125 121.59375 L 85.65625 109.09375 C 86.355455 108.75755 87.038057 108.39856 87.71875 108.03125 L 94.375 120.125 L 95.09375 119.75 L 88.4375 107.625 C 89.126203 107.23854 89.800701 106.82388 90.46875 106.40625 L 97.875 118.09375 L 98.53125 117.6875 L 91.125 106 C 91.676152 105.64347 92.214058 105.2836 92.75 104.90625 L 100.875 116.09375 L 102.1875 115.15625 L 94.0625 103.9375 C 94.577619 103.54906 95.094409 103.15763 95.59375 102.75 L 104.40625 113.40625 L 105 112.9375 L 96.1875 102.28125 C 96.778024 101.78424 97.339528 101.24212 97.90625 100.71875 L 107.40625 110.8125 L 108 110.25 L 98.5 100.15625 C 99.06791 99.614318 99.614318 99.06791 100.15625 98.5 L 110.25 107.96875 L 110.84375 107.375 L 100.75 97.90625 C 101.2682 97.344639 101.78892 96.772461 102.28125 96.1875 L 112.9375 105 L 113.46875 104.34375 L 102.8125 95.53125 C 103.29426 94.939004 103.76401 94.333022 104.21875 93.71875 L 115.40625 101.84375 L 115.875 101.21875 L 104.6875 93.0625 C 105.14831 92.418534 105.56951 91.760002 106 91.09375 L 117.6875 98.53125 L 118.125 97.84375 L 106.4375 90.4375 C 106.84693 89.781303 107.24562 89.113593 107.625 88.4375 L 119.75 95.09375 L 120.125 94.40625 L 108.03125 87.75 C 108.39683 87.073406 108.72766 86.38241 109.0625 85.6875 L 121.5625 91.5625 L 121.9375 90.8125 L 109.40625 84.90625 C 109.73295 84.19748 110.04972 83.476198 110.34375 82.75 L 123.21875 87.84375 L 123.5 87.125 L 110.625 82.03125 C 110.85658 81.432883 111.07229 80.827999 111.28125 80.21875 L 124.46875 84.5 L 124.96875 82.9375 L 111.8125 78.65625 C 111.99878 78.047574 112.18032 77.430807 112.34375 76.8125 L 125.75 80.25 L 125.9375 79.5 L 112.53125 76.0625 C 112.71728 75.311709 112.87959 74.544999 113.03125 73.78125 L 126.625 76.375 L 126.8125 75.5625 L 113.1875 72.96875 C 113.32697 72.199236 113.45868 71.437597 113.5625 70.65625 L 127.28125 72.40625 L 127.40625 71.59375 L 113.65625 69.84375 C 113.74355 69.092473 113.82135 68.323559 113.875 67.5625 L 127.71875 68.4375 L 127.75 67.59375 L 113.9375 66.71875 C 113.9788 65.950497 113.9938 65.183335 114 64.40625 L 127.875 64.40625 L 127.84375 63.625 L 114 63.625 C 113.994 62.826853 113.9804 62.038833 113.9375 61.25 L 127.75 60.40625 L 127.6875 59.59375 L 113.875 60.46875 C 113.8204 59.686843 113.74643 58.896585 113.65625 58.125 L 127.375 56.40625 L 127.3125 55.625 L 113.5625 57.34375 C 113.46005 56.572698 113.32468 55.822035 113.1875 55.0625 L 126.78125 52.46875 L 126.65625 51.65625 L 113.03125 54.25 C 112.87805 53.476003 112.71973 52.698201 112.53125 51.9375 L 125.9375 48.5 L 125.75 47.75 L 112.34375 51.1875 C 112.18032 50.569193 111.99878 49.952426 111.8125 49.34375 L 124.96875 45.0625 L 124.46875 43.5 L 111.28125 47.78125 C 111.07229 47.172001 110.85658 46.567117 110.625 45.96875 L 123.5 40.875 L 123.21875 40.125 L 110.34375 45.21875 C 110.05292 44.501673 109.72894 43.793818 109.40625 43.09375 L 121.9375 37.1875 L 121.59375 36.4375 L 109.0625 42.34375 C 108.72798 41.64849 108.39654 40.958198 108.03125 40.28125 L 120.125 33.625 L 119.75 32.875 L 107.625 39.5625 C 107.24996 38.894139 106.84191 38.242673 106.4375 37.59375 L 118.15625 30.15625 L 117.6875 29.4375 L 106 36.875 C 105.57858 36.223536 105.13793 35.59889 104.6875 34.96875 L 115.90625 26.8125 L 115.4375 26.15625 L 104.21875 34.3125 C 103.75061 33.679446 103.27807 33.047175 102.78125 32.4375 L 113.46875 23.625 L 112.9375 23 L 102.28125 31.8125 C 101.78424 31.221976 101.24212 30.660472 100.71875 30.09375 L 110.8125 20.59375 L 110.28125 20.03125 L 100.1875 29.53125 C 99.646067 28.962859 99.098679 28.417431 98.53125 27.875 L 108 17.78125 L 107.4375 17.1875 L 97.9375 27.3125 C 97.360374 26.778574 96.789359 26.225299 96.1875 25.71875 L 105 15.0625 L 104.40625 14.5625 L 95.59375 25.21875 C 95.08787 24.806097 94.553304 24.424208 94.03125 24.03125 L 102.1875 12.84375 L 100.875 11.875 L 92.71875 23.09375 C 92.189538 22.72154 91.669028 22.351926 91.125 22 L 98.53125 10.3125 L 97.90625 9.875 L 90.46875 21.59375 C 89.808299 21.18087 89.149394 20.757418 88.46875 20.375 L 95.125 8.25 L 94.40625 7.84375 L 87.75 19.96875 C 87.073406 19.603166 86.38241 19.272342 85.6875 18.9375 L 91.5625 6.4375 L 90.8125 6.0625 L 84.9375 18.59375 C 84.241194 18.272314 83.525656 17.97741 82.8125 17.6875 L 87.90625 4.78125 L 87.125 4.5 L 82.03125 17.375 C 81.306823 17.094633 80.584048 16.809634 79.84375 16.5625 L 84.125 3.40625 L 83.375 3.15625 L 79.09375 16.3125 C 78.352304 16.078128 77.599692 15.856544 76.84375 15.65625 L 80.28125 2.25 L 79.5 2.0625 L 76.0625 15.46875 C 75.311709 15.282725 74.544999 15.120414 73.78125 14.96875 L 76.375 1.375 L 75.59375 1.21875 L 73 14.8125 C 72.230602 14.672553 71.468743 14.541799 70.6875 14.4375 L 72.4375 0.71875 L 71.625 0.625 L 69.90625 14.34375 C 69.124513 14.25189 68.323592 14.180366 67.53125 14.125 L 68.40625 0.3125 L 67.65625 0.25 z M 64 32 C 81.673112 32 96 46.326888 96 64 C 96 81.673112 81.673112 96 64 96 C 46.326888 96 32 81.673112 32 64 C 32 46.326888 46.326888 32 64 32 z "
       transform="translate(0,924.36218)"
       id="path3820" />
    <path
       style="fill:#ffffff;fill-opacity:1;fill-rule:evenodd;stroke:none"
       d="m 63.1875,924.39338 c -42.125,85.31252 -21.0625,42.65627 0,0 z m 1.625,0 c -43.208333,85.31252 -21.604167,42.65627 0,0 z m 0,0 0,3.96875 -0.8125,0 c 33.13709,0 60,26.86291 60,60 0,33.13707 -26.86291,60.00007 -60,60.00007 -33.13708,0 -60,-26.863 -60,-60.00007 0,-33.13709 26.86292,-60 60,-60 l -0.8125,0 0,-3.96875 C 28.21898,924.83227 0,953.28955 0,988.36218 c 0,35.34622 28.65378,64.00002 64,64.00002 35.34623,0 64,-28.6538 64,-64.00002 0,-35.07263 -28.21897,-63.52991 -63.1875,-63.96875 z"
       id="path2984"
       inkscape:connector-curvature="0"
       sodipodi:nodetypes="cccccccssscccssscc" />
  </g>
</svg>
