<?xml version="1.0" encoding="UTF-8" standalone="no"?>
<!-- Created with Inkscape (http://www.inkscape.org/) -->

<svg
   xmlns:dc="http://purl.org/dc/elements/1.1/"
   xmlns:cc="http://creativecommons.org/ns#"
   xmlns:rdf="http://www.w3.org/1999/02/22-rdf-syntax-ns#"
   xmlns:svg="http://www.w3.org/2000/svg"
   xmlns="http://www.w3.org/2000/svg"
   xmlns:sodipodi="http://sodipodi.sourceforge.net/DTD/sodipodi-0.dtd"
   xmlns:inkscape="http://www.inkscape.org/namespaces/inkscape"
   width="128"
   height="128"
   id="svg2"
   version="1.1"
   inkscape:version="0.48.4 r9939"
   sodipodi:docname="icon3.svg">
  <defs
     id="defs4">
    <path
       sodipodi:type="arc"
       style="fill:none;stroke:#ffffff;stroke-opacity:1"
       id="path2996"
       sodipodi:cx="218"
       sodipodi:cy="130"
       sodipodi:rx="42"
       sodipodi:ry="42"
       d="m 213.48204,88.243707 a 42,42 0 1 1 -9.18067,2.053049"
       transform="matrix(0.72668183,0,0,0.72668183,32.86194,703.98486)"
       sodipodi:start="4.6046099"
       sodipodi:end="10.663338"
       sodipodi:open="true" />
  </defs>
  <sodipodi:namedview
     id="base"
     pagecolor="#000000"
     bordercolor="#666666"
     borderopacity="1.0"
     inkscape:pageopacity="1"
     inkscape:pageshadow="2"
     inkscape:zoom="2"
     inkscape:cx="35.179355"
     inkscape:cy="70.639271"
     inkscape:document-units="px"
     inkscape:current-layer="layer1"
     showgrid="true"
     inkscape:showpageshadow="false"
     inkscape:window-width="1403"
     inkscape:window-height="1025"
     inkscape:window-x="315"
     inkscape:window-y="24"
     inkscape:window-maximized="0">
    <inkscape:grid
       type="xygrid"
       id="grid2985"
       empspacing="2"
       visible="true"
       enabled="true"
       snapvisiblegridlinesonly="true"
       spacingx="4px"
       spacingy="4px" />
  </sodipodi:namedview>
  <metadata
     id="metadata7">
    <rdf:RDF>
      <cc:Work
         rdf:about="">
        <dc:format>image/svg+xml</dc:format>
        <dc:type
           rdf:resource="http://purl.org/dc/dcmitype/StillImage" />
        <dc:title></dc:title>
      </cc:Work>
    </rdf:RDF>
  </metadata>
  <g
     inkscape:label="f"
     inkscape:groupmode="layer"
     id="layer1"
     transform="translate(0,-924.36218)"
     style="display:inline">
    <path
       inkscape:connector-curvature="0"
       style="fill:#ffffff;fill-opacity:1;fill-rule:evenodd;stroke:none;display:inline"
       d="m 18.448509,948.84654 c -2.225391,0 -4.018539,1.79315 -4.018539,4.01854 l 0,61.61762 -10.005999,0 c -2.3603829,0 -4.260619,1.9002 -4.260619,4.2606 l 0,4.8739 c 0,2.3604 1.9002361,4.2606 4.260619,4.2606 l 119.152059,0 c 2.36049,0 4.26062,-1.9002 4.26062,-4.2606 l 0,-4.8739 c 0,-2.3604 -1.90013,-4.2606 -4.26062,-4.2606 l -10.02211,0 0,-61.61762 c 0,-2.22539 -1.79334,-4.01853 -4.01852,-4.01853 l -91.086891,0 z m 4.74478,8.40827 81.613451,0 0,54.77479 -81.613451,0 0,-54.77479 z m 23.029937,62.11789 35.634268,0 c 1.001374,0 1.807535,0.8063 1.807535,1.8075 0,1.0016 -0.806161,1.8075 -1.807535,1.8075 l -35.634268,0 c -1.001375,0 -1.807536,-0.8059 -1.807536,-1.8075 0,-1.0012 0.806161,-1.8075 1.807536,-1.8075 z m 56.840534,0 c 0.99827,0 1.80753,0.8093 1.80753,1.8075 0,0.9983 -0.80926,1.8075 -1.80753,1.8075 -0.99828,0 -1.80754,-0.8092 -1.80754,-1.8075 0,-0.9982 0.80926,-1.8075 1.80754,-1.8075 z m 6.69753,0 c 0.99828,0 1.80754,0.8093 1.80754,1.8075 0,0.9983 -0.80926,1.8075 -1.80754,1.8075 -0.99817,0 -1.80753,-0.8092 -1.80753,-1.8075 0,-0.9982 0.80936,-1.8075 1.80753,-1.8075 z m 6.69759,0 c 0.99828,0 1.80754,0.8093 1.80754,1.8075 0,0.9983 -0.80926,1.8075 -1.80754,1.8075 -0.99827,0 -1.80753,-0.8092 -1.80753,-1.8075 0,-0.9981 0.80926,-1.8075 1.80753,-1.8075 z"
       id="rect3015" />
  </g>
</svg>
