<?xml version="1.0" encoding="UTF-8" standalone="no"?>
<!-- Created with Inkscape (http://www.inkscape.org/) -->

<svg
   xmlns:dc="http://purl.org/dc/elements/1.1/"
   xmlns:cc="http://creativecommons.org/ns#"
   xmlns:rdf="http://www.w3.org/1999/02/22-rdf-syntax-ns#"
   xmlns:svg="http://www.w3.org/2000/svg"
   xmlns="http://www.w3.org/2000/svg"
   xmlns:sodipodi="http://sodipodi.sourceforge.net/DTD/sodipodi-0.dtd"
   xmlns:inkscape="http://www.inkscape.org/namespaces/inkscape"
   width="128"
   height="128"
   id="svg2"
   version="1.1"
   inkscape:version="0.48.4 r9939"
   sodipodi:docname="icon1.svg">
  <defs
     id="defs4">
    <path
       sodipodi:type="arc"
       style="fill:none;stroke:#ffffff;stroke-opacity:1"
       id="path2996"
       sodipodi:cx="218"
       sodipodi:cy="130"
       sodipodi:rx="42"
       sodipodi:ry="42"
       d="m 213.48204,88.243707 a 42,42 0 1 1 -9.18067,2.053049"
       transform="matrix(0.72668183,0,0,0.72668183,32.86194,703.98486)"
       sodipodi:start="4.6046099"
       sodipodi:end="10.663338"
       sodipodi:open="true" />
  </defs>
  <sodipodi:namedview
     id="base"
     pagecolor="#000000"
     bordercolor="#666666"
     borderopacity="1.0"
     inkscape:pageopacity="1"
     inkscape:pageshadow="2"
     inkscape:zoom="5.6568542"
     inkscape:cx="58.026708"
     inkscape:cy="39.785929"
     inkscape:document-units="px"
     inkscape:current-layer="g3381"
     showgrid="true"
     inkscape:showpageshadow="false"
     inkscape:window-width="1403"
     inkscape:window-height="1025"
     inkscape:window-x="315"
     inkscape:window-y="24"
     inkscape:window-maximized="0">
    <inkscape:grid
       type="xygrid"
       id="grid2985"
       empspacing="2"
       visible="true"
       enabled="true"
       snapvisiblegridlinesonly="true"
       spacingx="4px"
       spacingy="4px" />
  </sodipodi:namedview>
  <metadata
     id="metadata7">
    <rdf:RDF>
      <cc:Work
         rdf:about="">
        <dc:format>image/svg+xml</dc:format>
        <dc:type
           rdf:resource="http://purl.org/dc/dcmitype/StillImage" />
        <dc:title />
      </cc:Work>
    </rdf:RDF>
  </metadata>
  <g
     inkscape:label="f"
     inkscape:groupmode="layer"
     id="layer1"
     transform="translate(0,-924.36218)"
     style="display:inline">
    <g
       id="g3381"
       transform="matrix(0.51904888,0,0,0.51904888,20.827776,463.74018)">
      <path
         inkscape:connector-curvature="0"
         id="rect3830"
         d="m 4.9450333,924.42468 c -8.91202,0 -16.0937503,7.18173 -16.0937503,16.09375 l 0,7.25 c 0,8.91205 7.1817303,16.09375 16.0937503,16.09375 l 156.4612167,0 c 8.91202,0 16.09375,-7.1817 16.09375,-16.09375 l 0,-7.25 c 0,-8.91202 -7.18173,-16.09375 -16.09375,-16.09375 z m 156.6487167,12.125 c 4.19814,0 7.59375,3.39561 7.59375,7.59375 0,4.19814 -3.39561,7.59375 -7.59375,7.59375 -4.19814,0 -7.59375,-3.39561 -7.59375,-7.59375 0,-4.19814 3.39561,-7.59375 7.59375,-7.59375 z m -35,3.53125 c 2.24551,0 4.0625,1.81699 4.0625,4.0625 0,2.24551 -1.81699,4.0625 -4.0625,4.0625 -2.24551,0 -4.0625,-1.81699 -4.0625,-4.0625 0,-2.24551 1.81699,-4.0625 4.0625,-4.0625 z m 15.71875,0 c 2.24551,0 4.0625,1.81699 4.0625,4.0625 0,2.24551 -1.81699,4.0625 -4.0625,4.0625 -2.24551,0 -4.0625,-1.81699 -4.0625,-4.0625 0,-2.24551 1.81699,-4.0625 4.0625,-4.0625 z"
         style="fill:#ffffff;fill-opacity:1;fill-rule:evenodd;stroke:none"
         sodipodi:nodetypes="ssssssssssssssssssssssss" />
      <path
         inkscape:connector-curvature="0"
         style="fill:#ffffff;fill-opacity:1;fill-rule:evenodd;stroke:none"
         d="m 4.9450333,972.17468 c -8.91202,0 -16.0937503,7.1817 -16.0937503,16.0937 l 0,7.25 c 0,8.91212 7.1817303,16.09382 16.0937503,16.09382 l 156.4612167,0 c 8.91202,0 16.09375,-7.1817 16.09375,-16.09382 l 0,-7.25 c 0,-8.912 -7.18173,-16.0937 -16.09375,-16.0937 z m 156.6487167,12.125 c 4.19814,0 7.59375,3.3956 7.59375,7.5937 0,4.1982 -3.39561,7.5938 -7.59375,7.5938 -4.19814,0 -7.59375,-3.3956 -7.59375,-7.5938 0,-4.1981 3.39561,-7.5937 7.59375,-7.5937 z m -35,3.5312 c 2.24551,0 4.0625,1.817 4.0625,4.0625 0,2.2456 -1.81699,4.0625 -4.0625,4.0625 -2.24551,0 -4.0625,-1.8169 -4.0625,-4.0625 0,-2.2455 1.81699,-4.0625 4.0625,-4.0625 z m 15.71875,0 c 2.24551,0 4.0625,1.817 4.0625,4.0625 0,2.2456 -1.81699,4.0625 -4.0625,4.0625 -2.24551,0 -4.0625,-1.8169 -4.0625,-4.0625 0,-2.2455 1.81699,-4.0625 4.0625,-4.0625 z"
         id="path3851"
         sodipodi:nodetypes="ssssssssssssssssssssssss" />
      <path
         inkscape:connector-curvature="0"
         id="path3853"
         d="m 4.9450333,1019.9247 c -8.91202,0 -16.0937503,7.1818 -16.0937503,16.0937 l 0,7.25 c 0,8.9122 7.1817303,16.0938 16.0937503,16.0938 l 84.8674667,0 0,11.4062 c -4.27178,2.4112 -7.15625,6.9638 -7.15625,12.2188 0,7.7617 6.26958,14.0625 14.03125,14.0625 7.76167,0 14.0625,-6.3008 14.0625,-14.0625 0,-5.255 -2.88447,-9.8077 -7.15625,-12.2188 l 0,-11.4062 57.8125,0 c 8.91202,0 16.09375,-7.1816 16.09375,-16.0938 l 0,-7.25 c 0,-8.912 -7.18173,-16.0937 -16.09375,-16.0937 z m 156.6487167,12.125 c 4.19814,0 7.59375,3.3956 7.59375,7.5937 0,4.1983 -3.39561,7.5938 -7.59375,7.5938 -4.19814,0 -7.59375,-3.3955 -7.59375,-7.5938 0,-4.1981 3.39561,-7.5937 7.59375,-7.5937 z m -35,3.5313 c 2.24551,0 4.0625,1.817 4.0625,4.0624 0,2.2456 -1.81699,4.0626 -4.0625,4.0626 -2.24551,0 -4.0625,-1.817 -4.0625,-4.0626 0,-2.2454 1.81699,-4.0624 4.0625,-4.0624 z m 15.71875,0 c 2.24551,0 4.0625,1.817 4.0625,4.0624 0,2.2456 -1.81699,4.0626 -4.0625,4.0626 -2.24551,0 -4.0625,-1.817 -4.0625,-4.0626 0,-2.2454 1.81699,-4.0624 4.0625,-4.0624 z"
         style="fill:#ffffff;fill-opacity:1;fill-rule:evenodd;stroke:none"
         sodipodi:nodetypes="ssssccsssccssssssssssssssssssss" />
      <path
         id="rect3859"
         d="m -9.3011972,1075.7372 0,14.5 85.7699472,0 c -0.80697,-2.2586 -1.25,-4.7141 -1.25,-7.25 0,-2.5498 0.4658,-4.9809 1.28125,-7.25 z m 126.2074472,0 c 0.81545,2.2691 1.28125,4.7002 1.28125,7.25 0,2.5359 -0.44303,4.9914 -1.25,7.25 l 55.4375,0 0,-14.5 z"
         style="fill:#ffffff;fill-opacity:1;fill-rule:evenodd;stroke:none"
         inkscape:connector-curvature="0"
         sodipodi:nodetypes="cccscccscccc" />
    </g>
  </g>
</svg>
