<?xml version="1.0" encoding="UTF-8" standalone="no"?>
<!-- Created with Inkscape (http://www.inkscape.org/) -->

<svg
   xmlns:dc="http://purl.org/dc/elements/1.1/"
   xmlns:cc="http://creativecommons.org/ns#"
   xmlns:rdf="http://www.w3.org/1999/02/22-rdf-syntax-ns#"
   xmlns:svg="http://www.w3.org/2000/svg"
   xmlns="http://www.w3.org/2000/svg"
   xmlns:sodipodi="http://sodipodi.sourceforge.net/DTD/sodipodi-0.dtd"
   xmlns:inkscape="http://www.inkscape.org/namespaces/inkscape"
   width="1328.754"
   height="425.21875"
   id="text"
   version="1.1"
   inkscape:version="0.48.4 r9939"
   sodipodi:docname="text.svg">
  <defs
     id="defs" />
  <sodipodi:namedview
     id="base"
     pagecolor="#ffffff"
     bordercolor="#666666"
     borderopacity="1.0"
     inkscape:pageopacity="0.0"
     inkscape:pageshadow="2"
     inkscape:zoom="0.5"
     inkscape:cx="1049.123"
     inkscape:cy="192.84734"
     inkscape:document-units="px"
     inkscape:current-layer="layer2"
     showgrid="false"
     units="px"
     inkscape:showpageshadow="false"
     objecttolerance="3"
     guidetolerance="3"
     inkscape:window-width="1180"
     inkscape:window-height="580"
     inkscape:window-x="522"
     inkscape:window-y="400"
     inkscape:window-maximized="0"
     showborder="true"
     showguides="false"
     inkscape:guide-bbox="true"
     borderlayer="false"
     fit-margin-top="0"
     fit-margin-left="0"
     fit-margin-right="0"
     fit-margin-bottom="0">
    <inkscape:grid
       type="xygrid"
       id="grid"
       empspacing="2"
       visible="true"
       enabled="true"
       snapvisiblegridlinesonly="true"
       units="cm"
       spacingx="1cm"
       spacingy="1cm"
       dotted="false"
       originx="0cm"
       originy="0.00023494206cm" />
  </sodipodi:namedview>
  <metadata
     id="metadata">
    <rdf:RDF>
      <cc:Work
         rdf:about="">
        <dc:format>image/svg+xml</dc:format>
        <dc:type
           rdf:resource="http://purl.org/dc/dcmitype/StillImage" />
        <dc:title></dc:title>
      </cc:Work>
    </rdf:RDF>
  </metadata>
  <g
     inkscape:groupmode="layer"
     id="layer2"
     inkscape:label="letras"
     style="display:inline"
     transform="translate(0,-141.71888)">
    <path
       style="fill:#ffffff;fill-opacity:1;fill-rule:evenodd;stroke:none"
       d="m 0,141.71888 0,212.625 0,70.84375 17.71875,0 0,-24 0,-46.84375 c 0,-29.35372 23.77128,-53.15625 53.125,-53.15625 29.35372,0 53.15625,23.80253 53.15625,53.15625 l 0,46.84375 0,24 17.71875,0 0,-70.84375 c 0,-39.13829 -31.73671,-70.875 -70.875,-70.875 -21.16771,0 -40.13968,9.28552 -53.125,24 l 0,-165.75 -17.71875,0 z"
       id="path1"
       inkscape:connector-curvature="0" />
    <path
       inkscape:connector-curvature="0"
       id="path2"
       d="m 177.15543,425.19699 -17.71654,0 0,-141.73228 17.71654,0 z"
       style="fill:#ffffff;fill-opacity:1;fill-rule:evenodd;stroke:none;display:inline" />
    <path
       style="fill:#ffffff;fill-opacity:1;fill-rule:evenodd;stroke:none"
       d="m 265.74852,283.46888 c -39.13829,0 -70.875,31.73671 -70.875,70.875 l 0,212.59375 17.71875,0 0,-165.75 c 12.98532,14.71448 31.98854,24 53.15625,24 39.13829,0 70.875,-31.70546 70.875,-70.84375 0,-39.13829 -31.73671,-70.875 -70.875,-70.875 z m 0,17.71875 c 29.35372,0 53.15625,23.80253 53.15625,53.15625 0,29.35372 -23.80253,53.125 -53.15625,53.125 -29.35372,0 -53.15625,-23.77128 -53.15625,-53.125 0,-29.35372 23.80253,-53.15625 53.15625,-53.15625 z"
       id="path3"
       inkscape:connector-curvature="0" />
    <path
       id="path4"
       d="m 407.29847,283.65638 c -39.0393,0 -70.6875,31.64825 -70.6875,70.6875 0,39.03926 31.6482,70.6875 70.6875,70.6875 39.0393,0 70.697,-31.64752 70.7188,-70.71875 l -17.6563,0 c -0.088,29.28792 -23.8065,53 -53.0625,53 -13.8398,0 -26.4075,-5.30947 -35.8438,-14 l 97.125,-74.25 c -12.693,-21.95075 -36.0272,-35.40625 -61.2812,-35.40625 z m 0,17.71875 c 13.5293,0 26.5609,5.16994 36.375,14.4375 l -83.1562,63.375 c -3.9421,-7.40964 -6.1876,-15.86527 -6.1876,-24.84375 0,-29.25595 23.7128,-52.96875 52.9688,-52.96875 z"
       style="fill:#ffffff;fill-opacity:1;stroke:none"
       inkscape:connector-curvature="0" />
    <path
       style="fill:#ffffff;fill-opacity:1;fill-rule:evenodd;stroke:none"
       d="m 549.18629,283.46888 c -39.1383,0 -70.8437,31.73671 -70.8437,70.875 l 0,70.84375 17.7187,0 0,-24 0,-46.84375 c 0,-29.35372 23.7713,-53.15625 53.125,-53.15625 29.3537,0 53.1562,23.80253 53.1562,53.15625 l 17.7188,0 c 0,-39.13829 -31.7367,-70.875 -70.875,-70.875 z"
       id="path5"
       inkscape:connector-curvature="0" />
    <path
       inkscape:connector-curvature="0"
       id="path6"
       d="m 690.93719,425.19698 c -39.1382,0 -70.8749,-31.73671 -70.8749,-70.875 l 0,-212.59375 17.7187,0 0,165.75 c 12.9853,-14.71448 31.9885,-24 53.1562,-24 39.1383,0 70.875,31.70546 70.875,70.84375 0,39.13829 -31.7367,70.875 -70.875,70.875 z m 0,-17.71875 c 29.3538,0 53.1563,-23.80253 53.1563,-53.15625 0,-29.35372 -23.8025,-53.125 -53.1563,-53.125 -29.3537,0 -53.1562,23.77128 -53.1562,53.125 0,29.35372 23.8025,53.15625 53.1562,53.15625 z"
       style="fill:#ffffff;fill-opacity:1;fill-rule:evenodd;stroke:none" />
    <path
       inkscape:connector-curvature="0"
       id="path7"
       d="m 829.62691,264.64212 c -3.47013,-3.47012 -3.47014,-9.05739 -2e-5,-12.5275 l 37.58245,-37.58245 c 3.47011,-3.47012 9.05738,-3.47011 12.5275,2e-5 3.47006,3.47005 3.47007,9.05732 -5e-5,12.52743 l -37.58245,37.58245 c -3.47011,3.47012 -9.05738,3.47011 -12.52743,5e-5 z"
       style="fill:#ffffff;fill-opacity:1;fill-rule:evenodd;stroke:none;display:inline" />
    <path
       style="fill:#ffffff;fill-opacity:1;fill-rule:evenodd;stroke:none"
       d="m 832.68219,283.47823 c -39.1383,0 -70.875,31.70546 -70.875,70.84375 0,39.13829 31.7367,70.875 70.875,70.875 39.1382,0 70.875,-31.73671 70.875,-70.875 0,-39.13829 -31.7368,-70.84375 -70.875,-70.84375 z m 0,17.71875 c 29.3537,0 53.1562,23.77128 53.1562,53.125 0,29.35372 -23.8025,53.15625 -53.1562,53.15625 -29.3538,0 -53.1563,-23.80253 -53.1563,-53.15625 0,-29.35372 23.8025,-53.125 53.1563,-53.125 z"
       id="path8"
       inkscape:connector-curvature="0" />
    <path
       id="path9"
       d="m 974.37069,283.46888 c -39.1383,0 -70.8438,31.73671 -70.8438,70.875 l 0,70.84375 17.7188,0 0,-24 0,-46.84375 c 0,-29.35372 23.7713,-53.15625 53.125,-53.15625 29.35371,0 53.15621,23.80253 53.15621,53.15625 l 17.7188,0 c 0,-39.13829 -31.7367,-70.875 -70.87501,-70.875 z"
       style="fill:#ffffff;fill-opacity:1;fill-rule:evenodd;stroke:none"
       inkscape:connector-curvature="0" />
    <path
       style="fill:#ffffff;fill-opacity:1;stroke:none"
       d="m 1116.125,283.81263 c -39.0393,0 -70.6875,31.64825 -70.6875,70.6875 0,39.03926 31.6482,70.6875 70.6875,70.6875 39.0393,0 70.697,-31.64752 70.7188,-70.71875 l -17.6563,0 c -0.088,29.28792 -23.8065,53 -53.0625,53 -13.8398,0 -26.4075,-5.30947 -35.8438,-14 l 97.125,-74.25 c -12.693,-21.95075 -36.0272,-35.40625 -61.2812,-35.40625 z m 0,17.71875 c 13.5293,0 26.5609,5.16994 36.375,14.4375 l -83.1562,63.375 c -3.9421,-7.40964 -6.1876,-15.86527 -6.1876,-24.84375 0,-29.25595 23.7128,-52.96875 52.9688,-52.96875 z"
       id="path10"
       inkscape:connector-curvature="0" />
    <path
       style="fill:#ffffff;fill-opacity:1;fill-rule:evenodd;stroke:none"
       d="m 1257.879,283.46888 c -39.1383,0 -70.875,31.73671 -70.875,70.875 0,39.13829 31.7367,70.84375 70.875,70.84375 21.1677,0 40.1709,-9.28552 53.1563,-24 l 0,24 17.7187,0 0,-70.84375 c 0,-39.13829 -31.7367,-70.875 -70.875,-70.875 z m 0,17.71875 c 29.3537,0 53.1562,23.80253 53.1563,53.15625 0,29.35372 -23.8026,53.125 -53.1563,53.125 -29.3537,0 -53.1563,-23.77128 -53.1563,-53.125 0,-29.35372 23.8026,-53.15625 53.1563,-53.15625 z"
       id="path11"
       inkscape:connector-curvature="0" />
  </g>
</svg>
